<svg width="16" height="16" viewBox="0 0 16 16" fill="none" xmlns="http://www.w3.org/2000/svg">
<path d="M6.82981 1C3.617 1 1 3.617 1 6.82981C1 10.0426 3.617 12.6596 6.82981 12.6596C8.22693 12.6596 9.51 12.1635 10.5156 11.3399L13.9964 14.8208C14.0501 14.8767 14.1144 14.9214 14.1856 14.9521C14.2568 14.9829 14.3335 14.9992 14.411 15C14.4886 15.0008 14.5655 14.9861 14.6373 14.9567C14.7091 14.9274 14.7744 14.8841 14.8292 14.8292C14.8841 14.7744 14.9274 14.7091 14.9567 14.6373C14.9861 14.5655 15.0008 14.4886 15 14.411C14.9992 14.3335 14.9829 14.2568 14.9521 14.1856C14.9214 14.1144 14.8767 14.0501 14.8208 13.9964L11.3399 10.5156C12.1635 9.51 12.6596 8.22693 12.6596 6.82981C12.6596 3.617 10.0426 1 6.82981 1ZM6.82981 2.16596C9.41249 2.16596 11.4937 4.24713 11.4937 6.82981C11.4937 9.41249 9.41249 11.4937 6.82981 11.4937C4.24713 11.4937 2.16596 9.41249 2.16596 6.82981C2.16596 4.24713 4.24713 2.16596 6.82981 2.16596Z" fill="#435C60" stroke="#435C60" stroke-width="0.5"/>
</svg>
