<svg width="36" height="35" viewBox="0 0 36 35" fill="none" xmlns="http://www.w3.org/2000/svg">
<g clip-path="url(#clip0_1753_53)">
<path d="M29.5893 33.3035C32.3946 33.3035 34.6687 31.0293 34.6687 28.224C34.6687 25.4187 32.3946 23.1445 29.5893 23.1445C26.7839 23.1445 24.5098 25.4187 24.5098 28.224C24.5098 31.0293 26.7839 33.3035 29.5893 33.3035Z" fill="#509BCB"/>
<path d="M29.5897 26.5283C28.6564 26.5283 27.8936 27.2911 27.8936 28.2245C27.8936 29.1578 28.6564 29.9206 29.5897 29.9206C30.523 29.9206 31.2859 29.1578 31.2859 28.2245C31.2859 27.2911 30.523 26.5283 29.5897 26.5283ZM29.5897 28.7899C29.2756 28.7899 29.0243 28.5386 29.0243 28.2245C29.0243 27.9104 29.2756 27.6591 29.5897 27.6591C29.9038 27.6591 30.1551 27.9104 30.1551 28.2245C30.1551 28.5386 29.9038 28.7899 29.5897 28.7899Z" fill="#062D4F"/>
<path d="M29.5896 31.0513C31.1509 31.0513 32.4165 29.7857 32.4165 28.2244C32.4165 26.6631 31.1509 25.3975 29.5896 25.3975C28.0284 25.3975 26.7627 26.6631 26.7627 28.2244C26.7627 29.7857 28.0284 31.0513 29.5896 31.0513Z" fill="white"/>
<path d="M29.5893 24.2754C27.4086 24.2754 25.6406 26.0523 25.6406 28.2241C25.6406 30.3959 27.4175 32.1728 29.5893 32.1728C31.7611 32.1728 33.5381 30.3959 33.5381 28.2241C33.5381 26.0523 31.7611 24.2754 29.5893 24.2754ZM29.5893 31.051C28.0368 31.051 26.7624 29.7856 26.7624 28.2241C26.7624 26.6626 28.0278 25.3972 29.5893 25.3972C31.1509 25.3972 32.4163 26.6626 32.4163 28.2241C32.4163 29.7856 31.1509 31.051 29.5893 31.051Z" fill="#172851"/>
<path d="M31.2857 22.2564V19.7615C31.2857 19.1423 30.7831 18.6308 30.1549 18.6308V5.07949C30.1549 2.27949 27.8754 0 25.0754 0C22.2754 0 19.996 2.27949 19.996 5.07949V28.7897C19.996 31.5897 17.7165 33.8692 14.9165 33.8692C12.1165 33.8692 9.83698 31.5897 9.83698 28.7897V26.5282C10.4562 26.5282 10.9678 26.0256 10.9678 25.3974V22.9654C14.8267 22.1756 17.7434 18.7564 17.7434 14.6641V5.07949C17.7434 2.89872 15.9665 1.13077 13.7947 1.13077H13.2293C13.2293 0.511538 12.7267 0 12.0985 0H10.4024C9.9716 0 9.57673 0.170513 9.2716 0.439744C8.97545 0.170513 8.58057 0 8.14083 0H6.44468C5.82545 0 5.31391 0.502564 5.31391 1.13077H4.74852C2.57673 1.13077 0.799805 2.89872 0.799805 5.07949V14.6731C0.799805 18.7654 3.71647 22.1846 7.57545 22.9744V25.4064C7.57545 26.0256 8.07801 26.5372 8.70622 26.5372V28.7987C8.70622 32.2269 11.4883 35.009 14.9165 35.009C18.3447 35.009 21.1267 32.2269 21.1267 28.7987V5.07949C21.1267 2.89872 22.9037 1.13077 25.0754 1.13077C27.2472 1.13077 29.0242 2.90769 29.0242 5.07949V18.6308C28.4049 18.6308 27.8934 19.1333 27.8934 19.7615V22.2564C25.2908 22.9923 23.3793 25.3885 23.3793 28.2244C23.3793 31.6526 26.1613 34.4346 29.5896 34.4346C33.0178 34.4346 35.7998 31.6526 35.7998 28.2244C35.7998 25.3885 33.8883 22.9923 31.2857 22.2564ZM10.3934 1.13077H12.0895V2.26154H10.3934C10.0793 2.26154 9.82801 2.01026 9.82801 1.69615C9.82801 1.38205 10.0793 1.13077 10.3934 1.13077ZM6.44468 1.13077H8.14083C8.45493 1.13077 8.70622 1.38205 8.70622 1.69615C8.70622 2.01026 8.45493 2.26154 8.14083 2.26154H6.44468V1.13077ZM4.74852 2.26154H5.31391C5.31391 2.88077 5.81647 3.39231 6.44468 3.39231H8.14083C8.5716 3.39231 8.96647 3.22179 9.2716 2.95256C9.56775 3.22179 9.96263 3.39231 10.4024 3.39231H12.0985C12.7178 3.39231 13.2293 2.88974 13.2293 2.26154H13.7947C15.3472 2.26154 16.6216 3.52692 16.6216 5.08846V11.2987H15.4908C14.8716 11.2987 14.3601 11.8013 14.3601 12.4295V14.691C14.3601 17.491 12.0806 19.7705 9.28057 19.7705C6.48057 19.7705 4.20109 17.491 4.20109 14.691V12.4295C4.20109 11.8103 3.69852 11.2987 3.07032 11.2987H1.93955V5.08846C1.93955 3.5359 3.20493 2.26154 4.76647 2.26154H4.74852ZM1.9216 14.6821V12.4205H3.05237V14.6821C3.05237 18.1103 5.83442 20.8923 9.26263 20.8923C12.6908 20.8923 15.4729 18.1103 15.4729 14.6821V12.4205H16.6037V14.6821C16.6037 18.7295 13.3101 22.0231 9.26263 22.0231C5.21519 22.0231 1.93057 18.7205 1.93057 14.6731L1.9216 14.6821ZM9.26263 23.1538C9.45109 23.1538 9.63955 23.1359 9.82801 23.1269V25.4154H8.69724V23.1269C8.8857 23.1359 9.07416 23.1538 9.26263 23.1538ZM29.0242 19.7705H30.1549V22.059C29.9665 22.041 29.778 22.0321 29.5896 22.0321C29.4011 22.0321 29.2126 22.041 29.0242 22.059V19.7705ZM29.5896 33.3218C26.7896 33.3218 24.5101 31.0423 24.5101 28.2423C24.5101 25.4423 26.7896 23.1628 29.5896 23.1628C32.3895 23.1628 34.669 25.4423 34.669 28.2423C34.669 31.0423 32.3895 33.3218 29.5896 33.3218Z" fill="#172851"/>
<path d="M1.93066 14.6727V12.4111H3.06143V14.6727C3.06143 18.1009 5.84348 20.8829 9.27169 20.8829C12.6999 20.8829 15.4819 18.1009 15.4819 14.6727V12.4111H16.6127V14.6727C16.6127 18.7201 13.3191 22.0137 9.27169 22.0137C5.22425 22.0137 1.93066 18.7201 1.93066 14.6727Z" fill="white"/>
<path d="M10.3935 1.13086H12.0897V2.26163H10.3935C10.0794 2.26163 9.82812 2.01035 9.82812 1.69624C9.82812 1.38214 10.0794 1.13086 10.3935 1.13086Z" fill="#509BCB"/>
<path d="M6.44434 1.13086H8.14049C8.45459 1.13086 8.70587 1.38214 8.70587 1.69624C8.70587 2.01035 8.45459 2.26163 8.14049 2.26163H6.44434V1.13086Z" fill="#509BCB"/>
</g>
<defs>
<clipPath id="clip0_1753_53">
<rect width="35" height="35" fill="white" transform="translate(0.799805)"/>
</clipPath>
</defs>
</svg>
