<svg width="37" height="36" viewBox="0 0 37 36" fill="none" xmlns="http://www.w3.org/2000/svg">
<g clip-path="url(#clip0_1753_107)">
<path d="M7.79961 32.4307V27.5107V3.5707C7.79961 2.7807 7.53961 2.0607 7.09961 1.4707H27.5296C28.6896 1.4707 29.6296 2.4107 29.6296 3.5707V32.6707C29.6296 32.7407 29.6396 32.8007 29.6596 32.8607C29.7396 33.4807 29.9696 34.0507 30.3296 34.5307H9.89961C8.73961 34.5307 7.79961 33.5907 7.79961 32.4307Z" fill="white"/>
<path d="M18.7195 4.62012L16.2795 4.85012L13.1295 7.38012L12.6895 10.6701L13.6595 13.0601L18.7195 10.1501V4.62012Z" fill="#509BCB"/>
<path d="M18.7202 4.04004V10.15L13.6602 13.06L15.2602 14.73L18.7202 15.97L22.2302 14.99L23.7902 13.06L24.3202 9.73004L23.7902 7.16004L21.1102 4.62004L18.7202 4.04004Z" fill="#47AEC3"/>
<path d="M18.72 16.6404C22.31 16.6404 25.23 13.7304 25.23 10.1504C25.23 6.57039 22.31 3.65039 18.72 3.65039C15.13 3.65039 12.21 6.56039 12.21 10.1504C12.21 13.7404 15.13 16.6404 18.72 16.6404ZM18.72 5.09039C21.51 5.09039 23.79 7.36039 23.79 10.1504C23.79 12.9404 21.52 15.2004 18.72 15.2004C15.92 15.2004 13.66 12.9304 13.66 10.1504C13.66 7.36039 15.93 5.09039 18.72 5.09039Z" fill="#062D4F"/>
<path d="M11.3001 21.2798H26.1401C26.5401 21.2798 26.8601 20.9598 26.8601 20.5598C26.8601 20.1598 26.5401 19.8398 26.1401 19.8398H11.3001C10.9001 19.8398 10.5801 20.1598 10.5801 20.5598C10.5801 20.9598 10.9001 21.2798 11.3001 21.2798Z" fill="#509BCB"/>
<path d="M24.5097 23.8906H12.9397C12.5397 23.8906 12.2197 24.2106 12.2197 24.6106C12.2197 25.0106 12.5397 25.3306 12.9397 25.3306H24.5097C24.9097 25.3306 25.2297 25.0106 25.2297 24.6106C25.2297 24.2106 24.9097 23.8906 24.5097 23.8906Z" fill="#509BCB"/>
<path d="M22.43 27.9404H15.01C14.61 27.9404 14.29 28.2604 14.29 28.6604C14.29 29.0604 14.61 29.3804 15.01 29.3804H22.43C22.83 29.3804 23.15 29.0604 23.15 28.6604C23.15 28.2604 22.83 27.9404 22.43 27.9404Z" fill="#509BCB"/>
<path d="M13.8497 13.4801C13.9597 13.4801 14.0797 13.4501 14.1897 13.4001L19.0597 10.7901C19.0597 10.7901 19.0797 10.7801 19.0897 10.7701C19.1097 10.7601 19.1297 10.7401 19.1497 10.7301C19.1697 10.7201 19.1897 10.7001 19.1997 10.6901C19.2197 10.6701 19.2297 10.6601 19.2497 10.6401C19.2697 10.6201 19.2797 10.6001 19.2897 10.5901C19.2997 10.5701 19.3197 10.5501 19.3297 10.5301C19.3397 10.5101 19.3497 10.4901 19.3597 10.4701C19.3697 10.4501 19.3797 10.4301 19.3897 10.4101C19.3897 10.3901 19.3997 10.3701 19.4097 10.3401C19.4097 10.3201 19.4197 10.3001 19.4197 10.2701C19.4197 10.2401 19.4197 10.2201 19.4197 10.1901C19.4197 10.1801 19.4197 10.1701 19.4197 10.1501V5.34012C19.4197 4.94012 19.0997 4.62012 18.6997 4.62012C18.2997 4.62012 17.9797 4.94012 17.9797 5.34012V9.72012L13.4897 12.1301C13.1397 12.3201 12.9997 12.7501 13.1897 13.1001C13.3197 13.3401 13.5697 13.4801 13.8297 13.4801H13.8497Z" fill="#062D4F"/>
<path d="M35.9997 26.7903H31.0797V3.57027C31.0797 1.62027 29.4897 0.0302734 27.5397 0.0302734H4.25973C2.30973 0.0302734 0.719727 1.62027 0.719727 3.57027V8.49027C0.719727 8.89027 1.03973 9.21027 1.43973 9.21027H6.35973V32.6703C6.35973 32.7403 6.36973 32.8003 6.38973 32.8603C6.59973 34.6103 8.09973 35.9703 9.89973 35.9703H33.1697C35.1197 35.9703 36.7097 34.3803 36.7097 32.4303V27.5103C36.7097 27.1103 36.3897 26.7903 35.9897 26.7903H35.9997ZM4.25973 1.47027C5.41973 1.47027 6.35973 2.41027 6.35973 3.57027V7.77027H2.15973V3.57027C2.15973 2.41027 3.09973 1.47027 4.25973 1.47027ZM7.79973 32.4303V27.5103V3.57027C7.79973 2.78027 7.53973 2.06027 7.09973 1.47027H27.5297C28.6897 1.47027 29.6297 2.41027 29.6297 3.57027V32.6703C29.6297 32.7403 29.6397 32.8003 29.6597 32.8603C29.7397 33.4803 29.9697 34.0503 30.3297 34.5303H9.89973C8.73973 34.5303 7.79973 33.5903 7.79973 32.4303ZM33.1797 34.5303C32.0197 34.5303 31.0797 33.5903 31.0797 32.4303V28.2303H35.2797V32.4303C35.2797 33.5903 34.3397 34.5303 33.1797 34.5303Z" fill="#062D4F"/>
</g>
<defs>
<clipPath id="clip0_1753_107">
<rect width="36" height="35.94" fill="white" transform="translate(0.719727 0.0302734)"/>
</clipPath>
</defs>
</svg>
