<svg width="18" height="17" viewBox="0 0 18 17" fill="none" xmlns="http://www.w3.org/2000/svg">
<path d="M8.99935 0C4.39935 0 0.666016 3.73333 0.666016 8.33333C0.666016 12.9333 4.39935 16.6667 8.99935 16.6667C13.5993 16.6667 17.3327 12.9333 17.3327 8.33333C17.3327 3.73333 13.5993 0 8.99935 0ZM9.83268 14.1667H8.16602V12.5H9.83268V14.1667ZM11.5577 7.70833L10.8077 8.475C10.2077 9.08333 9.83268 9.58333 9.83268 10.8333H8.16602V10.4167C8.16602 9.5 8.54102 8.66667 9.14102 8.05833L10.1743 7.00833C10.4827 6.70833 10.666 6.29167 10.666 5.83333C10.666 4.91667 9.91602 4.16667 8.99935 4.16667C8.08268 4.16667 7.33268 4.91667 7.33268 5.83333H5.66602C5.66602 3.99167 7.15768 2.5 8.99935 2.5C10.841 2.5 12.3327 3.99167 12.3327 5.83333C12.3327 6.56667 12.0327 7.23333 11.5577 7.70833Z" fill="black"/>
</svg>
