<svg width="37" height="36" viewBox="0 0 37 36" fill="none" xmlns="http://www.w3.org/2000/svg">
<g clip-path="url(#clip0_1753_66)">
<circle cx="18.2998" cy="18" r="11" fill="white"/>
<path d="M18.2994 6.1875C11.7862 6.1875 6.4873 11.4866 6.4873 18C6.4873 24.5134 11.7862 29.8125 18.2994 29.8125C24.8126 29.8125 30.1115 24.5134 30.1115 18C30.1115 11.4866 24.8126 6.1875 18.2994 6.1875ZM18.2994 28.6875C12.4065 28.6875 7.61226 23.8931 7.61226 18C7.61226 12.1069 12.4065 7.3125 18.2994 7.3125C24.1922 7.3125 28.9865 12.1069 28.9865 18C28.9865 23.8931 24.1922 28.6875 18.2994 28.6875Z" fill="#062D4F"/>
<path d="M18.2995 9C13.3374 9 9.2998 13.0378 9.2998 18C9.2998 22.9622 13.3374 27 18.2995 27C23.2615 27 27.2992 22.9622 27.2992 18C27.2992 13.0378 23.2615 9 18.2995 9ZM18.2995 25.875C13.9571 25.875 10.4248 22.3425 10.4248 18C10.4248 13.6575 13.9571 10.125 18.2995 10.125C22.6418 10.125 26.1742 13.6575 26.1742 18C26.1742 22.3425 22.6418 25.875 18.2995 25.875Z" fill="#509BCB"/>
<path d="M23.9244 15.75H20.5495V12.375C20.5495 12.0639 20.2982 11.8125 19.987 11.8125H16.6121C16.301 11.8125 16.0497 12.0639 16.0497 12.375V15.75H12.6748C12.3637 15.75 12.1123 16.0014 12.1123 16.3125V19.6875C12.1123 19.9986 12.3637 20.25 12.6748 20.25H16.0497V23.625C16.0497 23.9361 16.301 24.1875 16.6121 24.1875H19.987C20.2982 24.1875 20.5495 23.9361 20.5495 23.625V20.25H23.9244C24.2355 20.25 24.4869 19.9986 24.4869 19.6875V16.3125C24.4869 16.0014 24.2355 15.75 23.9244 15.75Z" fill="#062D4F"/>
<path d="M24.9977 3.51096C25.1417 3.51096 25.2857 3.45568 25.3956 3.34639L26.1908 2.55118L27.7818 4.14225L26.1908 5.73332C25.971 5.95318 25.971 6.30868 26.1908 6.52854C26.3008 6.63846 26.4448 6.69311 26.5887 6.69311C26.7327 6.69311 26.8767 6.63782 26.9867 6.52854L27.3846 6.13061L31.7597 10.5059C31.8696 10.6158 32.0136 10.6705 32.1576 10.6705C32.3016 10.6705 32.4456 10.6152 32.5555 10.5059L33.3514 9.71004L35.3403 11.699C35.4502 11.809 35.5942 11.8636 35.7382 11.8636C35.8822 11.8636 36.0262 11.8083 36.1361 11.699C36.356 11.4792 36.356 11.1237 36.1361 10.9038L34.1472 8.91482L34.943 8.11897C35.1629 7.89911 35.1629 7.54361 34.943 7.32375L30.5679 2.94846L30.9658 2.55054C31.1857 2.33068 31.1857 1.97518 30.9658 1.75532C30.746 1.53546 30.3905 1.53546 30.1706 1.75532L28.5796 3.34639L26.9886 1.75532L27.7838 0.960107C28.0036 0.74025 28.0036 0.38475 27.7838 0.164893C27.5639 -0.0549643 27.2084 -0.0549643 26.9886 0.164893L24.6024 2.55118C24.3825 2.77104 24.3825 3.12654 24.6024 3.34639C24.7123 3.45632 24.8563 3.51096 25.0003 3.51096H24.999H24.9977ZM30.566 4.53954L29.7701 5.33539L30.5653 6.13061L31.3611 5.33475L32.1563 6.12996L31.3605 6.92582L32.1557 7.72104L32.9515 6.92518L33.7473 7.72104L32.1563 9.31211L28.1791 5.33475L29.7701 3.74368L30.566 4.53954Z" fill="#172851"/>
<path d="M6.06088 27.0568C4.74436 25.7402 2.60437 25.7402 1.28913 27.0568C0.650792 27.6938 0.299805 28.5418 0.299805 29.443C0.299805 30.3443 0.650792 31.1916 1.28848 31.8293L4.46987 35.0108C5.10756 35.6485 5.95546 35.9995 6.85607 35.9995C7.75668 35.9995 8.60458 35.6485 9.24227 35.0108C10.5575 33.6949 10.5575 31.5535 9.24227 30.2389L6.06024 27.0568H6.06088ZM1.42476 29.443C1.42476 28.8426 1.65876 28.2775 2.08367 27.852C2.52208 27.4135 3.09806 27.1937 3.67468 27.1937C4.25131 27.1937 4.82729 27.4135 5.2657 27.852L6.45944 29.0458L3.27741 32.2279L2.08431 31.0348C1.6594 30.6098 1.42541 30.0441 1.42541 29.4437L1.42476 29.443ZM8.44708 34.2156C7.59662 35.0661 6.11488 35.0661 5.26506 34.2156L4.07196 33.0225L7.25398 29.8403L8.44773 31.0341C9.3252 31.9116 9.3252 33.3388 8.44773 34.2156H8.44708Z" fill="#172851"/>
<path d="M1.98724 11.25H6.48708C7.41726 11.25 8.17452 10.4927 8.17452 9.5625V3.9375C8.17452 3.00729 7.41726 2.25 6.48708 2.25V0.5625C6.48708 0.251357 6.23574 0 5.9246 0H2.54972C2.23859 0 1.98724 0.251357 1.98724 0.5625V2.25C1.05706 2.25 0.299805 3.00729 0.299805 3.9375V9.5625C0.299805 10.4927 1.05706 11.25 1.98724 11.25ZM3.1122 1.125H5.36212V2.25H3.1122V1.125ZM1.42476 3.9375C1.42476 3.627 1.67676 3.375 1.98724 3.375H6.48708C6.79757 3.375 7.04956 3.627 7.04956 3.9375V9.5625C7.04956 9.873 6.79757 10.125 6.48708 10.125H1.98724C1.67676 10.125 1.42476 9.873 1.42476 9.5625V3.9375Z" fill="#172851"/>
<path d="M3.67476 8.4375H4.79972V7.3125H5.92468V6.1875H4.79972V5.0625H3.67476V6.1875H2.5498V7.3125H3.67476V8.4375Z" fill="#172851"/>
<path d="M31.7987 27C29.3173 27 27.2988 29.0186 27.2988 31.5C27.2988 33.9814 29.3173 36 31.7987 36C34.28 36 36.2985 33.9814 36.2985 31.5C36.2985 29.0186 34.28 27 31.7987 27ZM28.4238 31.5C28.4238 29.8311 29.6426 28.4451 31.2362 28.1758V34.8242C29.6426 34.5555 28.4238 33.1695 28.4238 31.5ZM32.3611 34.8242V28.1758C33.9547 28.4445 35.1735 29.8305 35.1735 31.5C35.1735 33.1695 33.9547 34.5549 32.3611 34.8242Z" fill="#172851"/>
<path d="M18.2993 2.25033C18.6439 2.25033 18.9865 2.26191 19.3246 2.28376L19.3973 1.16069C19.0347 1.13691 18.667 1.13369 18.2774 1.12598C17.8737 1.14076 17.4758 1.16841 17.0869 1.20376L17.1904 2.32426C17.5613 2.28955 17.938 2.26448 18.3006 2.24969H18.2999L18.2993 2.25033Z" fill="#172851"/>
<path d="M33.7811 24.7218C34.0858 24.021 34.3455 23.2908 34.5525 22.5508L33.4693 22.248C33.2758 22.9391 33.0341 23.6199 32.75 24.2737L33.7817 24.723L33.7811 24.7218Z" fill="#172851"/>
<path d="M15.0505 2.63994L14.8223 1.53809C14.0606 1.69559 13.3162 1.89744 12.6084 2.13723L12.9697 3.20309C13.6337 2.97809 14.3338 2.78844 15.0505 2.63994Z" fill="#172851"/>
<path d="M35.0097 15.6373C34.9037 14.8788 34.743 14.1215 34.5347 13.3848L33.4521 13.6914C33.6476 14.3793 33.7961 15.0864 33.8951 15.7936L35.0085 15.638H35.0091L35.0097 15.6373Z" fill="#172851"/>
<path d="M35.1736 17.9998V17.9336H34.0486V17.9998C34.0486 18.7172 33.9997 19.4385 33.9033 20.1444L35.018 20.2961C35.1208 19.5407 35.1729 18.768 35.1729 18.0005L35.1736 17.9998Z" fill="#172851"/>
<path d="M23.8998 2.07618C23.1772 1.82225 22.4303 1.61589 21.6788 1.46289L21.4551 2.56475C22.1558 2.70746 22.8526 2.89968 23.5269 3.13753L23.9004 2.07618H23.8998Z" fill="#172851"/>
<path d="M3.17748 13.764L2.08852 13.4805C1.89631 14.2185 1.7491 14.9777 1.65332 15.7369L2.76928 15.8783C2.85928 15.166 2.99684 14.455 3.17684 13.7633L3.17748 13.764Z" fill="#172851"/>
<path d="M14.8906 34.4762C15.6228 34.6247 16.3839 34.7346 17.154 34.8028L17.2543 33.6823C16.5254 33.6173 15.8054 33.5132 15.1137 33.373L14.8913 34.4762H14.8906Z" fill="#172851"/>
<path d="M19.3887 33.7134L19.4658 34.8365C20.2301 34.7844 20.9983 34.679 21.7466 34.5228L21.5184 33.4209C20.8196 33.5668 20.1029 33.6652 19.3893 33.7134H19.3887Z" fill="#172851"/>
<path d="M23.585 32.841L23.9629 33.901C24.6816 33.6445 25.392 33.3353 26.0727 32.9818L25.554 31.9834C24.9182 32.3138 24.2554 32.6025 23.585 32.841Z" fill="#172851"/>
<path d="M10.9852 4.02591L10.4838 3.01855C9.79207 3.36313 9.12352 3.75655 8.49805 4.18855L9.13767 5.11427C9.71943 4.71184 10.3404 4.34605 10.9845 4.02527L10.9852 4.02591Z" fill="#172851"/>
<path d="M10.5475 33.0122C11.227 33.3465 11.9425 33.6396 12.6747 33.8846L13.0314 32.8181C12.3462 32.5892 11.6776 32.3141 11.0425 32.0029L10.5469 33.0129L10.5475 33.0122Z" fill="#172851"/>
<path d="M1.66181 20.3233L2.77648 20.178C2.68456 19.4702 2.63763 18.747 2.6357 18.0283L1.51074 18.0309C1.51267 18.7978 1.56281 19.5686 1.66117 20.3233H1.66181Z" fill="#172851"/>
<path d="M3.88162 24.3289C3.6097 23.6732 3.37764 22.9872 3.19314 22.291L2.10547 22.5803C2.30346 23.3247 2.55095 24.0576 2.84216 24.7602L3.88162 24.3295V24.3289Z" fill="#172851"/>
</g>
<defs>
<clipPath id="clip0_1753_66">
<rect width="36" height="36" fill="white" transform="translate(0.299805)"/>
</clipPath>
</defs>
</svg>
