<svg width="40" height="34" viewBox="0 0 40 34" fill="none" xmlns="http://www.w3.org/2000/svg">
<path d="M10.4443 2.51758H5.80664V15.6311H10.4443V2.51758Z" fill="white"/>
<path d="M22.184 2.66211H17.4014V12.0289H22.184V2.66211Z" fill="white"/>
<path d="M33.7781 2.37402H28.8506V14.1906H33.7781V2.37402Z" fill="white"/>
<path d="M37.836 28.889V9.14659C37.836 8.71428 37.5462 8.28196 36.9665 8.28196H34.5027V2.66188H34.9375C35.3723 2.66188 35.8071 2.37367 35.8071 1.79725C35.8071 1.22083 35.5172 0.932617 34.9375 0.932617H27.4013C26.9665 0.932617 26.5317 1.22083 26.5317 1.79725C26.5317 2.37367 26.8215 2.66188 27.4013 2.66188H27.836V8.28196H23.0534V2.66188H23.4882C23.923 2.66188 24.3578 2.37367 24.3578 1.79725C24.3578 1.22083 24.0679 0.932617 23.4882 0.932617H15.952C15.5172 0.932617 15.0824 1.22083 15.0824 1.79725C15.0824 2.37367 15.3723 2.66188 15.952 2.66188H16.3868V8.28196H12.0389V2.66188H12.4737C12.9085 2.66188 13.3433 2.37367 13.3433 1.79725C13.3433 1.22083 12.9085 1.07672 12.4737 1.07672H4.93749C4.5027 1.07672 4.21285 1.36493 4.21285 1.79725C4.21285 2.22956 4.5027 2.66188 5.08241 2.66188H5.5172V8.28196H3.05343C2.47372 8.28196 2.18386 8.57017 2.18386 9.14659V29.0331H0.299805V33.068H39.7201V29.0331H37.836V28.889ZM32.9085 2.66188V13.6138H29.7201V2.66188H32.9085ZM18.4157 2.66188H21.7491V12.0287H18.4157V2.66188ZM7.1114 2.66188H10.2998V15.199H7.1114V2.66188ZM3.92299 9.86712H5.5172V20.8191C5.5172 22.5483 6.96647 24.1335 8.85053 24.1335C10.7346 24.1335 12.1839 22.6924 12.1839 20.8191V9.86712H16.8215V20.8191C16.8215 22.5483 18.2708 24.1335 20.1549 24.1335C22.0389 24.1335 23.4882 22.6924 23.4882 20.8191V9.86712H28.2708V20.8191C28.2708 22.5483 29.7201 24.1335 31.6042 24.1335C33.4882 24.1335 34.9375 22.6924 34.9375 20.8191V9.86712H36.5317V28.889H3.92299V9.86712Z" fill="#172851"/>
<path d="M7.11133 14.9111V20.5312C7.11133 21.3958 7.83597 22.1164 8.70553 22.1164H8.85046C9.72002 22.1164 10.4447 21.3958 10.4447 20.5312V14.9111H7.11133Z" fill="#509BCB"/>
<path d="M29.7197 13.6143V20.5313C29.7197 21.3959 30.4444 22.1164 31.3139 22.1164H31.4589C32.3284 22.1164 33.0531 21.3959 33.0531 20.5313V13.6143H29.7197Z" fill="#509BCB"/>
<path d="M18.416 11.1641V20.3868C18.416 21.2514 19.1407 21.9719 20.0102 21.9719H20.1551C21.0247 21.9719 21.7493 21.2514 21.7493 20.3868V11.1641H18.416Z" fill="#509BCB"/>
</svg>
