<svg width="30" height="37" viewBox="0 0 30 37" fill="none" xmlns="http://www.w3.org/2000/svg">
<path d="M8.32679 5.30803H3.80078V33.7786H25.5927V5.46888H21.0667L21.4019 7.23824H8.15916L8.82968 4.98633L8.32679 5.30803Z" fill="white"/>
<path d="M8.49474 18.1764C8.66237 18.3372 8.83 18.3372 8.99763 18.3372C9.16526 18.3372 9.3329 18.3372 9.50053 18.1764L12.6855 15.1202C12.8531 14.9594 12.8531 14.4768 12.6855 14.316C12.5179 14.1551 12.015 14.1551 11.8473 14.316L9.16527 16.8896L7.82422 15.9245C7.65659 15.7636 7.32133 15.7636 6.98607 15.9245C6.81844 16.0853 6.81844 16.5679 6.98607 16.7287L8.49474 18.1764Z" fill="#172851"/>
<path d="M8.49445 27.5055C8.66208 27.6663 8.82971 27.6663 8.99734 27.6663C9.16497 27.6663 9.3326 27.6663 9.50023 27.5055L12.6852 24.4493C12.8528 24.2885 12.8528 23.8059 12.6852 23.6451C12.5176 23.4842 12.0147 23.4842 11.847 23.6451L9.16497 26.2187L8.15919 25.2536C7.99156 25.0927 7.48867 25.0927 7.32104 25.2536C7.1534 25.4144 7.1534 25.897 7.32104 26.0578L8.49445 27.5055Z" fill="#172851"/>
<path d="M26.9338 1.76936H20.7315L20.3962 0.482552C20.3962 0.321701 20.061 0 19.7257 0H10.0032C9.83553 0 9.50027 0.160851 9.33264 0.482552L8.99738 1.76936H2.79506C1.45402 1.76936 0.448242 2.73446 0.448242 4.02126V34.5829C0.448242 35.8697 1.45402 36.8348 2.79506 36.8348H26.9338C28.2748 36.8348 29.2806 35.8697 29.2806 34.5829V4.02126C29.2806 2.73446 28.1072 1.76936 26.9338 1.76936ZM7.65634 7.55998C7.82397 7.72083 7.99159 7.72083 8.15922 7.72083H21.5696C21.7373 7.72083 21.9049 7.72083 22.0725 7.55998C22.0725 7.55998 22.0725 7.23828 22.0725 7.07743L21.5696 5.62977H25.0899V32.9744H4.47136V5.79062H7.82397L7.48871 7.07743C7.48871 7.23828 7.48871 7.55998 7.65634 7.55998ZM10.506 1.2868H19.2228L20.7315 6.75572H8.99738L10.506 1.2868ZM28.1072 34.7437C28.1072 35.3871 27.6043 35.8697 26.9338 35.8697H2.79506C2.12454 35.8697 1.62165 35.3871 1.62165 34.7437V4.02126C1.62165 3.37786 2.12454 2.89531 2.79506 2.89531H8.82975L8.32686 4.50382H3.96847C3.46558 4.50382 3.29795 4.82552 3.29795 5.14722V33.6178C3.29795 33.9395 3.46558 34.2612 3.96847 34.2612H25.928C26.2633 34.2612 26.5985 34.1003 26.5985 33.6178V5.14722C26.5985 4.82552 26.4309 4.50382 25.928 4.50382H21.5696L21.0667 2.89531H27.1014C27.7719 2.89531 28.2748 3.37786 28.2748 4.02126C28.1072 4.02126 28.1072 34.7437 28.1072 34.7437Z" fill="#172851"/>
<path d="M22.0727 19.9453H7.48888C7.15362 19.9453 6.81836 20.1062 6.81836 20.5887C6.81836 20.9104 6.98599 21.2321 7.48888 21.2321H22.0727C22.408 21.2321 22.7432 21.0713 22.7432 20.5887C22.7432 20.267 22.5756 19.9453 22.0727 19.9453Z" fill="#509BCB"/>
<path d="M6.81836 11.2596C6.81836 11.5813 6.98599 11.903 7.48888 11.903H22.0727C22.408 11.903 22.7432 11.7422 22.7432 11.2596C22.7432 10.7771 22.5756 10.6162 22.0727 10.6162H7.48888C6.98599 10.6162 6.81836 10.7771 6.81836 11.2596Z" fill="#509BCB"/>
<path d="M22.0723 24.6104H14.5289C14.1937 24.6104 13.8584 24.7712 13.8584 25.2538C13.8584 25.7363 14.026 25.7363 14.5289 25.7363H22.0723C22.4075 25.7363 22.7428 25.5755 22.7428 25.0929C22.7428 24.6104 22.5752 24.6104 22.0723 24.6104Z" fill="#509BCB"/>
<path d="M22.0723 15.2812H14.5289C14.1937 15.2812 13.8584 15.4421 13.8584 15.9247C13.8584 16.4072 14.026 16.5681 14.5289 16.5681H22.0723C22.4075 16.5681 22.7428 16.4072 22.7428 15.9247C22.7428 15.4421 22.5752 15.2812 22.0723 15.2812Z" fill="#509BCB"/>
<path d="M22.0727 29.2744H7.48888C7.15362 29.2744 6.81836 29.4353 6.81836 29.9178C6.81836 30.4004 6.98599 30.5612 7.48888 30.5612H22.0727C22.408 30.5612 22.7432 30.4004 22.7432 29.9178C22.7432 29.4353 22.5756 29.2744 22.0727 29.2744Z" fill="#509BCB"/>
</svg>
