<svg width="39" height="28" viewBox="0 0 39 28" fill="none" xmlns="http://www.w3.org/2000/svg">
<path d="M33.1012 7.21067C32.6697 7.20663 32.2337 7.20968 31.8815 7.22167C30.5123 7.26828 29.6961 7.40534 29.0279 7.86303L28.7648 8.04323C28.595 8.15954 28.4728 8.33313 28.4206 8.5322C28.3684 8.73127 28.3896 8.9425 28.4804 9.12719L28.7168 9.60784C28.7169 9.60789 28.7169 9.60793 28.717 9.60798C28.9066 9.99335 28.9362 10.0104 28.9806 10.5459C29.0249 11.0815 29.0282 12.0728 29.0226 13.9796C29.0132 17.1839 29.0302 17.6504 29.1692 18.5298C29.223 18.8702 29.4799 20.7212 29.7158 22.4556C29.8337 23.3228 29.9478 24.1696 30.0323 24.8065C30.0745 25.1249 30.1093 25.391 30.1333 25.5795C30.1454 25.6737 30.1547 25.7489 30.1607 25.7991C30.1636 25.8241 30.1658 25.8433 30.1667 25.8522C30.1677 25.8612 30.1646 25.9135 30.1646 25.7935C30.1646 26.1071 30.3394 26.3314 30.4448 26.4274C30.5502 26.5234 30.6184 26.5519 30.6682 26.5746C30.7678 26.62 30.8069 26.6248 30.8402 26.6324C30.9068 26.6476 30.9334 26.6494 30.9617 26.6526C31.0182 26.659 31.0626 26.6616 31.1172 26.6646C31.2264 26.6706 31.3648 26.6751 31.5346 26.6791C31.8741 26.687 32.333 26.6918 32.8383 26.6918C33.5376 26.6918 33.9974 26.6871 34.3162 26.6718C34.4755 26.6641 34.5948 26.6565 34.7313 26.6326C34.7995 26.6206 34.8708 26.6092 34.9892 26.5595C35.1076 26.5098 35.3609 26.4144 35.4953 26.0285C35.4953 26.0284 35.4953 26.0284 35.4953 26.0283C35.5695 25.8152 35.5315 25.8917 35.5358 25.8672C35.54 25.8428 35.5439 25.8184 35.5485 25.789C35.5577 25.7302 35.5691 25.6532 35.5831 25.5567C35.611 25.3636 35.6488 25.0941 35.6941 24.7656C35.7846 24.1086 35.905 23.2165 36.0337 22.2462C36.2811 20.3794 36.4424 19.2004 36.5529 18.4767C36.6015 18.1581 36.6369 17.9596 36.6668 17.8055C36.7022 17.8012 36.7209 17.7928 36.7589 17.7928C37.0356 17.7928 37.3134 17.7593 37.5938 17.6298C37.8741 17.5003 38.141 17.2439 38.2741 16.9517C38.4004 16.6745 38.3563 16.6708 38.3657 16.5904C38.3752 16.5099 38.3816 16.427 38.3876 16.3306C38.3996 16.1379 38.4086 15.8958 38.416 15.6128C38.4306 15.0468 38.4376 14.3222 38.4373 13.5896C38.437 12.8571 38.4294 12.1183 38.4144 11.525C38.4069 11.2284 38.3976 10.9687 38.3857 10.7585C38.3739 10.5483 38.3825 10.4505 38.3247 10.2117C38.0478 9.06639 37.2546 8.10648 36.1822 7.60461C35.9497 7.49584 35.6954 7.39516 35.4025 7.34313C35.1096 7.29111 34.8034 7.27356 34.2855 7.24435C33.9557 7.22574 33.5326 7.21471 33.1012 7.21067ZM36.5396 17.8232C36.5021 17.8497 36.489 17.8345 36.5105 17.8272C36.5151 17.8256 36.5332 17.825 36.5396 17.8232Z" fill="#6599C8"/>
<path d="M32.59 1.37598C32.4662 1.37604 32.3494 1.38267 32.223 1.4017C31.9702 1.43977 31.7491 1.53545 31.5568 1.62952C30.8512 1.97475 30.2982 2.52053 29.9777 3.24504C29.4031 4.54395 29.7991 6.08391 30.9191 6.96181C31.2909 7.25329 31.6612 7.46108 32.0567 7.5649C32.4593 7.67059 32.7796 7.64138 33.1442 7.60508C33.5088 7.56878 33.8308 7.53245 34.2026 7.35247C34.6002 7.16 34.8796 6.8888 35.1547 6.58402C35.4299 6.27925 35.67 5.9839 35.8158 5.55594C35.9452 5.17615 35.9752 4.82454 35.9752 4.4418C35.9752 3.96924 35.8748 3.53651 35.6699 3.12649C35.3508 2.48781 34.849 1.962 34.2185 1.62832C33.9811 1.50266 33.8276 1.48414 33.6348 1.45236C33.4421 1.42057 33.2302 1.4004 32.9991 1.38964C32.8448 1.38245 32.7139 1.37592 32.59 1.37598Z" fill="#6599C8"/>
<path d="M23.9386 1.60938C23.53 1.60877 23.1223 1.67405 22.7537 1.84568C21.4447 2.45514 20.7502 3.96751 21.1795 5.33239C21.4585 6.21925 22.1375 6.93267 23.0079 7.24335C24.3662 7.72821 25.9249 7.05485 26.5702 5.74479C26.7609 5.35761 26.8011 4.93831 26.8065 4.50109C26.8119 4.06387 26.788 3.65269 26.5944 3.25991C26.2946 2.65151 25.7419 2.13609 25.1244 1.8486C24.7554 1.67682 24.3472 1.61001 23.9386 1.60938Z" fill="white"/>
<path d="M24.2551 7.27832C23.6431 7.27337 23.0182 7.28735 22.4853 7.31717C21.9523 7.347 21.564 7.36967 21.1979 7.47151C21.0317 7.51775 20.9014 7.54794 20.7389 7.60994C20.5764 7.67194 20.2653 7.81047 20.1236 8.18633C19.9819 8.56219 20.1026 8.8214 20.1679 8.97858C20.2332 9.13576 20.3034 9.2634 20.3896 9.43245C20.5327 9.71279 20.7083 10.2133 20.7092 10.2177C20.6968 10.1581 20.7176 10.294 20.7258 10.4655C20.7339 10.637 20.7406 10.8775 20.7454 11.1787C20.7548 11.7812 20.7565 12.6287 20.75 13.7026L20.7315 16.7587L20.6097 16.9547L20.3708 17.3386C20.2747 17.4933 20.2352 17.6765 20.2593 17.857L20.7716 21.7025C20.9126 22.7606 21.045 23.7447 21.1449 24.4785C21.1949 24.8453 21.2367 25.1494 21.2675 25.3699C21.2984 25.5903 21.3009 25.6427 21.3297 25.791L21.368 25.988C21.4031 26.1683 21.5002 26.3305 21.6425 26.4465C21.7847 26.5626 21.9632 26.6251 22.1468 26.6232L23.9702 26.6042L25.7938 26.5851C25.9827 26.5831 26.1645 26.5131 26.3059 26.3879C26.4473 26.2627 26.5389 26.0907 26.5638 25.9034L26.8943 23.4117C27.278 20.5196 27.4775 19.0256 27.5967 18.2562C27.6426 17.9598 27.6672 17.8513 27.6897 17.7488C27.7286 17.744 27.7087 17.7447 27.7688 17.7403C28.1738 17.7105 28.5364 17.6441 28.8702 17.4239L29.1011 17.2717C29.2096 17.2001 29.2987 17.1026 29.3603 16.9881C29.4219 16.8736 29.4541 16.7455 29.4539 16.6155L29.451 14.0881C29.4491 12.5098 29.4386 11.564 29.3913 10.9035C29.3441 10.2429 29.2387 9.80624 29.0639 9.44916C28.6945 8.69395 28.0956 8.08965 27.3453 7.7188C27.0873 7.59131 26.8465 7.48095 26.5502 7.42153C26.2539 7.36211 25.9577 7.34697 25.4305 7.31532C25.0646 7.29335 24.6631 7.28163 24.2551 7.27832Z" fill="white"/>
<path d="M15.8074 7.21322C15.4285 7.21606 15.0173 7.22614 14.5758 7.24319C13.8314 7.27194 13.4556 7.28186 13.118 7.33123C12.7805 7.3806 12.5026 7.49975 12.2599 7.61591C12.1015 7.6917 11.9567 7.76958 11.8287 7.84835C11.7647 7.88774 11.7061 7.92556 11.6385 7.9779C11.571 8.03023 11.4837 7.95412 11.3129 8.39928C11.1455 8.83555 11.2591 8.8552 11.276 8.94106C11.293 9.02692 11.3128 9.09357 11.3354 9.16408C11.3808 9.30511 11.4389 9.45288 11.5091 9.60774C11.5829 9.77049 11.7156 10.1963 11.7371 10.3147C11.7267 10.2578 11.7642 10.6283 11.7792 11.0479C11.7943 11.4674 11.8064 12.0134 11.8142 12.609C11.8298 13.8003 11.8284 15.195 11.8031 16.2034C11.7754 17.3065 11.8028 17.6642 12.0772 19.5514C12.2529 20.7601 12.4517 22.1873 12.6062 23.3338C12.6835 23.907 12.7498 24.4105 12.7964 24.7796C12.8197 24.9641 12.8381 25.1154 12.8502 25.222C12.8623 25.3287 12.8645 25.4769 12.8645 25.3345C12.8645 25.6486 12.911 25.7497 12.9902 25.9581L13.0601 26.1419C13.1222 26.3052 13.2329 26.4456 13.3773 26.5441C13.5217 26.6425 13.6928 26.6943 13.8676 26.6925L15.6665 26.6736L17.4654 26.6545C17.6707 26.6523 17.8684 26.5762 18.0223 26.4402C18.1761 26.3042 18.2758 26.1173 18.3031 25.9138L18.7093 22.8881C19.0783 20.1387 19.2631 18.7628 19.37 18.0864C19.3974 17.9129 19.4026 17.9061 19.42 17.8198C19.4621 17.8151 19.4575 17.8127 19.5142 17.8084C19.8853 17.7804 20.2391 17.7818 20.6333 17.4711C21.0276 17.1604 21.112 16.7077 21.1511 16.3877C21.1708 16.2269 21.169 16.1315 21.1735 15.9377C21.1781 15.7439 21.1814 15.4957 21.1836 15.2067C21.188 14.6287 21.1875 13.8885 21.1812 13.1208L21.1584 10.3443C21.1574 10.2202 21.1293 10.0978 21.0762 9.98564L20.8495 9.50697C20.3558 8.46475 19.4624 7.70654 18.3588 7.40376C17.7409 7.23424 16.9439 7.20471 15.8074 7.21322Z" fill="#D0E1ED"/>
<path d="M15.6785 1.60841C14.5837 1.60486 13.5086 2.22515 13.0147 3.27247C12.839 3.64497 12.7909 4.05493 12.7833 4.47731C12.7757 4.8997 12.8047 5.30367 12.9764 5.68163C13.319 6.43605 14.0104 7.00152 14.8436 7.27461C15.156 7.37698 15.486 7.39206 15.8453 7.36863C17.364 7.26955 18.5313 5.96925 18.5228 4.42772C18.5168 3.32422 17.7998 2.31779 16.7601 1.8418C16.4135 1.68312 16.0434 1.6096 15.6785 1.60841Z" fill="#D0E1ED"/>
<path d="M6.44337 1.59874C6.09083 1.61298 5.82259 1.67751 5.54789 1.80415C4.90134 2.10222 4.36721 2.63562 4.06431 3.2819C3.71422 4.02886 3.68419 4.92239 4.02665 5.66825C4.4023 6.48638 5.12475 7.15062 5.98496 7.35551C6.76857 7.54215 7.6216 7.4181 8.2753 6.9695C9.19853 6.33593 9.68911 5.35999 9.61766 4.26622C9.57051 3.54437 9.27486 2.92526 8.73717 2.40153C8.1983 1.87666 7.61961 1.63483 6.82739 1.60087C6.68777 1.59488 6.56088 1.594 6.44337 1.59874Z" fill="white"/>
<path d="M6.63456 7.48403C5.68595 7.4864 5.15839 7.48997 4.78275 7.51294C4.40711 7.53591 4.15438 7.59195 3.91625 7.66768C2.80171 8.0221 1.90173 8.93534 1.55435 10.0573C1.41167 10.5181 1.40332 10.983 1.40332 13.6151V16.5935C1.40333 16.6806 1.42214 16.7667 1.45848 16.8459C1.49482 16.9251 1.54783 16.9955 1.61388 17.0523L1.8137 17.2241C1.93161 17.3256 2.10117 17.4331 2.28282 17.485C2.46446 17.5369 2.62828 17.543 2.81187 17.5434C2.88699 17.5436 2.98454 17.5518 3.05876 17.5633C3.07772 17.5663 3.08948 17.5708 3.10596 17.5754C3.10894 17.5904 3.13351 17.6358 3.17955 17.8712C3.29216 18.4468 3.45832 19.6907 3.79545 22.2143C3.91189 23.0859 4.02258 23.9084 4.10718 24.5318C4.19178 25.1552 4.24407 25.5416 4.26417 25.6666L4.30727 25.9347C4.33026 26.0778 4.40384 26.2078 4.51462 26.3013C4.62541 26.3947 4.76605 26.4453 4.91097 26.4438L6.73639 26.4249C6.73644 26.4249 6.73649 26.4249 6.73653 26.4249L8.56182 26.4058C8.70729 26.4042 8.84733 26.3503 8.9563 26.2539C9.06526 26.1575 9.13587 26.0251 9.15518 25.881L9.66514 22.0722C9.94855 19.9554 10.1048 18.8074 10.2053 18.1794C10.2556 17.8653 10.2929 17.6809 10.3172 17.5896C10.3215 17.5737 10.3188 17.5862 10.3214 17.5767C10.3846 17.5614 10.5087 17.5424 10.7084 17.5424C11.0277 17.5424 11.4412 17.377 11.6612 17.1571L11.6614 17.1569L11.8694 16.949C11.9256 16.8928 11.9702 16.8261 12.0007 16.7527C12.0311 16.6792 12.0468 16.6005 12.0468 16.521V13.6471C12.0468 12.1274 12.0425 11.2953 11.9911 10.714C11.9397 10.1327 11.8068 9.75756 11.6307 9.41235C11.322 8.80721 10.7822 8.26711 10.1788 7.95037C9.80565 7.75447 9.43543 7.609 8.92832 7.54728C8.42121 7.48556 7.77165 7.4812 6.63456 7.48403Z" fill="white"/>
<path d="M3.93504 26.8683C3.84339 26.7766 3.76692 26.6621 3.7651 26.6137C3.76326 26.5653 3.50984 24.6471 3.20193 22.351L2.64207 18.1763L2.33308 18.1321C1.76314 18.0506 1.24638 17.6831 0.96207 17.1572C0.818601 16.8918 0.814827 16.8153 0.795723 13.7877C0.773748 10.3033 0.795723 10.0701 1.22917 9.18957C1.67642 8.28097 2.68583 7.39198 3.59586 7.1052C3.78411 7.04588 3.97682 6.98521 4.0241 6.97038C4.08214 6.95217 4.03516 6.83809 3.87947 6.61923C3.04082 5.44023 2.93316 4.07674 3.58099 2.83907C4.01086 2.01781 5.00112 1.2403 5.87294 1.03951C6.26503 0.949205 7.17718 0.94899 7.56826 1.0391C8.14925 1.17297 8.73822 1.51085 9.20517 1.97812C10.4797 3.25354 10.6286 5.1401 9.57091 6.61227C9.41114 6.83466 9.36125 6.95225 9.41899 6.97037C9.46628 6.9852 9.66142 7.04668 9.85264 7.10699C10.1526 7.20161 10.4975 7.38361 11.0695 7.74909C11.1927 7.82787 11.2516 7.80745 11.5952 7.56677C11.808 7.41769 12.2109 7.22332 12.4905 7.13483C12.77 7.04633 12.9993 6.95336 13 6.92822C13.0007 6.90308 12.9305 6.79616 12.844 6.69061C11.9084 5.54824 11.8327 3.81088 12.6634 2.54679C13.3309 1.53124 14.4004 0.96582 15.654 0.96582C16.6976 0.96582 17.5524 1.35017 18.2777 2.14545C19.4154 3.39282 19.4789 5.36112 18.4243 6.6861C18.2826 6.86409 18.2479 6.94984 18.3097 6.96936C18.9414 7.16885 19.1295 7.2428 19.4379 7.4128L19.7985 7.61164L20.2186 7.38494C20.4496 7.26026 20.7608 7.12209 20.9102 7.0779C21.0596 7.03372 21.2203 6.98541 21.2675 6.97056C21.3247 6.95255 21.277 6.84359 21.1244 6.64375C20.0968 5.29742 20.1724 3.38433 21.3023 2.14545C22.027 1.35088 22.8839 0.965202 23.9214 0.966626C24.5998 0.967556 25.0232 1.06605 25.5945 1.35587C27.5458 2.34579 28.115 5.0071 26.7356 6.69116C26.5498 6.91796 26.5729 6.98086 26.8655 7.04512C27.1971 7.11797 27.637 7.32144 28.0375 7.58724L28.3995 7.82755L28.8076 7.56379C29.1435 7.34669 29.6846 7.10878 30.1611 6.96867C30.2187 6.95174 30.1709 6.83635 30.0165 6.61922C29.1778 5.44023 29.0701 4.07674 29.718 2.83907C30.1478 2.01781 31.1381 1.24029 32.0099 1.0395C32.402 0.949197 33.3142 0.948983 33.7053 1.03909C34.2862 1.17297 34.8752 1.51084 35.3422 1.97812C36.6167 3.25353 36.7655 5.14009 35.7079 6.61227C35.5481 6.83466 35.4982 6.95224 35.556 6.97036C35.6033 6.98519 35.796 7.04587 35.9842 7.10519C36.8943 7.39197 37.9037 8.28095 38.3509 9.18955C38.7844 10.0701 38.8063 10.3033 38.7844 13.7877C38.7663 16.6568 38.7555 16.9032 38.6384 17.1232C38.3479 17.6693 37.8229 18.0497 37.2458 18.1323L36.938 18.1763L36.3782 22.351C36.0702 24.6471 35.8168 26.5653 35.815 26.6137C35.8132 26.6621 35.7367 26.7766 35.645 26.8683L35.4784 27.0349H32.8585H30.2387L30.072 26.8683C29.9804 26.7766 29.9039 26.6621 29.9021 26.6137C29.9002 26.5653 29.6469 24.6469 29.3391 22.3506L28.7795 18.1755L28.4058 18.1555L28.0321 18.1356L27.4683 22.3643C27.1583 24.69 26.863 26.6734 26.8121 26.7718C26.7613 26.8701 26.6702 26.9695 26.6098 26.9927C26.5493 27.0159 25.3315 27.0349 23.9036 27.0349H21.3073L21.1598 26.878C21.0268 26.7364 20.9564 26.3032 20.4423 22.4611C20.1288 20.1181 19.8538 18.1827 19.8312 18.16C19.8085 18.1374 19.771 18.1379 19.7478 18.1611C19.7246 18.1843 19.4498 20.1196 19.1371 22.4617C18.6235 26.309 18.5544 26.7352 18.4207 26.8775L18.2728 27.0349H15.6445C12.6421 27.0349 12.7772 27.0611 12.6687 26.4579C12.6351 26.2712 12.3693 24.3223 12.0781 22.127L11.5485 18.1356L11.1745 18.1555L10.8006 18.1755L10.241 22.3506C9.93315 24.6469 9.67983 26.5653 9.678 26.6137C9.67617 26.6621 9.5997 26.7766 9.50805 26.8683L9.34142 27.0349H6.72155H4.10168L3.93504 26.8683ZM8.58915 25.8299C8.58915 25.8019 8.84543 23.8713 9.15784 21.5397C9.72127 17.3345 9.72731 17.2991 9.90771 17.1439C10.0572 17.0153 10.1681 16.9875 10.5304 16.9875C11.1004 16.9875 11.3431 16.8646 11.4362 16.5291C11.5276 16.2 11.5289 11.2838 11.4377 10.6399C11.2499 9.31302 10.2254 8.28894 8.89401 8.0973C8.28221 8.00924 5.16895 8.00843 4.54916 8.09617C3.23097 8.28279 2.19204 9.32172 2.00542 10.6399C1.91427 11.2838 1.91549 16.2 2.00692 16.5291C2.1001 16.8646 2.3428 16.9875 2.91271 16.9875C3.2751 16.9875 3.38594 17.0153 3.53544 17.1439C3.71585 17.2991 3.7219 17.3345 4.28532 21.5397C4.59773 23.8713 4.85364 25.8019 4.85401 25.8299C4.85401 25.8579 5.69481 25.8808 6.72162 25.8808C7.74843 25.8808 8.58878 25.8579 8.58915 25.8299ZM17.5087 25.6941C17.5295 25.5914 17.7759 23.7661 18.0565 21.6378C18.6617 17.0462 18.6093 17.3749 18.7672 17.1798C18.8764 17.0449 18.9761 17.0176 19.4801 16.9841C20.4386 16.9205 20.3632 17.1868 20.3879 13.7779C20.4021 11.8156 20.384 10.783 20.3305 10.5041C20.0789 9.19198 19.0742 8.26859 17.7004 8.08675C17.3531 8.04078 16.406 8.02389 15.2225 8.04254C13.5045 8.06962 13.2674 8.08714 12.9261 8.21218C12.5017 8.36768 11.9608 8.68689 11.9985 8.75966C12.6539 10.0261 12.6593 10.0655 12.6602 13.593C12.6609 15.5234 12.6353 16.6387 12.5868 16.8134C12.5325 17.009 12.5333 17.1456 12.5896 17.3226C12.6538 17.5243 13.748 25.5264 13.748 25.794C13.748 25.8624 14.143 25.8808 15.6095 25.8808H17.4711L17.5087 25.6941ZM25.8321 25.786C25.8321 25.6473 26.9096 17.5918 26.952 17.4136C27.0266 17.1 27.2437 16.9875 27.7745 16.9875C28.2038 16.9875 28.2919 16.9653 28.4745 16.8117L28.6834 16.6359V13.5849C28.6834 10.6949 28.6761 10.5121 28.5451 10.1233C28.1736 9.02031 27.2689 8.26113 26.1301 8.09651C25.5106 8.00695 22.3179 8.00812 21.7633 8.09811C21.523 8.13709 21.1798 8.23207 21.0005 8.30918L20.6746 8.44938L20.8008 8.62815C21.0473 8.97743 21.3542 9.66025 21.4529 10.0791C21.5337 10.4217 21.553 11.1096 21.5526 13.627C21.552 16.6247 21.5466 16.7621 21.4137 17.0553C21.3375 17.2234 21.2117 17.4284 21.1342 17.511L20.9933 17.6611L21.5178 21.6182C21.8064 23.7946 22.0583 25.6441 22.0777 25.7281L22.113 25.8808H23.9725C25.5195 25.8808 25.8321 25.8649 25.8321 25.786ZM34.7261 25.8299C34.7261 25.8019 34.9824 23.8713 35.2948 21.5397C35.8583 17.3345 35.8643 17.2991 36.0447 17.1439C36.1942 17.0153 36.305 16.9875 36.6674 16.9875C37.2373 16.9875 37.48 16.8646 37.5732 16.5291C37.6646 16.2 37.6658 11.2838 37.5747 10.6399C37.3869 9.31302 36.3623 8.28894 35.031 8.0973C34.4153 8.00868 31.3014 8.00866 30.6882 8.09727C30.1999 8.16784 29.6521 8.38277 29.3715 8.61386L29.211 8.74608L29.4166 9.15343C29.8744 10.0602 29.8715 10.0319 29.8715 13.593C29.8715 16.0168 29.8508 16.8539 29.7882 16.9631C29.7215 17.0795 29.7233 17.1473 29.7972 17.3026C29.848 17.4093 30.1093 19.1616 30.3778 21.1965C30.6463 23.2315 30.8979 25.1179 30.937 25.3886L31.0081 25.8808H32.8668C33.8891 25.8808 34.7258 25.8579 34.7261 25.8299ZM7.66414 6.6789C8.07143 6.49874 8.63005 5.96909 8.83099 5.57256C9.15718 4.92884 9.15718 4.0632 8.83099 3.41947C8.6302 3.02325 8.07505 2.49679 7.65278 2.30216C7.39945 2.18539 7.2049 2.15449 6.72155 2.15421C6.1945 2.15394 6.05919 2.1791 5.73671 2.33748C4.76326 2.81557 4.22716 3.82703 4.39156 4.87536C4.47267 5.39265 4.7088 5.83019 5.10873 6.20428C5.67561 6.73453 6.08529 6.88282 6.86868 6.84132C7.15699 6.82604 7.48112 6.75986 7.66414 6.6789ZM16.6163 6.65096C17.3336 6.32259 17.8161 5.68014 17.971 4.8471C18.1776 3.73608 17.4082 2.54281 16.2723 2.21259C15.1914 1.89836 13.9375 2.48602 13.4535 3.53366C13.2434 3.98837 13.2434 5.00367 13.4535 5.45838C13.9999 6.6412 15.4464 7.18659 16.6163 6.65096ZM24.6082 6.76455C25.2745 6.56668 25.8392 6.08013 26.1282 5.45476C26.3374 5.00232 26.3358 3.98658 26.1254 3.53083C25.9179 3.08155 25.4301 2.58583 24.9684 2.35509C24.6251 2.18351 24.5 2.15874 23.9652 2.15647C23.4416 2.15424 23.2988 2.1798 22.9674 2.33515C22.2424 2.67503 21.7639 3.3125 21.6091 4.14493C21.5461 4.48354 21.5525 4.63306 21.6464 5.017C21.9783 6.37406 23.2991 7.15332 24.6082 6.76455ZM33.8011 6.6789C34.2084 6.49874 34.767 5.96909 34.968 5.57256C35.1781 5.15789 35.2635 4.59448 35.1885 4.11667C35.1067 3.59485 34.8706 3.16121 34.4585 2.77569C33.9358 2.28685 33.5955 2.15463 32.8585 2.15421C32.3315 2.15394 32.1962 2.1791 31.8737 2.33748C30.9003 2.81557 30.3642 3.82703 30.5285 4.87536C30.6097 5.39265 30.8458 5.83019 31.2457 6.20428C31.8126 6.73453 32.2223 6.88282 33.0057 6.84132C33.294 6.82604 33.6181 6.75986 33.8011 6.6789Z" fill="#1D274F"/>
</svg>
