<svg width="194" height="201" viewBox="0 0 194 201" fill="none" xmlns="http://www.w3.org/2000/svg">
<g filter="url(#filter0_d_749_17882)">
<path d="M93.5 157C124.704 157 150 131.704 150 100.5C150 69.2959 124.704 44 93.5 44C62.2959 44 37 69.2959 37 100.5C37 131.704 62.2959 157 93.5 157Z" fill="white"/>
</g>
<path d="M93.4989 152.33C122.124 152.33 145.33 129.124 145.33 100.499C145.33 71.8735 122.124 48.668 93.4989 48.668C64.8735 48.668 41.668 71.8735 41.668 100.499C41.668 129.124 64.8735 152.33 93.4989 152.33Z" fill="url(#paint0_linear_749_17882)"/>
<path d="M114.488 75.2695H103.736C103.351 74.113 103.479 73.3848 102.922 73.3848H97.4393C97.268 71.2858 95.5117 69.6152 93.3271 69.6152C91.1425 69.6152 89.3862 71.2858 89.2149 73.3848C83.9461 73.5133 83.4321 73.0849 83.2608 73.7274L82.8752 75.2695H72.1235C71.8665 75.2695 71.6523 75.4837 71.6523 75.7407V127.657C71.6523 127.914 71.8665 128.128 72.1235 128.128H114.402C114.659 128.128 114.873 127.914 114.873 127.657V75.7407C114.873 75.4837 114.659 75.2695 114.402 75.2695H114.488ZM103.993 122.945V117.12H109.819L108.191 118.748L103.993 122.945ZM110.461 116.22H103.565C103.308 116.22 103.094 116.434 103.094 116.691V123.588H76.2357V79.7672H81.8044C81.4188 81.5235 81.2047 81.6948 81.4188 81.9947C81.5045 82.1232 81.633 82.166 81.7615 82.166C106.135 82.0804 104.936 82.3374 105.193 81.9947C105.407 81.6948 105.193 81.4807 104.807 79.7672H110.376V116.22H110.461ZM84.1175 74.2843H89.7289C89.9859 74.2843 90.2001 74.0701 90.2001 73.8131C90.2001 73.8131 90.2001 73.7703 90.2001 73.6846C90.2001 71.9283 91.6565 70.4719 93.4128 70.4719C95.169 70.4719 96.6254 71.9283 96.6254 73.7274C96.6254 73.7274 96.6254 73.7703 96.6254 73.8131C96.6254 74.0701 96.8396 74.2843 97.0966 74.2843H102.708C102.922 75.141 104.207 80.4098 104.421 81.2665H82.5326C82.9609 79.5102 83.989 75.398 84.246 74.2843H84.1175ZM114.059 127.186H72.6804V76.1691H82.7467L82.1042 78.8677H75.8502C75.5932 78.8677 75.379 79.0819 75.379 79.3389V124.059C75.379 124.316 75.5932 124.53 75.8502 124.53H103.608C103.608 124.53 103.822 124.487 103.907 124.402L109.433 118.876L111.275 117.034C111.275 117.034 111.361 116.948 111.361 116.906C111.361 116.906 111.361 116.82 111.361 116.777V79.4246C111.361 79.1675 111.147 78.9534 110.89 78.9534H104.636L103.993 76.2547H114.059V127.272V127.186Z" fill="white"/>
<path d="M114.489 128.6H72.21C71.6959 128.6 71.2676 128.172 71.2676 127.658V75.7411C71.2676 75.227 71.6959 74.7987 72.21 74.7987H82.5333L82.8332 73.6421C83.0473 72.8711 83.5614 72.8711 85.0606 72.9139C85.8745 72.9139 87.0739 72.9568 88.8301 72.9139C89.2156 70.7721 91.1432 69.1016 93.3707 69.1016C95.5981 69.1016 97.5257 70.7293 97.9113 72.8711H102.966C103.78 72.8711 103.908 73.5993 104.037 74.199C104.037 74.3703 104.122 74.5845 104.165 74.7987H114.531C115.045 74.7987 115.474 75.227 115.474 75.7411V127.658C115.474 128.172 115.045 128.6 114.531 128.6H114.489ZM73.1523 126.672H113.546V76.6834H104.636L105.065 78.354H110.933C111.447 78.354 111.876 78.7824 111.876 79.2964V116.777C111.876 116.777 111.876 116.906 111.833 116.949C111.747 117.163 111.661 117.249 111.576 117.334L104.251 124.659C104.251 124.659 103.823 124.959 103.566 124.959H75.8081C75.2941 124.959 74.8658 124.531 74.8658 124.017V79.2964C74.8658 78.7824 75.2941 78.354 75.8081 78.354H81.6766L82.105 76.6834H73.1952V126.672H73.1523ZM76.7505 123.074H102.58V116.649C102.58 116.135 103.009 115.707 103.523 115.707H109.905V80.2816H105.45C105.536 80.5815 105.579 80.7957 105.622 81.0098C105.793 81.6095 105.879 81.9522 105.579 82.3377C105.407 82.5947 103.751 82.7232 100.61 82.7232C97.3544 82.7232 91.6573 82.7232 81.7623 82.7232C81.4624 82.7232 81.2054 82.5947 80.9912 82.3377C80.6914 81.9522 80.7771 81.6095 80.9484 81.0098C80.9912 80.8385 81.0769 80.5815 81.1197 80.2816H76.6649V123.074H76.7505ZM104.508 117.634V121.746L108.62 117.634H104.508ZM83.0473 80.7528H103.651C103.309 79.2536 102.495 75.9981 102.195 74.7558H97.0117C96.4977 74.7558 96.0693 74.3275 96.0693 73.8135C96.0693 72.9996 95.7695 72.2714 95.2555 71.7574C94.7414 71.2433 94.0561 70.9863 93.3707 70.9863C91.8714 70.9863 90.6721 72.1857 90.6721 73.685V73.8135C90.6721 74.3275 90.2437 74.7558 89.7297 74.7558H84.5466L83.0902 80.7528H83.0473Z" fill="white"/>
<path d="M93.3271 75.2694C94.1838 75.2694 94.912 74.5841 94.912 73.6845C94.912 72.785 94.2266 72.0996 93.3271 72.0996C92.4276 72.0996 91.7422 72.785 91.7422 73.6845C91.7422 74.5841 92.4276 75.2694 93.3271 75.2694ZM93.3271 72.8278C93.7983 72.8278 94.1838 73.2133 94.1838 73.6845C94.1838 74.1557 93.7983 74.5412 93.3271 74.5412C92.8559 74.5412 92.4704 74.1557 92.4704 73.6845C92.4704 73.2133 92.8559 72.8278 93.3271 72.8278Z" fill="white"/>
<path d="M83.9035 85.6773L80.2196 89.3612L78.7632 87.9048C78.7632 87.9048 78.292 87.7334 78.1207 87.9048C77.9494 88.0761 77.9494 88.376 78.1207 88.5473L79.9198 90.3464C79.9198 90.3464 80.134 90.4749 80.2196 90.4749C80.3053 90.4749 80.4338 90.4321 80.5195 90.3464L84.546 86.3199C84.546 86.3199 84.7174 85.8487 84.546 85.6773C84.3747 85.506 84.0748 85.506 83.9035 85.6773Z" fill="white"/>
<path d="M80.2199 90.9463C79.9628 90.9463 79.7058 90.8606 79.5345 90.6465L77.7354 88.8474C77.7354 88.8474 77.4355 88.419 77.4355 88.162C77.4355 87.905 77.5212 87.648 77.6926 87.4766C78.0781 87.0911 78.6778 87.0911 79.0633 87.4766L80.177 88.5904L83.5182 85.2492C83.9037 84.9065 84.5034 84.9065 84.8461 85.2492C85.0174 85.4205 85.1459 85.6776 85.1459 85.9346C85.1459 86.1916 85.0603 86.4486 84.8461 86.6199L80.8195 90.6465C80.8195 90.6465 80.3912 90.9463 80.1342 90.9463H80.2199Z" fill="white"/>
<path d="M86.3882 90.4346H96.4545C96.7115 90.4346 96.9257 90.2204 96.9257 89.9634C96.9257 89.7064 96.7115 89.4922 96.4545 89.4922H86.3882C86.1312 89.4922 85.917 89.7064 85.917 89.9634C85.917 90.2204 86.1312 90.4346 86.3882 90.4346Z" fill="white"/>
<path d="M96.455 90.9473H86.3887C85.8746 90.9473 85.4463 90.5189 85.4463 90.0049C85.4463 89.4909 85.8746 89.0625 86.3887 89.0625H96.455C96.969 89.0625 97.3974 89.4909 97.3974 90.0049C97.3974 90.5189 96.969 90.9473 96.455 90.9473Z" fill="white"/>
<path d="M85.959 85.979C85.959 86.236 86.1732 86.4502 86.4302 86.4502H108.233C108.49 86.4502 108.705 86.236 108.705 85.979C108.705 85.722 108.49 85.5078 108.233 85.5078H86.4302C86.1732 85.5078 85.959 85.722 85.959 85.979Z" fill="white"/>
<path d="M108.234 86.9199H86.4307C85.9166 86.9199 85.4883 86.4916 85.4883 85.9775C85.4883 85.4635 85.9166 85.0352 86.4307 85.0352H108.234C108.748 85.0352 109.176 85.4635 109.176 85.9775C109.176 86.4916 108.748 86.9199 108.234 86.9199Z" fill="white"/>
<path d="M83.9054 94.8023L80.2216 98.4862L78.7652 97.0298C78.7652 97.0298 78.294 96.8584 78.1226 97.0298C77.9513 97.2011 77.9513 97.501 78.1226 97.6723L79.9217 99.4714C79.9217 99.4714 80.1359 99.5999 80.2216 99.5999C80.3073 99.5999 80.4358 99.5571 80.5214 99.4714L84.548 95.4449C84.548 95.4449 84.7193 94.9737 84.548 94.8023C84.3766 94.631 84.0768 94.631 83.9054 94.8023Z" fill="white"/>
<path d="M80.221 100.071C79.9639 100.071 79.7069 99.9858 79.5356 99.7716L77.7793 98.0154C77.7793 98.0154 77.4795 97.587 77.4795 97.33C77.4795 97.073 77.5652 96.816 77.7365 96.6446C78.122 96.2591 78.7217 96.2591 79.1072 96.6446L80.221 97.7583L83.5621 94.4172C83.9477 94.0745 84.5473 94.0745 84.89 94.4172C85.0614 94.5885 85.1899 94.8455 85.1899 95.1025C85.1899 95.3595 85.1042 95.6166 84.89 95.7879L80.8635 99.8144C80.8635 99.8144 80.4351 100.114 80.1781 100.114L80.221 100.071Z" fill="white"/>
<path d="M86.3882 99.6025H96.4545C96.7115 99.6025 96.9257 99.3884 96.9257 99.1313C96.9257 98.8743 96.7115 98.6602 96.4545 98.6602H86.3882C86.1312 98.6602 85.917 98.8743 85.917 99.1313C85.917 99.3884 86.1312 99.6025 86.3882 99.6025Z" fill="white"/>
<path d="M96.455 100.072H86.3887C85.8746 100.072 85.4463 99.6439 85.4463 99.1299C85.4463 98.6159 85.8746 98.1875 86.3887 98.1875H96.455C96.969 98.1875 97.3974 98.6159 97.3974 99.1299C97.3974 99.6439 96.969 100.072 96.455 100.072Z" fill="white"/>
<path d="M108.233 94.6758H86.4302C86.1732 94.6758 85.959 94.89 85.959 95.147C85.959 95.404 86.1732 95.6182 86.4302 95.6182H108.233C108.49 95.6182 108.705 95.404 108.705 95.147C108.705 94.89 108.49 94.6758 108.233 94.6758Z" fill="white"/>
<path d="M108.234 96.0879H86.4307C85.9166 96.0879 85.4883 95.6595 85.4883 95.1455C85.4883 94.6315 85.9166 94.2031 86.4307 94.2031H108.234C108.748 94.2031 109.176 94.6315 109.176 95.1455C109.176 95.6595 108.748 96.0879 108.234 96.0879Z" fill="white"/>
<path d="M83.9035 103.925L80.2196 107.609L78.7632 106.153C78.7632 106.153 78.292 105.981 78.1207 106.153C77.9494 106.324 77.9494 106.624 78.1207 106.795L79.9198 108.594C79.9198 108.594 80.134 108.723 80.2196 108.723C80.3053 108.723 80.4338 108.68 80.5195 108.594L84.546 104.568C84.546 104.568 84.7174 104.097 84.546 103.925C84.3747 103.754 84.0748 103.754 83.9035 103.925Z" fill="white"/>
<path d="M80.2199 109.237C79.9628 109.237 79.7058 109.152 79.5345 108.98L77.7354 107.181C77.7354 107.181 77.4355 106.753 77.4355 106.496C77.4355 106.239 77.5212 105.982 77.7354 105.811C78.0781 105.468 78.7206 105.468 79.1061 105.811L80.2199 106.924L83.561 103.583C83.9037 103.241 84.5462 103.241 84.9318 103.583C85.1031 103.755 85.1888 104.012 85.1888 104.269C85.1888 104.526 85.1031 104.783 84.9318 104.954L80.9052 108.98C80.9052 108.98 80.4769 109.237 80.2199 109.237Z" fill="white"/>
<path d="M86.3882 108.724H96.4545C96.7115 108.724 96.9257 108.509 96.9257 108.252C96.9257 107.995 96.7115 107.781 96.4545 107.781H86.3882C86.1312 107.781 85.917 107.995 85.917 108.252C85.917 108.509 86.1312 108.724 86.3882 108.724Z" fill="white"/>
<path d="M96.455 109.238H86.3887C85.8746 109.238 85.4463 108.81 85.4463 108.296C85.4463 107.782 85.8746 107.354 86.3887 107.354H96.455C96.969 107.354 97.3974 107.782 97.3974 108.296C97.3974 108.81 96.969 109.238 96.455 109.238Z" fill="white"/>
<path d="M108.233 103.801H86.4302C86.1732 103.801 85.959 104.015 85.959 104.272C85.959 104.529 86.1732 104.743 86.4302 104.743H108.233C108.49 104.743 108.705 104.529 108.705 104.272C108.705 104.015 108.49 103.801 108.233 103.801Z" fill="white"/>
<path d="M108.234 105.213H86.4307C85.9166 105.213 85.4883 104.785 85.4883 104.271C85.4883 103.756 85.9166 103.328 86.4307 103.328H108.234C108.748 103.328 109.176 103.756 109.176 104.271C109.176 104.785 108.748 105.213 108.234 105.213Z" fill="white"/>
<path d="M83.9035 113.093L80.2196 116.777L78.7632 115.321C78.7632 115.321 78.292 115.149 78.1207 115.321C77.9494 115.492 77.9494 115.792 78.1207 115.963L79.9198 117.762C79.9198 117.762 80.134 117.891 80.2196 117.891C80.3053 117.891 80.4338 117.848 80.5195 117.762L84.546 113.736C84.546 113.736 84.7174 113.265 84.546 113.093C84.3747 112.922 84.0748 112.922 83.9035 113.093Z" fill="white"/>
<path d="M80.2199 118.362C79.9628 118.362 79.7058 118.277 79.5345 118.105L77.7354 116.306C77.7354 116.306 77.4355 115.878 77.4355 115.621C77.4355 115.364 77.5212 115.107 77.7354 114.936C78.0781 114.593 78.7206 114.593 79.1061 114.936L80.2199 116.049L83.561 112.708C83.9037 112.366 84.5462 112.366 84.9318 112.708C85.1031 112.88 85.1888 113.137 85.1888 113.394C85.1888 113.651 85.1031 113.908 84.8889 114.079L80.8624 118.105C80.8624 118.105 80.434 118.362 80.177 118.362H80.2199Z" fill="white"/>
<path d="M96.4545 116.949H86.3882C86.1312 116.949 85.917 117.163 85.917 117.42C85.917 117.677 86.1312 117.892 86.3882 117.892H96.4545C96.7115 117.892 96.9257 117.677 96.9257 117.42C96.9257 117.163 96.7115 116.949 96.4545 116.949Z" fill="white"/>
<path d="M96.455 118.363H86.3887C85.8746 118.363 85.4463 117.935 85.4463 117.421C85.4463 116.907 85.8746 116.479 86.3887 116.479H96.455C96.969 116.479 97.3974 116.907 97.3974 117.421C97.3974 117.935 96.969 118.363 96.455 118.363Z" fill="white"/>
<path d="M108.233 112.965H86.4302C86.1732 112.965 85.959 113.179 85.959 113.436C85.959 113.693 86.1732 113.907 86.4302 113.907H108.233C108.49 113.907 108.705 113.693 108.705 113.436C108.705 113.179 108.49 112.965 108.233 112.965Z" fill="white"/>
<path d="M108.234 114.336H86.4307C85.9166 114.336 85.4883 113.908 85.4883 113.394C85.4883 112.88 85.9166 112.451 86.4307 112.451H108.234C108.748 112.451 109.176 112.88 109.176 113.394C109.176 113.908 108.748 114.336 108.234 114.336Z" fill="white"/>
<defs>
<filter id="filter0_d_749_17882" x="-6.17817" y="0.821835" width="199.356" height="199.356" filterUnits="userSpaceOnUse" color-interpolation-filters="sRGB">
<feFlood flood-opacity="0" result="BackgroundImageFix"/>
<feColorMatrix in="SourceAlpha" type="matrix" values="0 0 0 0 0 0 0 0 0 0 0 0 0 0 0 0 0 0 127 0" result="hardAlpha"/>
<feOffset/>
<feGaussianBlur stdDeviation="21.5891"/>
<feColorMatrix type="matrix" values="0 0 0 0 0.137255 0 0 0 0 0.121569 0 0 0 0 0.12549 0 0 0 0.2 0"/>
<feBlend mode="normal" in2="BackgroundImageFix" result="effect1_dropShadow_749_17882"/>
<feBlend mode="normal" in="SourceGraphic" in2="effect1_dropShadow_749_17882" result="shape"/>
</filter>
<linearGradient id="paint0_linear_749_17882" x1="133.207" y1="133.825" x2="53.7904" y2="67.1729" gradientUnits="userSpaceOnUse">
<stop stop-color="#B159A0"/>
<stop offset="0.26" stop-color="#746096"/>
<stop offset="0.75" stop-color="#426290"/>
<stop offset="1" stop-color="#0D628C"/>
</linearGradient>
</defs>
</svg>
