<svg width="105" height="105" viewBox="0 0 105 105" fill="none" xmlns="http://www.w3.org/2000/svg">
<path d="M52.4989 104.33C81.1243 104.33 104.33 81.1243 104.33 52.4989C104.33 23.8735 81.1243 0.667969 52.4989 0.667969C23.8735 0.667969 0.667969 23.8735 0.667969 52.4989C0.667969 81.1243 23.8735 104.33 52.4989 104.33Z" fill="url(#paint0_linear_749_17884)"/>
<path d="M73.4878 27.2695H62.7361C62.3506 26.113 62.4791 25.3848 61.9223 25.3848H56.4393C56.268 23.2858 54.5117 21.6152 52.3271 21.6152C50.1425 21.6152 48.3862 23.2858 48.2149 25.3848C42.9461 25.5133 42.4321 25.0849 42.2608 25.7274L41.8752 27.2695H31.1235C30.8665 27.2695 30.6523 27.4837 30.6523 27.7407V79.6573C30.6523 79.9143 30.8665 80.1285 31.1235 80.1285H73.4022C73.6592 80.1285 73.8734 79.9143 73.8734 79.6573V27.7407C73.8734 27.4837 73.6592 27.2695 73.4022 27.2695H73.4878ZM62.9931 74.9454V69.1198H68.8188L67.191 70.7475L62.9931 74.9454ZM69.4613 68.2202H62.5648C62.3078 68.2202 62.0936 68.4344 62.0936 68.6914V75.5879H35.2357V31.7672H40.8044C40.4188 33.5235 40.2047 33.6948 40.4188 33.9947C40.5045 34.1232 40.633 34.166 40.7615 34.166C65.1349 34.0804 63.9355 34.3374 64.1925 33.9947C64.4067 33.6948 64.1925 33.4807 63.807 31.7672H69.3756V68.2202H69.4613ZM43.1175 26.2843H48.7289C48.9859 26.2843 49.2001 26.0701 49.2001 25.8131C49.2001 25.8131 49.2001 25.7703 49.2001 25.6846C49.2001 23.9283 50.6565 22.4719 52.4128 22.4719C54.169 22.4719 55.6254 23.9283 55.6254 25.7274C55.6254 25.7274 55.6254 25.7703 55.6254 25.8131C55.6254 26.0701 55.8396 26.2843 56.0966 26.2843H61.7081C61.9222 27.141 63.2073 32.4098 63.4215 33.2665H41.5326C41.9609 31.5102 42.989 27.398 43.246 26.2843H43.1175ZM73.0595 79.1861H31.6804V28.1691H41.7467L41.1042 30.8677H34.8502C34.5932 30.8677 34.379 31.0819 34.379 31.3389V76.0591C34.379 76.3162 34.5932 76.5303 34.8502 76.5303H62.6076C62.6076 76.5303 62.8218 76.4875 62.9075 76.4018L68.4332 70.876L70.2752 69.0341C70.2752 69.0341 70.3608 68.9484 70.3608 68.9056C70.3608 68.9056 70.3608 68.8199 70.3608 68.7771V31.4246C70.3608 31.1675 70.1467 30.9534 69.8897 30.9534H63.6357L62.9931 28.2547H73.0595V79.2718V79.1861Z" fill="white"/>
<path d="M73.4886 80.6H31.21C30.6959 80.6 30.2676 80.1717 30.2676 79.6577V27.7411C30.2676 27.227 30.6959 26.7987 31.21 26.7987H41.5333L41.8332 25.6421C42.0473 24.8711 42.5614 24.8711 44.0606 24.9139C44.8745 24.9139 46.0739 24.9568 47.8301 24.9139C48.2156 22.7721 50.1432 21.1016 52.3707 21.1016C54.5981 21.1016 56.5257 22.7293 56.9113 24.8711H61.9658C62.7797 24.8711 62.9082 25.5993 63.0367 26.199C63.0367 26.3703 63.1224 26.5845 63.1652 26.7987H73.5314C74.0454 26.7987 74.4738 27.227 74.4738 27.7411V79.6577C74.4738 80.1717 74.0454 80.6 73.5314 80.6H73.4886ZM32.1523 78.6724H72.5462V28.6834H63.6364L64.0648 30.354H69.9332C70.4473 30.354 70.8756 30.7824 70.8756 31.2964V68.7775C70.8756 68.7775 70.8756 68.906 70.8328 68.9488C70.7471 69.163 70.6614 69.2486 70.5758 69.3343L63.2509 76.6592C63.2509 76.6592 62.8225 76.959 62.5655 76.959H34.8081C34.2941 76.959 33.8658 76.5307 33.8658 76.0167V31.2964C33.8658 30.7824 34.2941 30.354 34.8081 30.354H40.6766L41.105 28.6834H32.1952V78.6724H32.1523ZM35.7505 75.0743H61.5803V68.6489C61.5803 68.1349 62.0087 67.7066 62.5227 67.7066H68.9052V32.2816H64.4503C64.536 32.5815 64.5788 32.7957 64.6216 33.0098C64.793 33.6095 64.8787 33.9522 64.5788 34.3377C64.4075 34.5947 62.7512 34.7232 59.6099 34.7232C56.3544 34.7232 50.6573 34.7232 40.7623 34.7232C40.4624 34.7232 40.2054 34.5947 39.9912 34.3377C39.6914 33.9522 39.7771 33.6095 39.9484 33.0098C39.9912 32.8385 40.0769 32.5815 40.1197 32.2816H35.6649V75.0743H35.7505ZM63.5079 69.6342V73.7464L67.6201 69.6342H63.5079ZM42.0473 32.7528H62.6512C62.3085 31.2536 61.4947 27.9981 61.1948 26.7558H56.0117C55.4977 26.7558 55.0693 26.3275 55.0693 25.8135C55.0693 24.9996 54.7695 24.2714 54.2555 23.7574C53.7414 23.2433 53.0561 22.9863 52.3707 22.9863C50.8714 22.9863 49.6721 24.1857 49.6721 25.685V25.8135C49.6721 26.3275 49.2437 26.7558 48.7297 26.7558H43.5466L42.0902 32.7528H42.0473Z" fill="white"/>
<path d="M52.3271 27.2694C53.1838 27.2694 53.912 26.5841 53.912 25.6845C53.912 24.785 53.2266 24.0996 52.3271 24.0996C51.4276 24.0996 50.7422 24.785 50.7422 25.6845C50.7422 26.5841 51.4276 27.2694 52.3271 27.2694ZM52.3271 24.8278C52.7983 24.8278 53.1838 25.2133 53.1838 25.6845C53.1838 26.1557 52.7983 26.5412 52.3271 26.5412C51.8559 26.5412 51.4704 26.1557 51.4704 25.6845C51.4704 25.2133 51.8559 24.8278 52.3271 24.8278Z" fill="white"/>
<path d="M42.9035 37.6773L39.2196 41.3612L37.7632 39.9048C37.7632 39.9048 37.292 39.7334 37.1207 39.9048C36.9494 40.0761 36.9494 40.376 37.1207 40.5473L38.9198 42.3464C38.9198 42.3464 39.134 42.4749 39.2196 42.4749C39.3053 42.4749 39.4338 42.4321 39.5195 42.3464L43.546 38.3199C43.546 38.3199 43.7174 37.8487 43.546 37.6773C43.3747 37.506 43.0748 37.506 42.9035 37.6773Z" fill="white"/>
<path d="M39.2199 42.9463C38.9628 42.9463 38.7058 42.8606 38.5345 42.6465L36.7354 40.8474C36.7354 40.8474 36.4355 40.419 36.4355 40.162C36.4355 39.905 36.5212 39.648 36.6926 39.4766C37.0781 39.0911 37.6778 39.0911 38.0633 39.4766L39.177 40.5904L42.5182 37.2492C42.9037 36.9065 43.5034 36.9065 43.8461 37.2492C44.0174 37.4205 44.1459 37.6776 44.1459 37.9346C44.1459 38.1916 44.0603 38.4486 43.8461 38.6199L39.8195 42.6465C39.8195 42.6465 39.3912 42.9463 39.1342 42.9463H39.2199Z" fill="white"/>
<path d="M45.3882 42.4346H55.4545C55.7115 42.4346 55.9257 42.2204 55.9257 41.9634C55.9257 41.7064 55.7115 41.4922 55.4545 41.4922H45.3882C45.1312 41.4922 44.917 41.7064 44.917 41.9634C44.917 42.2204 45.1312 42.4346 45.3882 42.4346Z" fill="white"/>
<path d="M55.455 42.9473H45.3887C44.8746 42.9473 44.4463 42.5189 44.4463 42.0049C44.4463 41.4909 44.8746 41.0625 45.3887 41.0625H55.455C55.969 41.0625 56.3974 41.4909 56.3974 42.0049C56.3974 42.5189 55.969 42.9473 55.455 42.9473Z" fill="white"/>
<path d="M44.959 37.979C44.959 38.236 45.1732 38.4502 45.4302 38.4502H67.2334C67.4905 38.4502 67.7046 38.236 67.7046 37.979C67.7046 37.722 67.4905 37.5078 67.2334 37.5078H45.4302C45.1732 37.5078 44.959 37.722 44.959 37.979Z" fill="white"/>
<path d="M67.2339 38.9199H45.4307C44.9166 38.9199 44.4883 38.4916 44.4883 37.9775C44.4883 37.4635 44.9166 37.0352 45.4307 37.0352H67.2339C67.748 37.0352 68.1763 37.4635 68.1763 37.9775C68.1763 38.4916 67.748 38.9199 67.2339 38.9199Z" fill="white"/>
<path d="M42.9054 46.8023L39.2216 50.4862L37.7652 49.0298C37.7652 49.0298 37.294 48.8584 37.1226 49.0298C36.9513 49.2011 36.9513 49.501 37.1226 49.6723L38.9217 51.4714C38.9217 51.4714 39.1359 51.5999 39.2216 51.5999C39.3073 51.5999 39.4358 51.5571 39.5214 51.4714L43.548 47.4449C43.548 47.4449 43.7193 46.9737 43.548 46.8023C43.3766 46.631 43.0768 46.631 42.9054 46.8023Z" fill="white"/>
<path d="M39.221 52.0715C38.9639 52.0715 38.7069 51.9858 38.5356 51.7716L36.7793 50.0154C36.7793 50.0154 36.4795 49.587 36.4795 49.33C36.4795 49.073 36.5652 48.816 36.7365 48.6446C37.122 48.2591 37.7217 48.2591 38.1072 48.6446L39.221 49.7583L42.5621 46.4172C42.9477 46.0745 43.5473 46.0745 43.89 46.4172C44.0614 46.5885 44.1899 46.8455 44.1899 47.1025C44.1899 47.3595 44.1042 47.6166 43.89 47.7879L39.8635 51.8144C39.8635 51.8144 39.4351 52.1143 39.1781 52.1143L39.221 52.0715Z" fill="white"/>
<path d="M45.3882 51.6025H55.4545C55.7115 51.6025 55.9257 51.3884 55.9257 51.1313C55.9257 50.8743 55.7115 50.6602 55.4545 50.6602H45.3882C45.1312 50.6602 44.917 50.8743 44.917 51.1313C44.917 51.3884 45.1312 51.6025 45.3882 51.6025Z" fill="white"/>
<path d="M55.455 52.0723H45.3887C44.8746 52.0723 44.4463 51.6439 44.4463 51.1299C44.4463 50.6159 44.8746 50.1875 45.3887 50.1875H55.455C55.969 50.1875 56.3974 50.6159 56.3974 51.1299C56.3974 51.6439 55.969 52.0723 55.455 52.0723Z" fill="white"/>
<path d="M67.2334 46.6758H45.4302C45.1732 46.6758 44.959 46.89 44.959 47.147C44.959 47.404 45.1732 47.6182 45.4302 47.6182H67.2334C67.4905 47.6182 67.7046 47.404 67.7046 47.147C67.7046 46.89 67.4905 46.6758 67.2334 46.6758Z" fill="white"/>
<path d="M67.2339 48.0879H45.4307C44.9166 48.0879 44.4883 47.6595 44.4883 47.1455C44.4883 46.6315 44.9166 46.2031 45.4307 46.2031H67.2339C67.748 46.2031 68.1763 46.6315 68.1763 47.1455C68.1763 47.6595 67.748 48.0879 67.2339 48.0879Z" fill="white"/>
<path d="M42.9035 55.9254L39.2196 59.6092L37.7632 58.1528C37.7632 58.1528 37.292 57.9815 37.1207 58.1528C36.9494 58.3242 36.9494 58.624 37.1207 58.7954L38.9198 60.5944C38.9198 60.5944 39.134 60.723 39.2196 60.723C39.3053 60.723 39.4338 60.6801 39.5195 60.5944L43.546 56.5679C43.546 56.5679 43.7174 56.0967 43.546 55.9254C43.3747 55.754 43.0748 55.754 42.9035 55.9254Z" fill="white"/>
<path d="M39.2199 61.2375C38.9628 61.2375 38.7058 61.1518 38.5345 60.9805L36.7354 59.1814C36.7354 59.1814 36.4355 58.753 36.4355 58.496C36.4355 58.239 36.5212 57.982 36.7354 57.8106C37.0781 57.4679 37.7206 57.4679 38.1061 57.8106L39.2199 58.9244L42.561 55.5832C42.9037 55.2405 43.5462 55.2405 43.9318 55.5832C44.1031 55.7545 44.1888 56.0115 44.1888 56.2686C44.1888 56.5256 44.1031 56.7826 43.9318 56.9539L39.9052 60.9805C39.9052 60.9805 39.4769 61.2375 39.2199 61.2375Z" fill="white"/>
<path d="M45.3882 60.7236H55.4545C55.7115 60.7236 55.9257 60.5094 55.9257 60.2524C55.9257 59.9954 55.7115 59.7812 55.4545 59.7812H45.3882C45.1312 59.7812 44.917 59.9954 44.917 60.2524C44.917 60.5094 45.1312 60.7236 45.3882 60.7236Z" fill="white"/>
<path d="M55.455 61.2383H45.3887C44.8746 61.2383 44.4463 60.8099 44.4463 60.2959C44.4463 59.7819 44.8746 59.3535 45.3887 59.3535H55.455C55.969 59.3535 56.3974 59.7819 56.3974 60.2959C56.3974 60.8099 55.969 61.2383 55.455 61.2383Z" fill="white"/>
<path d="M67.2334 55.8008H45.4302C45.1732 55.8008 44.959 56.015 44.959 56.272C44.959 56.529 45.1732 56.7432 45.4302 56.7432H67.2334C67.4905 56.7432 67.7046 56.529 67.7046 56.272C67.7046 56.015 67.4905 55.8008 67.2334 55.8008Z" fill="white"/>
<path d="M67.2339 57.2129H45.4307C44.9166 57.2129 44.4883 56.7845 44.4883 56.2705C44.4883 55.7565 44.9166 55.3281 45.4307 55.3281H67.2339C67.748 55.3281 68.1763 55.7565 68.1763 56.2705C68.1763 56.7845 67.748 57.2129 67.2339 57.2129Z" fill="white"/>
<path d="M42.9035 65.0934L39.2196 68.7772L37.7632 67.3208C37.7632 67.3208 37.292 67.1495 37.1207 67.3208C36.9494 67.4921 36.9494 67.792 37.1207 67.9633L38.9198 69.7624C38.9198 69.7624 39.134 69.8909 39.2196 69.8909C39.3053 69.8909 39.4338 69.8481 39.5195 69.7624L43.546 65.7359C43.546 65.7359 43.7174 65.2647 43.546 65.0934C43.3747 64.922 43.0748 64.922 42.9035 65.0934Z" fill="white"/>
<path d="M39.2199 70.3625C38.9628 70.3625 38.7058 70.2768 38.5345 70.1054L36.7354 68.3064C36.7354 68.3064 36.4355 67.878 36.4355 67.621C36.4355 67.364 36.5212 67.107 36.7354 66.9356C37.0781 66.5929 37.7206 66.5929 38.1061 66.9356L39.2199 68.0493L42.561 64.7082C42.9037 64.3655 43.5462 64.3655 43.9318 64.7082C44.1031 64.8795 44.1888 65.1365 44.1888 65.3936C44.1888 65.6506 44.1031 65.9076 43.8889 66.0789L39.8624 70.1054C39.8624 70.1054 39.434 70.3625 39.177 70.3625H39.2199Z" fill="white"/>
<path d="M55.4545 68.9492H45.3882C45.1312 68.9492 44.917 69.1634 44.917 69.4204C44.917 69.6774 45.1312 69.8916 45.3882 69.8916H55.4545C55.7115 69.8916 55.9257 69.6774 55.9257 69.4204C55.9257 69.1634 55.7115 68.9492 55.4545 68.9492Z" fill="white"/>
<path d="M55.455 70.3633H45.3887C44.8746 70.3633 44.4463 69.9349 44.4463 69.4209C44.4463 68.9069 44.8746 68.4785 45.3887 68.4785H55.455C55.969 68.4785 56.3974 68.9069 56.3974 69.4209C56.3974 69.9349 55.969 70.3633 55.455 70.3633Z" fill="white"/>
<path d="M67.2334 64.9648H45.4302C45.1732 64.9648 44.959 65.179 44.959 65.436C44.959 65.693 45.1732 65.9072 45.4302 65.9072H67.2334C67.4905 65.9072 67.7046 65.693 67.7046 65.436C67.7046 65.179 67.4905 64.9648 67.2334 64.9648Z" fill="white"/>
<path d="M67.2339 66.3359H45.4307C44.9166 66.3359 44.4883 65.9076 44.4883 65.3935C44.4883 64.8795 44.9166 64.4512 45.4307 64.4512H67.2339C67.748 64.4512 68.1763 64.8795 68.1763 65.3935C68.1763 65.9076 67.748 66.3359 67.2339 66.3359Z" fill="white"/>
<defs>
<linearGradient id="paint0_linear_749_17884" x1="92.2074" y1="85.8249" x2="12.7904" y2="19.1729" gradientUnits="userSpaceOnUse">
<stop stop-color="#B159A0"/>
<stop offset="0.26" stop-color="#746096"/>
<stop offset="0.75" stop-color="#426290"/>
<stop offset="1" stop-color="#0D628C"/>
</linearGradient>
</defs>
</svg>
