<?xml version="1.0" encoding="UTF-8"?>
<svg id="Layer_1" data-name="Layer 1" xmlns="http://www.w3.org/2000/svg" viewBox="0.07 3.75 322.44 42.51">
	<defs>
		<style>
			.cls-1 { fill: #fff; } 
      .cls-2 { fill: #bb0e3d; } 
      .cls-3 { fill: #ba1f40; } 
      .cls-4 { fill: #606061; }
		</style>
	</defs>
	<g id="NCI">
		<path class="cls-2" d="m84.47,5.29h1.8v8.07h-1.8l-3.85-5.06v5.06h-1.8V5.29h1.69l3.96,5.2v-5.2Z" />
		<path class="cls-2" d="m94.01,13.36l-.75-1.74h-3.38l-.75,1.74h-1.92l3.49-8.07h1.74l3.49,8.07h-1.92Zm-2.44-5.67l-1.02,2.34h2.02l-1.01-2.34Z" />
		<path class="cls-2" d="m99.69,6.85v6.51h-1.8v-6.51h-2.29v-1.56h6.37v1.56h-2.29Z" />
		<path class="cls-2" d="m103.29,5.29h1.8v8.07h-1.8V5.29Z" />
		<path class="cls-2" d="m113.87,12.24c-.82.8-1.82,1.2-3.01,1.2s-2.2-.4-3.01-1.2c-.82-.8-1.22-1.79-1.22-2.97s.41-2.18,1.22-2.97c.82-.8,1.82-1.2,3.01-1.2s2.2.4,3.01,1.2c.82.8,1.22,1.79,1.22,2.97s-.41,2.18-1.22,2.97Zm-.61-2.97c0-.72-.23-1.33-.69-1.84-.46-.51-1.03-.76-1.7-.76s-1.24.25-1.7.76-.69,1.12-.69,1.84.23,1.33.69,1.84c.46.5,1.03.76,1.7.76s1.24-.25,1.7-.76c.46-.5.69-1.12.69-1.84Z" />
		<path class="cls-2" d="m122.27,5.29h1.8v8.07h-1.8l-3.85-5.06v5.06h-1.8V5.29h1.69l3.96,5.2v-5.2Z" />
		<path class="cls-2" d="m131.81,13.36l-.75-1.74h-3.38l-.75,1.74h-1.92l3.49-8.07h1.74l3.49,8.07h-1.92Zm-2.44-5.67l-1.02,2.34h2.02l-1-2.34Z" />
		<path class="cls-2" d="m134.66,13.36V5.29h1.8v6.47h3.44v1.61h-5.24Z" />
		<path class="cls-2" d="m147.97,11.77c.88,0,1.61-.35,2.17-1.05l1.15,1.19c-.92,1.03-2,1.55-3.24,1.55s-2.27-.39-3.07-1.18c-.8-.79-1.21-1.78-1.21-2.97s.41-2.2,1.23-3c.82-.8,1.82-1.2,3.01-1.2,1.32,0,2.43.5,3.33,1.51l-1.12,1.27c-.57-.71-1.28-1.06-2.12-1.06-.68,0-1.26.22-1.74.66-.48.44-.72,1.04-.72,1.79s.23,1.35.68,1.81c.45.45,1,.68,1.65.68Z" />
		<path class="cls-2" d="m158.41,13.36l-.75-1.74h-3.38l-.75,1.74h-1.92l3.49-8.07h1.74l3.49,8.07h-1.92Zm-2.44-5.67l-1.02,2.34h2.02l-1-2.34Z" />
		<path class="cls-2" d="m166.91,5.29h1.8v8.07h-1.8l-3.85-5.06v5.06h-1.8V5.29h1.69l3.96,5.2v-5.2Z" />
		<path class="cls-2" d="m174.41,11.77c.89,0,1.61-.35,2.17-1.05l1.16,1.19c-.92,1.03-2,1.55-3.24,1.55s-2.27-.39-3.07-1.18c-.8-.79-1.21-1.78-1.21-2.97s.41-2.2,1.23-3c.82-.8,1.82-1.2,3.01-1.2,1.32,0,2.43.5,3.33,1.51l-1.12,1.27c-.57-.71-1.28-1.06-2.12-1.06-.68,0-1.26.22-1.74.66-.48.44-.72,1.04-.72,1.79s.23,1.35.68,1.81c.45.45,1.01.68,1.65.68Z" />
		<path class="cls-2" d="m184.98,5.29v1.61h-4.02v1.66h3.61v1.54h-3.61v1.67h4.15v1.59h-5.95V5.29h5.82Z" />
		<path class="cls-2" d="m193.26,7.97c0,1.29-.51,2.13-1.54,2.51l2.04,2.89h-2.22l-1.79-2.58h-1.25v2.58h-1.8V5.29h3.06c1.25,0,2.15.21,2.69.64s.8,1.1.8,2.04Zm-2.17.96c.22-.2.33-.52.33-.95s-.11-.73-.35-.9-.64-.24-1.21-.24h-1.35v2.39h1.32c.62,0,1.04-.1,1.26-.3Z" />
		<path class="cls-2" d="m198.15,5.29h1.8v8.07h-1.8V5.29Z" />
		<path class="cls-2" d="m207.59,5.29h1.8v8.07h-1.8l-3.85-5.06v5.06h-1.8V5.29h1.69l3.96,5.2v-5.2Z" />
		<path class="cls-2" d="m213.26,6.9c-.17.14-.26.33-.26.57s.11.42.32.56c.21.14.7.3,1.47.49s1.36.47,1.79.85c.42.38.64.93.64,1.65s-.27,1.31-.81,1.76-1.26.68-2.14.68c-1.28,0-2.43-.47-3.45-1.42l1.07-1.32c.87.76,1.67,1.14,2.41,1.14.33,0,.59-.07.78-.21.19-.14.28-.33.28-.58s-.1-.44-.3-.58-.6-.29-1.19-.43c-.94-.22-1.63-.51-2.06-.87s-.65-.92-.65-1.69.28-1.36.83-1.77c.55-.42,1.24-.62,2.06-.62.54,0,1.08.09,1.62.28.54.18,1.01.45,1.41.79l-.91,1.32c-.7-.53-1.42-.8-2.17-.8-.3,0-.54.07-.71.21Z" />
		<path class="cls-2" d="m222.09,6.85v6.51h-1.8v-6.51h-2.29v-1.56h6.37v1.56h-2.29Z" />
		<path class="cls-2" d="m225.7,5.29h1.8v8.07h-1.8V5.29Z" />
		<path class="cls-2" d="m232.9,6.85v6.51h-1.8v-6.51h-2.29v-1.56h6.37v1.56h-2.29Z" />
		<path class="cls-2" d="m238.64,11.27c.3.37.71.56,1.21.56s.91-.19,1.21-.56c.3-.37.44-.88.44-1.53v-4.46h1.8v4.52c0,1.17-.32,2.07-.97,2.7-.65.63-1.47.94-2.48.94s-1.84-.32-2.49-.95-.98-1.53-.98-2.69v-4.52h1.8v4.46c0,.65.15,1.16.45,1.53Z" />
		<path class="cls-2" d="m248.6,6.85v6.51h-1.8v-6.51h-2.29v-1.56h6.37v1.56h-2.29Z" />
		<path class="cls-2" d="m258.02,5.29v1.61h-4.02v1.66h3.61v1.54h-3.61v1.67h4.15v1.59h-5.95V5.29h5.82Z" />
	</g>
	<g>
		<path class="cls-3" d="m57.7,5.99c-.92-1.32-2.37-2.24-3.95-2.24h-3.55l11.97,21.18-11.97,21.18h3.55c1.71,0,3.16-.92,3.95-2.24l10.53-18.95-10.53-18.95Z" />
		<path class="cls-4" d="m58.88,24.93L47.17,3.75H4.67C2.04,3.75.07,5.86.07,8.36v33.29c0,2.5,1.97,4.61,4.61,4.61h42.5l11.71-21.32Z" />
		<rect class="cls-1" x="25.2" y="15.59" width="3.16" height="18.82" />
		<polygon class="cls-1" points="18.88 15.59 18.88 29.28 10.2 15.59 7.17 15.59 7.17 34.41 10.2 34.41 10.2 20.59 18.88 34.41 22.04 34.41 22.04 15.59 18.88 15.59" />
		<polygon class="cls-1" points="43.22 15.59 43.22 23.36 34.54 23.36 34.54 15.59 31.38 15.59 31.38 34.41 34.54 34.41 34.54 26.51 43.22 26.51 43.22 34.41 46.38 34.41 46.38 15.59 43.22 15.59" />
	</g>
	<g>
		<path class="cls-4" d="m83.56,29.57c-.77,0-1.48-.13-2.14-.38-.66-.25-1.23-.61-1.72-1.08-.48-.47-.86-1.01-1.13-1.64s-.41-1.32-.41-2.07.14-1.44.41-2.07.65-1.17,1.14-1.64c.49-.47,1.06-.82,1.72-1.08.66-.25,1.38-.38,2.14-.38.86,0,1.65.15,2.35.45s1.29.74,1.77,1.32l-1.5,1.37c-.33-.39-.71-.68-1.13-.88s-.88-.3-1.38-.3c-.47,0-.89.08-1.28.24s-.73.38-1.01.66c-.29.28-.51.62-.66,1.01-.16.39-.24.82-.24,1.3s.08.91.24,1.3c.16.39.38.73.66,1.01.29.29.62.51,1.01.66s.82.24,1.28.24c.49,0,.95-.1,1.38-.31.42-.2.8-.5,1.13-.89l1.5,1.37c-.47.58-1.06,1.02-1.77,1.33-.7.3-1.49.46-2.37.46Z" />
		<path class="cls-4" d="m91.38,29.51c-.59,0-1.1-.1-1.52-.31s-.76-.48-.99-.83c-.23-.35-.35-.75-.35-1.18s.11-.84.33-1.19.58-.62,1.06-.81,1.12-.29,1.91-.29h2.02v1.28h-1.8c-.52,0-.88.09-1.08.26-.19.17-.29.38-.29.64,0,.29.11.51.33.68.22.17.52.25.91.25s.72-.09,1.02-.26.51-.43.63-.78l.34,1.04c-.16.48-.46.84-.88,1.1s-.98.39-1.65.39Zm2.34-.11v-1.5l-.14-.33v-2.68c0-.48-.14-.85-.43-1.11-.29-.27-.73-.4-1.33-.4-.41,0-.81.06-1.2.19-.39.13-.73.3-1.02.52l-.78-1.55c.42-.3.92-.53,1.51-.69.59-.16,1.19-.23,1.79-.23,1.17,0,2.08.28,2.72.83.65.55.97,1.41.97,2.58v4.37h-2.08Z" />
		<path class="cls-4" d="m102.47,21.62c.61,0,1.15.12,1.63.36s.86.61,1.13,1.11c.28.5.41,1.14.41,1.92v4.39h-2.22v-4.05c0-.62-.14-1.07-.41-1.37s-.65-.44-1.15-.44c-.35,0-.67.08-.95.23-.28.15-.5.38-.66.67s-.24.68-.24,1.17v3.79h-2.22v-7.67h2.12v2.12l-.4-.64c.28-.51.67-.91,1.18-1.18.51-.28,1.1-.41,1.75-.41Z" />
		<path class="cls-4" d="m111.42,29.51c-.83,0-1.56-.17-2.2-.51-.64-.34-1.15-.8-1.51-1.4-.37-.6-.55-1.28-.55-2.04s.18-1.45.55-2.04c.37-.59.87-1.05,1.51-1.4.64-.34,1.38-.51,2.2-.51s1.51.17,2.12.51c.6.34,1.04.81,1.3,1.43l-1.71.94c-.21-.36-.46-.62-.75-.79-.29-.17-.62-.25-.97-.25-.37,0-.71.08-1.01.25-.3.17-.55.41-.73.72-.18.31-.27.69-.27,1.14s.09.83.27,1.15c.18.32.42.56.73.73.3.17.64.25,1.01.25.35,0,.67-.08.97-.25.29-.17.55-.43.75-.81l1.71.94c-.27.61-.7,1.08-1.3,1.43-.6.34-1.31.51-2.12.51Z" />
		<path class="cls-4" d="m119.84,29.51c-.87,0-1.64-.17-2.29-.51-.66-.34-1.16-.81-1.53-1.4-.36-.59-.54-1.27-.54-2.03s.17-1.44.52-2.04.83-1.07,1.45-1.4c.62-.34,1.32-.51,2.1-.51s1.43.16,2.03.48c.6.32,1.08.78,1.43,1.37.35.59.53,1.3.53,2.12,0,.09,0,.18-.01.29,0,.11-.02.21-.03.31h-6.23v-1.3h5.06l-.87.38c0-.4-.07-.75-.23-1.04-.16-.29-.38-.52-.67-.69-.29-.17-.62-.25-1-.25s-.71.08-1,.25c-.29.17-.52.4-.68.7-.16.3-.24.65-.24,1.06v.34c0,.43.09.8.29,1.11.19.31.45.55.78.72.33.17.73.25,1.2.25.4,0,.75-.06,1.06-.19s.59-.31.85-.56l1.18,1.28c-.35.4-.79.71-1.33.92s-1.14.32-1.84.32Z" />
		<path class="cls-4" d="m125.03,29.4v-7.67h2.12v2.18l-.3-.64c.23-.54.59-.95,1.1-1.23.5-.28,1.12-.42,1.84-.42v2.07c-.08-.02-.17-.03-.25-.04-.08,0-.16-.01-.24-.01-.63,0-1.13.18-1.5.53-.37.35-.56.89-.56,1.62v3.62h-2.22Z" />
		<path class="cls-4" d="m135.36,29.4v-9.98h4.32c.89,0,1.66.15,2.31.43.65.29,1.14.71,1.5,1.25s.53,1.18.53,1.92-.18,1.39-.53,1.93c-.35.54-.85.95-1.5,1.23-.65.28-1.42.42-2.31.42h-3.05l1.05-1v3.79h-2.32Zm2.32-3.53l-1.05-1.1h2.92c.7,0,1.24-.15,1.6-.46.36-.3.54-.73.54-1.28s-.18-.98-.54-1.28c-.36-.3-.89-.45-1.6-.45h-2.92l1.05-1.1v5.66Zm4.03,3.53l-2.51-3.62h2.48l2.51,3.62h-2.48Z" />
		<path class="cls-4" d="m149.48,29.51c-.87,0-1.64-.17-2.29-.51-.66-.34-1.16-.81-1.53-1.4-.36-.59-.54-1.27-.54-2.03s.17-1.44.52-2.04.83-1.07,1.45-1.4c.62-.34,1.32-.51,2.1-.51s1.43.16,2.03.48c.6.32,1.08.78,1.43,1.37.35.59.53,1.3.53,2.12,0,.09,0,.18-.01.29,0,.11-.02.21-.03.31h-6.23v-1.3h5.06l-.87.38c0-.4-.07-.75-.23-1.04-.16-.29-.38-.52-.67-.69-.29-.17-.62-.25-1-.25s-.71.08-1,.25c-.29.17-.52.4-.68.7-.16.3-.24.65-.24,1.06v.34c0,.43.09.8.29,1.11.19.31.45.55.78.72.33.17.73.25,1.2.25.4,0,.75-.06,1.06-.19s.59-.31.85-.56l1.18,1.28c-.35.4-.79.71-1.33.92s-1.14.32-1.84.32Z" />
		<path class="cls-4" d="m157.25,29.51c-.66,0-1.28-.08-1.88-.23-.6-.16-1.08-.35-1.44-.59l.73-1.58c.36.21.78.38,1.26.52s.95.21,1.42.21c.51,0,.88-.06,1.09-.19.21-.12.32-.29.32-.51,0-.18-.08-.32-.25-.41s-.38-.16-.66-.21-.57-.09-.9-.14c-.33-.05-.66-.11-.99-.2-.33-.09-.63-.21-.91-.36s-.5-.37-.67-.65c-.17-.28-.25-.63-.25-1.07,0-.48.14-.91.43-1.29.29-.38.69-.67,1.21-.88s1.15-.31,1.9-.31c.53,0,1.07.06,1.6.18.54.12.99.28,1.36.49l-.75,1.58c-.36-.21-.73-.36-1.1-.44s-.73-.13-1.08-.13c-.51,0-.88.07-1.11.2-.23.13-.34.3-.34.51,0,.19.08.33.26.44.17.1.39.17.67.22s.58.1.91.14c.33.05.66.11.98.2s.62.21.91.36c.28.16.5.37.67.65.17.28.25.63.25,1.07,0,.47-.14.88-.43,1.25s-.7.65-1.23.86c-.54.21-1.19.31-1.96.31Z" />
		<path class="cls-4" d="m166.04,29.51c-.87,0-1.64-.17-2.29-.51-.66-.34-1.16-.81-1.52-1.4-.36-.59-.54-1.27-.54-2.03s.17-1.44.52-2.04.83-1.07,1.45-1.4c.62-.34,1.32-.51,2.1-.51s1.43.16,2.03.48,1.08.78,1.43,1.37c.35.59.53,1.3.53,2.12,0,.09,0,.18-.01.29,0,.11-.02.21-.03.31h-6.23v-1.3h5.06l-.87.38c0-.4-.07-.75-.23-1.04-.16-.29-.38-.52-.67-.69-.29-.17-.62-.25-1-.25s-.71.08-1,.25c-.29.17-.51.4-.68.7-.16.3-.24.65-.24,1.06v.34c0,.43.09.8.29,1.11s.45.55.78.72c.33.17.73.25,1.2.25.4,0,.75-.06,1.06-.19.31-.12.59-.31.85-.56l1.18,1.28c-.35.4-.79.71-1.33.92-.53.21-1.15.32-1.84.32Z" />
		<path class="cls-4" d="m173.38,29.51c-.59,0-1.1-.1-1.52-.31s-.76-.48-.99-.83c-.23-.35-.35-.75-.35-1.18s.11-.84.33-1.19.58-.62,1.06-.81,1.12-.29,1.91-.29h2.02v1.28h-1.8c-.52,0-.88.09-1.08.26-.19.17-.29.38-.29.64,0,.29.11.51.33.68.22.17.52.25.91.25s.72-.09,1.02-.26.51-.43.63-.78l.34,1.04c-.16.48-.46.84-.88,1.1s-.98.39-1.65.39Zm2.34-.11v-1.5l-.14-.33v-2.68c0-.48-.14-.85-.43-1.11-.29-.27-.73-.4-1.33-.4-.41,0-.81.06-1.2.19-.39.13-.73.3-1.02.52l-.78-1.55c.42-.3.92-.53,1.51-.69.59-.16,1.19-.23,1.79-.23,1.17,0,2.08.28,2.72.83.65.55.97,1.41.97,2.58v4.37h-2.08Z" />
		<path class="cls-4" d="m179.8,29.4v-7.67h2.12v2.18l-.3-.64c.23-.54.59-.95,1.1-1.23.5-.28,1.12-.42,1.84-.42v2.07c-.09-.02-.17-.03-.25-.04s-.16-.01-.24-.01c-.63,0-1.12.18-1.5.53-.37.35-.56.89-.56,1.62v3.62h-2.22Z" />
		<path class="cls-4" d="m189.52,29.51c-.83,0-1.56-.17-2.2-.51-.64-.34-1.14-.8-1.51-1.4-.37-.6-.55-1.28-.55-2.04s.18-1.45.55-2.04c.37-.59.87-1.05,1.51-1.4.64-.34,1.38-.51,2.2-.51s1.51.17,2.12.51c.6.34,1.04.81,1.3,1.43l-1.71.94c-.21-.36-.46-.62-.76-.79-.29-.17-.62-.25-.97-.25-.37,0-.71.08-1.01.25-.3.17-.55.41-.73.72s-.27.69-.27,1.14.09.83.27,1.15.42.56.73.73c.3.17.64.25,1.01.25s.67-.08.97-.25c.29-.17.55-.43.76-.81l1.71.94c-.27.61-.7,1.08-1.3,1.43-.6.34-1.31.51-2.12.51Z" />
		<path class="cls-4" d="m198.84,21.62c.61,0,1.15.12,1.63.36s.86.61,1.13,1.11c.28.5.41,1.14.41,1.92v4.39h-2.22v-4.05c0-.62-.14-1.07-.41-1.37s-.65-.44-1.15-.44c-.35,0-.67.08-.95.23-.28.15-.5.38-.66.67s-.24.68-.24,1.17v3.79h-2.22v-10.57h2.22v5.03l-.5-.64c.28-.51.67-.91,1.18-1.18.51-.28,1.1-.41,1.75-.41Z" />
		<path class="cls-4" d="m208.22,29.4v-9.98h4.53c1.08,0,2.04.21,2.86.62.83.41,1.47.99,1.94,1.74.46.75.7,1.62.7,2.63s-.23,1.88-.7,2.63c-.47.75-1.11,1.33-1.94,1.74-.83.41-1.78.62-2.86.62h-4.53Zm2.32-1.88h2.09c.67,0,1.24-.13,1.73-.38.49-.25.87-.61,1.14-1.08.27-.47.41-1.02.41-1.65s-.14-1.19-.41-1.65c-.27-.47-.65-.82-1.14-1.08-.49-.25-1.07-.38-1.73-.38h-2.09v6.21Z" />
		<path class="cls-4" d="m222.2,29.51c-.59,0-1.1-.1-1.53-.31-.43-.2-.76-.48-.99-.83s-.35-.75-.35-1.18.11-.84.33-1.19c.22-.35.58-.62,1.06-.81s1.12-.29,1.91-.29h2.02v1.28h-1.8c-.52,0-.88.09-1.08.26-.2.17-.29.38-.29.64,0,.29.11.51.33.68.22.17.52.25.9.25s.72-.09,1.02-.26c.3-.17.51-.43.63-.78l.34,1.04c-.16.48-.46.84-.88,1.1-.43.26-.98.39-1.65.39Zm2.34-.11v-1.5l-.14-.33v-2.68c0-.48-.15-.85-.43-1.11-.29-.27-.73-.4-1.33-.4-.41,0-.81.06-1.2.19-.39.13-.73.3-1.02.52l-.78-1.55c.42-.3.92-.53,1.51-.69s1.19-.23,1.8-.23c1.17,0,2.08.28,2.72.83.65.55.97,1.41.97,2.58v4.37h-2.08Z" />
		<path class="cls-4" d="m227.71,23.61v-1.71h5.32v1.71h-5.32Zm4.05,5.9c-.9,0-1.61-.23-2.11-.69-.5-.46-.75-1.15-.75-2.06v-6.73h2.24v6.68c0,.32.08.58.25.76.17.18.39.27.68.27.36,0,.67-.1.91-.29l.58,1.57c-.22.16-.49.28-.8.36s-.65.12-.99.12Z" />
		<path class="cls-4" d="m237.19,29.51c-.59,0-1.1-.1-1.52-.31s-.76-.48-.99-.83c-.23-.35-.35-.75-.35-1.18s.11-.84.33-1.19.58-.62,1.06-.81,1.12-.29,1.91-.29h2.02v1.28h-1.8c-.52,0-.88.09-1.08.26-.19.17-.29.38-.29.64,0,.29.11.51.33.68.22.17.52.25.91.25s.72-.09,1.02-.26.51-.43.63-.78l.34,1.04c-.16.48-.46.84-.88,1.1s-.98.39-1.65.39Zm2.34-.11v-1.5l-.14-.33v-2.68c0-.48-.14-.85-.43-1.11-.29-.27-.73-.4-1.33-.4-.41,0-.81.06-1.2.19-.39.13-.73.3-1.02.52l-.78-1.55c.42-.3.92-.53,1.51-.69.59-.16,1.19-.23,1.79-.23,1.17,0,2.08.28,2.72.83.65.55.97,1.41.97,2.58v4.37h-2.08Z" />
		<path class="cls-4" d="m252.58,29.57c-.77,0-1.48-.13-2.14-.38s-1.23-.61-1.72-1.08c-.48-.47-.86-1.01-1.13-1.64-.27-.63-.41-1.32-.41-2.07s.13-1.44.41-2.07c.27-.63.65-1.17,1.14-1.64s1.06-.82,1.72-1.08c.66-.25,1.38-.38,2.14-.38.86,0,1.65.15,2.35.45s1.29.74,1.77,1.32l-1.5,1.37c-.33-.39-.71-.68-1.13-.88-.42-.2-.88-.3-1.38-.3-.47,0-.89.08-1.28.24s-.73.38-1.01.66c-.29.28-.51.62-.66,1.01-.16.39-.24.82-.24,1.3s.08.91.24,1.3c.16.39.38.73.66,1.01.29.29.62.51,1.01.66s.82.24,1.28.24c.49,0,.95-.1,1.38-.31.42-.2.8-.5,1.13-.89l1.5,1.37c-.48.58-1.06,1.02-1.77,1.33-.7.3-1.49.46-2.37.46Z" />
		<path class="cls-4" d="m261.45,29.51c-.81,0-1.53-.17-2.16-.51-.63-.34-1.13-.81-1.49-1.4-.36-.59-.54-1.27-.54-2.03s.18-1.45.54-2.04.86-1.06,1.49-1.4c.63-.34,1.35-.51,2.16-.51s1.54.17,2.18.51c.64.34,1.14.8,1.5,1.4.36.59.54,1.28.54,2.04s-.18,1.45-.54,2.04c-.36.59-.86,1.05-1.5,1.4-.64.34-1.36.51-2.18.51Zm0-1.82c.38,0,.71-.08,1-.25.29-.17.52-.41.7-.73.17-.32.26-.7.26-1.14s-.09-.83-.26-1.14c-.18-.31-.41-.55-.7-.72-.29-.17-.62-.25-.99-.25s-.7.08-1,.25c-.29.17-.53.41-.71.72s-.26.69-.26,1.14.09.82.26,1.14c.18.32.41.57.71.73.29.17.62.25.98.25Z" />
		<path class="cls-4" d="m276.97,21.62c.61,0,1.15.12,1.62.36.47.24.84.61,1.1,1.11.27.5.4,1.14.4,1.92v4.39h-2.22v-4.05c0-.62-.13-1.07-.38-1.37s-.61-.44-1.06-.44c-.33,0-.63.07-.88.22s-.45.37-.59.66c-.14.29-.21.67-.21,1.13v3.85h-2.22v-4.05c0-.62-.13-1.07-.38-1.37s-.62-.44-1.09-.44c-.32,0-.61.07-.87.22-.26.15-.46.37-.6.66-.14.29-.21.67-.21,1.13v3.85h-2.22v-7.67h2.12v2.08l-.4-.6c.26-.52.63-.92,1.13-1.19.49-.27,1.05-.41,1.67-.41.7,0,1.32.18,1.85.53s.88.9,1.05,1.63l-.78-.21c.26-.59.67-1.06,1.23-1.42s1.21-.53,1.95-.53Z" />
		<path class="cls-4" d="m291.92,21.62c.61,0,1.15.12,1.62.36.47.24.84.61,1.1,1.11.27.5.4,1.14.4,1.92v4.39h-2.22v-4.05c0-.62-.13-1.07-.38-1.37s-.61-.44-1.06-.44c-.33,0-.63.07-.88.22s-.45.37-.59.66c-.14.29-.21.67-.21,1.13v3.85h-2.22v-4.05c0-.62-.13-1.07-.38-1.37s-.62-.44-1.09-.44c-.32,0-.61.07-.87.22-.26.15-.46.37-.6.66-.14.29-.21.67-.21,1.13v3.85h-2.22v-7.67h2.12v2.08l-.4-.6c.26-.52.63-.92,1.13-1.19.49-.27,1.05-.41,1.67-.41.7,0,1.32.18,1.85.53s.88.9,1.05,1.63l-.78-.21c.26-.59.67-1.06,1.23-1.42s1.21-.53,1.95-.53Z" />
		<path class="cls-4" d="m300.74,29.51c-.81,0-1.53-.17-2.16-.51-.63-.34-1.13-.81-1.49-1.4-.36-.59-.54-1.27-.54-2.03s.18-1.45.54-2.04.86-1.06,1.49-1.4c.63-.34,1.35-.51,2.16-.51s1.54.17,2.18.51c.64.34,1.14.8,1.5,1.4.36.59.54,1.28.54,2.04s-.18,1.45-.54,2.04c-.36.59-.86,1.05-1.5,1.4-.64.34-1.36.51-2.18.51Zm0-1.82c.38,0,.71-.08,1-.25.29-.17.52-.41.7-.73.17-.32.26-.7.26-1.14s-.09-.83-.26-1.14c-.18-.31-.41-.55-.7-.72-.29-.17-.62-.25-.99-.25s-.7.08-1,.25c-.29.17-.53.41-.71.72s-.26.69-.26,1.14.09.82.26,1.14c.18.32.41.57.71.73.29.17.62.25.98.25Z" />
		<path class="cls-4" d="m311.1,21.62c.61,0,1.15.12,1.63.36.48.24.86.61,1.13,1.11.28.5.41,1.14.41,1.92v4.39h-2.22v-4.05c0-.62-.14-1.07-.41-1.37s-.65-.44-1.15-.44c-.35,0-.67.08-.95.23-.28.15-.5.38-.66.67-.16.29-.23.68-.23,1.17v3.79h-2.22v-7.67h2.12v2.12l-.4-.64c.28-.51.67-.91,1.18-1.18s1.1-.41,1.75-.41Z" />
		<path class="cls-4" d="m318.87,29.51c-.66,0-1.28-.08-1.88-.23-.6-.16-1.08-.35-1.44-.59l.73-1.58c.36.21.78.38,1.26.52s.95.21,1.42.21c.51,0,.88-.06,1.09-.19.21-.12.32-.29.32-.51,0-.18-.08-.32-.25-.41s-.38-.16-.66-.21-.57-.09-.9-.14c-.33-.05-.66-.11-.99-.2-.33-.09-.63-.21-.91-.36s-.5-.37-.67-.65c-.17-.28-.25-.63-.25-1.07,0-.48.14-.91.43-1.29.29-.38.69-.67,1.21-.88s1.15-.31,1.9-.31c.53,0,1.07.06,1.6.18.54.12.99.28,1.36.49l-.75,1.58c-.36-.21-.73-.36-1.1-.44s-.73-.13-1.08-.13c-.51,0-.88.07-1.11.2-.23.13-.34.3-.34.51,0,.19.08.33.26.44.17.1.39.17.67.22s.58.1.91.14c.33.05.66.11.98.2s.62.21.91.36c.28.16.5.37.67.65.17.28.25.63.25,1.07,0,.47-.14.88-.43,1.25s-.7.65-1.23.86c-.54.21-1.19.31-1.96.31Z" />
		<path class="cls-4" d="m78.79,44.7v-9.98h4.53c1.08,0,2.04.21,2.86.62s1.47.99,1.94,1.74c.47.75.7,1.62.7,2.63s-.23,1.88-.7,2.63c-.47.75-1.11,1.33-1.94,1.74s-1.78.62-2.86.62h-4.53Zm2.32-1.88h2.09c.67,0,1.24-.13,1.73-.38.49-.25.87-.61,1.14-1.08s.41-1.02.41-1.65-.14-1.19-.41-1.65c-.27-.47-.65-.82-1.14-1.08-.49-.25-1.07-.38-1.73-.38h-2.09v6.21Z" />
		<path class="cls-4" d="m92.76,44.81c-.59,0-1.1-.1-1.52-.31s-.76-.48-.99-.83c-.23-.35-.35-.75-.35-1.18s.11-.84.33-1.19.58-.62,1.06-.81,1.12-.29,1.91-.29h2.02v1.28h-1.8c-.52,0-.88.09-1.08.26-.19.17-.29.38-.29.64,0,.29.11.51.33.68.22.17.52.25.91.25s.72-.09,1.02-.26.51-.43.63-.78l.34,1.04c-.16.48-.46.84-.88,1.1s-.98.39-1.65.39Zm2.34-.11v-1.5l-.14-.33v-2.68c0-.48-.14-.85-.43-1.11-.29-.27-.73-.4-1.33-.4-.41,0-.81.06-1.2.19-.39.13-.73.3-1.02.52l-.78-1.55c.42-.3.92-.53,1.51-.69.59-.16,1.19-.23,1.79-.23,1.17,0,2.08.28,2.72.83.65.55.97,1.41.97,2.58v4.37h-2.08Z" />
		<path class="cls-4" d="m98.28,38.91v-1.71h5.32v1.71h-5.32Zm4.05,5.9c-.9,0-1.61-.23-2.11-.69-.5-.46-.75-1.15-.75-2.06v-6.73h2.24v6.68c0,.32.08.58.25.76.17.18.39.27.68.27.36,0,.66-.1.91-.29l.58,1.57c-.22.16-.49.28-.81.36s-.65.12-.99.12Z" />
		<path class="cls-4" d="m107.76,44.81c-.59,0-1.1-.1-1.53-.31-.43-.2-.76-.48-.99-.83s-.35-.75-.35-1.18.11-.84.33-1.19c.22-.35.58-.62,1.06-.81s1.12-.29,1.91-.29h2.02v1.28h-1.8c-.52,0-.88.09-1.08.26-.2.17-.29.38-.29.64,0,.29.11.51.33.68.22.17.52.25.9.25s.72-.09,1.02-.26c.3-.17.51-.43.63-.78l.34,1.04c-.16.48-.46.84-.88,1.1-.43.26-.98.39-1.65.39Zm2.34-.11v-1.5l-.14-.33v-2.68c0-.48-.15-.85-.43-1.11-.29-.27-.73-.4-1.33-.4-.41,0-.81.06-1.2.19-.39.13-.73.3-1.02.52l-.78-1.55c.42-.3.92-.53,1.51-.69s1.19-.23,1.8-.23c1.17,0,2.08.28,2.72.83.65.55.97,1.41.97,2.58v4.37h-2.08Z" />
		<path class="cls-4" d="m120.69,44.7h-2.32v-9.98h2.32v9.98Zm4.69-4.09h-4.87v-1.95h4.87v1.95Zm-.17-5.89h2.31v9.98h-2.31v-9.98Z" />
		<path class="cls-4" d="m132.96,44.81c-.65,0-1.22-.12-1.71-.37-.49-.25-.88-.63-1.15-1.14s-.41-1.16-.41-1.94v-4.33h2.22v3.99c0,.65.14,1.12.41,1.42s.65.45,1.15.45c.34,0,.65-.08.91-.23.27-.15.48-.38.63-.68.16-.3.23-.68.23-1.14v-3.8h2.21v7.67h-2.11v-2.12l.38.63c-.27.53-.65.93-1.14,1.2-.49.27-1.04.41-1.62.41Z" />
		<path class="cls-4" d="m139.52,44.7v-10.57h2.22v4.46l-.14,2.27.04,2.28v1.57h-2.12Zm4.52.11c-.66,0-1.23-.14-1.72-.42s-.86-.71-1.12-1.3c-.26-.59-.38-1.33-.38-2.22s.13-1.64.41-2.22c.27-.58.65-1.01,1.13-1.3s1.04-.43,1.68-.43c.73,0,1.38.16,1.96.49.57.33,1.03.79,1.37,1.38.34.59.51,1.28.51,2.08s-.17,1.49-.51,2.08c-.34.59-.79,1.05-1.37,1.38-.58.33-1.23.49-1.96.49Zm-.37-1.82c.37,0,.7-.08.99-.25.29-.17.52-.41.7-.73.18-.32.26-.7.26-1.14s-.09-.83-.26-1.14-.41-.55-.7-.72c-.29-.17-.62-.25-.99-.25s-.7.08-1,.25c-.29.17-.53.41-.71.72s-.26.69-.26,1.14.09.82.26,1.14c.18.32.41.57.71.73.29.17.63.25,1,.25Z" />
	</g>
</svg>
