<?xml version="1.0" encoding="utf-8"?>
<!-- Generator: Adobe Illustrator 27.0.0, SVG Export Plug-In . SVG Version: 6.00 Build 0)  -->
<svg version="1.1" id="Layer_1" xmlns="http://www.w3.org/2000/svg" xmlns:xlink="http://www.w3.org/1999/xlink" x="0px" y="0px"
	 viewBox="0 0 354.6 59.5" style="enable-background:new 0 0 354.6 59.5;" xml:space="preserve">
<style type="text/css">
	.st0{fill:#606061;}
	.st1{fill:#BA1F40;}
	.st2{fill:#FFFFFF;}
	.st3{fill:#BB0E3D;}
	.st4{fill:none;}
	.st5{fill:#606060;}
	.st6{font-family:'Montserrat-Bold';}
	.st7{font-size:21px;}
	.st8{fill:none;stroke:#606060;stroke-width:0.125;stroke-miterlimit:10;}
</style>
<g id="Layer_1_00000050662022794233017630000007584231603143939202_">
	<g>
		<g>
			<path class="st0" d="M77.7,29.9l-15-27H8.5c-3.2,0-5.8,2.6-5.8,5.8v42.4c0,3.2,2.6,5.8,5.8,5.8h54.2L77.7,29.9z"/>
			<path class="st1" d="M76.2,5.7c-1.1-1.7-3-2.8-5-2.8h-4.5l15.2,27l-15.2,27h4.5c2.1,0,4-1.1,5-2.8l13.5-24.2L76.2,5.7z"/>
		</g>
		<g>
			<rect x="34.7" y="17.9" class="st2" width="4" height="24"/>
			<polygon class="st2" points="26.7,17.9 26.7,35.5 15.7,17.9 11.7,17.9 11.7,41.9 15.7,41.9 15.7,24.3 26.7,41.9 30.7,41.9 
				30.7,17.9 			"/>
			<polygon class="st2" points="57.7,17.9 57.7,27.9 46.7,27.9 46.7,17.9 42.7,17.9 42.7,41.9 46.7,41.9 46.7,31.9 57.7,31.9 
				57.7,41.9 61.7,41.9 61.7,17.9 			"/>
		</g>
	</g>
	<g>
		<g>
			<path class="st3" d="M110.6,10.9h2.5v11.2h-2.5l-5.3-7v7h-2.5V10.9h2.3l5.5,7.2V10.9z"/>
			<path class="st3" d="M123.8,22.1l-1-2.4h-4.7l-1,2.4h-2.7l4.8-11.2h2.4l4.8,11.2H123.8z M120.4,14.2l-1.4,3.2h2.8L120.4,14.2z"/>
			<path class="st3" d="M131.7,13v9h-2.5v-9H126v-2.2h8.8V13H131.7z"/>
			<path class="st3" d="M136.7,10.9h2.5v11.2h-2.5V10.9z"/>
			<path class="st3" d="M151.3,20.5c-1.1,1.1-2.5,1.7-4.2,1.7s-3-0.6-4.2-1.7c-1.1-1.1-1.7-2.5-1.7-4.1s0.6-3,1.7-4.1
				c1.1-1.1,2.5-1.7,4.2-1.7s3,0.6,4.2,1.7c1.1,1.1,1.7,2.5,1.7,4.1S152.5,19.4,151.3,20.5z M150.5,16.4c0-1-0.3-1.8-1-2.6
				c-0.6-0.7-1.4-1.1-2.4-1.1s-1.7,0.4-2.4,1.1s-1,1.6-1,2.6s0.3,1.8,1,2.5c0.6,0.7,1.4,1,2.4,1s1.7-0.3,2.4-1
				C150.2,18.3,150.5,17.4,150.5,16.4z"/>
			<path class="st3" d="M163,10.9h2.5v11.2H163l-5.3-7v7h-2.6V10.9h2.3l5.5,7.2L163,10.9L163,10.9z"/>
			<path class="st3" d="M176.2,22.1l-1-2.4h-4.7l-1,2.4h-2.7l4.8-11.2h2.4l4.8,11.2H176.2z M172.8,14.2l-1.4,3.2h2.8L172.8,14.2z"/>
			<path class="st3" d="M180.1,22.1V10.9h2.5v9h4.8v2.2C187.4,22.1,180.1,22.1,180.1,22.1z"/>
			<path class="st3" d="M198.6,19.9c1.2,0,2.2-0.5,3-1.5l1.6,1.6c-1.3,1.4-2.8,2.1-4.5,2.1s-3.1-0.5-4.3-1.6
				c-1.1-1.1-1.7-2.5-1.7-4.1c0-1.7,0.6-3,1.7-4.2c1.1-1.1,2.5-1.7,4.2-1.7c1.8,0,3.4,0.7,4.6,2.1l-1.6,1.8c-0.8-1-1.8-1.5-2.9-1.5
				c-0.9,0-1.7,0.3-2.4,0.9s-1,1.4-1,2.5s0.3,1.9,0.9,2.5C196.9,19.5,197.7,19.9,198.6,19.9z"/>
			<path class="st3" d="M213,22.1l-1-2.4h-4.7l-1,2.4h-2.7l4.8-11.2h2.4l4.8,11.2H213z M209.7,14.2l-1.4,3.2h2.8L209.7,14.2z"/>
			<path class="st3" d="M224.8,10.9h2.5v11.2h-2.5l-5.3-7v7H217V10.9h2.3l5.5,7.2V10.9z"/>
			<path class="st3" d="M235.2,19.9c1.2,0,2.2-0.5,3-1.5l1.6,1.6c-1.3,1.4-2.8,2.1-4.5,2.1s-3.1-0.5-4.3-1.6
				c-1.1-1.1-1.7-2.5-1.7-4.1c0-1.7,0.6-3,1.7-4.2c1.1-1.1,2.5-1.7,4.2-1.7c1.8,0,3.4,0.7,4.6,2.1l-1.6,1.8c-0.8-1-1.8-1.5-2.9-1.5
				c-0.9,0-1.7,0.3-2.4,0.9s-1,1.4-1,2.5s0.3,1.9,0.9,2.5C233.5,19.5,234.3,19.9,235.2,19.9z"/>
			<path class="st3" d="M249.8,10.9v2.2h-5.6v2.3h5v2.1h-5v2.3h5.7V22h-8.2V10.9H249.8z"/>
			<path class="st3" d="M261.3,14.6c0,1.8-0.7,2.9-2.1,3.5l2.8,4h-3.1l-2.5-3.6h-1.7v3.6h-2.5V10.9h4.2c1.7,0,3,0.3,3.7,0.9
				S261.3,13.3,261.3,14.6z M258.3,15.9c0.3-0.3,0.5-0.7,0.5-1.3s-0.2-1-0.5-1.2s-0.9-0.3-1.7-0.3h-1.9v3.3h1.8
				C257.4,16.3,258,16.2,258.3,15.9z"/>
			<path class="st3" d="M268.1,10.9h2.5v11.2h-2.5V10.9z"/>
			<path class="st3" d="M281.2,10.9h2.5v11.2h-2.5l-5.3-7v7h-2.5V10.9h2.3l5.5,7.2V10.9z"/>
			<path class="st3" d="M289,13.1c-0.2,0.2-0.4,0.5-0.4,0.8s0.1,0.6,0.4,0.8c0.3,0.2,1,0.4,2,0.7s1.9,0.7,2.5,1.2s0.9,1.3,0.9,2.3
				s-0.4,1.8-1.1,2.4s-1.7,0.9-3,0.9c-1.8,0-3.4-0.7-4.8-2l1.5-1.8c1.2,1.1,2.3,1.6,3.3,1.6c0.5,0,0.8-0.1,1.1-0.3
				c0.3-0.2,0.4-0.5,0.4-0.8s-0.1-0.6-0.4-0.8s-0.8-0.4-1.6-0.6c-1.3-0.3-2.3-0.7-2.9-1.2S286,15,286,14s0.4-1.9,1.1-2.5
				c0.8-0.6,1.7-0.9,2.9-0.9c0.7,0,1.5,0.1,2.2,0.4s1.4,0.6,2,1.1l-1.3,1.8c-1-0.7-2-1.1-3-1.1C289.6,12.8,289.3,12.9,289,13.1z"/>
			<path class="st3" d="M301.3,13v9h-2.5v-9h-3.2v-2.2h8.8V13H301.3z"/>
			<path class="st3" d="M306.3,10.9h2.5v11.2h-2.5V10.9z"/>
			<path class="st3" d="M316.2,13v9h-2.5v-9h-3.2v-2.2h8.8V13H316.2z"/>
			<path class="st3" d="M324.2,19.2c0.4,0.5,1,0.8,1.7,0.8s1.3-0.3,1.7-0.8c0.4-0.5,0.6-1.2,0.6-2.1v-6.2h2.5v6.3
				c0,1.6-0.4,2.9-1.3,3.7c-0.9,0.9-2,1.3-3.4,1.3s-2.5-0.4-3.4-1.3s-1.4-2.1-1.4-3.7v-6.3h2.5v6.2C323.6,18,323.8,18.7,324.2,19.2z
				"/>
			<path class="st3" d="M338,13v9h-2.5v-9h-3.2v-2.2h8.8V13H338z"/>
			<path class="st3" d="M351,10.9v2.2h-5.6v2.3h5v2.1h-5v2.3h5.7V22h-8.2V10.9H351z"/>
		</g>
	</g>
	<rect x="99.7" y="33.1" class="st4" width="634" height="31.3"/>
	<text transform="matrix(1 0 0 1 99.6971 48.7161)" class="st5 st6 st7">Cancer Data Service</text>
	<text transform="matrix(1 0 0 1 99.6971 48.7161)" class="st8 st6 st7">Cancer Data Service</text>
</g>
<g id="Layer_2_00000130613389419401165930000003779746081256977036_">
</g>
</svg>
