<?xml version="1.0" encoding="utf-8"?>
<!-- Generator: Adobe Illustrator 27.0.0, SVG Export Plug-In . SVG Version: 6.00 Build 0)  -->
<svg version="1.1" xmlns="http://www.w3.org/2000/svg" xmlns:xlink="http://www.w3.org/1999/xlink" x="0px" y="0px"
	 viewBox="0 0 366.5 73.6" style="enable-background:new 0 0 366.5 73.6;" xml:space="preserve">
<style type="text/css">
	.st0{fill:#606061;}
	.st1{fill:#BA1F40;}
	.st2{fill:#FFFFFF;}
	.st3{fill:#BB0E3D;}
	.st4{fill:none;}
	.st5{fill:#606060;stroke:#606060;stroke-width:0.125;stroke-miterlimit:10;}
	.st6{font-family:'Montserrat-Bold';}
	.st7{font-size:21px;}
</style>
<g id="Layer_1">
	<g>
		<g>
			<path class="st0" d="M85.6,36.1l-15-27H16.4c-3.2,0-5.8,2.6-5.8,5.8v42.4c0,3.2,2.6,5.8,5.8,5.8h54.2L85.6,36.1z"/>
			<path class="st1" d="M84.1,11.9c-1.1-1.7-3-2.8-5-2.8h-4.5l15.2,27l-15.2,27h4.5c2.1,0,4-1.1,5-2.8l13.5-24.2L84.1,11.9z"/>
		</g>
		<g>
			<rect x="42.6" y="24.1" class="st2" width="4" height="24"/>
			<polygon class="st2" points="34.6,24.1 34.6,41.7 23.6,24.1 19.6,24.1 19.6,48.1 23.6,48.1 23.6,30.5 34.6,48.1 38.6,48.1 
				38.6,24.1 			"/>
			<polygon class="st2" points="65.6,24.1 65.6,34.1 54.6,34.1 54.6,24.1 50.6,24.1 50.6,48.1 54.6,48.1 54.6,38.1 65.6,38.1 
				65.6,48.1 69.6,48.1 69.6,24.1 			"/>
		</g>
	</g>
	<g>
		<g>
			<path class="st3" d="M118.5,17.1h2.5v11.2h-2.5l-5.3-7v7h-2.5V17.1h2.3l5.5,7.2V17.1z"/>
			<path class="st3" d="M131.7,28.3l-1-2.4H126l-1,2.4h-2.7l4.8-11.2h2.4l4.8,11.2H131.7z M128.3,20.4l-1.4,3.2h2.8L128.3,20.4z"/>
			<path class="st3" d="M139.6,19.2v9h-2.5v-9h-3.2v-2.2h8.8v2.2H139.6z"/>
			<path class="st3" d="M144.6,17.1h2.5v11.2h-2.5V17.1z"/>
			<path class="st3" d="M159.2,26.7c-1.1,1.1-2.5,1.7-4.2,1.7s-3-0.6-4.2-1.7c-1.1-1.1-1.7-2.5-1.7-4.1c0-1.6,0.6-3,1.7-4.1
				c1.1-1.1,2.5-1.7,4.2-1.7s3,0.6,4.2,1.7c1.1,1.1,1.7,2.5,1.7,4.1C160.9,24.2,160.4,25.6,159.2,26.7z M158.4,22.6
				c0-1-0.3-1.8-1-2.6c-0.6-0.7-1.4-1.1-2.4-1.1s-1.7,0.4-2.4,1.1s-1,1.6-1,2.6c0,1,0.3,1.8,1,2.5c0.6,0.7,1.4,1,2.4,1
				s1.7-0.3,2.4-1C158.1,24.5,158.4,23.6,158.4,22.6z"/>
			<path class="st3" d="M170.9,17.1h2.5v11.2h-2.5l-5.3-7v7H163V17.1h2.3l5.5,7.2V17.1z"/>
			<path class="st3" d="M184.1,28.3l-1-2.4h-4.7l-1,2.4h-2.7l4.8-11.2h2.4l4.8,11.2H184.1z M180.7,20.4l-1.4,3.2h2.8L180.7,20.4z"/>
			<path class="st3" d="M188,28.3V17.1h2.5v9h4.8v2.2H188z"/>
			<path class="st3" d="M206.5,26.1c1.2,0,2.2-0.5,3-1.5l1.6,1.6c-1.3,1.4-2.8,2.1-4.5,2.1s-3.1-0.5-4.3-1.6
				c-1.1-1.1-1.7-2.5-1.7-4.1c0-1.7,0.6-3,1.7-4.2c1.1-1.1,2.5-1.7,4.2-1.7c1.8,0,3.4,0.7,4.6,2.1l-1.6,1.8c-0.8-1-1.8-1.5-2.9-1.5
				c-0.9,0-1.7,0.3-2.4,0.9c-0.7,0.6-1,1.4-1,2.5s0.3,1.9,0.9,2.5C204.8,25.7,205.6,26.1,206.5,26.1z"/>
			<path class="st3" d="M220.9,28.3l-1-2.4h-4.7l-1,2.4h-2.7l4.8-11.2h2.4l4.8,11.2H220.9z M217.6,20.4l-1.4,3.2h2.8L217.6,20.4z"/>
			<path class="st3" d="M232.7,17.1h2.5v11.2h-2.5l-5.3-7v7h-2.5V17.1h2.3l5.5,7.2V17.1z"/>
			<path class="st3" d="M243.1,26.1c1.2,0,2.2-0.5,3-1.5l1.6,1.6c-1.3,1.4-2.8,2.1-4.5,2.1s-3.1-0.5-4.3-1.6
				c-1.1-1.1-1.7-2.5-1.7-4.1c0-1.7,0.6-3,1.7-4.2c1.1-1.1,2.5-1.7,4.2-1.7c1.8,0,3.4,0.7,4.6,2.1l-1.6,1.8c-0.8-1-1.8-1.5-2.9-1.5
				c-0.9,0-1.7,0.3-2.4,0.9c-0.7,0.6-1,1.4-1,2.5s0.3,1.9,0.9,2.5C241.4,25.7,242.2,26.1,243.1,26.1z"/>
			<path class="st3" d="M257.7,17.1v2.2h-5.6v2.3h5v2.1h-5v2.3h5.7v2.2h-8.2V17.1H257.7z"/>
			<path class="st3" d="M269.2,20.8c0,1.8-0.7,2.9-2.1,3.5l2.8,4h-3.1l-2.5-3.6h-1.7v3.6h-2.5V17.1h4.2c1.7,0,3,0.3,3.7,0.9
				S269.2,19.5,269.2,20.8z M266.2,22.1c0.3-0.3,0.5-0.7,0.5-1.3s-0.2-1-0.5-1.2s-0.9-0.3-1.7-0.3h-1.9v3.3h1.8
				C265.3,22.5,265.9,22.4,266.2,22.1z"/>
			<path class="st3" d="M276,17.1h2.5v11.2H276V17.1z"/>
			<path class="st3" d="M289.1,17.1h2.5v11.2h-2.5l-5.3-7v7h-2.5V17.1h2.3l5.5,7.2V17.1z"/>
			<path class="st3" d="M296.9,19.3c-0.2,0.2-0.4,0.5-0.4,0.8s0.1,0.6,0.4,0.8c0.3,0.2,1,0.4,2,0.7s1.9,0.7,2.5,1.2
				c0.6,0.5,0.9,1.3,0.9,2.3c0,1-0.4,1.8-1.1,2.4s-1.7,0.9-3,0.9c-1.8,0-3.4-0.7-4.8-2l1.5-1.8c1.2,1.1,2.3,1.6,3.3,1.6
				c0.5,0,0.8-0.1,1.1-0.3c0.3-0.2,0.4-0.5,0.4-0.8s-0.1-0.6-0.4-0.8s-0.8-0.4-1.6-0.6c-1.3-0.3-2.3-0.7-2.9-1.2s-0.9-1.3-0.9-2.3
				s0.4-1.9,1.1-2.5c0.8-0.6,1.7-0.9,2.9-0.9c0.7,0,1.5,0.1,2.2,0.4c0.7,0.3,1.4,0.6,2,1.1l-1.3,1.8c-1-0.7-2-1.1-3-1.1
				C297.5,19,297.2,19.1,296.9,19.3z"/>
			<path class="st3" d="M309.2,19.2v9h-2.5v-9h-3.2v-2.2h8.8v2.2H309.2z"/>
			<path class="st3" d="M314.2,17.1h2.5v11.2h-2.5V17.1z"/>
			<path class="st3" d="M324.1,19.2v9h-2.5v-9h-3.2v-2.2h8.8v2.2H324.1z"/>
			<path class="st3" d="M332.1,25.4c0.4,0.5,1,0.8,1.7,0.8s1.3-0.3,1.7-0.8c0.4-0.5,0.6-1.2,0.6-2.1v-6.2h2.5v6.3
				c0,1.6-0.4,2.9-1.3,3.7c-0.9,0.9-2,1.3-3.4,1.3c-1.4,0-2.5-0.4-3.4-1.3s-1.4-2.1-1.4-3.7v-6.3h2.5v6.2
				C331.5,24.2,331.7,24.9,332.1,25.4z"/>
			<path class="st3" d="M345.9,19.2v9h-2.5v-9h-3.2v-2.2h8.8v2.2H345.9z"/>
			<path class="st3" d="M358.9,17.1v2.2h-5.6v2.3h5v2.1h-5v2.3h5.7v2.2h-8.2V17.1H358.9z"/>
		</g>
	</g>
	<rect x="107.6" y="39.3" class="st4" width="634" height="31.3"/>
	<text transform="matrix(1 0 0 1 107.6237 54.8812)" class="st5 st6 st7">Cancer Data Service</text>
</g>
<g id="Layer_2">
</g>
</svg>
