<?xml version="1.0" encoding="utf-8"?>
<!-- Generator: Adobe Illustrator 26.0.0, SVG Export Plug-In . SVG Version: 6.00 Build 0)  -->
<svg version="1.1" id="Layer_1" xmlns="http://www.w3.org/2000/svg" xmlns:xlink="http://www.w3.org/1999/xlink" x="0px" y="0px"
	 viewBox="0 0 351 57" style="enable-background:new 0 0 351 57;" xml:space="preserve">
<style type="text/css">
	.st0{fill:#606162;}
	.st1{fill:#BA1F41;}
	.st2{fill:#FFFFFF;}
	.st3{fill:#BC1F40;}
	.st4{fill:none;}
	.st5{fill:#606161;stroke:#606161;stroke-width:0.125;stroke-miterlimit:10;}
	.st6{font-family:'Montserrat-Bold';}
	.st7{font-size:21px;}
</style>
<g>
	<g>
		<path class="st0" d="M76.5,28.5l-15-27H7.3c-3.2,0-5.8,2.6-5.8,5.8v42.4c0,3.2,2.6,5.8,5.8,5.8h54.2L76.5,28.5z"/>
		<path class="st1" d="M75,4.3c-1.1-1.7-3-2.8-5-2.8h-4.5l15.2,27l-15.2,27H70c2.1,0,4-1.1,5-2.8l13.5-24.2L75,4.3z"/>
	</g>
	<g>
		<rect x="33.5" y="16.5" class="st2" width="4" height="24"/>
		<polygon class="st2" points="25.5,16.5 25.5,34.1 14.5,16.5 10.5,16.5 10.5,40.5 14.5,40.5 14.5,22.9 25.5,40.5 29.5,40.5 
			29.5,16.5 		"/>
		<polygon class="st2" points="56.5,16.5 56.5,26.5 45.5,26.5 45.5,16.5 41.5,16.5 41.5,40.5 45.5,40.5 45.5,30.5 56.5,30.5 
			56.5,40.5 60.5,40.5 60.5,16.5 		"/>
	</g>
</g>
<g>
	<g>
		<path class="st3" d="M109.4,9.5h2.5v11.2h-2.5l-5.3-7v7h-2.5V9.5h2.3l5.5,7.2V9.5z"/>
		<path class="st3" d="M122.6,20.6l-1-2.4h-4.7l-1,2.4h-2.7L118,9.5h2.4l4.8,11.2H122.6z M119.2,12.8l-1.4,3.2h2.8L119.2,12.8z"/>
		<path class="st3" d="M130.5,11.6v9H128v-9h-3.2V9.5h8.8v2.2H130.5z"/>
		<path class="st3" d="M135.5,9.5h2.5v11.2h-2.5V9.5z"/>
		<path class="st3" d="M150.1,19.1c-1.1,1.1-2.5,1.7-4.2,1.7s-3-0.6-4.2-1.7c-1.1-1.1-1.7-2.5-1.7-4.1c0-1.6,0.6-3,1.7-4.1
			c1.1-1.1,2.5-1.7,4.2-1.7s3,0.6,4.2,1.7c1.1,1.1,1.7,2.5,1.7,4.1C151.8,16.6,151.2,18,150.1,19.1z M149.3,15c0-1-0.3-1.8-1-2.6
			c-0.6-0.7-1.4-1.1-2.4-1.1s-1.7,0.4-2.4,1.1s-1,1.6-1,2.6c0,1,0.3,1.8,1,2.5c0.6,0.7,1.4,1,2.4,1s1.7-0.3,2.4-1
			C148.9,16.8,149.3,16,149.3,15z"/>
		<path class="st3" d="M161.7,9.5h2.5v11.2h-2.5l-5.3-7v7h-2.5V9.5h2.3l5.5,7.2V9.5z"/>
		<path class="st3" d="M175,20.6l-1-2.4h-4.7l-1,2.4h-2.7l4.8-11.2h2.4l4.8,11.2H175z M171.6,12.8l-1.4,3.2h2.8L171.6,12.8z"/>
		<path class="st3" d="M178.9,20.6V9.5h2.5v9h4.8v2.2H178.9z"/>
		<path class="st3" d="M197.4,18.4c1.2,0,2.2-0.5,3-1.5l1.6,1.6c-1.3,1.4-2.8,2.1-4.5,2.1s-3.1-0.5-4.3-1.6
			c-1.1-1.1-1.7-2.5-1.7-4.1c0-1.7,0.6-3,1.7-4.2c1.1-1.1,2.5-1.7,4.2-1.7c1.8,0,3.4,0.7,4.6,2.1l-1.6,1.8c-0.8-1-1.8-1.5-2.9-1.5
			c-0.9,0-1.7,0.3-2.4,0.9c-0.7,0.6-1,1.4-1,2.5s0.3,1.9,0.9,2.5C195.7,18.1,196.5,18.4,197.4,18.4z"/>
		<path class="st3" d="M211.8,20.6l-1-2.4h-4.7l-1,2.4h-2.7l4.8-11.2h2.4l4.8,11.2H211.8z M208.4,12.8L207,16h2.8L208.4,12.8z"/>
		<path class="st3" d="M223.6,9.5h2.5v11.2h-2.5l-5.3-7v7h-2.5V9.5h2.3l5.5,7.2V9.5z"/>
		<path class="st3" d="M234,18.4c1.2,0,2.2-0.5,3-1.5l1.6,1.6c-1.3,1.4-2.8,2.1-4.5,2.1s-3.1-0.5-4.3-1.6c-1.1-1.1-1.7-2.5-1.7-4.1
			c0-1.7,0.6-3,1.7-4.2c1.1-1.1,2.5-1.7,4.2-1.7c1.8,0,3.4,0.7,4.6,2.1l-1.6,1.8c-0.8-1-1.8-1.5-2.9-1.5c-0.9,0-1.7,0.3-2.4,0.9
			c-0.7,0.6-1,1.4-1,2.5s0.3,1.9,0.9,2.5C232.3,18.1,233.1,18.4,234,18.4z"/>
		<path class="st3" d="M248.6,9.5v2.2h-5.6V14h5v2.1h-5v2.3h5.7v2.2h-8.2V9.5H248.6z"/>
		<path class="st3" d="M260.1,13.2c0,1.8-0.7,2.9-2.1,3.5l2.8,4h-3.1l-2.5-3.6h-1.7v3.6H251V9.5h4.2c1.7,0,3,0.3,3.7,0.9
			S260.1,11.9,260.1,13.2z M257.1,14.5c0.3-0.3,0.5-0.7,0.5-1.3s-0.2-1-0.5-1.2s-0.9-0.3-1.7-0.3h-1.9v3.3h1.8
			C256.2,14.9,256.8,14.8,257.1,14.5z"/>
		<path class="st3" d="M266.9,9.5h2.5v11.2h-2.5V9.5z"/>
		<path class="st3" d="M280,9.5h2.5v11.2H280l-5.3-7v7h-2.5V9.5h2.3l5.5,7.2V9.5z"/>
		<path class="st3" d="M287.8,11.7c-0.2,0.2-0.4,0.5-0.4,0.8s0.1,0.6,0.4,0.8c0.3,0.2,1,0.4,2,0.7s1.9,0.7,2.5,1.2
			c0.6,0.5,0.9,1.3,0.9,2.3c0,1-0.4,1.8-1.1,2.4s-1.7,0.9-3,0.9c-1.8,0-3.4-0.7-4.8-2l1.5-1.8c1.2,1.1,2.3,1.6,3.3,1.6
			c0.5,0,0.8-0.1,1.1-0.3c0.3-0.2,0.4-0.5,0.4-0.8s-0.1-0.6-0.4-0.8s-0.8-0.4-1.6-0.6c-1.3-0.3-2.3-0.7-2.9-1.2s-0.9-1.3-0.9-2.3
			s0.4-1.9,1.1-2.5c0.8-0.6,1.7-0.9,2.9-0.9c0.7,0,1.5,0.1,2.2,0.4c0.7,0.3,1.4,0.6,2,1.1l-1.3,1.8c-1-0.7-2-1.1-3-1.1
			C288.4,11.4,288.1,11.5,287.8,11.7z"/>
		<path class="st3" d="M300,11.6v9h-2.5v-9h-3.2V9.5h8.8v2.2H300z"/>
		<path class="st3" d="M305,9.5h2.5v11.2H305V9.5z"/>
		<path class="st3" d="M315,11.6v9h-2.5v-9h-3.2V9.5h8.8v2.2H315z"/>
		<path class="st3" d="M323,17.8c0.4,0.5,1,0.8,1.7,0.8s1.3-0.3,1.7-0.8c0.4-0.5,0.6-1.2,0.6-2.1V9.5h2.5v6.3c0,1.6-0.4,2.9-1.3,3.7
			c-0.9,0.9-2,1.3-3.4,1.3c-1.4,0-2.5-0.4-3.4-1.3s-1.4-2.1-1.4-3.7V9.5h2.5v6.2C322.3,16.5,322.6,17.2,323,17.8z"/>
		<path class="st3" d="M336.8,11.6v9h-2.5v-9h-3.2V9.5h8.8v2.2H336.8z"/>
		<path class="st3" d="M349.8,9.5v2.2h-5.6V14h5v2.1h-5v2.3h5.7v2.2h-8.2V9.5H349.8z"/>
	</g>
</g>
<rect x="98.5" y="31.7" class="st4" width="628.1" height="54.1"/>
<text transform="matrix(1 0 0 1 98.5096 47.2597)" class="st5 st6 st7">Cancer Data Service</text>
</svg>
