<?xml version="1.0" encoding="utf-8"?>
<!-- Generator: Adobe Illustrator 27.1.1, SVG Export Plug-In . SVG Version: 6.00 Build 0)  -->
<svg version="1.1" baseProfile="tiny" id="CBIIT_Cancer_Data_Service"
	 xmlns="http://www.w3.org/2000/svg" xmlns:xlink="http://www.w3.org/1999/xlink" x="0px" y="0px" viewBox="0 0 597 50"
	 overflow="visible" xml:space="preserve">
<g id="Cancer_Data_Service">
	<path fill="#606060" d="M83.2,38.1c1.2,0,2.2-0.5,3-1.5l1.6,1.6c-1.3,1.4-2.8,2.1-4.5,2.1s-3.1-0.5-4.3-1.6s-1.7-2.5-1.7-4.1
		c0-1.7,0.6-3,1.7-4.2c1.1-1.1,2.5-1.7,4.2-1.7c1.8,0,3.4,0.7,4.6,2.1l-1.6,1.8c-0.8-1-1.8-1.5-2.9-1.5c-0.9,0-1.7,0.3-2.4,0.9
		c-0.7,0.6-1,1.4-1,2.5s0.3,1.9,0.9,2.5C81.5,37.8,82.3,38.1,83.2,38.1z"/>
	<path fill="#606060" d="M96.7,40.4h-2.3v-1c-0.6,0.8-1.4,1.2-2.3,1.2c-0.9,0-1.7-0.3-2.3-0.8c-0.6-0.5-0.9-1.2-0.9-2.1s0.3-1.5,1-2
		c0.6-0.4,1.5-0.7,2.6-0.7h1.8v0c0-0.9-0.5-1.4-1.5-1.4c-0.4,0-0.9,0.1-1.3,0.2c-0.5,0.2-0.9,0.4-1.2,0.6l-1.1-1.6
		c1.1-0.8,2.4-1.2,3.9-1.2c1,0,1.9,0.3,2.6,0.8c0.7,0.5,1,1.3,1,2.5V40.4z M94.3,37.1v-0.4h-1.5c-1,0-1.4,0.3-1.4,0.9
		c0,0.3,0.1,0.5,0.3,0.7s0.6,0.2,1,0.2s0.8-0.1,1.1-0.4C94.1,37.9,94.3,37.5,94.3,37.1z"/>
	<path fill="#606060" d="M101.3,35.6v4.8h-2.4v-8.6h2.4v1c0.7-0.7,1.5-1.1,2.4-1.1c0.9,0,1.7,0.3,2.3,1c0.6,0.6,0.9,1.5,0.9,2.6v5.2
		h-2.4v-4.9c0-1.3-0.5-2-1.5-2c-0.5,0-0.9,0.2-1.3,0.5S101.3,34.9,101.3,35.6z"/>
	<path fill="#606060" d="M113.3,38.4c0.8,0,1.5-0.4,2.2-1.2l1.4,1.6c-1.1,1.2-2.3,1.7-3.6,1.7c-1.3,0-2.4-0.4-3.3-1.2
		c-0.9-0.8-1.3-1.9-1.3-3.2s0.5-2.4,1.4-3.2c0.9-0.8,2-1.2,3.2-1.2c0.6,0,1.2,0.1,1.9,0.4c0.6,0.3,1.2,0.6,1.7,1.1l-1.2,1.6
		c-0.3-0.3-0.6-0.6-1-0.8c-0.4-0.2-0.8-0.3-1.2-0.3c-0.6,0-1.2,0.2-1.6,0.6c-0.5,0.4-0.7,1-0.7,1.7c0,0.7,0.2,1.3,0.7,1.7
		C112.1,38.2,112.7,38.4,113.3,38.4z"/>
	<path fill="#606060" d="M125.9,39.1c-1,0.9-2.1,1.4-3.4,1.4s-2.4-0.4-3.2-1.2c-0.9-0.8-1.3-1.9-1.3-3.2c0-1.4,0.4-2.4,1.3-3.2
		s1.9-1.2,3.1-1.2s2.2,0.4,3,1.1c0.8,0.7,1.2,1.7,1.2,2.9v1.3h-6.3c0.1,0.5,0.3,0.9,0.7,1.2s0.9,0.4,1.4,0.4c0.8,0,1.5-0.3,2.1-0.8
		L125.9,39.1z M123.6,34c-0.3-0.3-0.7-0.4-1.2-0.4s-0.9,0.1-1.3,0.4c-0.4,0.3-0.6,0.7-0.7,1.2h3.8C124.1,34.7,123.9,34.3,123.6,34z"
		/>
	<path fill="#606060" d="M132.9,33.9c-0.7,0-1.2,0.3-1.6,0.8c-0.4,0.5-0.5,1.2-0.5,2v3.7h-2.4v-8.6h2.4v1.1c0.3-0.4,0.7-0.7,1.2-0.9
		c0.5-0.2,0.9-0.4,1.4-0.4l0,2.3H132.9z"/>
	<path fill="#606060" d="M147.9,30.6c1.1,1,1.6,2.3,1.6,4.1c0,1.7-0.5,3.1-1.6,4.1c-1,1-2.6,1.5-4.8,1.5h-3.8V29.2h4
		C145.3,29.2,146.8,29.7,147.9,30.6z M146.1,37.3c0.6-0.6,0.9-1.4,0.9-2.5s-0.3-1.9-0.9-2.5c-0.6-0.6-1.6-0.9-2.8-0.9h-1.4v6.8h1.6
		C144.6,38.1,145.5,37.9,146.1,37.3z"/>
	<path fill="#606060" d="M158.6,40.4h-2.3v-1c-0.6,0.8-1.4,1.2-2.3,1.2c-0.9,0-1.7-0.3-2.3-0.8c-0.6-0.5-0.9-1.2-0.9-2.1
		s0.3-1.5,1-2c0.6-0.4,1.5-0.7,2.6-0.7h1.8v0c0-0.9-0.5-1.4-1.5-1.4c-0.4,0-0.9,0.1-1.3,0.2c-0.5,0.2-0.9,0.4-1.2,0.6l-1.1-1.6
		c1.1-0.8,2.4-1.2,3.9-1.2c1,0,1.9,0.3,2.6,0.8c0.7,0.5,1,1.3,1,2.5V40.4z M156.2,37.1v-0.4h-1.5c-1,0-1.4,0.3-1.4,0.9
		c0,0.3,0.1,0.5,0.3,0.7s0.6,0.2,1,0.2s0.8-0.1,1.1-0.4C156.1,37.9,156.2,37.5,156.2,37.1z"/>
	<path fill="#606060" d="M163.6,33.5v3.9c0,0.3,0.1,0.6,0.3,0.8s0.4,0.3,0.6,0.3c0.4,0,0.8-0.2,1.1-0.6l0.9,1.7
		c-0.7,0.7-1.5,1-2.4,1c-0.8,0-1.5-0.3-2.1-0.8c-0.6-0.5-0.9-1.3-0.9-2.2v-4h-1v-1.7h1v-2.6h2.4v2.6h2.1v1.7H163.6z"/>
	<path fill="#606060" d="M175.1,40.4h-2.3v-1c-0.6,0.8-1.4,1.2-2.3,1.2c-0.9,0-1.7-0.3-2.3-0.8c-0.6-0.5-0.9-1.2-0.9-2.1
		s0.3-1.5,1-2c0.6-0.4,1.5-0.7,2.6-0.7h1.8v0c0-0.9-0.5-1.4-1.5-1.4c-0.4,0-0.9,0.1-1.3,0.2c-0.5,0.2-0.9,0.4-1.2,0.6l-1.1-1.6
		c1.1-0.8,2.4-1.2,3.9-1.2c1,0,1.9,0.3,2.6,0.8c0.7,0.5,1,1.3,1,2.5V40.4z M172.7,37.1v-0.4h-1.5c-1,0-1.4,0.3-1.4,0.9
		c0,0.3,0.1,0.5,0.3,0.7s0.6,0.2,1,0.2s0.8-0.1,1.1-0.4C172.5,37.9,172.7,37.5,172.7,37.1z"/>
	<path fill="#606060" d="M184.4,31.4c-0.2,0.2-0.4,0.5-0.4,0.8c0,0.3,0.1,0.6,0.4,0.8c0.3,0.2,1,0.4,2,0.7c1.1,0.3,1.9,0.7,2.5,1.2
		c0.6,0.5,0.9,1.3,0.9,2.3s-0.4,1.8-1.1,2.4s-1.7,0.9-3,0.9c-1.8,0-3.4-0.7-4.8-2l1.5-1.8c1.2,1.1,2.3,1.6,3.3,1.6
		c0.5,0,0.8-0.1,1.1-0.3c0.3-0.2,0.4-0.5,0.4-0.8s-0.1-0.6-0.4-0.8s-0.8-0.4-1.6-0.6c-1.3-0.3-2.3-0.7-2.9-1.2s-0.9-1.3-0.9-2.3
		c0-1.1,0.4-1.9,1.1-2.5s1.7-0.9,2.9-0.9c0.7,0,1.5,0.1,2.2,0.4s1.4,0.6,2,1.1l-1.3,1.8c-1-0.7-2-1.1-3-1.1
		C184.9,31.1,184.6,31.2,184.4,31.4z"/>
	<path fill="#606060" d="M199.2,39.1c-1,0.9-2.1,1.4-3.4,1.4s-2.4-0.4-3.2-1.2c-0.9-0.8-1.3-1.9-1.3-3.2c0-1.4,0.4-2.4,1.3-3.2
		s1.9-1.2,3.1-1.2s2.2,0.4,3,1.1c0.8,0.7,1.2,1.7,1.2,2.9v1.3h-6.3c0.1,0.5,0.3,0.9,0.7,1.2s0.9,0.4,1.4,0.4c0.8,0,1.5-0.3,2.1-0.8
		L199.2,39.1z M196.9,34c-0.3-0.3-0.7-0.4-1.2-0.4s-0.9,0.1-1.3,0.4c-0.4,0.3-0.6,0.7-0.7,1.2h3.8C197.4,34.7,197.2,34.3,196.9,34z"
		/>
	<path fill="#606060" d="M206.1,33.9c-0.7,0-1.2,0.3-1.6,0.8c-0.4,0.5-0.5,1.2-0.5,2v3.7h-2.4v-8.6h2.4v1.1c0.3-0.4,0.7-0.7,1.2-0.9
		c0.5-0.2,0.9-0.4,1.4-0.4l0,2.3H206.1z"/>
	<path fill="#606060" d="M210.5,40.4l-3.4-8.6h2.5l2.1,5.4l2.1-5.4h2.5l-3.4,8.6H210.5z"/>
	<path fill="#606060" d="M217.7,30.7c-0.3-0.3-0.4-0.6-0.4-1s0.1-0.7,0.4-1c0.3-0.3,0.6-0.4,1-0.4s0.7,0.1,1,0.4
		c0.3,0.3,0.4,0.6,0.4,1s-0.1,0.7-0.4,1c-0.3,0.3-0.6,0.4-1,0.4S218,30.9,217.7,30.7z M219.9,40.4h-2.4v-8.6h2.4V40.4z"/>
	<path fill="#606060" d="M226.3,38.4c0.8,0,1.5-0.4,2.2-1.2l1.4,1.6c-1.1,1.2-2.3,1.7-3.6,1.7c-1.3,0-2.4-0.4-3.3-1.2
		c-0.9-0.8-1.3-1.9-1.3-3.2s0.5-2.4,1.4-3.2c0.9-0.8,2-1.2,3.2-1.2c0.6,0,1.2,0.1,1.9,0.4c0.6,0.3,1.2,0.6,1.7,1.1l-1.2,1.6
		c-0.3-0.3-0.6-0.6-1-0.8c-0.4-0.2-0.8-0.3-1.2-0.3c-0.6,0-1.2,0.2-1.6,0.6c-0.5,0.4-0.7,1-0.7,1.7c0,0.7,0.2,1.3,0.7,1.7
		C225.2,38.2,225.7,38.4,226.3,38.4z"/>
	<path fill="#606060" d="M239,39.1c-1,0.9-2.1,1.4-3.4,1.4s-2.4-0.4-3.2-1.2c-0.9-0.8-1.3-1.9-1.3-3.2c0-1.4,0.4-2.4,1.3-3.2
		s1.9-1.2,3.1-1.2s2.2,0.4,3,1.1c0.8,0.7,1.2,1.7,1.2,2.9v1.3h-6.3c0.1,0.5,0.3,0.9,0.7,1.2s0.9,0.4,1.4,0.4c0.8,0,1.5-0.3,2.1-0.8
		L239,39.1z M236.7,34c-0.3-0.3-0.7-0.4-1.2-0.4s-0.9,0.1-1.3,0.4c-0.4,0.3-0.6,0.7-0.7,1.2h3.8C237.2,34.7,237,34.3,236.7,34z"/>
</g>
<g id="NCI_00000070092132803313263510000000782199851214801833_">
	<path fill="#BB0E3D" d="M84.5,10.4h1.9v8.7h-1.9l-4.1-5.4v5.4h-1.9v-8.7h1.8l4.3,5.6V10.4z"/>
	<path fill="#BB0E3D" d="M94.8,19.1L94,17.2h-3.6l-0.8,1.9h-2.1l3.8-8.7h1.9l3.8,8.7L94.8,19.1L94.8,19.1z M92.2,13l-1.1,2.5h2.2
		L92.2,13z"/>
	<path fill="#BB0E3D" d="M100.9,12.1v7H99v-7h-2.5v-1.7h6.9v1.7H100.9z"/>
	<path fill="#BB0E3D" d="M104.8,10.4h1.9v8.7h-1.9V10.4z"/>
	<path fill="#BB0E3D" d="M116.2,17.9c-0.9,0.9-2,1.3-3.2,1.3s-2.4-0.4-3.2-1.3c-0.9-0.9-1.3-1.9-1.3-3.2s0.4-2.3,1.3-3.2
		c0.9-0.9,2-1.3,3.2-1.3s2.4,0.4,3.2,1.3c0.9,0.9,1.3,1.9,1.3,3.2S117.1,17,116.2,17.9z M115.5,14.7c0-0.8-0.2-1.4-0.7-2
		c-0.5-0.5-1.1-0.8-1.8-0.8s-1.3,0.3-1.8,0.8c-0.5,0.5-0.7,1.2-0.7,2c0,0.8,0.2,1.4,0.7,2c0.5,0.5,1.1,0.8,1.8,0.8s1.3-0.3,1.8-0.8
		C115.3,16.1,115.5,15.4,115.5,14.7z"/>
	<path fill="#BB0E3D" d="M125.2,10.4h1.9v8.7h-1.9l-4.1-5.4v5.4h-1.9v-8.7h1.8l4.3,5.6V10.4z"/>
	<path fill="#BB0E3D" d="M135.5,19.1l-0.8-1.9H131l-0.8,1.9h-2.1l3.8-8.7h1.9l3.8,8.7L135.5,19.1L135.5,19.1z M132.9,13l-1.1,2.5
		h2.2L132.9,13z"/>
	<path fill="#BB0E3D" d="M138.6,19.1v-8.7h1.9v7h3.7v1.7L138.6,19.1L138.6,19.1z"/>
	<path fill="#BB0E3D" d="M152.9,17.3c1,0,1.7-0.4,2.3-1.1l1.2,1.3c-1,1.1-2.1,1.7-3.5,1.7s-2.4-0.4-3.3-1.3
		c-0.9-0.8-1.3-1.9-1.3-3.2c0-1.3,0.4-2.4,1.3-3.2c0.9-0.9,2-1.3,3.2-1.3c1.4,0,2.6,0.5,3.6,1.6l-1.2,1.4c-0.6-0.8-1.4-1.1-2.3-1.1
		c-0.7,0-1.4,0.2-1.9,0.7c-0.5,0.5-0.8,1.1-0.8,1.9s0.2,1.5,0.7,1.9C151.6,17.1,152.2,17.3,152.9,17.3z"/>
	<path fill="#BB0E3D" d="M164.1,19.1l-0.8-1.9h-3.6l-0.8,1.9h-2.1l3.8-8.7h1.9l3.8,8.7L164.1,19.1L164.1,19.1z M161.5,13l-1.1,2.5
		h2.2L161.5,13z"/>
	<path fill="#BB0E3D" d="M173.3,10.4h1.9v8.7h-1.9l-4.1-5.4v5.4h-1.9v-8.7h1.8l4.3,5.6V10.4z"/>
	<path fill="#BB0E3D" d="M181.4,17.3c1,0,1.7-0.4,2.3-1.1l1.2,1.3c-1,1.1-2.1,1.7-3.5,1.7c-1.3,0-2.4-0.4-3.3-1.3
		c-0.9-0.8-1.3-1.9-1.3-3.2c0-1.3,0.4-2.4,1.3-3.2c0.9-0.9,2-1.3,3.2-1.3c1.4,0,2.6,0.5,3.6,1.6l-1.2,1.4c-0.6-0.8-1.4-1.1-2.3-1.1
		c-0.7,0-1.4,0.2-1.9,0.7c-0.5,0.5-0.8,1.1-0.8,1.9s0.2,1.5,0.7,1.9C180.1,17.1,180.7,17.3,181.4,17.3z"/>
	<path fill="#BB0E3D" d="M192.7,10.4v1.7h-4.3v1.8h3.9v1.7h-3.9v1.8h4.5v1.7h-6.4v-8.7H192.7z"/>
	<path fill="#BB0E3D" d="M201.6,13.3c0,1.4-0.6,2.3-1.7,2.7l2.2,3.1h-2.4l-1.9-2.8h-1.3v2.8h-1.9v-8.7h3.3c1.4,0,2.3,0.2,2.9,0.7
		C201.4,11.5,201.6,12.2,201.6,13.3z M199.3,14.3c0.2-0.2,0.4-0.6,0.4-1c0-0.5-0.1-0.8-0.4-1c-0.2-0.2-0.7-0.3-1.3-0.3h-1.5v2.6h1.4
		C198.6,14.6,199.1,14.5,199.3,14.3z"/>
	<path fill="#BB0E3D" d="M206.9,10.4h1.9v8.7h-1.9V10.4z"/>
	<path fill="#BB0E3D" d="M217.1,10.4h1.9v8.7h-1.9l-4.1-5.4v5.4H211v-8.7h1.8l4.3,5.6V10.4z"/>
	<path fill="#BB0E3D" d="M223.2,12.1c-0.2,0.2-0.3,0.4-0.3,0.6s0.1,0.5,0.3,0.6c0.2,0.1,0.8,0.3,1.6,0.5c0.8,0.2,1.5,0.5,1.9,0.9
		c0.5,0.4,0.7,1,0.7,1.8c0,0.8-0.3,1.4-0.9,1.9c-0.6,0.5-1.4,0.7-2.3,0.7c-1.4,0-2.6-0.5-3.7-1.5l1.2-1.4c0.9,0.8,1.8,1.2,2.6,1.2
		c0.4,0,0.6-0.1,0.8-0.2c0.2-0.2,0.3-0.4,0.3-0.6c0-0.3-0.1-0.5-0.3-0.6c-0.2-0.2-0.6-0.3-1.3-0.5c-1-0.2-1.8-0.6-2.2-0.9
		s-0.7-1-0.7-1.8c0-0.8,0.3-1.5,0.9-1.9c0.6-0.4,1.3-0.7,2.2-0.7c0.6,0,1.2,0.1,1.7,0.3c0.6,0.2,1.1,0.5,1.5,0.8l-1,1.4
		c-0.8-0.6-1.5-0.9-2.3-0.9C223.6,11.9,223.4,12,223.2,12.1z"/>
	<path fill="#BB0E3D" d="M232.7,12.1v7h-1.9v-7h-2.5v-1.7h6.9v1.7H232.7z"/>
	<path fill="#BB0E3D" d="M236.6,10.4h1.9v8.7h-1.9V10.4z"/>
	<path fill="#BB0E3D" d="M244.3,12.1v7h-1.9v-7h-2.5v-1.7h6.9v1.7H244.3z"/>
	<path fill="#BB0E3D" d="M250.5,16.8c0.3,0.4,0.8,0.6,1.3,0.6c0.5,0,1-0.2,1.3-0.6c0.3-0.4,0.5-1,0.5-1.6v-4.8h1.9v4.9
		c0,1.3-0.3,2.2-1,2.9c-0.7,0.7-1.6,1-2.7,1c-1.1,0-2-0.3-2.7-1s-1.1-1.6-1.1-2.9v-4.9h1.9v4.8C250,15.9,250.2,16.4,250.5,16.8z"/>
	<path fill="#BB0E3D" d="M261.2,12.1v7h-1.9v-7h-2.5v-1.7h6.9v1.7H261.2z"/>
	<path fill="#BB0E3D" d="M271.4,10.4v1.7H267v1.8h3.9v1.7H267v1.8h4.5v1.7h-6.4v-8.7H271.4z"/>
</g>
<g id="NIH_Luggage_Tag_00000099630773664447301570000014605425803882886823_">
	<path fill="#BA1F40" d="M57.7,6c-0.9-1.3-2.4-2.2-3.9-2.2h-3.6l12,21.2l-12,21.2h3.6c1.7,0,3.2-0.9,3.9-2.2L68.2,25L57.7,6z"/>
	<path fill="#606061" d="M58.9,25L47.2,3.8H4.7C2,3.8,0.1,5.9,0.1,8.4v33.3c0,2.5,2,4.6,4.6,4.6h42.5L58.9,25z"/>
	<rect x="25.2" y="15.6" fill="#FFFFFF" width="3.2" height="18.8"/>
	<polygon fill="#FFFFFF" points="18.9,15.6 18.9,29.3 10.2,15.6 7.2,15.6 7.2,34.5 10.2,34.5 10.2,20.6 18.9,34.5 22,34.5 22,15.6 	
		"/>
	<polygon fill="#FFFFFF" points="43.2,15.6 43.2,23.4 34.5,23.4 34.5,15.6 31.4,15.6 31.4,34.5 34.5,34.5 34.5,26.6 43.2,26.6 
		43.2,34.5 46.4,34.5 46.4,15.6 	"/>
</g>
</svg>
