<?xml version="1.0" encoding="utf-8"?>
<!-- Generator: Adobe Illustrator 26.0.0, SVG Export Plug-In . SVG Version: 6.00 Build 0)  -->
<svg version="1.1" id="Layer_1" xmlns="http://www.w3.org/2000/svg" xmlns:xlink="http://www.w3.org/1999/xlink" x="0px" y="0px"
	 viewBox="0 0 28 24" style="enable-background:new 0 0 28 24;" xml:space="preserve">
<style type="text/css">
	.st0{fill:#FCB344;}
</style>
<g>
	<path class="st0" d="M25.4,3.4H12.9c-0.5,0-0.9-0.4-0.9-0.9V2.5c0-1-0.8-1.8-1.8-1.8H3.9c-1,0-1.8,0.8-1.8,1.8v2.6
		c0,0.3,0.2,0.5,0.5,0.5s0.5-0.2,0.5-0.5V2.5c0-0.5,0.4-0.9,0.9-0.9h6.3c0.5,0,0.9,0.4,0.9,0.9v0.1c0,1,0.8,1.8,1.8,1.8h12.5
		c0.5,0,0.9,0.4,0.9,0.9v15.7c0,0.5-0.4,0.9-0.9,0.9H25c0.1-0.3,0.2-0.6,0.2-0.9L24.1,8.4c-0.1-1-0.9-1.7-1.9-1.7H2.5
		C2,6.6,1.5,6.8,1.2,7.2C0.9,7.5,0.7,8,0.8,8.4L1.9,21c0.1,1,0.9,1.7,1.9,1.7h21.6c1,0,1.8-0.8,1.8-1.8V5.2
		C27.2,4.2,26.4,3.4,25.4,3.4z M3.8,21.8c-0.5,0-0.9-0.4-1-0.9L1.7,8.4c0-0.2,0-0.4,0.2-0.6C2,7.6,2.2,7.6,2.5,7.6h19.7
		c0.5,0,0.9,0.4,1,0.9L24.2,21c0,0.2,0,0.4-0.2,0.6c-0.1,0.2-0.3,0.2-0.6,0.2H3.8z"/>
	<path class="st0" d="M25.4,23.1H3.8c-1.1,0-2.2-0.9-2.3-2.1L0.4,8.5C0.4,7.9,0.6,7.3,0.9,6.9c0.4-0.4,0.9-0.7,1.5-0.7h19.7
		c1.1,0,2.2,0.9,2.3,2.1l1.1,12.5c0,0.2,0,0.4,0,0.6c0.2,0,0.4-0.2,0.4-0.5V5.2c0-0.3-0.2-0.5-0.5-0.5H12.9c-1.2,0-2.1-1-2.1-2.1
		V2.5c0-0.3-0.2-0.5-0.5-0.5H3.9C3.7,2,3.4,2.3,3.4,2.5v2.6c0,0.5-0.4,0.8-0.8,0.8S1.8,5.6,1.8,5.1V2.5c0-1.2,1-2.1,2.1-2.1h6.3
		c1.2,0,2.1,1,2.1,2.1v0.1c0,0.3,0.2,0.5,0.5,0.5h12.5c1.2,0,2.1,1,2.1,2.1v15.7C27.6,22.1,26.6,23.1,25.4,23.1z M2.5,7
		c-0.4,0-0.7,0.1-1,0.4C1.2,7.7,1.1,8,1.1,8.4l1.1,12.5c0.1,0.8,0.8,1.4,1.5,1.4h21.6c0.8,0,1.4-0.6,1.4-1.4V5.2
		c0-0.8-0.6-1.4-1.4-1.4H12.9c-0.7,0-1.2-0.5-1.2-1.2V2.5c0-0.8-0.6-1.4-1.4-1.4H3.9c-0.8,0-1.4,0.6-1.4,1.4v2.6
		c0,0.1,0,0.1,0.1,0.1s0.1,0,0.1-0.1V2.5c0-0.7,0.5-1.2,1.2-1.2h6.3c0.7,0,1.2,0.5,1.2,1.2v0.1c0,0.8,0.6,1.4,1.4,1.4h12.5
		c0.7,0,1.2,0.5,1.2,1.2v15.7c0,0.7-0.5,1.2-1.2,1.2h-1l0.3-0.5c0.1-0.2,0.1-0.5,0.1-0.7L23.7,8.4C23.6,7.6,22.9,7,22.2,7H2.5z
		 M23.5,22.2H3.8c-0.7,0-1.3-0.6-1.3-1.2L1.3,8.4c0-0.3,0.1-0.6,0.3-0.9c0.2-0.2,0.5-0.4,0.8-0.4h19.7c0.7,0,1.3,0.6,1.3,1.2
		l1.1,12.5c0,0.3-0.1,0.6-0.3,0.9C24.1,22,23.8,22.2,23.5,22.2z M2.5,7.9C2.3,7.9,2.2,8,2.2,8C2.1,8.1,2.1,8.2,2.1,8.3l1.1,12.5
		c0,0.3,0.3,0.6,0.6,0.6h19.7c0.1,0,0.2,0,0.3-0.1c0.1-0.1,0.1-0.2,0.1-0.3L22.8,8.5c0-0.3-0.3-0.6-0.6-0.6H2.5z"/>
</g>
</svg>
