<?xml version="1.0" encoding="utf-8"?>
<!-- Generator: Adobe Illustrator 26.5.0, SVG Export Plug-In . SVG Version: 6.00 Build 0)  -->
<svg version="1.1" id="Layer_1" xmlns="http://www.w3.org/2000/svg" xmlns:xlink="http://www.w3.org/1999/xlink" x="0px" y="0px"
	 viewBox="0 0 34 30" style="enable-background:new 0 0 34 30;" xml:space="preserve">
<style type="text/css">
	.st0{fill:#FFAC20;}
</style>
<path class="st0" d="M33.1,3.7c-0.6-0.8-1.6-1.3-2.6-1.3H8.4H7H3.7c-1.4,0-2.4-1.3-2.4-1.3C1.1,0.9,0.7,0.9,0.4,1.1
	C0.1,1.3,0.1,1.7,0.3,1.9C0.4,2,1.7,3.7,3.7,3.7h0.7c0,0,0,0,0,0C3.8,4.5,3.6,5.6,3.9,6.5l3.6,12.7c0.4,1.4,1.7,2.3,3.1,2.3H27
	c0.4,0,0.8-0.1,1.2-0.2l-0.1,0.3c-0.2,0.7-0.9,1.2-1.7,1.2H8.4c-0.3,0-0.6,0.3-0.6,0.6c0,0.3,0.3,0.6,0.6,0.6h2.4
	c-0.9,0.5-1.4,1.4-1.4,2.5c0,1.6,1.3,2.8,2.8,2.8s2.8-1.3,2.8-2.8c0-1.1-0.6-2-1.4-2.5h12.2c-0.9,0.5-1.4,1.4-1.4,2.5
	c0,1.6,1.3,2.8,2.8,2.8s2.8-1.3,2.8-2.8c0-1.3-0.9-2.5-2.2-2.8c0.7-0.4,1.3-1,1.6-1.9l0.8-2.7c0,0,0,0,0,0c0,0,0,0,0,0l3.6-12.7
	C34,5.6,33.8,4.5,33.1,3.7z M12.2,28.2c-0.9,0-1.6-0.7-1.6-1.6c0-0.9,0.7-1.6,1.6-1.6c0.9,0,1.6,0.7,1.6,1.6
	C13.7,27.5,13,28.2,12.2,28.2z M28.7,26.6c0,0.9-0.7,1.6-1.6,1.6s-1.6-0.7-1.6-1.6c0-0.9,0.7-1.6,1.6-1.6S28.7,25.7,28.7,26.6z
	 M24.1,14.7h-4.7V9.5h6L24.1,14.7z M26.7,9.5h4.9l-1.5,5.2h-4.7L26.7,9.5z M6,9.5h4.9l1.3,5.2H7.5L6,9.5z M12.2,9.5h6v5.2h-4.7
	L12.2,9.5z M11.9,8.2l-1.1-4.5h7.4v4.5H11.9z M18.2,16v4.4h-3.3L13.8,16H18.2z M19.4,16h4.4l-1.1,4.4h-3.3V16z M19.4,8.2V3.7h7.4
	l-1.1,4.5H19.4z M5.4,4.5C5.8,4,6.4,3.7,7,3.7h1.4h1.1l1.1,4.5H5.7l-0.6-2C4.9,5.6,5.1,5,5.4,4.5z M8.7,18.9l-0.8-3h4.6l1.1,4.4h-3
	C9.7,20.4,8.9,19.8,8.7,18.9z M24,20.4l1.1-4.4h4.6l-0.8,3c-0.2,0.8-1,1.4-1.9,1.4H24z M32.5,6.2l-0.6,2H27l1.1-4.5h2.5
	c0.6,0,1.2,0.3,1.6,0.8C32.5,5,32.6,5.6,32.5,6.2z"/>
</svg>
