<?xml version="1.0" encoding="utf-8"?>
<!-- Generator: Adobe Illustrator 27.0.0, SVG Export Plug-In . SVG Version: 6.00 Build 0)  -->
<svg version="1.1" id="Layer_1" xmlns="http://www.w3.org/2000/svg" xmlns:xlink="http://www.w3.org/1999/xlink" x="0px" y="0px"
	 viewBox="0 0 60 56.7" style="enable-background:new 0 0 60 56.7;" xml:space="preserve">
<style type="text/css">
	.st0{fill:#4DBEAA;}
</style>
<g>
	<path class="st0" d="M34.3,48.1c0.8,1.2,1.7,2.3,2.9,3.1c1.7,1.2,3.6,1.9,5.8,1.9c4.7,0,8.6-3.2,9.8-7.5c0.3-0.8,0.3-1.7,0.3-2.6
		c0-0.3,0-0.6-0.1-0.9c-0.3-4.3-3.5-8-7.7-9c-0.8-0.1-1.6-0.3-2.4-0.3c-0.3,0-0.7,0-1.1,0.1c-0.1,0-0.3,0-0.5,0.1
		c-4.8,0.8-8.6,5-8.6,10.1C32.7,44.7,33.4,46.6,34.3,48.1L34.3,48.1z M30.5,48.3c-0.8-1.7-1.2-3.6-1.2-5.5c0-6.2,4.2-11.4,9.7-13.1
		c0.3-0.1,0.8-0.1,1.1-0.3c-1.4-2.2-3-4-4.7-5.2c-0.9-0.7-1.8-1.2-2.7-1.5c-1.1-0.4-2.1-0.7-3.1-0.7c-0.8,0-1.8,0.1-2.7,0.5
		C26,22.9,25,23.3,24.1,24c-4.3,2.9-8.3,9.1-8.3,17.5c0,0.8,0.1,1.5,0.4,2c0.3,0.7,0.7,1.2,1.2,1.7c0.6,0.5,1.4,1,2.3,1.4
		C22.5,47.9,26.5,48.4,30.5,48.3L30.5,48.3z M59,37.5c0,2.2-0.9,4.1-2.4,5.6c0,0,0,0.1-0.1,0.1c-0.3,7.3-6.2,13.2-13.6,13.2
		c-4.1,0-7.7-1.8-10.2-4.6c-6.7,0.6-14.3-0.6-17.7-4c-0.3-0.3-0.6-0.7-0.9-1c-4.4-0.3-8.6-1.5-10.8-3.6c-1.5-1.5-2.4-3.4-2.4-5.6
		c0-4.6,1.5-9.7,4.1-13.6c1.3-1.9,2.7-3.5,4.3-4.7c0.3-0.3,0.3-0.6,0.4-0.9c0.1-0.5-0.1-1.1-0.4-1.5c-1.5-1.7-2.6-4-2.6-6.5
		c0-5.4,4.3-9.7,9.7-9.7c2.4,0,4.7,0.9,6.3,2.4c1.9-1.5,4.2-2.4,6.7-2.4c2.7,0,5.2,1,7,2.6c1.7-1.7,4.1-2.7,6.7-2.7
		c5.4,0,9.7,4.3,9.7,9.7c0,2.4-0.9,4.7-2.6,6.5c-0.3,0.5-0.4,1-0.4,1.5c0.1,0.3,0.1,0.7,0.4,0.9c1.6,1.2,3.1,2.7,4.3,4.7
		C57.5,27.8,59,33,59,37.5L59,37.5z M55.8,38.5c0.1-0.3,0.1-0.6,0.1-0.9C55.9,26.7,48.6,20,43.5,20c-1.6,0-3.5,0.7-5.3,1.9
		c1.5,1.2,3,2.8,4.2,4.7c0.6,0.8,1.1,1.7,1.5,2.7C49.5,29.7,54.1,33.4,55.8,38.5L55.8,38.5z M48.8,14.1c0.8-1.1,1.2-2.4,1.2-3.8
		c0-3.6-3-6.6-6.6-6.6c-1.9,0-3.5,0.8-4.7,1.9c1,1.7,1.7,3.6,1.7,5.7c0,1.5-0.3,2.9-0.8,4.2c1.1,0.8,2.4,1.3,3.9,1.3
		c1.9,0,3.6-0.8,4.7-2C48.3,14.6,48.6,14.4,48.8,14.1L48.8,14.1z M36.8,11.1c0-4-3.2-7.2-7.2-7.2c-4,0-7.2,3.2-7.2,7.2
		c0,4,3.2,7.2,7.2,7.2C33.6,18.4,36.8,15.2,36.8,11.1z M19,11.4c0-2.3,0.7-4.3,1.9-6.1c-1.2-1-2.6-1.6-4.3-1.6c-3.6,0-6.6,3-6.6,6.6
		c0,1.5,0.4,2.7,1.3,3.8c0.3,0.3,0.4,0.5,0.6,0.8c1.2,1.3,2.9,2,4.7,2c1.3,0,2.4-0.3,3.4-1C19.3,14.5,19,13,19,11.4L19,11.4z
		 M17.1,26.5c1.3-2,2.8-3.6,4.5-4.9c-1.6-1.1-3.4-1.7-4.9-1.7c-5.2,0-12.5,6.7-12.5,17.5c0,1.4,0.4,2.4,1.5,3.4
		c1.4,1.3,4.1,2.1,7.1,2.4c-0.1-0.6-0.1-1.2-0.1-1.9C12.5,36.5,14.2,30.8,17.1,26.5L17.1,26.5z"/>
	<path class="st0" d="M40.6,47.8l-3-2.9c-0.5-0.4-0.6-1-0.3-1.7c0.4-1,1.8-1.3,2.5-0.6c0.6,0.6,1.2,1.1,1.8,1.7
		c1.7-1.9,3.5-3.8,5.2-5.8c0.8-0.8,2.1-0.6,2.6,0.4c0.3,0.6,0.1,1.2-0.3,1.7c-1.5,1.7-2.9,3.3-4.5,4.9l-1.7,1.9
		c-0.3,0.3-0.7,0.5-1.2,0.5C41.3,48.2,40.9,48.1,40.6,47.8L40.6,47.8z"/>
</g>
</svg>
