<svg id="Layer_1" data-name="Layer 1" xmlns="http://www.w3.org/2000/svg" viewBox="0 0 33.32 21.96"><defs><style>.cls-1{fill:#42779a;}</style></defs><path class="cls-1" d="M28.27,9.79a5.94,5.94,0,0,0-5.81-4.71,5.45,5.45,0,0,0-2.29.46A7.78,7.78,0,0,0,5.07,8.15a6.7,6.7,0,0,0,.2,1.64,6,6,0,0,0-4.9,5.88c0,3.07,2.61,5.94,5.36,5.94H7.16v-.06H25.59v.13h2.16A6,6,0,0,0,33,15.73,6.22,6.22,0,0,0,28.27,9.79ZM27,20.44H25.72v-.13H6.64v.06H5.86c-1.57,0-4.19-2.22-4.19-4.64A4.73,4.73,0,0,1,6.12,11a.81.81,0,0,0,.52-.26.64.64,0,0,0,.07-.59,6.05,6.05,0,0,1-.33-2A6.46,6.46,0,0,1,19.12,6.71a.69.69,0,0,0,.4.46.61.61,0,0,0,.58-.06,4.84,4.84,0,0,1,2.36-.66A4.72,4.72,0,0,1,27.1,10.5a.75.75,0,0,0,.58.59A4.7,4.7,0,0,1,27,20.44Z"/><path class="cls-1" d="M23.18,12.39H21.74v-2a.64.64,0,0,0-.66-.66H16.54L15.37,8.31l-.23-.23H11.22l-.15,0a.61.61,0,0,0-.38.62v8.82a.64.64,0,0,0,.66.66h9.8a.41.41,0,0,0,.36-.22l2.16-4.54a.69.69,0,0,0,0-.69A.5.5,0,0,0,23.18,12.39Zm-1.05,1.32-.39.84v-.84Zm-1.71,3.13H12V9.33h2.57l1.17,1.48a.67.67,0,0,0,.5.22h4.17Z"/></svg>