<svg id="Layer_1" data-name="Layer 1" xmlns="http://www.w3.org/2000/svg" viewBox="0 0 19.89 24.37"><defs><style>.cls-1{fill:#42779a;}</style></defs><path class="cls-1" d="M9.86,17.42a.74.74,0,0,1-.52-.22l-3-3A.75.75,0,1,1,7.4,13.15l2.46,2.46,2.47-2.46a.75.75,0,0,1,1.06,1.06l-3,3A.75.75,0,0,1,9.86,17.42Z"/><path class="cls-1" d="M9.86,17.42a.75.75,0,0,1-.74-.75V9.19a.75.75,0,1,1,1.49,0v7.48A.75.75,0,0,1,9.86,17.42Z"/><path class="cls-1" d="M14.35,20.41h-9a.75.75,0,1,1,0-1.5h9a.75.75,0,0,1,0,1.5Z"/><path class="cls-1" d="M17.67,24.15H2.06A1.9,1.9,0,0,1,.14,22.28V6.91A2.48,2.48,0,0,1,.87,5.17L5.09.94A2.46,2.46,0,0,1,6.84.21H17.67a1.9,1.9,0,0,1,1.92,1.88V22.28A1.9,1.9,0,0,1,17.67,24.15ZM6.84,1.71A.94.94,0,0,0,6.15,2L1.92,6.22a1,1,0,0,0-.28.69V22.28a.4.4,0,0,0,.42.37H17.67a.4.4,0,0,0,.42-.37V2.09a.4.4,0,0,0-.42-.38Z"/><path class="cls-1" d="M5.75,7.69H3.13a.75.75,0,0,1,0-1.49H5.75a.38.38,0,0,0,.38-.38V3.21a.75.75,0,1,1,1.49,0V5.82A1.87,1.87,0,0,1,5.75,7.69Z"/></svg>