<?xml version="1.0" encoding="utf-8"?>
<!-- Generator: Adobe Illustrator 26.2.1, SVG Export Plug-In . SVG Version: 6.00 Build 0)  -->
<svg version="1.1" xmlns="http://www.w3.org/2000/svg" xmlns:xlink="http://www.w3.org/1999/xlink" x="0px" y="0px"
	 viewBox="0 0 23.1 22.9" style="enable-background:new 0 0 23.1 22.9;" xml:space="preserve">
<style type="text/css">
	.st0{fill:#172851;stroke:#172851;stroke-width:0.25;stroke-miterlimit:10;}
	.st1{fill:#FFFFFF;}
	.st2{fill:#172851;}
	.st3{fill:#509BCB;}
</style>
<g id="Layer_1">
</g>
<g id="Layer_2">
</g>
<g id="Layer_3">
</g>
<g id="Layer_4">
	<path class="st1" d="M4.1,2.3v12.6h11.7l1.5,2.6V2.5V2.1C17.4,2.1,4.2,2.3,4.1,2.3z"/>
	<path class="st2" d="M22.8,14.7c-0.1-0.1-0.2-0.2-0.3-0.2h-3.4v-11c0-0.2-0.2-0.4-0.4-0.4h-1.1V2.1c0-0.2-0.2-0.4-0.4-0.4H8.1
		c0-0.8-0.7-1.5-1.5-1.5S5.1,0.9,5.1,1.7H4c-0.2,0-0.4,0.2-0.4,0.4v12.5h-3c-0.2,0-0.4,0.2-0.4,0.4c0,0.1,0,0.1,0,0.2l4.2,7.6
		c0.1,0.1,0.2,0.2,0.3,0.2h15.1c0.2,0,0.3-0.1,0.3-0.3l0,0l2.6-7.6C22.9,15,22.9,14.8,22.8,14.7z M18.4,4v15l-0.8-1.4l0,0V4H18.4z
		 M6.6,1C7,1,7.4,1.3,7.4,1.7H5.9C5.9,1.3,6.2,1,6.6,1z M4.4,2.5h3v1.1C7.4,3.8,7.2,4,7,4S6.6,3.8,6.6,3.6V3.2H5.9v0.4
		c0,0.6,0.5,1.1,1.1,1.1s1.1-0.5,1.1-1.1V2.5h8.7v13.7L16,14.7c-0.1-0.1-0.2-0.2-0.3-0.2H4.4V2.5z M5,22.1l-3.7-6.8h14.3l3.7,6.8H5z
		 M19.8,21.6l-0.7-1.2v-5H22L19.8,21.6z"/>
	<path class="st2" d="M19.9,22.9H4.7c-0.1,0-0.3-0.1-0.4-0.2l-4.2-7.6c0-0.1,0-0.1,0-0.2c0-0.2,0.2-0.4,0.4-0.4h3V2.1
		c0-0.2,0.2-0.4,0.4-0.4h1.1c0-0.8,0.7-1.5,1.5-1.5s1.5,0.7,1.5,1.5h9.1c0.2,0,0.4,0.2,0.4,0.4v1.1h1.1c0.2,0,0.4,0.2,0.4,0.4v10.9
		h3.4c0.1,0,0.3,0.1,0.3,0.2c0.1,0.1,0.1,0.2,0,0.4l-2.6,7.6C20.2,22.8,20,22.9,19.9,22.9z M0.6,14.6c-0.2,0-0.4,0.1-0.4,0.4
		c0,0.1,0,0.1,0,0.2l4.2,7.6c0.1,0.1,0.2,0.2,0.3,0.2h15.1c0.1,0,0.3-0.1,0.3-0.3l2.6-7.6c0-0.1,0-0.2,0-0.3l0,0
		c-0.1-0.1-0.2-0.1-0.3-0.1h-3.4v-11c0-0.2-0.1-0.4-0.4-0.4h-1.2V2.1c0-0.2-0.1-0.4-0.4-0.4H8.1v0c0-0.8-0.7-1.5-1.5-1.5
		S5.1,0.9,5.1,1.7v0H4c-0.2,0-0.4,0.1-0.4,0.4v12.5H0.6z M19.3,22.2H5l-3.8-6.8h14.3l0,0L19.3,22.2z M5,22.1h14.2l-3.7-6.8H1.3
		L5,22.1z M19.8,21.6l-0.7-1.3v-5H22l0,0L19.8,21.6z M19.1,20.3l0.7,1.2l2.2-6.2h-2.8V20.3z M18.4,19.1l-0.8-1.5V4h0.8V19.1z
		 M17.6,17.6l0.7,1.3V4h-0.7V17.6z M16.9,16.3L16,14.7c-0.1-0.1-0.2-0.2-0.3-0.2H4.3V2.5h3.1v1.2C7.4,3.9,7.2,4,7,4S6.6,3.9,6.6,3.6
		V3.3H5.9v0.4c0,0.6,0.5,1.1,1.1,1.1s1.1-0.5,1.1-1.1V2.5h8.7V16.3z M4.4,14.5h11.3c0.1,0,0.3,0.1,0.4,0.2l0.8,1.4V2.5H8.2v1.1
		c0,0.7-0.5,1.2-1.2,1.2c-0.7,0-1.2-0.5-1.2-1.2V3.2h0.8v0.4C6.6,3.8,6.8,4,7,4c0.2,0,0.4-0.1,0.4-0.4V2.5h-3V14.5z M7.4,1.7H5.9v0
		c0-0.4,0.3-0.8,0.8-0.8S7.4,1.3,7.4,1.7L7.4,1.7z M5.9,1.7h1.5C7.4,1.3,7,1,6.6,1S5.9,1.3,5.9,1.7z"/>
	<g>
		<g>
			<g>
				<path class="st3" d="M8.5,7.4h1.1v1.1c0,0.2,0.2,0.4,0.4,0.4h1.5c0.2,0,0.4-0.2,0.4-0.4V7.4h1.1c0.2,0,0.4-0.2,0.4-0.4V5.5
					c0-0.2-0.2-0.4-0.4-0.4h-1.1V4c0-0.2-0.2-0.4-0.4-0.4H10C9.8,3.6,9.7,3.8,9.7,4v1.1H8.5c-0.2,0-0.4,0.2-0.4,0.4V7
					C8.1,7.2,8.3,7.4,8.5,7.4z M8.9,5.9H10c0.2,0,0.4-0.2,0.4-0.4V4.4h0.8v1.1c0,0.2,0.2,0.4,0.4,0.4h1.1v0.8h-1.1
					c-0.2,0-0.4,0.2-0.4,0.4v1.1h-0.8V7c0-0.2-0.2-0.4-0.4-0.4H8.9L8.9,5.9L8.9,5.9z"/>
			</g>
			<g>
				<rect x="6.2" y="9.7" class="st3" width="0.8" height="0.8"/>
			</g>
			<g>
				<rect x="7.8" y="9.7" class="st3" width="7.9" height="0.8"/>
			</g>
			<g>
				<rect x="5.5" y="11.2" class="st3" width="10.2" height="0.8"/>
			</g>
			<g>
				<rect x="5.5" y="12.7" class="st3" width="8.7" height="0.8"/>
			</g>
		</g>
		<g>
			<rect x="15.2" y="3.6" class="st3" width="0.8" height="0.8"/>
		</g>
		<g>
			<rect x="15.3" y="5.1" class="st3" width="0.8" height="0.8"/>
		</g>
	</g>
</g>
<g id="Layer_5">
</g>
<g id="Layer_6">
</g>
<g id="Layer_7">
</g>
</svg>
