<?xml version="1.0" encoding="utf-8"?>
<!-- Generator: Adobe Illustrator 26.2.1, SVG Export Plug-In . SVG Version: 6.00 Build 0)  -->
<svg version="1.1" id="Layer_1" xmlns="http://www.w3.org/2000/svg" xmlns:xlink="http://www.w3.org/1999/xlink" x="0px" y="0px"
	 viewBox="0 0 19 19" style="enable-background:new 0 0 19 19;" xml:space="preserve">
<style type="text/css">
	.st0{fill:#FFFFFF;}
</style>
<g>
	<path class="st0" d="M16.1,0.1H2.9c-1.6,0-2.8,1.2-2.8,2.8v13.2c0,1.6,1.2,2.8,2.8,2.8h13.2c1.6,0,2.8-1.2,2.8-2.8V2.9
		C18.9,1.3,17.7,0.1,16.1,0.1z M17.1,16.1c0,0.6-0.4,0.9-0.9,0.9H2.9C2.3,17,2,16.6,2,16.1V2.9C2,2.3,2.3,2,2.9,2h13.2
		C16.7,2,17,2.4,17,2.9L17.1,16.1z"/>
</g>
<g>
	<path class="st0" d="M10.5,12.5h-2c0-0.3,0-0.5,0-0.5c0-0.6,0.1-1.2,0.3-1.6C9,9.9,9.4,9.5,10.1,8.9c0.6-0.5,1-0.9,1.1-1
		c0.2-0.3,0.3-0.5,0.3-0.8c0-0.4-0.2-0.8-0.5-1.1c-0.3-0.3-0.8-0.5-1.4-0.5c-0.6,0-1,0.2-1.4,0.5C7.8,6.3,7.6,6.8,7.4,7.5l-2-0.2
		c0.1-0.9,0.5-1.7,1.2-2.4c0.7-0.7,1.7-1,2.9-1c1.3,0,2.3,0.3,3,1c0.7,0.7,1.1,1.4,1.1,2.3c0,0.5-0.1,0.9-0.4,1.4
		c-0.3,0.4-0.9,1-1.8,1.8c-0.5,0.4-0.8,0.7-0.9,0.9C10.5,11.4,10.5,11.9,10.5,12.5z M8.5,15.4v-2.2h2.2v2.2H8.5z"/>
</g>
</svg>
