<svg id="Layer_1" data-name="Layer 1" xmlns="http://www.w3.org/2000/svg" viewBox="0 0 24.5 24.59"><defs><style>.cls-1{fill:#42779a;}</style></defs><path class="cls-1" d="M18.58,17.94a1,1,0,0,0-1,1l0,3.44-15.33,0V5.51L5.55,2.26l12.05,0V4.73a1,1,0,1,0,2,0V2.24A1.92,1.92,0,0,0,17.62.3H5.34a1.43,1.43,0,0,0-1,.43L.77,4.28a1.45,1.45,0,0,0-.44,1V22.38a1.93,1.93,0,0,0,1.94,1.94H17.62a1.93,1.93,0,0,0,1.94-1.94V18.92A1,1,0,0,0,18.58,17.94Z"/><path class="cls-1" d="M6.59,7.53a1,1,0,0,0,1-1V3.67a1,1,0,0,0-1-1,.94.94,0,0,0-1,1v1.9H3.71a1,1,0,0,0-1,1,1,1,0,0,0,1,1Z"/><path class="cls-1" d="M8,10.37H4.67a1,1,0,1,0,0,2H8a1,1,0,0,0,0-2Z"/><path class="cls-1" d="M8.79,14.2H4.67a1,1,0,1,0,0,2H8.79a1,1,0,0,0,0-2Z"/><path class="cls-1" d="M3.69,19a1,1,0,0,0,1,1H13a1,1,0,1,0,0-2H4.67A1,1,0,0,0,3.69,19Z"/><path class="cls-1" d="M23.77,17.13,21.3,14.62a6.2,6.2,0,0,0,.44-4.44,6.12,6.12,0,0,0-2.92-3.77,6.25,6.25,0,0,0-4.76-.63A6.09,6.09,0,0,0,10.28,8.7a6.23,6.23,0,0,0,2.29,8.54,6.09,6.09,0,0,0,5.92.19L21,20a2,2,0,0,0,1.38.58h0a1.92,1.92,0,0,0,1.37-.64,2.1,2.1,0,0,0,.56-1.49A1.84,1.84,0,0,0,23.77,17.13ZM20,11.83a4.3,4.3,0,1,1-4.29-4.3A4.29,4.29,0,0,1,20,11.83Z"/></svg>