<svg width="85" height="86" viewBox="0 0 85 86" fill="none" xmlns="http://www.w3.org/2000/svg">
<path d="M84.2495 42.9976C84.2495 66.0555 65.5575 84.7476 42.4998 84.7476C19.442 84.7476 0.75 66.0555 0.75 42.9976C0.75 19.9397 19.442 1.24756 42.4998 1.24756C65.5575 1.24756 84.2495 19.9397 84.2495 42.9976Z" fill="#FF7F15" stroke="#8E4C1D" stroke-width="1.5"/>
<path d="M69.8477 38.9323H63.5652V31.1714C63.5652 27.8453 61.7173 26.3671 58.7608 26.3671H45.4566C44.3479 26.3671 43.6087 25.9975 43.2392 25.2584L39.9131 21.9323C39.174 21.1932 38.4349 20.8236 37.6957 20.8236H22.9132C19.9567 20.8236 18.1089 22.6714 18.1089 25.9975V61.8453C18.1089 62.954 18.848 63.6932 19.9567 63.6932H65.7825C66.1521 63.6932 66.1521 63.6932 66.5217 63.3236L74.2825 42.9975C74.6521 40.4106 73.1738 38.9323 69.8477 38.9323Z" fill="#0B3556"/>
<path d="M69.8478 38.9323H63.5653H60.9783H35.4785C32.8915 38.9323 30.6741 40.4105 29.935 42.2583L22.5437 61.1062L21.4351 63.6931H65.4131C65.7826 63.6931 65.7826 63.6931 66.1522 63.3236L73.913 42.9975C75.0217 40.4105 73.1739 38.9323 69.8478 38.9323Z" fill="white"/>
</svg>
