<?xml version="1.0" encoding="utf-8"?>
<!-- Generator: Adobe Illustrator 25.2.3, SVG Export Plug-In . SVG Version: 6.00 Build 0)  -->
<svg version="1.1" id="Layer_1" xmlns="http://www.w3.org/2000/svg" xmlns:xlink="http://www.w3.org/1999/xlink" x="0px" y="0px"
	 viewBox="0 0 29.38 29.29" style="enable-background:new 0 0 29.38 29.29;" xml:space="preserve">
<style type="text/css">
	.st0{fill-rule:evenodd;clip-rule:evenodd;fill:#FFFFFF;}
	.st1{fill-rule:evenodd;clip-rule:evenodd;fill:#CF6B28;}
</style>
<circle class="st0" cx="14.68" cy="14.67" r="14.5"/>
<g>
	<circle class="st1" cx="14.68" cy="14.67" r="12.38"/>
	<path class="st0" d="M24.64,20.72c-0.51-0.51-1.03-1.01-1.52-1.51c-3.97-4.16-3.97-5.67-4.92-11.16C18.01,7.1,17.25,2,16.12,5.21
		c-0.38,0.57-0.57,1.32-0.76,2.08c-0.38,0.76-1.13,0.57-1.89,0.76c-1.13,0.19-1.13,0.76-2.46,0.76c-0.76,0-2.08,0-2.84,0
		C7.23,9,6.85,9.75,7.42,10.7c0.57,0.95,1.89,1.7,2.84,1.89c0.95,0.38,2.46,0.19,2.46,1.51c0,1.32-0.95,2.65-1.13,4.16
		c-0.38,2.27,0.19,4.35,1.13,6.43c0.13,0.3,0.26,0.83,0.38,1.51c0.52,0.07,1.05,0.12,1.59,0.12C18.9,26.33,22.59,24.08,24.64,20.72z
		"/>
</g>
</svg>
