<?xml version="1.0" encoding="utf-8"?>
<!-- Generator: Adobe Illustrator 27.0.0, SVG Export Plug-In . SVG Version: 6.00 Build 0)  -->
<svg version="1.1" id="Layer_1" xmlns="http://www.w3.org/2000/svg" xmlns:xlink="http://www.w3.org/1999/xlink" x="0px" y="0px"
	 viewBox="0 0 85 85" style="enable-background:new 0 0 85 85;" xml:space="preserve">
<style type="text/css">
	.st0{fill:#9AC5E5;}
	.st1{fill:#FFFFFF;}
</style>
<g>
	<circle class="st0" cx="42.5" cy="42.5" r="42.1"/>
</g>
<g>
	<g>
		<path d="M73.4,23.5c-0.7-0.4-1.8-0.9-2.3-1.2c-0.5-0.2-1.2-0.6-1.2-1c0.1-0.6-0.6-1-1.1-1.3c-0.7-0.4-2.1-1-3.7-1.1
			c-1.6-0.1-2.9,0.3-3.7,1.2c-0.8,0.8-0.8,1.5-1.4,2.1c-1.5,1.4-2.1,3.4-3.6,4.6c-0.6,0.5-0.9,0.1-2.3,1c-0.7,0.4-1.5,1.2-4.6,1.6
			c-1.9,0.2-8.6,0.4-11.1,0.5c-4.3,0.2-5.3,1.4-8.3,1.9c-5.2,0.9-12-0.5-14.1-0.9c-2.1-0.4-1.9,0-0.4,0.6c1.4,0.6,7,1.9,11.3,2.7
			c1,0.2,1.4,1,1.2,1.6c-1.4,4.1-3.8,9.7-6.8,13.3c-1.2,1.4-2.4,1.6-3.2,3.4c-0.7,1.5-1.5,4.9-2,6.9c-0.1,0.6-0.2,1.1-0.1,1.6
			c0,0.5-0.6,0.5-0.8,0.5c-2.1,0.1-3.7,0.5-3.7,1c0,0.5,1.8,0.9,4.3,1c1.2,0.1,2.3,0.1,3.2,0c0.3,0,0.6-0.1,0.9-0.1
			c0.8-0.2,1.2-0.8,1-1.5c-0.2-0.9-1.4-1.1-1.5-1.9c-0.2-1.4,0.6-4.9,3.9-7.1c2.5-1.7,4.4-2.9,7.7-5.8c0.7-0.7,1.2-0.3,1.1,0.3
			c-0.1,1.1-1.2,2.3-1.7,3c-0.5,0.7-0.9,1.4-0.7,2.2c0.3,1.2,0.6,2.6,0.9,3.9c0.1,0.5,0.3,1,0.5,1.5c0.2,0.4-0.1,0.5-0.2,0.5
			c-1.8,0-3.2,0.3-3.2,0.5c0,0.3,1.7,0.5,3.7,0.5c0.7,0,2.2,0,3-0.1c1-0.2,0.7-1.1,0.4-1.6c-0.2-0.5-1.1-0.5-1.6-0.7
			c-0.5-0.2-1.2-3-1-4.1c0.2-1.2,0.6-2.4,2.6-3.9c2-1.5,3.3-3.6,4.1-5.2c0.8-1.6,2.4-2.2,3.6-2.1c3,0.4,4.7,3.2,9.9,3
			c1,0,1.2,0.4,1.2,1.3c0,0.9-0.1,9.2-0.2,10.6c0,0.5,0.1,1.1,0.3,1.5c0.2,0.4-0.3,0.5-0.6,0.5c-1.1,0.1-1.9,0.3-1.9,0.6
			s0.8,0.5,2,0.6c0.3,0,0.4,0.2,0,0.2c-2.6,0.1-4.7,0.4-4.7,0.9c0,0.5,1.4,0.6,4.3,0.9c1.5,0.1,3.1,0.2,4.6,0.2c0.2,0,0.4,0,0.7-0.1
			c0.6-0.1,0.9-0.3,1-0.6c0.1-0.4-0.4-0.9,0-1c0.3,0,0.7-0.1,0.6-0.6c-0.1-0.5-0.4-1.3-1-1.3c-0.8,0-1.3-0.3-1.3-1.4
			c0-0.8,1.2-10.1,1.5-11.6c0.2-0.9,0.6-1.4,1.9-2.8c2.1-2.4,1.8-6,1.9-6.6c0.2-1.2,1.1-2.9,1.4-3.7c0.6-1.5,0.5-2.7,1.4-4
			c0.3-0.5,0.8-0.8,1.6-0.2c1,0.8,2,0.9,3,0.7c1.7-0.2,1.6-1.2,2.1-1.1c0.4,0,0.7,0,0.9-0.2c0.2-0.2,1-1.6,1.3-2.3
			C74.7,24.3,74.1,23.9,73.4,23.5z"/>
		<path d="M17.4,64.3c-0.6,0-1.2,0-1.9-0.1c-3.1-0.1-5-0.5-5-1.7c0-1.3,2.4-1.7,4.5-1.7c0,0,0,0,0.1,0c0-0.4,0-0.9,0.2-1.5
			c0.7-2.7,1.4-5.6,2.1-7c0.5-1.2,1.3-1.8,2-2.4c0.4-0.3,0.9-0.7,1.3-1.2c3.2-3.8,5.6-9.8,6.7-13.1c0-0.1,0-0.3,0-0.4
			c-0.1-0.2-0.3-0.3-0.5-0.3c-4.3-0.7-9.9-2.1-11.5-2.7c-0.6-0.2-1.8-0.7-1.5-1.6c0.3-0.9,1.5-0.6,2.4-0.4c2.5,0.5,8.9,1.7,13.8,0.9
			c1.1-0.2,1.9-0.5,2.8-0.8c1.4-0.5,2.8-1,5.6-1.1c0.8,0,2-0.1,3.4-0.1c2.8-0.1,6.4-0.2,7.6-0.4c2.5-0.3,3.4-0.9,4-1.3
			c0.1-0.1,0.2-0.1,0.3-0.2c0.9-0.5,1.4-0.7,1.8-0.8c0.2-0.1,0.3-0.1,0.5-0.2c0.7-0.5,1.2-1.3,1.7-2.2c0.5-0.8,1.1-1.7,1.9-2.4
			c0.2-0.2,0.3-0.4,0.5-0.7c0.2-0.4,0.4-0.8,0.9-1.3c0.9-1,2.5-1.5,4.3-1.4c1.6,0.1,3.2,0.7,4,1.2l0.1,0.1c0.5,0.3,1.4,0.8,1.3,1.8
			c0.1,0.1,0.3,0.2,0.7,0.4l0,0c0.6,0.3,1.6,0.8,2.4,1.2l0.1,0c0.7,0.4,1.8,1.1,1.3,2.3l0,0c-0.3,0.7-1.1,2.1-1.4,2.5
			c-0.3,0.4-0.8,0.5-1.4,0.5c0,0,0,0,0,0c-0.3,0.3-0.8,0.9-2.2,1.1c-1.1,0.1-2.3,0.2-3.6-0.9c-0.2-0.1-0.3-0.2-0.3-0.2
			c0,0-0.1,0.1-0.2,0.2c-0.5,0.7-0.6,1.4-0.8,2.1c-0.1,0.6-0.3,1.1-0.5,1.8c-0.1,0.2-0.2,0.5-0.4,0.8c-0.4,0.8-0.9,1.9-1,2.7
			c0,0.1,0,0.2,0,0.4c0,1.3-0.1,4.4-2.1,6.6c-1.3,1.4-1.6,1.9-1.7,2.5c-0.3,1.6-1.5,10.7-1.5,11.5c0,0.7,0.2,0.7,0.6,0.7
			c0.7,0,1.5,0.5,1.8,2c0.1,0.5-0.1,0.8-0.2,1c-0.1,0.1-0.2,0.2-0.4,0.3c0,0.2,0,0.4,0,0.6c-0.1,0.4-0.5,1-1.6,1.2l-0.1,0
			c-0.2,0-0.4,0.1-0.7,0.1c-1.4,0-3,0-4.7-0.2l-0.2,0c-1.4-0.1-2.4-0.2-3.1-0.4c-0.5-0.1-1.6-0.3-1.6-1.3c0-1,1.3-1.2,2-1.3
			c0.2,0,0.5-0.1,0.7-0.1c0-0.1,0-0.2,0-0.3c0-0.9,1.2-1.2,2.3-1.3c-0.2-0.5-0.2-0.9-0.2-1.4c0.1-1.3,0.2-9.5,0.2-10.5
			c0-0.4-0.1-0.6-0.1-0.6c0,0-0.1,0-0.3,0c0,0,0,0-0.1,0c-3.4,0.1-5.3-0.9-7.1-1.8c-1-0.5-1.9-1-3-1.2c-0.9-0.1-2.2,0.4-2.8,1.7
			c-1.2,2.3-2.6,4.2-4.4,5.5c-1.9,1.4-2.2,2.5-2.3,3.4c-0.1,0.9,0.4,2.8,0.6,3.4c0.1,0,0.2,0,0.3,0.1c0.5,0.1,1.3,0.3,1.6,1
			c0.2,0.5,0.5,1.3,0.1,1.9c-0.2,0.3-0.5,0.6-1.2,0.7c-0.9,0.1-2.2,0.1-3,0.1l-0.2,0c-1,0-2-0.1-2.7-0.2c-0.6-0.1-1.7-0.2-1.7-1.1
			c0-0.8,1.1-1,1.6-1.1c0.5-0.1,1.1-0.1,1.8-0.2c-0.1-0.3-0.2-0.6-0.3-0.8l-0.1-0.2c-0.2-0.9-0.4-1.7-0.6-2.6
			c-0.1-0.5-0.2-0.9-0.3-1.3c-0.3-1.2,0.2-2,0.8-2.8c0.1-0.2,0.3-0.4,0.4-0.6c0.3-0.4,0.7-1,1-1.5c-2.8,2.5-4.7,3.7-6.8,5.2
			l-0.6,0.4c-3.2,2.1-3.7,5.4-3.6,6.4c0,0.1,0.2,0.3,0.4,0.4c0.4,0.3,0.9,0.7,1.1,1.4c0.3,1.2-0.3,2.1-1.5,2.5
			c-0.3,0.1-0.7,0.1-1.1,0.2C18.4,64.3,17.9,64.3,17.4,64.3z M13,62.5c0.6,0.1,1.4,0.2,2.7,0.3c1.2,0.1,2.2,0.1,3.1,0
			c0.3,0,0.5-0.1,0.7-0.1c0.6-0.2,0.5-0.4,0.5-0.6c-0.1-0.2-0.2-0.4-0.5-0.6c-0.4-0.3-0.8-0.7-0.9-1.3c-0.3-1.8,0.8-5.6,4.2-7.9
			l0.6-0.4c2.3-1.5,4.1-2.7,7-5.4c0.8-0.7,1.4-0.6,1.7-0.4c0.5,0.2,0.7,0.8,0.6,1.4c-0.1,1-0.9,2-1.5,2.8c-0.1,0.2-0.3,0.4-0.4,0.5
			c-0.5,0.7-0.7,1.1-0.6,1.6c0.1,0.4,0.2,0.9,0.3,1.4c0.2,0.8,0.4,1.7,0.6,2.5l0.1,0.2c0.1,0.4,0.2,0.8,0.4,1.1
			c0.3,0.6,0.1,0.9,0,1.1c0,0,0,0,0,0.1c0.8,0,1.8,0,2.5-0.1c0,0,0.1,0,0.1,0c0-0.2-0.1-0.4-0.2-0.6c-0.1-0.1-0.4-0.1-0.5-0.1
			c-0.2,0-0.4-0.1-0.6-0.2c-0.2-0.1-0.7-0.3-1.2-2.2c-0.1-0.4-0.4-1.8-0.3-2.7c0.2-1.2,0.7-2.7,2.9-4.4c1.5-1.2,2.9-2.8,3.9-4.9
			c1-2,3-2.7,4.4-2.5c1.3,0.2,2.3,0.7,3.4,1.3c1.7,0.9,3.4,1.8,6.3,1.7c0.6,0,1.1,0.1,1.5,0.5c0.5,0.4,0.5,1.1,0.5,1.6
			c0,0.8-0.1,9.2-0.2,10.6c0,0.4,0.1,0.7,0.3,1.2c0.2,0.4,0.1,0.8,0,0.9c-0.1,0.2-0.3,0.3-0.5,0.4c0.3,0.2,0.4,0.4,0.4,0.7
			c0,0.3-0.2,0.8-1,0.8c-0.9,0-1.6,0.1-2.2,0.1c0.5,0.1,1.1,0.1,1.7,0.2l0.2,0c1.7,0.2,3.2,0.2,4.5,0.2l0,0c0.1,0,0.3,0,0.5,0l0.1,0
			c0.2,0,0.3-0.1,0.4-0.1c0,0,0-0.1,0-0.1c-0.1-0.2-0.3-0.6,0-1c0.1-0.1,0.3-0.4,0.6-0.4c-0.1-0.3-0.2-0.5-0.3-0.5
			c-1.3,0-2-0.8-2-2.2c0-1,1.2-10.4,1.5-11.8c0.2-1.1,0.8-1.8,2-3.2c1.6-1.8,1.7-4.5,1.7-5.7c0-0.2,0-0.4,0-0.5
			c0.1-1,0.7-2.2,1.1-3.1c0.1-0.3,0.3-0.6,0.3-0.8c0.2-0.5,0.3-1,0.5-1.5c0.2-0.8,0.4-1.7,1-2.6c0.3-0.5,0.7-0.8,1.2-0.9
			c0.5-0.1,1,0.1,1.5,0.5c0.8,0.6,1.5,0.7,2.5,0.6c0.8-0.1,1-0.3,1.2-0.6c0.2-0.2,0.5-0.6,1.1-0.5c0.1,0,0.2,0,0.2,0
			c0.2-0.3,0.9-1.5,1.1-2.1c0,0,0,0,0,0c-0.1-0.1-0.4-0.3-0.7-0.5l-0.1,0c-0.7-0.4-1.7-0.9-2.2-1.1c-0.5-0.2-1.7-0.7-1.6-1.8l0,0
			c0-0.1-0.4-0.4-0.6-0.5l-0.1-0.1c-0.6-0.3-1.9-0.9-3.3-1c-1.4-0.1-2.5,0.3-3.1,0.9c-0.3,0.3-0.5,0.6-0.6,1
			c-0.2,0.4-0.4,0.8-0.8,1.1c-0.7,0.6-1.1,1.3-1.6,2.1c-0.6,0.9-1.2,1.8-2.1,2.5c-0.4,0.3-0.7,0.4-1,0.5c-0.3,0.1-0.7,0.2-1.4,0.6
			c-0.1,0-0.2,0.1-0.3,0.2c-0.7,0.5-1.8,1.2-4.6,1.6c-1.3,0.2-4.8,0.3-7.8,0.4c-1.4,0-2.6,0.1-3.3,0.1c-2.5,0.1-3.8,0.6-5.2,1
			c-0.9,0.3-1.8,0.6-3,0.8c-2.2,0.4-4.6,0.4-6.9,0.2c1.2,0.3,2.5,0.5,3.6,0.7c0.7,0.1,1.2,0.5,1.6,1c0.3,0.5,0.4,1.1,0.2,1.6l0,0
			c-1.1,3.3-3.6,9.6-7,13.6c-0.5,0.6-1.1,1-1.5,1.4c-0.7,0.5-1.2,0.9-1.6,1.8c-0.7,1.6-1.6,5.2-2,6.8c-0.1,0.6-0.1,1-0.1,1.4
			c0,0.3-0.1,1.2-1.4,1.3l-0.1,0C14.2,62.3,13.5,62.4,13,62.5z M30.6,57.7C30.6,57.7,30.6,57.7,30.6,57.7
			C30.6,57.7,30.6,57.7,30.6,57.7C30.6,57.7,30.6,57.7,30.6,57.7z M33.5,56.5L33.5,56.5L33.5,56.5z M31.5,47.3
			C31.5,47.3,31.5,47.3,31.5,47.3S31.5,47.3,31.5,47.3z M31.1,47.1L31.1,47.1L31.1,47.1z"/>
	</g>
	<g>
		<g>
			<path d="M11.2,62.5c0,0.5,1.8,0.9,4.3,1c1.2,0.1,2.3,0.1,3.2,0c0.3,0,0.6-0.1,0.9-0.1c0.8-0.2,1.2-0.8,1-1.5
				c-0.2-0.9-1.4-1.1-1.5-1.9c-0.2-1.4,0.6-4.9,3.9-7.1c2.5-1.7,4.4-2.9,7.7-5.8c0.7-0.7,1.2-0.3,1.1,0.3c-0.1,1.1-1.2,2.3-1.7,3
				c-0.5,0.7-0.9,1.4-0.7,2.2c0.3,1.2,0.6,2.6,0.9,3.9c0.1,0.5,0.3,1,0.5,1.5c0.2,0.4-0.1,0.5-0.2,0.5c-1.8,0-3.2,0.3-3.2,0.5
				c0,0.3,1.7,0.5,3.7,0.5c0.7,0,2.2,0,3-0.1c1-0.2,0.7-1.1,0.4-1.6c-0.2-0.5-1.1-0.5-1.6-0.7c-0.5-0.2-1.2-3-1-4.1
				c0.2-1.2,0.6-2.4,2.6-3.9c2-1.5,3.3-3.6,4.1-5.2c0.8-1.6,2.4-2.2,3.6-2.1c3,0.4,4.7,3.2,9.9,3c1,0,1.2,0.4,1.2,1.3
				s-0.1,9.2-0.2,10.6c0,0.5,0.1,1.1,0.3,1.5c0.2,0.4-0.3,0.5-0.6,0.5c-1.1,0.1-1.9,0.3-1.9,0.6c0,0.2,0.8,0.5,2,0.6
				c0.3,0,0.4,0.2,0,0.2c-2.6,0.1-4.7,0.4-4.7,0.9c0,0.5,1.4,0.6,4.3,0.9c1.5,0.1,3.1,0.2,4.6,0.2c0.2,0,0.4,0,0.7-0.1
				c0.6-0.1,0.9-0.3,1-0.6c0.1-0.4-0.4-0.9,0-1c0.3,0,0.7-0.1,0.6-0.6c-0.1-0.5-0.4-1.3-1-1.3c-0.8,0-1.3-0.3-1.3-1.4
				c0-0.8,1.2-10.1,1.5-11.6c0.2-0.9,0.6-1.4,1.9-2.8c2.1-2.4,1.8-6,1.9-6.6c0.2-1.2,1.1-2.9,1.4-3.7c0.6-1.5,0.5-2.7,1.4-4
				c0.3-0.5,0.8-0.8,1.6-0.2c1,0.8,2,0.9,3,0.7c1.7-0.2,1.6-1.2,2.1-1.1c0.4,0,0.7,0,0.9-0.2c0.2-0.2,1-1.6,1.3-2.3
				c0.3-0.7-0.3-1-1-1.4c-0.7-0.4-1.8-0.9-2.3-1.2c-0.5-0.2-1.2-0.6-1.2-1c0.1-0.6-0.6-1-1.1-1.3c-0.7-0.4-2.1-1-3.7-1.1
				c-1.6-0.1-2.9,0.3-3.7,1.2c-0.8,0.8-0.8,1.5-1.4,2.1c-1.5,1.4-2.1,3.4-3.6,4.6c-0.6,0.5-0.9,0.1-2.3,1c-0.7,0.4-1.5,1.2-4.6,1.6
				c-1.9,0.2-8.6,0.4-11.1,0.5c-4.3,0.2-5.3,1.4-8.3,1.9c-5.2,0.9-12-0.5-14.1-0.9c-2.1-0.4-1.9,0-0.4,0.6c1.4,0.6,7,1.9,11.3,2.7
				c1,0.2,1.4,1,1.2,1.6c-1.4,4.1-3.8,9.7-6.8,13.3c-1.2,1.4-2.4,1.6-3.2,3.4c-0.7,1.5-1.5,4.9-2,6.9c-0.1,0.6-0.2,1.1-0.1,1.6
				c0,0.5-0.6,0.5-0.8,0.5C12.9,61.5,11.2,62,11.2,62.5z M67.2,19.9c0.7,0.3,1.9,0.7,2,1.5c0.1,0.7,0.3,0.7,0.6,0.9
				c0.3,0.2,2.4,1.2,3,1.6c0.6,0.4,0.5,0.7-0.1,0.6c-1.2-0.1-1.2,0.6-0.7,0.7c0.3,0.1,0.5,0.2,0.3,0.7s-0.9,1.6-2,1.9
				c-1.3,0.4-2.2,0-2.4-0.1c-0.3-0.2-0.4-0.4,0.3-0.6c0.6-0.1,0.7-0.6,0.1-0.9c-0.5-0.3-0.6-1-0.4-1.5s0.8-0.7,1.2-1.1
				c0.3-0.3,0.3-0.7,0-0.9c-0.3-0.2-0.5-0.5-0.6-0.8c-0.1-0.6-0.3-0.8-0.6-1.1c-0.2-0.2-0.7-0.5-1.4-0.8
				C65.9,19.8,66.3,19.6,67.2,19.9z M19.3,61.2c0.2,0,0.7,0.5,0.8,0.8c0,0.3-0.2,0.4-0.4,0.4C19.5,62.5,19,61.2,19.3,61.2z
				 M17.1,61.1c0.2-0.1,0.3,1.1,0.2,1.3c-0.1,0.2-0.4,0-0.6-0.4C16.5,61.6,16.9,61.2,17.1,61.1z M61.9,26.2
				c-0.1-0.8-0.3-1.8-0.1-2.4c0.1-0.4,0.7,0.2,1,1.6c0.4,1.6,1.8,0.9,1-0.8c-0.2-0.5-0.5-1-0.7-1.4c-0.5-0.9-0.6-1.9-0.4-2.8
				c0.1-0.4,0.5-0.7,0.3,0.2c-0.1,0.5,0.1,1.6,0.9,2.6s1.1,2.4,0.9,3.5c-0.2,0.8-0.8,1.7-1.3,2C62,29.6,62.1,27.5,61.9,26.2z
				 M18.6,58.5c-0.2,1,0,1.8-0.3,2c-0.3,0.3-0.9,0.3-1.3-0.4C16.3,59,17.8,53.5,19,52c0.7-0.8,1-0.9,2.7-2.6c1-1,3.2-4.4,4.7-7.2
				c1.3-2.3,2.6-5.6,3-6.4c1.8-3.3,3.6-3.9,6-4.3c7.1-1.1,15.2,1.1,19.4-2.8c0.4-0.4,1-0.4,1.5-0.1c0.5,0.3,0.5,0.7,1.2,0.9
				c0.7,0.1,2.3-0.5,3.4-0.1c0.7,0.2,1.7,1.2,1.4,2.9c-0.2,1-0.7,1-1.1,1.9c-0.7,2,0.7,1.6-0.1,5.5c-0.1,0.3-0.6,1.8-1.3,2.5
				c-0.7,0.7-1.6,1.6-2,3.4c-0.2,1.1-1.6,11.3-1.5,12.3c0.1,1.1,0.4,1.7,1,1.9c0.5,0.2,0.9,0.9,1,1.3c0,0.1,0,0.2,0,0.3
				c-0.3,0.3-0.6-0.4-0.8-0.7c-0.4-0.5-1-0.3-0.6,0.2c0.3,0.3,0.4,0.8-0.1,0.8c-0.1,0-0.2,0-0.3,0c-0.7,0-1.2-0.4-1.3-1.3
				c-0.1-0.9-1.1-2-1.1-3.2c0-2.2,0.2-8.9,0.2-10.5c0-1.6-0.3-2.4-1.6-2.5c-0.8-0.1-2,0.1-4-0.4c-4.2-1.1-4.2-2.7-8.2-3
				c-1.2-0.1-3.7,0.7-5.4,1.8c-2.2,1.4-3.5,2.8-6.2,5.2c-2,1.8-5.3,3.8-7.1,5.3C20.4,53.9,19.3,55.3,18.6,58.5z M18.5,62.8
				c-0.4,0-0.7-0.2-0.7-0.7c0-0.5,0.1-1,0.4-1c0.3,0,0.7,0.7,0.8,1.2C19.1,62.7,18.9,62.8,18.5,62.8z"/>
		</g>
		<g>
			<path class="st1" d="M67.2,19.9c0.7,0.3,1.9,0.7,2,1.5c0.1,0.7,0.3,0.7,0.6,0.9c0.3,0.2,2.4,1.2,3,1.6c0.6,0.4,0.5,0.7-0.1,0.6
				c-1.2-0.1-1.2,0.6-0.7,0.7c0.3,0.1,0.5,0.2,0.3,0.7s-0.9,1.6-2,1.9c-1.3,0.4-2.2,0-2.4-0.1c-0.3-0.2-0.4-0.4,0.3-0.6
				c0.6-0.1,0.7-0.6,0.1-0.9c-0.5-0.3-0.6-1-0.4-1.5s0.8-0.7,1.2-1.1c0.3-0.3,0.3-0.7,0-0.9c-0.3-0.2-0.5-0.5-0.6-0.8
				c-0.1-0.6-0.3-0.8-0.6-1.1c-0.2-0.2-0.7-0.5-1.4-0.8C65.9,19.8,66.3,19.6,67.2,19.9z M19.3,61.2c0.2,0,0.7,0.5,0.8,0.8
				c0,0.3-0.2,0.4-0.4,0.4C19.5,62.5,19,61.2,19.3,61.2z M17.1,61.1c0.2-0.1,0.3,1.1,0.2,1.3c-0.1,0.2-0.4,0-0.6-0.4
				C16.5,61.6,16.9,61.2,17.1,61.1z M61.9,26.2c-0.1-0.8-0.3-1.8-0.1-2.4c0.1-0.4,0.7,0.2,1,1.6c0.4,1.6,1.8,0.9,1-0.8
				c-0.2-0.5-0.5-1-0.7-1.4c-0.5-0.9-0.6-1.9-0.4-2.8c0.1-0.4,0.5-0.7,0.3,0.2c-0.1,0.5,0.1,1.6,0.9,2.6s1.1,2.4,0.9,3.5
				c-0.2,0.8-0.8,1.7-1.3,2C62,29.6,62.1,27.5,61.9,26.2z M18.6,58.5c-0.2,1,0,1.8-0.3,2c-0.3,0.3-0.9,0.3-1.3-0.4
				C16.3,59,17.8,53.5,19,52c0.7-0.8,1-0.9,2.7-2.6c1-1,3.2-4.4,4.7-7.2c1.3-2.3,2.6-5.6,3-6.4c1.8-3.3,3.6-3.9,6-4.3
				c7.1-1.1,15.2,1.1,19.4-2.8c0.4-0.4,1-0.4,1.5-0.1c0.5,0.3,0.5,0.7,1.2,0.9c0.7,0.1,2.3-0.5,3.4-0.1c0.7,0.2,1.7,1.2,1.4,2.9
				c-0.2,1-0.7,1-1.1,1.9c-0.7,2,0.7,1.6-0.1,5.5c-0.1,0.3-0.6,1.8-1.3,2.5c-0.7,0.7-1.6,1.6-2,3.4c-0.2,1.1-1.6,11.3-1.5,12.3
				c0.1,1.1,0.4,1.7,1,1.9c0.5,0.2,0.9,0.9,1,1.3c0,0.1,0,0.2,0,0.3c-0.3,0.3-0.6-0.4-0.8-0.7c-0.4-0.5-1-0.3-0.6,0.2
				c0.3,0.3,0.4,0.8-0.1,0.8c-0.1,0-0.2,0-0.3,0c-0.7,0-1.2-0.4-1.3-1.3c-0.1-0.9-1.1-2-1.1-3.2c0-2.2,0.2-8.9,0.2-10.5
				c0-1.6-0.3-2.4-1.6-2.5c-0.8-0.1-2,0.1-4-0.4c-4.2-1.1-4.2-2.7-8.2-3c-1.2-0.1-3.7,0.7-5.4,1.8c-2.2,1.4-3.5,2.8-6.2,5.2
				c-2,1.8-5.3,3.8-7.1,5.3C20.4,53.9,19.3,55.3,18.6,58.5z M18.5,62.8c-0.4,0-0.7-0.2-0.7-0.7c0-0.5,0.1-1,0.4-1
				c0.3,0,0.7,0.7,0.8,1.2C19.1,62.7,18.9,62.8,18.5,62.8z"/>
		</g>
	</g>
</g>
</svg>
