<svg width="89" height="89" viewBox="0 0 89 89" fill="none" xmlns="http://www.w3.org/2000/svg">
<path d="M87.81 44.405C87.81 68.3769 68.3769 87.81 44.405 87.81C20.4331 87.81 1 68.3769 1 44.405C1 20.4331 20.4331 1 44.405 1C68.3769 1 87.81 20.4331 87.81 44.405Z" fill="#1DB634" stroke="#00660F" stroke-width="2"/>
<path d="M34.0809 20.5352H27.0914V67.3705H61.5303V20.912H54.3335L54.8234 23.7003H33.9867L35.0418 20.0454L34.0809 20.5352Z" fill="white"/>
<path d="M55.8783 45.4789H32.6491C32.065 45.4789 31.6882 45.8556 31.6882 46.4397C31.6882 47.0237 32.065 47.4005 32.6491 47.4005H55.8783C56.4623 47.4005 56.8391 47.0237 56.8391 46.4397C56.8391 45.8745 56.4435 45.4789 55.8783 45.4789Z" fill="#39C0F0"/>
<path d="M31.6882 31.0854C31.6882 31.6694 32.065 32.0462 32.6491 32.0462H55.8783C56.4623 32.0462 56.8391 31.6694 56.8391 31.0854C56.8391 30.5014 56.4623 30.1246 55.8783 30.1246H32.6491C32.065 30.1246 31.6882 30.5014 31.6882 31.0854Z" fill="#39C0F0"/>
<path d="M55.8784 53.1654H43.7833C43.1993 53.1654 42.8225 53.5422 42.8225 54.1263C42.8225 54.7103 43.1993 55.0871 43.7833 55.0871H55.8784C56.4624 55.0871 56.8392 54.7103 56.8392 54.1263C56.8392 53.5422 56.4436 53.1654 55.8784 53.1654Z" fill="#39C0F0"/>
<path d="M55.8784 37.8111H43.7833C43.1993 37.8111 42.8225 38.1879 42.8225 38.7719C42.8225 39.356 43.1993 39.7328 43.7833 39.7328H55.8784C56.4624 39.7328 56.8392 39.356 56.8392 38.7719C56.8392 38.1879 56.4436 37.8111 55.8784 37.8111Z" fill="#39C0F0"/>
<path d="M55.8783 60.8332H32.6491C32.065 60.8332 31.6882 61.21 31.6882 61.794C31.6882 62.378 32.065 62.7548 32.6491 62.7548H55.8783C56.4623 62.7548 56.8391 62.378 56.8391 61.794C56.8391 61.2288 56.4435 60.8332 55.8783 60.8332Z" fill="#39C0F0"/>
<path d="M34.2883 41.937C34.4767 42.1254 34.7593 42.2196 34.9665 42.2196C35.1737 42.2196 35.4375 42.1254 35.6447 41.937L40.6372 36.9445C41.014 36.5677 41.014 35.9837 40.6372 35.6069C40.2604 35.2301 39.6764 35.2301 39.2996 35.6069L34.9853 39.9212L33.3463 38.2821C32.9695 37.9053 32.3855 37.9053 32.0087 38.2821C31.6319 38.6589 31.6319 39.243 32.0087 39.6197L34.2883 41.937Z" fill="#231F20"/>
<path d="M34.2881 57.2913C34.4765 57.4797 34.7591 57.5739 34.9663 57.5739C35.1736 57.5739 35.4373 57.4797 35.6446 57.2913L40.6371 52.2988C41.0138 51.922 41.0138 51.338 40.6371 50.9612C40.2603 50.5844 39.6762 50.5844 39.2994 50.9612L34.9475 55.2755L33.3084 53.6364C32.9316 53.2596 32.3476 53.2596 31.9708 53.6364C31.594 54.0132 31.594 54.5973 31.9708 54.9741L34.2881 57.2913Z" fill="#231F20"/>
<path d="M63.3577 15.0529H53.4669L52.8829 12.9428C52.7887 12.5661 52.4119 12.2646 51.922 12.2646H36.775C36.3982 12.2646 36.0026 12.5472 35.8142 12.9428L35.2301 15.0529H25.3393C23.3235 15.0529 21.6844 16.6919 21.6844 18.7078V69.0849C21.6844 71.1008 23.3235 72.7398 25.3393 72.7398H63.4331C65.4489 72.7398 67.0879 71.1008 67.0879 69.0849V18.7078C67.1068 16.6919 65.3735 15.0529 63.3577 15.0529ZM33.0259 24.5669C33.2143 24.7553 33.4969 24.9437 33.7983 24.9437H54.9175C55.2001 24.9437 55.5016 24.8495 55.69 24.5669C55.8784 24.3785 55.8784 23.9829 55.8784 23.7003L55.2001 21.4018H60.6636V66.3155H28.0334V21.496H33.4027L32.8187 23.7945C32.7433 24.0771 32.8375 24.3597 33.0259 24.5669ZM37.5474 14.1863H51.2627L53.7495 23.1162H35.0417L37.5474 14.1863ZM65.1851 69.0849C65.1851 70.0457 64.4127 70.8182 63.4519 70.8182H25.3582C24.3974 70.8182 23.6249 70.0457 23.6249 69.0849V18.7078C23.6249 17.747 24.3974 16.9745 25.3582 16.9745H34.7592L33.9867 19.5744H27.0726C26.4886 19.5744 26.1118 19.9512 26.1118 20.5352V67.3705C26.1118 67.9546 26.4886 68.3313 27.0726 68.3313H61.6245C62.2085 68.3313 62.5853 67.9546 62.5853 67.3705V20.5352C62.5853 19.9512 62.2085 19.5744 61.6245 19.5744H54.7103L53.9379 16.9745H63.3389C64.2997 16.9745 65.0721 17.747 65.0721 18.7078C65.1851 18.7078 65.1851 69.0849 65.1851 69.0849Z" fill="black" stroke="black" stroke-width="0.5" stroke-miterlimit="10"/>
</svg>
