<?xml version="1.0" encoding="utf-8"?>
<!-- Generator: Adobe Illustrator 25.2.3, SVG Export Plug-In . SVG Version: 6.00 Build 0)  -->
<svg version="1.1" id="Layer_1" xmlns="http://www.w3.org/2000/svg" xmlns:xlink="http://www.w3.org/1999/xlink" x="0px" y="0px"
	 viewBox="0 0 38.8 43.7" style="enable-background:new 0 0 38.8 43.7;" xml:space="preserve">
<style type="text/css">
	.st0{fill:#509BCB;}
	.st1{fill:#FFFFFF;}
	.st2{stroke:#000000;stroke-miterlimit:10;}
</style>
<path d="M19.8,17.8c0.9,0,1.6-0.7,1.6-1.6c0-0.9-0.7-1.6-1.6-1.6c-0.9,0-1.6,0.7-1.6,1.6C18.1,17.1,18.9,17.8,19.8,17.8z M19.8,15.6
	c0.3,0,0.5,0.2,0.5,0.5c0,0.3-0.2,0.5-0.5,0.5c-0.3,0-0.5-0.2-0.5-0.5C19.2,15.9,19.5,15.6,19.8,15.6z"/>
<circle class="st0" cx="14.8" cy="15.6" r="1.1"/>
<path d="M14.9,17.3c0.9,0,1.6-0.7,1.6-1.6c0-0.9-0.7-1.6-1.6-1.6s-1.6,0.7-1.6,1.6C13.2,16.5,13.9,17.3,14.9,17.3z M14.9,15.1
	c0.3,0,0.5,0.2,0.5,0.5s-0.2,0.5-0.5,0.5s-0.5-0.2-0.5-0.5S14.5,15.1,14.9,15.1z"/>
<path d="M24.7,17.3c0.9,0,1.6-0.7,1.6-1.6c0-0.9-0.7-1.6-1.6-1.6c-0.9,0-1.6,0.7-1.6,1.6C23.1,16.5,23.8,17.3,24.7,17.3z M24.7,15.1
	c0.3,0,0.5,0.2,0.5,0.5s-0.2,0.5-0.5,0.5c-0.3,0-0.5-0.2-0.5-0.5S24.4,15.1,24.7,15.1z"/>
<g>
	<path d="M19.4,43c8.8,0,18.1-1.8,18.1-5.1V27h0c-0.5-3.1-9.5-4.8-18.1-4.8S1.8,23.9,1.3,27h0V38C1.3,41.3,10.6,43,19.4,43z
		 M19.4,23.3c9.9,0,16.9,2.1,16.9,4c0,1.9-6.9,4-16.9,4s-16.9-2.1-16.9-4C2.6,25.4,9.5,23.3,19.4,23.3z M2.6,29.3
		c2.8,2,10,3.1,16.9,3.1s14-1.1,16.9-3.1V38c0,1.9-6.9,4-16.9,4S2.6,39.9,2.6,38V29.3z"/>
	<path d="M19.4,43.5C13,43.5,0.8,42.4,0.8,38V26.5H1c1.2-3.3,10.3-4.8,18.5-4.8s17.3,1.5,18.5,4.8H38l0,0.5V38
		C38,42.4,25.9,43.5,19.4,43.5z M1.8,27.2V38c0,2.5,7.9,4.6,17.6,4.6c9.7,0,17.6-2,17.6-4.6l0-10.9c-0.4-2.5-8.1-4.4-17.6-4.4
		c-9.5,0-17.2,1.9-17.6,4.4L1.8,27.2z M19.4,42.5c-9.7,0-17.4-2-17.4-4.5v-9.7l0.8,0.6c2.5,1.8,9.2,3,16.6,3c7.4,0,14-1.2,16.6-3
		l0.8-0.6V38C36.8,40.5,29.2,42.5,19.4,42.5z M3.1,30.2V38c0,1.2,5.8,3.5,16.4,3.5s16.4-2.3,16.4-3.5v-7.8c-3.7,2-10.9,2.7-16.4,2.7
		S6.7,32.2,3.1,30.2z M19.4,31.8c-9.7,0-17.4-2-17.4-4.5c0-2.5,7.6-4.5,17.4-4.5c9.7,0,17.4,2,17.4,4.5
		C36.8,29.8,29.2,31.8,19.4,31.8z M19.4,23.8c-10.6,0-16.4,2.3-16.4,3.5s5.8,3.5,16.4,3.5s16.4-2.3,16.4-3.5S30,23.8,19.4,23.8z"/>
</g>
<polygon class="st1" points="2,17.6 5.7,19.6 14.4,20.9 22.6,20.9 29.4,20.3 34.5,19 36.7,17.3 36.7,28 34.4,29.6 30.5,30.6 
	24.1,31.6 17.6,31.8 11.5,31.4 6.4,30.3 2.7,28.7 1.7,27.9 "/>
<path d="M20.2,39.3c0.9,0,1.6-0.7,1.6-1.6c0-0.9-0.7-1.6-1.6-1.6c-0.9,0-1.6,0.7-1.6,1.6C18.5,38.6,19.2,39.3,20.2,39.3z M20.2,37.2
	c0.3,0,0.5,0.2,0.5,0.5c0,0.3-0.2,0.5-0.5,0.5c-0.3,0-0.5-0.2-0.5-0.5C19.6,37.4,19.8,37.2,20.2,37.2z"/>
<path d="M15.2,38.8c0.9,0,1.6-0.7,1.6-1.6s-0.7-1.6-1.6-1.6s-1.6,0.7-1.6,1.6S14.3,38.8,15.2,38.8z M15.2,36.6
	c0.3,0,0.5,0.2,0.5,0.5s-0.2,0.5-0.5,0.5s-0.5-0.2-0.5-0.5S14.9,36.6,15.2,36.6z"/>
<ellipse class="st0" cx="19.7" cy="6.4" rx="17.4" ry="4.6"/>
<circle class="st0" cx="25.1" cy="37.1" r="1.3"/>
<path d="M25.1,38.8c0.9,0,1.6-0.7,1.6-1.6s-0.7-1.6-1.6-1.6c-0.9,0-1.6,0.7-1.6,1.6S24.2,38.8,25.1,38.8z M25.1,36.6
	c0.3,0,0.5,0.2,0.5,0.5s-0.2,0.5-0.5,0.5c-0.3,0-0.5-0.2-0.5-0.5S24.8,36.6,25.1,36.6z"/>
<path d="M38,5.2L38,5.2c-1.2-3.3-10.4-4.8-18.6-4.8S2,1.9,0.8,5.2h0v22.1c0,4.4,12.2,5.6,18.6,5.6S38,31.7,38,27.3V5.7L38,5.2z
	 M19.4,9.5C8.8,9.5,3.1,7.2,3.1,6s5.8-3.5,16.4-3.5S35.8,4.8,35.8,6S30,9.5,19.4,9.5z M35.8,16.6c0,1.2-5.8,3.5-16.4,3.5
	S3.1,17.8,3.1,16.6V8.8c3.7,2,10.9,2.7,16.4,2.7s12.7-0.7,16.4-2.7V16.6z M35.8,19.5v7.8c0,1.2-5.8,3.5-16.4,3.5S3.1,28.5,3.1,27.3
	v-7.8c3.7,2,10.9,2.7,16.4,2.7S32.1,21.5,35.8,19.5z"/>
<path d="M19.9,28.6c0.9,0,1.6-0.7,1.6-1.6c0-0.9-0.7-1.6-1.6-1.6s-1.6,0.7-1.6,1.6C18.3,27.9,19,28.6,19.9,28.6z M19.9,26.4
	c0.3,0,0.5,0.2,0.5,0.5c0,0.3-0.2,0.5-0.5,0.5c-0.3,0-0.5-0.2-0.5-0.5C19.4,26.6,19.6,26.4,19.9,26.4z"/>
<path d="M15,28c0.9,0,1.6-0.7,1.6-1.6c0-0.9-0.7-1.6-1.6-1.6s-1.6,0.7-1.6,1.6C13.3,27.3,14.1,28,15,28z M15,25.9
	c0.3,0,0.5,0.2,0.5,0.5c0,0.3-0.2,0.5-0.5,0.5s-0.5-0.2-0.5-0.5C14.4,26.1,14.7,25.9,15,25.9z"/>
<circle class="st0" cx="24.9" cy="26.4" r="1.3"/>
<path d="M24.8,28c0.9,0,1.6-0.7,1.6-1.6c0-0.9-0.7-1.6-1.6-1.6c-0.9,0-1.6,0.7-1.6,1.6C23.2,27.3,23.9,28,24.8,28z M24.8,25.9
	c0.3,0,0.5,0.2,0.5,0.5c0,0.3-0.2,0.5-0.5,0.5c-0.3,0-0.5-0.2-0.5-0.5C24.3,26.1,24.5,25.9,24.8,25.9z"/>
<path d="M39.8,73.3c0.9,0,1.6-0.7,1.6-1.6c0-0.9-0.7-1.6-1.6-1.6s-1.6,0.7-1.6,1.6C38.1,72.5,38.9,73.3,39.8,73.3z M39.8,71.1
	c0.3,0,0.5,0.2,0.5,0.5c0,0.3-0.2,0.5-0.5,0.5s-0.5-0.2-0.5-0.5C39.2,71.3,39.5,71.1,39.8,71.1z"/>
<circle class="st0" cx="34.8" cy="71" r="1.1"/>
<path d="M34.8,72.7c0.9,0,1.6-0.7,1.6-1.6s-0.7-1.6-1.6-1.6s-1.6,0.7-1.6,1.6S33.9,72.7,34.8,72.7z M34.8,70.5
	c0.3,0,0.5,0.2,0.5,0.5s-0.2,0.5-0.5,0.5c-0.3,0-0.5-0.2-0.5-0.5S34.5,70.5,34.8,70.5z"/>
<path d="M44.7,72.7c0.9,0,1.6-0.7,1.6-1.6s-0.7-1.6-1.6-1.6s-1.6,0.7-1.6,1.6S43.8,72.7,44.7,72.7z M44.7,70.5
	c0.3,0,0.5,0.2,0.5,0.5s-0.2,0.5-0.5,0.5s-0.5-0.2-0.5-0.5S44.4,70.5,44.7,70.5z"/>
<path class="st2" d="M39.4,98.5c8.8,0,18.1-1.8,18.1-5.1V82.5h0c-0.5-3.1-9.5-4.8-18.1-4.8s-17.6,1.7-18.1,4.8h0v10.9
	C21.3,96.7,30.6,98.5,39.4,98.5z M39.4,78.8c9.9,0,16.9,2.1,16.9,4s-6.9,4-16.9,4s-16.9-2.1-16.9-4S29.5,78.8,39.4,78.8z M22.6,84.7
	c2.8,2,10,3.1,16.9,3.1s14-1.1,16.9-3.1v8.7c0,1.9-6.9,4-16.9,4s-16.9-2.1-16.9-4V84.7z"/>
<polygon class="st1" points="22,73.1 25.7,75 34.4,76.4 42.6,76.4 49.4,75.8 54.5,74.4 56.7,72.7 56.7,83.4 54.4,85 50.5,86.1 
	44.1,87.1 37.6,87.3 31.5,86.8 26.4,85.7 22.7,84.1 21.7,83.3 "/>
<path d="M40.1,94.8c0.9,0,1.6-0.7,1.6-1.6s-0.7-1.6-1.6-1.6s-1.6,0.7-1.6,1.6S39.2,94.8,40.1,94.8z M40.1,92.6
	c0.3,0,0.5,0.2,0.5,0.5s-0.2,0.5-0.5,0.5s-0.5-0.2-0.5-0.5S39.8,92.6,40.1,92.6z"/>
<path d="M35.2,94.2c0.9,0,1.6-0.7,1.6-1.6s-0.7-1.6-1.6-1.6s-1.6,0.7-1.6,1.6S34.3,94.2,35.2,94.2z M35.2,92c0.3,0,0.5,0.2,0.5,0.5
	s-0.2,0.5-0.5,0.5s-0.5-0.2-0.5-0.5S34.9,92,35.2,92z"/>
<ellipse class="st0" cx="39.7" cy="61.9" rx="17.4" ry="4.6"/>
<circle class="st0" cx="45.1" cy="92.6" r="1.3"/>
<path d="M45.1,94.2c0.9,0,1.6-0.7,1.6-1.6s-0.7-1.6-1.6-1.6c-0.9,0-1.6,0.7-1.6,1.6S44.2,94.2,45.1,94.2z M45.1,92
	c0.3,0,0.5,0.2,0.5,0.5s-0.2,0.5-0.5,0.5c-0.3,0-0.5-0.2-0.5-0.5S44.8,92,45.1,92z"/>
<path class="st2" d="M39.4,87.8c8.8,0,18.1-1.8,18.1-5.1V61.2h0C57,58,48,56.4,39.4,56.4S21.8,58,21.3,61.2h0v21.6
	C21.3,86,30.6,87.8,39.4,87.8z M39.4,57.4c9.9,0,16.9,2.1,16.9,4s-6.9,4-16.9,4s-16.9-2.1-16.9-4S29.5,57.4,39.4,57.4z M22.6,63.4
	c2.8,2,10,3.1,16.9,3.1s14-1.1,16.9-3.1v8.7c0,1.9-6.9,4-16.9,4s-16.9-2.1-16.9-4V63.4z M22.6,74c2.8,2,10,3.1,16.9,3.1
	s14-1.1,16.9-3.1v8.7c0,1.9-6.9,4-16.9,4s-16.9-2.1-16.9-4V74z"/>
<path d="M39.9,84c0.9,0,1.6-0.7,1.6-1.6s-0.7-1.6-1.6-1.6s-1.6,0.7-1.6,1.6S39,84,39.9,84z M39.9,81.8c0.3,0,0.5,0.2,0.5,0.5
	s-0.2,0.5-0.5,0.5s-0.5-0.2-0.5-0.5S39.6,81.8,39.9,81.8z"/>
<path d="M35,83.5c0.9,0,1.6-0.7,1.6-1.6c0-0.9-0.7-1.6-1.6-1.6s-1.6,0.7-1.6,1.6C33.3,82.7,34.1,83.5,35,83.5z M35,81.3
	c0.3,0,0.5,0.2,0.5,0.5c0,0.3-0.2,0.5-0.5,0.5s-0.5-0.2-0.5-0.5C34.4,81.5,34.7,81.3,35,81.3z"/>
<circle class="st0" cx="44.9" cy="81.9" r="1.3"/>
<path d="M44.8,83.5c0.9,0,1.6-0.7,1.6-1.6c0-0.9-0.7-1.6-1.6-1.6c-0.9,0-1.6,0.7-1.6,1.6C43.2,82.7,43.9,83.5,44.8,83.5z M44.8,81.3
	c0.3,0,0.5,0.2,0.5,0.5c0,0.3-0.2,0.5-0.5,0.5c-0.3,0-0.5-0.2-0.5-0.5C44.3,81.5,44.5,81.3,44.8,81.3z"/>
</svg>
