<?xml version="1.0" encoding="utf-8"?>
<!-- Generator: Adobe Illustrator 25.2.3, SVG Export Plug-In . SVG Version: 6.00 Build 0)  -->
<svg version="1.1" id="Layer_1" xmlns="http://www.w3.org/2000/svg" xmlns:xlink="http://www.w3.org/1999/xlink" x="0px" y="0px"
	 viewBox="0 0 49.8 43.7" style="enable-background:new 0 0 49.8 43.7;" xml:space="preserve">
<style type="text/css">
	.st0{fill:#FFFFFF;}
	.st1{fill:#519CCC;}
</style>
<g>
	<path d="M42,4h-1.6l0-3.7H9.5l0,3.7H7.7h0L0.4,16.5h48.9L42,4z M38.6,4H11.3l0-1.9h27.4L38.6,4z"/>
	<path d="M49.3,16.5H0.4l0,26.9h48.9L49.3,16.5L49.3,16.5z M47.1,41.1H2.7l0-22.4h44.4V41.1z"/>
</g>
<path d="M34.3,28.6v-0.9c0-0.8-0.7-1.5-1.5-1.5s-1.5,0.7-1.5,1.5v0.9c0,0.3-0.4,0.6-0.9,0.6H19.5c-0.5,0-0.9-0.3-0.9-0.6v-0.9
	c0-0.8-0.7-1.5-1.5-1.5c-0.8,0-1.5,0.7-1.5,1.5v0.9c0,2,1.8,3.7,4,3.7h10.8C32.5,32.3,34.3,30.6,34.3,28.6z"/>
<rect x="11.3" y="2" class="st0" width="27.4" height="7.5"/>
<rect x="6.4" y="12" class="st1" width="36.9" height="4.4"/>
<rect x="15.3" y="5.1" class="st1" width="1.5" height="1.5"/>
<rect x="18.6" y="5.2" class="st1" width="15.6" height="1.5"/>
<g>
	<path d="M118.7,19.2v22.4H74.3l0-22.4H118.7 M120.9,17H72.1l0,26.9H121L120.9,17L120.9,17L120.9,17z"/>
</g>
<path d="M105.9,29.1v-0.9c0-0.8-0.7-1.5-1.5-1.5s-1.5,0.7-1.5,1.5v0.9c0,0.3-0.4,0.6-0.9,0.6H91.1c-0.5,0-0.9-0.3-0.9-0.6v-0.9
	c0-0.8-0.7-1.5-1.5-1.5s-1.5,0.7-1.5,1.5v0.9c0,2,1.8,3.7,4,3.7h10.8C104.1,32.8,105.9,31.2,105.9,29.1z"/>
<g>
	<rect x="82" y="1.7" class="st0" width="29.1" height="9.3"/>
	<path d="M110.2,2.6l0,7.5H82.8l0-7.5H110.2 M112,0.8H81.1l0,11H112L112,0.8L112,0.8z"/>
</g>
<rect x="78" y="12.6" class="st1" width="36.9" height="4.4"/>
<rect x="86.9" y="5.6" class="st1" width="1.5" height="1.5"/>
<rect x="90.1" y="5.7" class="st1" width="15.6" height="1.5"/>
</svg>
