<?xml version="1.0" encoding="utf-8"?>
<!-- Generator: Adobe Illustrator 26.0.0, SVG Export Plug-In . SVG Version: 6.00 Build 0)  -->
<svg version="1.1" id="Layer_1" xmlns="http://www.w3.org/2000/svg" xmlns:xlink="http://www.w3.org/1999/xlink" x="0px" y="0px"
	 viewBox="0 0 24 24" style="enable-background:new 0 0 24 24;" xml:space="preserve">
<style type="text/css">
	.st0{fill:#519BCB;}
	.st1{fill:#010101;}
</style>
<polygon class="st0" points="8.3,10.7 3,15.4 3,20.8 21,20.8 21,18 16,12.3 13.4,15.1 "/>
<path class="st1" d="M0.9,0C0.4,0,0,0.4,0,0.9v22.2C0,23.6,0.4,24,0.9,24h22.2c0.5,0,0.9-0.4,0.9-0.9V0.9C24,0.4,23.6,0,23.1,0
	L0.9,0z M1.3,1.3h21.3v21.3H1.3L1.3,1.3z M3.1,4.6C2.7,4.6,2.3,5,2.3,5.5v15c0,0.5,0.4,0.8,0.8,0.8h17.7c0.5,0,0.8-0.4,0.8-0.8v-15
	c0-0.5-0.4-0.8-0.8-0.8L3.1,4.6z M3.6,6h16.7v10.6l-3.8-4.6c-0.1-0.2-0.4-0.3-0.6-0.2c-0.2,0-0.3,0.1-0.4,0.2l-2,2.4l-4.8-4.1
	C8.6,10,8.4,10,8.3,10c-0.2,0-0.3,0.1-0.4,0.2l-4.2,3.9L3.6,6z M13,6.6c-1.1,0-2,0.9-2,2s0.9,2,2,2c1.1,0,2-0.9,2-2S14.1,6.6,13,6.6
	z M13,8c0.4,0,0.7,0.3,0.7,0.7S13.4,9.3,13,9.3c-0.4,0-0.7-0.3-0.7-0.7S12.6,8,13,8z M8.3,11.5l4.3,3.7l-3.8,4.6
	c0,0-0.1,0.1-0.1,0.1H3.6v-4.1c0,0,0.1-0.1,0.1-0.1L8.3,11.5z M16,13.4l4.2,5c0,0.1,0.1,0.1,0.2,0.2V20h-9.9L16,13.4z"/>
</svg>
