<svg width="54" height="54" viewBox="0 0 54 54" fill="none" xmlns="http://www.w3.org/2000/svg">
<g clip-path="url(#clip0_131_3022)">
<path d="M26.9995 53.4078C41.5841 53.4078 53.4073 41.5846 53.4073 27C53.4073 12.4154 41.5841 0.592285 26.9995 0.592285C12.4149 0.592285 0.591797 12.4154 0.591797 27C0.591797 41.5846 12.4149 53.4078 26.9995 53.4078Z" fill="#B35000"/>
<path d="M27 1.18452C41.249 1.18452 52.8155 12.7335 52.8155 27C52.8155 41.2665 41.2665 52.8155 27 52.8155C12.7335 52.8155 1.18452 41.249 1.18452 27C1.18452 12.751 12.751 1.18452 27 1.18452ZM27 0C12.1065 0 0 12.1065 0 27C0 41.8935 12.1065 54 27 54C41.8935 54 54 41.8935 54 27C54 12.1065 41.8935 0 27 0Z" fill="white"/>
<g clip-path="url(#clip1_131_3022)">
<path fill-rule="evenodd" clip-rule="evenodd" d="M44.5992 23.7079C43.6489 23.5259 40.298 24.2188 38.6164 27.0258C37.7432 28.4852 37.2125 30.1905 34.633 30.8196C31.2544 30.2416 33.8185 18.6623 33.5223 12.5309C33.334 8.63498 29.9215 10.1902 29.8659 11.8348C29.8104 13.4794 29.5512 22.0409 29.3784 23.363C29.1532 25.0778 27.9838 23.9953 28.1751 21.7216C28.3942 19.1158 28.6132 12.6363 28.5916 9.33434C28.5669 5.57569 24.7348 7.02869 24.6206 8.70843C24.5064 10.385 24.4108 19.9109 24.3398 22.4305C24.2689 24.9469 22.868 24.9948 22.9359 23.5003C23.0038 22.0058 23.01 13.8722 22.902 11.0652C22.794 8.26135 19.4462 9.34711 19.3413 11.806C19.2364 14.265 19.1037 19.8375 19.2117 24.1997C19.2673 26.451 17.7307 26.0327 17.6196 24.6212C17.49 22.9478 17.6967 19.2116 17.6566 16.8548C17.6042 13.8211 15.7621 14.4438 14.8365 15.5838C13.9077 16.7175 13.5498 22.9702 14.4786 33.0933C15.1759 40.6617 18.6964 45.0143 22.9915 46.5919C22.8125 45.5955 22.649 44.6183 22.5996 43.6763C22.5934 43.5326 22.5873 43.3921 22.5873 43.2515C22.4391 40.4701 21.0723 33.4606 22.1152 32.9081C22.8557 32.5185 23.5808 33.0869 23.5808 33.0869C23.5808 33.0869 23.3185 32.461 23.1982 31.3593C23.0778 30.2576 23.5839 28.4533 24.5496 28.4182C25.5185 28.383 26.151 29.7785 26.151 29.7785C26.151 29.7785 26.5089 29.1143 26.7527 28.878C26.9995 28.6417 27.9036 27.7092 28.749 29.0696C29.5944 30.43 29.5975 33.0422 29.5975 33.0422C29.5975 33.0422 29.8197 31.8255 30.8626 32.0778C31.9024 32.3301 32.1461 35.6576 31.5969 36.4975C31.0477 37.3374 30.0943 38.0239 30.0912 38.7488C30.0881 39.4737 28.9557 40.3583 28.7922 42.2584C28.6348 44.1202 28.8261 45.669 29.2674 47.0325C34.343 46.0202 39.1996 41.8337 41.0231 35.0668C41.5044 33.2753 42.8559 28.5938 44.232 26.8342C45.6082 25.0747 45.5495 23.8899 44.5992 23.7079Z" fill="white"/>
<path fill-rule="evenodd" clip-rule="evenodd" d="M25.8706 36.0374C25.6484 36.9666 25.2226 38.1929 24.4574 38.5601C23.6953 38.9274 23.7539 39.9525 24.2538 40.39C24.7536 40.8275 26.3303 40.39 26.3303 40.39C26.3303 40.39 27.2621 40.4826 27.6602 40.4794C28.0582 40.4794 29.2122 39.0232 28.7308 38.5729C28.2526 38.1227 27.5861 37.4904 27.617 36.4685C27.6478 35.4498 26.0927 35.1113 25.8706 36.0374Z" fill="white"/>
<path fill-rule="evenodd" clip-rule="evenodd" d="M29.5909 37.3244C29.921 37.3052 30.6924 36.5197 30.6863 35.3317C30.6801 34.1438 30.3684 33.8148 30.3684 33.8148C30.0907 33.7733 28.9491 34.6898 28.801 35.4722C28.6529 36.2546 29.2638 37.3467 29.594 37.3276L29.5909 37.3244Z" fill="white"/>
<path fill-rule="evenodd" clip-rule="evenodd" d="M28.0151 33.9072C28.3915 33.8178 28.8081 33.0322 28.5921 31.8762C28.3761 30.7202 27.6788 30.3306 27.6788 30.3306C27.2684 30.3625 26.4384 31.1002 26.75 32.4254C27.0617 33.7539 27.6387 33.9998 28.0151 33.9072Z" fill="white"/>
<path fill-rule="evenodd" clip-rule="evenodd" d="M23.025 36.7046C23.3798 37.5221 23.8179 37.5413 24.1512 36.8866C24.4844 36.232 24.4535 35.7179 23.892 35.1718C23.3304 34.6225 22.9571 34.6417 22.9571 34.6417C22.7874 34.7439 22.6701 35.8871 23.025 36.7078V36.7046Z" fill="white"/>
<path fill-rule="evenodd" clip-rule="evenodd" d="M24.9569 30.1614C24.5064 30.1933 23.59 31.0045 23.9356 32.4638C24.2781 33.9232 24.9137 34.1915 25.3271 34.0925C25.7406 33.9935 26.2003 33.1313 25.9597 31.8571C25.7221 30.5861 24.9569 30.1582 24.9569 30.1582V30.1614Z" fill="white"/>
</g>
</g>
<defs>
<clipPath id="clip0_131_3022">
<rect width="54" height="54" fill="white"/>
</clipPath>
<clipPath id="clip1_131_3022">
<rect width="31.3548" height="40.0645" fill="white" transform="translate(13.9355 6.96777)"/>
</clipPath>
</defs>
</svg>
