<?xml version="1.0" encoding="utf-8"?>
<!-- Generator: Adobe Illustrator 26.0.0, SVG Export Plug-In . SVG Version: 6.00 Build 0)  -->
<svg version="1.1" id="Layer_1" xmlns="http://www.w3.org/2000/svg" xmlns:xlink="http://www.w3.org/1999/xlink" x="0px" y="0px"
	 viewBox="0 0 26 27.1" style="enable-background:new 0 0 26 27.1;" xml:space="preserve">
<style type="text/css">
	.st0{fill:#509BCB;}
	.st1{fill:#182851;}
	.st2{fill:#172952;}
</style>
<polygon class="st0" points="15.1,21.9 13.7,25.8 17.8,24.6 "/>
<path class="st0" d="M7.8,15.6h7.9c0.4,0,0.7-0.3,0.7-0.7c0-0.4-0.3-0.7-0.7-0.7H7.8c-0.4,0-0.7,0.3-0.7,0.7
	C7.1,15.3,7.4,15.6,7.8,15.6L7.8,15.6z"/>
<path class="st0" d="M7.8,12.3h8.1c0.4,0,0.7-0.3,0.7-0.7S16.2,11,15.8,11H7.8c-0.4,0-0.7,0.3-0.7,0.7S7.4,12.3,7.8,12.3z"/>
<path class="st0" d="M13.4,17.5H7.8c-0.4,0-0.7,0.3-0.7,0.7c0,0.4,0.3,0.7,0.7,0.7h5.6c0.4,0,0.7-0.3,0.7-0.7
	C14,17.8,13.7,17.5,13.4,17.5L13.4,17.5z"/>
<path class="st1" d="M7.8,9.1h8.1c0.4,0,0.7-0.3,0.7-0.7V4.7c0-0.4-0.3-0.7-0.7-0.7L7.8,4C7.4,4,7.1,4.4,7.1,4.7v3.7
	C7.1,8.7,7.4,9.1,7.8,9.1L7.8,9.1z M8.4,5.4h6.7v2.3l-6.7,0V5.4z"/>
<path class="st2" d="M25.3,15l-0.7-0.7c-0.8-0.8-2.1-0.8-2.9,0l-1.5,1.5V0.8c0-0.4-0.3-0.7-0.7-0.7H0.8c-0.4,0-0.7,0.3-0.7,0.7V22
	c0,0.4,0.3,0.7,0.7,0.7h12.9l-1.1,2.8c-0.1,0.4-0.1,0.7,0.2,1c0.2,0.2,0.4,0.3,0.7,0.3c0.1,0,0.2,0,0.3-0.1l3.1-1.1
	c0.4-0.2,0.9-0.4,1.2-0.8l7.1-7.1c0.4-0.4,0.6-0.9,0.6-1.4C25.9,15.9,25.7,15.3,25.3,15L25.3,15z M3.4,21.4H1.5V1.5h1.9V21.4z
	 M4.7,21.4V1.5h14.1v15.6l-4.2,4.2c0,0-0.1,0.1-0.1,0.1L4.7,21.4z M16.5,24.4l-2.2,0.8l0.8-2.2c0.1-0.1,0.1-0.2,0.2-0.3l1.6,1.6
	C16.8,24.3,16.6,24.4,16.5,24.4L16.5,24.4z M24.3,16.9l-6.4,6.4l-1.7-1.7l6.4-6.4c0.1-0.1,0.3-0.2,0.5-0.2c0.2,0,0.4,0.1,0.5,0.2
	l0.7,0.7c0.1,0.1,0.2,0.3,0.2,0.5C24.5,16.6,24.5,16.8,24.3,16.9L24.3,16.9z"/>
</svg>
