<?xml version="1.0" encoding="utf-8"?>
<!-- Generator: Adobe Illustrator 26.0.0, SVG Export Plug-In . SVG Version: 6.00 Build 0)  -->
<svg width="40px" height="35px" version="1.1" id="Layer_1" xmlns="http://www.w3.org/2000/svg" xmlns:xlink="http://www.w3.org/1999/xlink" x="0px" y="0px"
	 viewBox="0 0 36 25" style="enable-background:new 0 0 36 25;" xml:space="preserve">
<style type="text/css">
	.st0{fill:#182851;stroke:#182851;stroke-miterlimit:10;}
	.st1{fill:#509BCB;}
	.st2{fill:#182851;}
	.st3{fill:none;stroke:#509BCB;stroke-miterlimit:10;}
</style>
<path class="st0" d="M32.1,9.6c-0.3,0-0.6,0-0.9,0.1c-0.4-0.5-0.9-1-1.3-1.5c0.6-0.8,0.9-1.8,0.9-2.8c0-2.7-2.2-4.8-4.8-4.8
	s-4.8,2.2-4.8,4.8c0,1.2,0.4,2.3,1.2,3.1c-0.4,0.4-0.7,0.8-1.1,1.2c-0.9,1-1.8,2-2.6,3c-1.1-0.9-2.5-1.4-4-1.4c-1.3,0-2.5,0.4-3.5,1
	c-0.3-0.3-0.6-0.7-0.9-1c0.8-0.9,1.2-2.1,1.2-3.4C11.3,5,9,2.6,6,2.6S0.7,5,0.7,7.9c0,2.9,2.4,5.3,5.3,5.3c0.9,0,1.8-0.2,2.5-0.6
	c0.3,0.4,0.7,0.7,1,1.1C8.6,14.8,8,16.3,8,17.9c0,3.6,2.9,6.5,6.5,6.5s6.5-2.9,6.5-6.5c0-1.4-0.4-2.6-1.1-3.7
	c0.3-0.3,0.5-0.6,0.8-0.9c1-1.2,2.1-2.4,3.1-3.5c0.6,0.3,1.3,0.5,2.1,0.5c0.9,0,1.7-0.2,2.4-0.7c0.4,0.4,0.8,0.9,1.2,1.3
	C29.3,11.4,29,12,29,12.7c0,1.7,1.4,3.1,3.1,3.1c1.7,0,3.1-1.4,3.1-3.1S33.8,9.6,32.1,9.6z M6.9,12.5c-1,0.2-2,0.1-2.9-0.3
	c-0.8-0.4-1.5-1-1.9-1.8C1.6,9.6,1.4,8.6,1.5,7.7c0.1-1,0.4-1.9,1.1-2.6c0.2-0.2,0.4-0.4,0.6-0.6c0.8-0.6,1.8-1,2.9-1
	c2.3,0,4.2,1.7,4.5,4c0,0.2,0,0.4,0,0.6c0,0,0,0,0,0c0,0,0,0,0,0c0,0,0,0,0,0c0,0,0,0,0,0c0,0,0,0,0,0c0,0,0,0,0,0
	c0,0.3,0,0.5-0.1,0.8C10.2,10.6,8.7,12.1,6.9,12.5z M20.1,17.9c0,0,0,0.1,0,0.1c0,0.3,0,0.6-0.1,0.9c-0.3,2.2-2.2,4-4.3,4.5
	c-1.2,0.2-2.4,0.1-3.5-0.4c-1-0.4-1.8-1.2-2.4-2.2c-0.6-1-0.9-2.1-0.8-3.2c0.1-1.2,0.5-2.3,1.3-3.2c1.4-1.7,4-2.4,6.1-1.7
	c1.1,0.4,2,1.1,2.7,2.1C19.8,15.7,20.1,16.8,20.1,17.9z M26.8,9.6c-0.9,0.2-1.8,0.1-2.6-0.3c-0.7-0.3-1.3-0.9-1.7-1.6
	C22,7,21.8,6.1,21.9,5.3c0.1-0.9,0.4-1.7,1-2.4c0.3-0.4,0.8-0.8,1.3-1c0.6-0.3,1.2-0.5,1.8-0.5c1.3,0,2.4,0.6,3.2,1.5
	c0.1,0.1,0.1,0.2,0.2,0.3c0.5,0.7,0.7,1.5,0.7,2.3c0,0,0,0.1,0,0.1C30,7.5,28.7,9.2,26.8,9.6z M33.3,15c-0.2,0.1-0.3,0.2-0.5,0.2
	c0,0,0,0,0,0c0,0,0,0,0,0c-0.2,0-0.4,0.1-0.6,0.1c-0.1,0-0.1,0-0.2,0c-0.3,0-0.7-0.1-1-0.3c-0.4-0.2-0.8-0.6-1.1-1
	c-0.3-0.4-0.4-1-0.4-1.4c0-0.6,0.3-1.1,0.6-1.5c0.6-0.8,1.8-1.1,2.7-0.7c0,0,0.1,0,0.1,0c1,0.4,1.7,1.3,1.7,2.4
	C34.7,13.7,34.1,14.5,33.3,15z"/>
<path class="st1" d="M45.6,15.4h8.1c0.4,0,0.7-0.3,0.7-0.7s-0.3-0.7-0.7-0.7h-8.1c-0.4,0-0.7,0.3-0.7,0.7S45.3,15.4,45.6,15.4z"/>
<path class="st2" d="M45.6,12.2h8.1c0.4,0,0.7-0.3,0.7-0.7V7.9c0-0.4-0.3-0.7-0.7-0.7l-8.1,0c-0.4,0-0.7,0.3-0.7,0.7v3.7
	C45,11.9,45.3,12.2,45.6,12.2L45.6,12.2z M46.3,8.5H53v2.3l-6.7,0V8.5z"/>
<circle class="st3" cx="5.9" cy="8" r="3.6"/>
<circle class="st3" cx="14.6" cy="17.9" r="4.6"/>
<circle class="st3" cx="26" cy="5.6" r="3.1"/>
<circle class="st3" cx="32.1" cy="12.7" r="1.6"/>
</svg>
