<svg width="95" height="95" viewBox="0 0 95 95" fill="none" xmlns="http://www.w3.org/2000/svg">
<path d="M47.0625 1.03223C72.4676 1.03223 93.0625 21.6271 93.0625 47.0322C93.0625 72.4373 72.4676 93.0322 47.0625 93.0322C21.6574 93.0322 1.0625 72.4373 1.0625 47.0322C1.0625 21.6271 21.6574 1.03223 47.0625 1.03223Z" fill="#39C0F0" stroke="#0579A3" stroke-width="2"/>
<path d="M20.498 24.5671V59.4489L46.9231 67.6272L73.766 59.0311V23.6318L46.6644 32.8846L20.498 24.5671Z" fill="white"/>
<path d="M47.0628 68.9604L18.8867 60.2449V22.2788L47.0628 30.9943L75.239 22.2788V60.2449L47.0628 68.9604ZM21.573 58.2352L47.0628 66.1548L72.5527 58.2352V25.9003L47.0628 33.8199L21.573 25.9003V58.2352Z" fill="black"/>
<path d="M80.5908 70.5723H13.5332V34.8945H21.5722V58.2353L47.062 66.1549L72.5518 58.2353V34.8945H80.5908V70.5723ZM50.4248 67.8861H77.7851V37.5808H75.0988V60.2451L50.4248 67.8861ZM16.1996 67.8861H43.5798L18.9058 60.2451V37.5808H16.1996V67.8861Z" fill="black"/>
<path d="M48.4148 32.3477H45.7285V67.4882H48.4148V32.3477Z" fill="black"/>
<path d="M67.8565 49.5196L51.898 55.1509C51.5 55.4095 50.9628 55.2902 50.6842 54.7529C50.5449 54.6136 50.5449 54.4942 50.5449 54.2156C50.5449 53.4197 51.0822 52.7432 51.8781 52.4646L67.8366 46.8333C68.2346 46.5747 68.7718 46.6941 69.0504 47.2313C69.1897 47.3706 69.1897 47.49 69.1897 47.7686C69.0703 48.4451 68.6525 49.241 67.8565 49.5196Z" fill="#519CCC"/>
<path d="M67.8558 39.3121L61.1501 41.7198C60.7521 41.9785 60.2149 41.8591 59.9363 41.3218C59.797 41.1826 59.797 41.0632 59.797 40.7846C59.797 39.9887 60.3343 39.3121 61.1302 38.9141L67.8359 36.5064C68.2339 36.2478 68.7712 36.3671 69.0497 36.9044C69.189 37.0437 69.189 37.1631 69.189 37.4417C69.0696 38.2376 68.6518 39.0534 67.8558 39.3121Z" fill="#519CCC"/>
<path d="M56.992 43.0728L51.898 44.8239C51.5 45.0826 50.9628 44.9632 50.6842 44.4259C50.5449 44.2866 50.5449 44.1673 50.5449 43.8887C50.5449 43.0927 51.0822 42.4162 51.8781 42.1376L56.9721 40.3866C57.3701 40.1279 57.9073 40.2473 58.1859 40.7845C58.3252 40.9238 58.3252 41.0432 58.3252 41.3218C58.2058 42.1376 57.6685 42.8142 56.992 43.0728Z" fill="#519CCC"/>
<path d="M63.5578 45.8983L56.1755 48.4453C55.7775 48.704 55.2403 48.5846 54.9617 48.0473C54.8224 47.908 54.8224 47.7886 54.8224 47.5101C54.8224 46.7141 55.3596 46.0376 56.1556 45.6396L63.5379 43.0926C63.9358 42.8339 64.4731 42.9533 64.7517 43.4906C64.891 43.6299 64.891 43.7493 64.891 44.0278C64.7716 44.9432 64.2343 45.6197 63.5578 45.8983Z" fill="#519CCC"/>
<path d="M25.8707 39.0534L41.8292 44.6847C42.2271 44.9434 42.7644 44.824 43.043 44.2867C43.1823 44.1474 43.1823 44.028 43.1823 43.7495C43.1823 42.9535 42.645 42.277 41.8491 41.879L25.8707 36.2279C25.4727 35.9692 24.9354 36.0886 24.6569 36.6258C24.5176 36.7651 24.5176 36.8845 24.5176 37.1631C24.5176 38.1182 25.0548 38.7749 25.8707 39.0534Z" fill="#519CCC"/>
<path d="M25.8707 44.2867L32.5764 46.6944C32.9744 46.9531 33.5117 46.8337 33.7902 46.2965C33.9295 46.1572 33.9295 46.0378 33.9295 45.7592C33.9295 44.9633 33.3923 44.2867 32.5963 44.0081L25.8707 41.6004C25.4727 41.3418 24.9354 41.4611 24.6569 41.9984C24.5176 42.1377 24.5176 42.2571 24.5176 42.5357C24.5176 43.2122 25.0548 44.0081 25.8707 44.2867Z" fill="#519CCC"/>
<path d="M36.7341 48.0475L41.8281 49.7985C42.2261 50.0572 42.7633 49.9378 43.0419 49.4005C43.1812 49.2613 43.1812 49.1419 43.1812 48.8633C43.1812 48.0674 42.6439 47.3908 41.848 47.1122L36.754 45.3612C36.356 45.1025 35.8188 45.2219 35.5402 45.7591C35.4009 45.8984 35.4009 46.0178 35.4009 46.2964C35.381 47.0923 35.9183 47.7689 36.7341 48.0475Z" fill="#519CCC"/>
<path d="M30.1677 50.9923L37.55 53.5393C37.948 53.7979 38.4852 53.6786 38.7638 53.1413C38.9031 53.002 38.9031 52.8826 38.9031 52.604C38.9031 51.8081 38.3658 51.1316 37.5699 50.853L30.1876 48.306C29.7896 48.0473 29.2524 48.1667 28.9738 48.704C28.8345 48.8433 28.8345 48.9626 28.8345 49.2412C28.8146 49.9178 29.3519 50.7137 30.1677 50.9923Z" fill="#519CCC"/>
</svg>
