<?xml version="1.0" encoding="utf-8"?>
<!-- Generator: Adobe Illustrator 26.0.0, SVG Export Plug-In . SVG Version: 6.00 Build 0)  -->
<svg version="1.1" id="Layer_1" xmlns="http://www.w3.org/2000/svg" xmlns:xlink="http://www.w3.org/1999/xlink" x="0px" y="0px"
	 viewBox="0 0 35.9 37.9" style="enable-background:new 0 0 35.9 37.9;" xml:space="preserve">
<style type="text/css">
	.st0{fill:#2F567D;}
</style>
<g>
	<path class="st0" d="M17.9,1.3c9.2,0,16.6,7.4,16.6,16.6s-7.4,16.6-16.6,16.6c-2.1,0-4.1-0.4-6-1.1l-9.1,2.7l2.4-7.5
		c-2.5-3-3.8-6.7-3.8-10.6C1.3,8.7,8.7,1.3,17.9,1.3L17.9,1.3z M17.9,3c-8.3,0-15,6.7-15,15c0,4,1.4,7.3,4,10.2l-1.7,5.5l6.8-2
		c2,0.8,3.8,1.2,5.9,1.2c8.3,0,15-6.7,15-15S26.2,3,17.9,3L17.9,3z"/>
	<path class="st0" d="M1,37.8l2.8-9c-2.4-3.1-3.7-6.9-3.7-10.8c0-4.8,1.9-9.2,5.2-12.6C8.7,2,13.2,0.1,17.9,0.1
		c4.8,0,9.2,1.8,12.6,5.2c3.4,3.4,5.2,7.8,5.2,12.6c0,4.8-1.8,9.2-5.2,12.6c-3.4,3.4-7.8,5.2-12.6,5.2c-2.1,0-4.1-0.4-6.1-1.1
		L1,37.8z M17.9,4.1c-7.6,0-13.8,6.2-13.8,13.8c0,3.5,1.2,6.5,3.7,9.4l0.4,0.5l-1.3,4l5-1.5l0.4,0.2c1.9,0.8,3.6,1.1,5.5,1.1
		c7.6,0,13.8-6.2,13.8-13.8c0-3.7-1.4-7.1-4-9.8C25.1,5.6,21.6,4.1,17.9,4.1z"/>
</g>
<g>
	<path class="st0" d="M17.9,13.2c1.2,0,2.2-1,2.2-2.2s-1-2.2-2.2-2.2c-1.2,0-2.2,1-2.2,2.2S16.7,13.2,17.9,13.2z"/>
</g>
<g>
	<path class="st0" d="M20,14.6h-6v2.9h1.9v6.9H14v2.9h7.8v-2.9H20V14.6z"/>
</g>
</svg>
