<?xml version="1.0" encoding="utf-8"?>
<!-- Generator: Adobe Illustrator 26.0.0, SVG Export Plug-In . SVG Version: 6.00 Build 0)  -->
<svg version="1.1" id="Layer_1" xmlns="http://www.w3.org/2000/svg" xmlns:xlink="http://www.w3.org/1999/xlink" x="0px" y="0px"
	 viewBox="0 0 10.8 13" style="enable-background:new 0 0 10.8 13;" xml:space="preserve">
<style type="text/css">
	.st0{fill: #42779A;}
</style>
<path class="st0" d="M10.6,5.9c0-0.2-0.2-0.4-0.4-0.5c-0.2-0.1-0.4-0.2-0.7-0.2V4.3c0-2.3-1.9-4.3-4.3-4.3C3,0.1,1.1,2,1.1,4.3v0.9
	C0.9,5.3,0.7,5.3,0.5,5.4C0.3,5.5,0.1,5.7,0.1,5.9h0v5.4c0,0.2,0.2,0.4,0.4,0.5c1.6,0.6,3.2,0.9,4.9,0.9c1.7,0,3.3-0.3,4.9-0.9
	c0.2-0.1,0.4-0.3,0.4-0.5l0-5.3L10.6,5.9L10.6,5.9z M6,8.5v1.9C6,10.7,5.7,11,5.4,11c-0.3,0-0.6-0.3-0.6-0.6l0-1.9
	c-0.3-0.2-0.6-0.6-0.6-1c0-0.6,0.5-1.2,1.2-1.2c0.6,0,1.2,0.5,1.2,1.2C6.5,7.9,6.3,8.3,6,8.5L6,8.5z M8.2,4.8
	C7.3,4.6,6.3,4.5,5.4,4.5c-0.9,0-1.9,0.1-2.8,0.3l0-0.4c0-1.5,1.3-2.8,2.8-2.8c1.5,0,2.8,1.3,2.8,2.8L8.2,4.8z"/>
</svg>
