<svg width="53" height="40" viewBox="0 0 53 40" fill="none" xmlns="http://www.w3.org/2000/svg">
<g clip-path="url(#clip0_2_736)">
<path d="M8 16.2086V23.6014C8 25.5252 9.5429 27.0848 11.4462 27.0848H11.7377C13.6409 27.0848 15.1838 25.5252 15.1838 23.6014V16.2086C15.1838 14.2848 13.6409 12.7252 11.7377 12.7252H11.4462C9.5429 12.7252 8 14.2848 8 16.2086Z" fill="#172851"/>
<path d="M34.4374 13.9633H17.7379V25.8467H34.4374V13.9633Z" fill="white"/>
<path d="M30.6117 17.996H27.9701V15.3259C27.9701 15.0252 27.7272 14.7796 27.4297 14.7796H24.7274C24.4299 14.7796 24.187 15.0252 24.187 15.3259V17.996H21.5454C21.2478 17.996 21.0049 18.2416 21.0049 18.5423V21.2738C21.0049 21.5746 21.2478 21.8201 21.5454 21.8201H24.187V24.4841C24.187 24.7848 24.4299 25.0304 24.7274 25.0304H27.4297C27.7272 25.0304 27.9701 24.7848 27.9701 24.4841V21.814H30.6117C30.9093 21.814 31.1522 21.5684 31.1522 21.2677V18.5362C31.1522 18.2354 30.9093 17.996 30.6117 17.996ZM30.0773 20.7275H27.4418C27.1443 20.7275 26.9014 20.973 26.9014 21.2738V23.9439H25.2739V21.2738C25.2739 20.973 25.031 20.7275 24.7335 20.7275H22.0919V19.0825H24.7335C25.031 19.0825 25.2739 18.837 25.2739 18.5362V15.8661H26.9014V18.5362C26.9014 18.837 27.1443 19.0825 27.4418 19.0825H30.0834L30.0773 20.7275Z" fill="#172851"/>
<path d="M41.4026 28.4739H35.5062V12.2078C35.5062 11.0845 34.9536 10.1146 33.988 9.54993L32.4699 8.66604C31.8384 8.29775 31.4922 7.69007 31.4922 6.95349V6.46244H32.5549C32.8525 6.46244 33.0954 6.21691 33.0954 5.91614V2.5463C33.0954 2.24553 32.8525 2 32.5549 2H19.6083C19.3107 2 19.0678 2.24553 19.0678 2.5463V5.91614C19.0678 6.21691 19.3107 6.46244 19.6083 6.46244H20.671V6.95349C20.671 7.69007 20.3248 8.29775 19.6933 8.66604L18.1751 9.54993C17.2096 10.1146 16.657 11.0783 16.657 12.2078V30.4258C16.657 32.1199 18.0173 33.4949 19.6933 33.4949H31.0732C31.6137 34.8084 32.895 35.7353 34.3888 35.7353H41.4087C43.3883 35.7353 44.9976 34.1087 44.9976 32.1015C44.9976 30.0943 43.3823 28.4739 41.4026 28.4739ZM17.7319 13.9633H34.4313V25.8467H17.7319V13.9633ZM20.1487 3.09259H32.0145V5.37598H20.1487V3.09259ZM18.7156 10.4952L20.2337 9.61131C21.1993 9.0466 21.7519 8.08291 21.7519 6.95349V6.46244H30.4235V6.95349C30.4235 8.07677 30.9761 9.0466 31.9416 9.61131L33.4597 10.4952C34.0913 10.8635 34.4374 11.4712 34.4374 12.2078V12.8768H17.7379V12.2078C17.7319 11.4712 18.0841 10.8574 18.7156 10.4952ZM19.6933 32.4084C18.6124 32.4084 17.7379 31.5184 17.7379 30.4319V26.9393H34.4374V28.4739H34.3888C32.4092 28.4739 30.7939 30.1005 30.7939 32.1015C30.7939 32.2059 30.8 32.3041 30.806 32.4023L19.6933 32.4084ZM31.8748 32.1015C31.8748 30.702 33.0043 29.5603 34.3888 29.5603H37.3583V34.6427H34.3888C32.9982 34.6488 31.8748 33.5071 31.8748 32.1015ZM41.4026 34.6488H38.4331V29.5665H41.4026C42.7872 29.5665 43.9167 30.7081 43.9167 32.1076C43.9167 33.5071 42.7932 34.6488 41.4026 34.6488Z" fill="#172851"/>
<path d="M38.6153 24.6682C39.3137 25.1838 40.1335 25.4539 40.9897 25.4539C42.2589 25.4539 43.4673 24.8401 44.2203 23.8027C44.8518 22.9311 45.1129 21.8631 44.9551 20.795C44.7972 19.727 44.2324 18.7879 43.3701 18.1495C42.6779 17.6339 41.8581 17.3638 41.0018 17.3638C39.7327 17.3638 38.5242 17.9838 37.7712 19.015C37.1397 19.8866 36.8786 20.9546 37.0365 22.0227C37.1944 23.0846 37.7591 24.0237 38.6153 24.6682ZM43.3519 23.1582C42.7993 23.9132 41.9188 24.3613 40.9897 24.3613C40.5464 24.3613 40.1152 24.2569 39.7205 24.0667L43.1272 19.3833C43.528 19.8129 43.7952 20.3592 43.8802 20.9546C44.0017 21.7403 43.8134 22.526 43.3519 23.1582ZM38.6335 19.6533C39.1801 18.8983 40.0667 18.4441 40.9958 18.4441C41.4391 18.4441 41.8702 18.5485 42.2649 18.7387L38.8582 23.4222C38.4574 22.9925 38.1902 22.4462 38.0992 21.8508C37.9777 21.0712 38.172 20.2917 38.6335 19.6533Z" fill="#172851"/>
<path d="M30.0773 20.7275H27.4419C27.1443 20.7275 26.9014 20.973 26.9014 21.2738V23.9439H25.274V21.2738C25.274 20.973 25.0311 20.7275 24.7335 20.7275H22.0919V19.0825H24.7335C25.0311 19.0825 25.274 18.837 25.274 18.5362V15.8661H26.9014V18.5362C26.9014 18.837 27.1443 19.0825 27.4419 19.0825H30.0834L30.0773 20.7275Z" fill="#509BCB"/>
<path d="M41.4026 34.6488H38.4332V29.5665H41.4026C42.7872 29.5665 43.9167 30.7081 43.9167 32.1076C43.9167 33.5071 42.7933 34.6488 41.4026 34.6488Z" fill="#509BCB"/>
<path d="M43.3519 23.1582C42.7993 23.9132 41.9188 24.3613 40.9897 24.3613C40.5464 24.3613 40.1152 24.2569 39.7205 24.0667L43.1272 19.3833C43.528 19.8129 43.7952 20.3592 43.8802 20.9546C44.0017 21.7403 43.8134 22.526 43.3519 23.1582Z" fill="white"/>
<path d="M38.6336 19.6533C39.1801 18.8983 40.0667 18.4441 40.9958 18.4441C41.4391 18.4441 41.8702 18.5485 42.2649 18.7387L38.8582 23.4222C38.4574 22.9925 38.1903 22.4462 38.0992 21.8508C37.9777 21.0712 38.172 20.2917 38.6336 19.6533Z" fill="white"/>
<path d="M9.07788 16.3602V19.3618H14.1059V16.3602C14.1059 14.9546 12.9765 13.819 11.5919 13.819C10.2074 13.819 9.07788 14.9607 9.07788 16.3602Z" fill="#509BCB"/>
<path d="M11.5919 25.991C12.9765 25.991 14.1059 24.8493 14.1059 23.4498V20.4482H9.07788V23.4498C9.07788 24.8554 10.2074 25.991 11.5919 25.991Z" fill="white"/>
</g>
<defs>
<clipPath id="clip0_2_736">
<rect width="37" height="33.7353" fill="white" transform="translate(8 2)"/>
</clipPath>
</defs>
</svg>
