<svg width="40" height="36" viewBox="0 0 40 36" fill="none" xmlns="http://www.w3.org/2000/svg">
<g clip-path="url(#clip0_2_892)">
<path d="M16.5043 34.4583C25.1682 34.4583 32.1917 31.398 32.1917 27.6229C32.1917 23.8478 25.1682 20.7875 16.5043 20.7875C7.84044 20.7875 0.816971 23.8478 0.816971 27.6229C0.816971 31.398 7.84044 34.4583 16.5043 34.4583Z" fill="white"/>
<path d="M16.5043 32.0283C25.1682 32.0283 32.1917 28.968 32.1917 25.1929C32.1917 21.4178 25.1682 18.3575 16.5043 18.3575C7.84044 18.3575 0.816971 21.4178 0.816971 25.1929C0.816971 28.968 7.84044 32.0283 16.5043 32.0283Z" fill="white"/>
<path fill-rule="evenodd" clip-rule="evenodd" d="M36.3236 7.40678L34.5797 5.66657L35.271 6.35638L33.8806 4.96893L32.8358 3.9107L33.5271 3.21305L34.5719 4.2556L35.9702 5.6509L37.0149 6.69345L36.3236 7.40678ZM39.8586 3.18169L39.1673 2.48404L37.7612 1.09659L37.0699 0.398937C36.8892 0.210807 36.5829 0.202969 36.3943 0.38326C36.3943 0.38326 36.3865 0.391099 36.3786 0.398937C36.1822 0.579228 36.1744 0.884939 36.3551 1.07307C36.3551 1.07307 36.3708 1.08875 36.3786 1.09659L36.6771 1.44149L34.9332 3.18953L33.8806 2.14698C33.7078 1.95885 33.4171 1.94317 33.2286 2.10778C33.2129 2.11562 33.205 2.1313 33.1893 2.14698L31.7832 3.5266C31.5868 3.70689 31.5789 4.0126 31.7596 4.20073C31.7596 4.20073 31.7753 4.21641 31.7832 4.22425L30.2121 5.79199L31.304 6.83455L32.7965 5.34519L33.4878 6.04283L32.121 7.39894L32.8201 8.09659L34.2105 6.70129L34.9097 7.3911L33.48 8.84911L34.5719 9.89166L36.0173 8.44933C36.1037 8.55123 36.2372 8.6061 36.3708 8.59827C36.5043 8.59827 36.63 8.54339 36.7164 8.44933L38.1147 7.04619C38.3111 6.8659 38.3189 6.56019 38.1383 6.37206C38.1383 6.37206 38.1225 6.35638 38.1147 6.34855L37.0621 5.31383L38.806 3.57363L39.1595 3.92637C39.2537 4.0126 39.3794 4.05963 39.513 4.06747C39.6465 4.06747 39.7722 4.00476 39.8586 3.9107C40.055 3.69905 40.055 3.37766 39.8586 3.16601V3.18169Z" fill="#010101"/>
<path fill-rule="evenodd" clip-rule="evenodd" d="M16.0801 25.1537C15.9073 24.9656 15.6166 24.9499 15.4281 25.1145C15.4124 25.1223 15.4046 25.138 15.3888 25.1537L14.3912 26.1414C13.6606 26.8861 13.6606 28.0854 14.3912 28.8301C15.1375 29.5591 16.3393 29.5591 17.0856 28.8301C17.824 28.0932 17.8319 26.9017 17.0935 26.1571C17.0935 26.1571 17.0935 26.1571 17.0856 26.1492L16.0801 25.1537Z" fill="#519CCC"/>
<path fill-rule="evenodd" clip-rule="evenodd" d="M21.139 17.0484C20.8798 17.3071 20.7306 17.652 20.7384 18.0204C20.7384 18.2242 20.7855 18.4281 20.8798 18.6162L15.8994 23.5703C15.7109 23.7427 15.6952 24.0328 15.8602 24.2209C15.868 24.2366 15.8837 24.2444 15.8994 24.2601C16.0958 24.4482 16.4022 24.4482 16.5986 24.2601L21.5789 19.3373C21.7832 19.4706 22.0267 19.5412 22.2702 19.5412C22.6316 19.5412 22.9694 19.3922 23.2286 19.1414L24.3205 18.0204L22.2309 15.8883L21.139 17.0484Z" fill="#010101"/>
<path fill-rule="evenodd" clip-rule="evenodd" d="M24.9647 11.0361H33.4328L33.8335 10.5815L29.5444 6.45829L24.9647 11.0361Z" fill="#010101"/>
<path fill-rule="evenodd" clip-rule="evenodd" d="M23.967 14.2108L22.9772 15.1985L25.0668 17.3385L26.1587 16.2489C26.3865 16.3037 26.6222 16.3351 26.8578 16.3429C27.6512 16.3508 28.4053 16.0294 28.9474 15.4493L32.4273 11.9768H24.2262C23.8413 12.6587 23.7471 13.4583 23.967 14.2108Z" fill="#010101"/>
<path fill-rule="evenodd" clip-rule="evenodd" d="M39.8586 3.18169L39.1673 2.48404L37.769 1.09659L37.0778 0.398937C36.8971 0.210807 36.5907 0.202969 36.4022 0.38326C36.4022 0.38326 36.3943 0.391099 36.3865 0.398937C36.1901 0.579228 36.1822 0.884939 36.3629 1.07307C36.3629 1.07307 36.3786 1.08875 36.3865 1.09659L36.685 1.44149L34.9332 3.18953L37.0699 5.31383L38.8138 3.57363L39.1673 3.92637C39.2616 4.0126 39.3873 4.05963 39.5208 4.06747C39.6465 4.06747 39.7722 4.00476 39.8586 3.9107C40.0393 3.69905 40.0393 3.39334 39.8586 3.18169Z" fill="#519CCC"/>
<path d="M32.8358 25.1929C32.8358 23.1705 31.0841 21.2892 27.9026 19.9096C24.3676 18.4829 20.4556 17.7774 16.5043 17.8401C12.5609 17.7774 8.65671 18.4908 5.12175 19.9096C1.94815 21.2814 0.204236 23.1156 0.196381 25.1615V27.7718C0.259224 29.755 1.99528 31.5971 5.12175 32.9924C5.49882 33.1571 5.89944 33.3138 6.30793 33.4628C8.07541 34.082 9.9293 34.5132 11.8303 34.7562C13.3778 34.96 14.9411 35.054 16.5043 35.054C20.4556 35.1167 24.3598 34.4113 27.9026 32.9924C31.0526 31.6207 32.7965 29.7629 32.828 27.7718V25.1929H32.8358ZM2.01885 25.8984L2.18381 25.7259C2.27022 25.6005 2.3802 25.4751 2.48232 25.3497C2.58444 25.2242 2.57658 25.2556 2.63157 25.2007C2.79654 25.0361 2.96936 24.8715 3.15789 24.7226C3.35428 24.5658 3.57423 24.409 3.80204 24.2522L4.02985 24.119C4.20267 24.0092 4.39905 23.8917 4.58758 23.7898L4.8311 23.6565C5.09819 23.5154 5.38884 23.3665 5.70306 23.241C9.04163 21.9085 12.7258 21.2422 16.4493 21.3049C20.1728 21.2422 23.857 21.9085 27.1956 23.241C27.5098 23.3743 27.7848 23.5154 28.0676 23.6565L28.3111 23.7898C28.5075 23.8917 28.696 24.0092 28.8688 24.119L29.0809 24.2522C29.3166 24.409 29.5444 24.5658 29.7329 24.7226C29.9214 24.8715 30.0943 25.0361 30.2592 25.2007L30.4006 25.3575C30.5185 25.4751 30.6206 25.5927 30.7148 25.7259C30.762 25.773 30.8013 25.8278 30.8327 25.8827C30.9505 26.0552 31.0526 26.2276 31.1469 26.4079C30.3221 27.8032 28.9159 28.9163 27.1799 29.5669C23.8413 30.8995 20.1571 31.5658 16.4336 31.5031C12.7101 31.5658 9.02592 30.8995 5.68735 29.5669C3.95915 28.9241 2.56873 27.811 1.74391 26.4314C1.83032 26.259 1.94029 26.0865 2.01099 25.9062L2.01885 25.8984ZM5.68735 20.811C9.02592 19.4784 12.7101 18.8122 16.4336 18.8749C20.1728 18.8122 23.8806 19.4706 27.2349 20.811C29.6936 21.8928 31.1547 23.2567 31.4375 24.699C31.0055 24.2366 30.5185 23.8133 29.9686 23.4448C29.9529 23.4448 29.9293 23.4448 29.9136 23.4448C29.6229 23.2646 29.3244 23.0764 29.0024 22.904C28.6567 22.7158 28.2954 22.5356 27.9262 22.3709C24.3912 20.9443 20.4792 20.2388 16.5279 20.3015C14.9646 20.3015 13.4014 20.4034 11.8539 20.6072C9.95286 20.8345 8.09112 21.2578 6.31578 21.8614C5.9073 22.0104 5.50667 22.1671 5.12961 22.3396C4.7604 22.5042 4.39905 22.6767 4.05341 22.8726C3.73919 23.0372 3.43283 23.2175 3.14218 23.4135H3.07933C2.51374 23.7819 1.99528 24.1974 1.55538 24.6677C1.79104 23.2567 3.25215 21.8928 5.71877 20.8189H5.68735V20.811ZM16.4336 33.9488C12.7101 34.0115 9.02592 33.3452 5.68735 32.0126L4.7604 31.5658C4.65828 31.5109 4.55616 31.456 4.4619 31.3933L3.95915 31.1033L3.61351 30.8681L3.26787 30.6173C3.15003 30.5311 3.04006 30.437 2.93794 30.3429L2.69442 30.1235C2.58444 30.0216 2.48232 29.9118 2.39591 29.8021C2.33307 29.7394 2.27808 29.6688 2.22309 29.6139C2.15239 29.4964 2.08955 29.3788 2.0267 29.2612L1.93244 29.1044C1.85388 28.9712 1.79104 28.8379 1.7282 28.7046V28.5949C1.67321 28.446 1.62607 28.297 1.5868 28.1403C2.56873 29.1201 3.79418 29.9197 5.1846 30.4919C8.71955 31.9107 12.6237 32.624 16.5672 32.5613C20.5185 32.624 24.4226 31.9185 27.9654 30.4919C29.3558 29.9197 30.5813 29.1201 31.5632 28.1403C31.5318 28.297 31.4847 28.446 31.4218 28.5949C31.4218 28.6341 31.4218 28.6733 31.4218 28.7046C31.3668 28.8379 31.304 28.9712 31.2254 29.1044L31.1312 29.2612C31.0526 29.3866 30.9584 29.4964 30.872 29.6139C30.7855 29.7315 30.762 29.7472 30.6991 29.8021C30.6049 29.9118 30.5106 30.0216 30.4006 30.1235L30.1571 30.3429C30.0471 30.437 29.945 30.5311 29.8272 30.6173C29.7093 30.7035 29.5994 30.7819 29.4737 30.8681L29.1437 31.1033L28.641 31.3933C28.5467 31.456 28.4446 31.5109 28.3425 31.5658L27.4156 32.0126C24.0377 33.3687 20.2985 34.0272 16.5279 33.9488H16.4493H16.4336Z" fill="#010101" stroke="black" stroke-width="0.5" stroke-miterlimit="10"/>
</g>
<defs>
<clipPath id="clip0_2_892">
<rect width="40" height="35" fill="white" transform="translate(0 0.25)"/>
</clipPath>
</defs>
</svg>
