<svg width="35" height="35" viewBox="0 0 35 35" fill="none" xmlns="http://www.w3.org/2000/svg">
<g clip-path="url(#clip0_2_952)">
<path d="M6.21213 3.51529V22.7729H23.9394L26.2121 26.7467V3.82096V3.20961C26.3636 3.20961 6.36364 3.51529 6.21213 3.51529Z" fill="white"/>
<path d="M34.5455 22.4673C34.3939 22.3144 34.2424 22.1616 34.0909 22.1616H28.9394V5.34935C28.9394 5.04367 28.6364 4.73799 28.3333 4.73799H26.6667V3.20961C26.6667 2.90393 26.3636 2.59826 26.0606 2.59826H12.2727C12.2727 1.37555 11.2121 0.305679 10 0.305679C8.78789 0.305679 7.72728 1.37555 7.72728 2.59826H6.06062C5.75759 2.59826 5.45456 2.90393 5.45456 3.20961V22.3144H0.9091C0.60607 22.3144 0.30304 22.6201 0.30304 22.9258C0.30304 23.0786 0.30304 23.0786 0.30304 23.2314L6.66668 34.8472C6.81819 35 6.96971 35.1528 7.12122 35.1528H30C30.303 35.1528 30.4546 35 30.4546 34.6943L34.394 23.0786C34.697 22.9258 34.697 22.6201 34.5455 22.4673ZM27.8788 6.11354V29.0393L26.6667 26.8996V6.11354H27.8788ZM10 1.52839C10.6061 1.52839 11.2121 1.9869 11.2121 2.59826H8.9394C8.9394 1.9869 9.39395 1.52839 10 1.52839ZM6.66668 3.82096H11.2121V5.50219C11.2121 5.80786 10.9091 6.11354 10.6061 6.11354C10.303 6.11354 10 5.80786 10 5.50219V4.89083H8.9394V5.50219C8.9394 6.41922 9.69698 7.18341 10.6061 7.18341C11.5152 7.18341 12.2727 6.41922 12.2727 5.50219V3.82096H25.4546V24.7598L24.2424 22.4673C24.0909 22.3144 23.9394 22.1616 23.7879 22.1616H6.66668V3.82096ZM7.57577 33.7773L1.96971 23.3843H23.6364L29.2424 33.7773H7.57577ZM30 33.0131L28.9394 31.179V23.5371H33.3333L30 33.0131Z" fill="#172851"/>
<path d="M30.1515 35H7.12122C6.9697 35 6.66667 34.8472 6.51516 34.6943L0.15152 23.0786C0.15152 22.9258 0.15152 22.9258 0.15152 22.7729C0.15152 22.4673 0.45455 22.1616 0.75758 22.1616H5.30303V3.20961C5.30303 2.90393 5.60606 2.59826 5.9091 2.59826H7.57576C7.57576 1.37555 8.63637 0.305679 9.84849 0.305679C11.0606 0.305679 12.1212 1.37555 12.1212 2.59826H25.9091C26.2121 2.59826 26.5152 2.90393 26.5152 3.20961V4.89083H28.1818C28.4848 4.89083 28.7879 5.19651 28.7879 5.50219V22.1616H33.9394C34.0909 22.1616 34.3939 22.3144 34.3939 22.4673C34.5455 22.6201 34.5455 22.7729 34.3939 23.0786L30.4545 34.6943C30.6061 34.8472 30.303 35 30.1515 35ZM0.909095 22.3144C0.606065 22.3144 0.303035 22.4673 0.303035 22.9258C0.303035 23.0786 0.303035 23.0786 0.303035 23.2314L6.66667 34.8472C6.81819 35 6.9697 35.1528 7.12122 35.1528H30C30.1515 35.1528 30.4545 35 30.4545 34.6943L34.3939 23.0786C34.3939 22.9258 34.3939 22.7729 34.3939 22.6201C34.2424 22.4673 34.0909 22.4673 33.9394 22.4673H28.7879V5.65502C28.7879 5.34935 28.6364 5.04367 28.1818 5.04367H26.3636V3.20961C26.3636 2.90393 26.2121 2.59826 25.7576 2.59826H12.2727C12.2727 1.37555 11.2121 0.305679 10 0.305679C8.78788 0.305679 7.72728 1.37555 7.72728 2.59826H6.06061C5.75758 2.59826 5.45455 2.75109 5.45455 3.20961V22.3144H0.909095ZM29.2424 33.9301H7.57576L1.81819 23.5371H23.4848L29.2424 33.9301ZM7.57576 33.7773H29.0909L23.4848 23.3843H1.9697L7.57576 33.7773ZM30 33.0131L28.9394 31.0262V23.3843H33.3333L30 33.0131ZM28.9394 31.0262L30 32.8603L33.3333 23.3843H29.0909V31.0262H28.9394ZM27.8788 29.1921L26.6667 26.8996V6.11354H27.8788V29.1921ZM26.6667 26.8996L27.7273 28.8865V6.11354H26.6667V26.8996ZM25.6061 24.9127L24.2424 22.4673C24.0909 22.3144 23.9394 22.1616 23.7879 22.1616H6.51516V3.82096H11.2121V5.65502C11.2121 5.9607 10.9091 6.11354 10.6061 6.11354C10.303 6.11354 10 5.9607 10 5.50219V5.04367H8.9394V5.65502C8.9394 6.57206 9.69697 7.33625 10.6061 7.33625C11.5152 7.33625 12.2727 6.57206 12.2727 5.65502V3.82096H25.4545V24.9127H25.6061ZM6.66667 22.1616H23.7879C23.9394 22.1616 24.2424 22.3144 24.3939 22.4673L25.6061 24.607V3.82096H12.4242V5.50219C12.4242 6.57205 11.6667 7.33625 10.6061 7.33625C9.54546 7.33625 8.78788 6.57205 8.78788 5.50219V4.89083H10V5.50219C10 5.80786 10.303 6.11354 10.6061 6.11354C10.9091 6.11354 11.2121 5.9607 11.2121 5.50219V3.82096H6.66667V22.1616ZM11.2121 2.59826H8.9394C8.9394 1.9869 9.39394 1.37555 10.1515 1.37555C10.9091 1.37555 11.2121 1.9869 11.2121 2.59826ZM8.9394 2.59826H11.2121C11.2121 1.9869 10.6061 1.52839 10 1.52839C9.39394 1.52839 8.9394 1.9869 8.9394 2.59826Z" fill="#172851"/>
<path d="M12.8788 11.31H14.5455V12.9913C14.5455 13.2969 14.8485 13.6026 15.1515 13.6026H17.4242C17.7273 13.6026 18.0303 13.2969 18.0303 12.9913V11.31H19.697C20 11.31 20.303 11.0044 20.303 10.6987V8.40612C20.303 8.10044 20 7.79476 19.697 7.79476H18.0303V6.11354C18.0303 5.80786 17.7273 5.50219 17.4242 5.50219H15.1515C14.8485 5.50219 14.697 5.80786 14.697 6.11354V7.79476H12.8788C12.5758 7.79476 12.2727 8.10044 12.2727 8.40612V10.6987C12.2727 11.0044 12.5758 11.31 12.8788 11.31ZM13.4848 9.01747H15.1515C15.4545 9.01747 15.7576 8.71179 15.7576 8.40612V6.72489H16.9697V8.40612C16.9697 8.71179 17.2727 9.01747 17.5758 9.01747H19.2424V10.2402H17.5758C17.2727 10.2402 16.9697 10.5459 16.9697 10.8515V12.5328H15.7576V10.6987C15.7576 10.393 15.4545 10.0873 15.1515 10.0873H13.4848V9.01747Z" fill="#509BCB"/>
<path d="M10.6061 14.8253H9.39394V16.048H10.6061V14.8253Z" fill="#509BCB"/>
<path d="M23.7879 14.8253H11.8182V16.048H23.7879V14.8253Z" fill="#509BCB"/>
<path d="M23.7879 17.1179H8.33334V18.3406H23.7879V17.1179Z" fill="#509BCB"/>
<path d="M21.5152 19.4105H8.33334V20.6332H21.5152V19.4105Z" fill="#509BCB"/>
<path d="M24.2424 5.50219H23.0303V6.72489H24.2424V5.50219Z" fill="#509BCB"/>
<path d="M24.3939 7.79476H23.1818V9.01747H24.3939V7.79476Z" fill="#509BCB"/>
</g>
<defs>
<clipPath id="clip0_2_952">
<rect width="35" height="35" fill="white"/>
</clipPath>
</defs>
</svg>
