<?xml version="1.0" encoding="utf-8"?>
<!-- Generator: Adobe Illustrator 25.1.0, SVG Export Plug-In . SVG Version: 6.00 Build 0)  -->
<svg version="1.1" id="Layer_1" xmlns="http://www.w3.org/2000/svg" xmlns:xlink="http://www.w3.org/1999/xlink" x="0px" y="0px"
	 viewBox="0 0 36 24" style="enable-background:new 0 0 36 24;" xml:space="preserve">
<style type="text/css">
	.st0{fill:#FFFFFF;}
	.st1{fill:#42779A;stroke:#42779A;stroke-width:0.5;stroke-miterlimit:10;}
	.st2{fill:#42779A;stroke:#42779A;stroke-width:0.25;stroke-miterlimit:10;}
	.st3{fill:#42779A;}
</style>
<rect x="-35.34" y="-9.29" class="st0" width="34.6" height="46.09"/>
<path class="st1" d="M30.3,10.6c-0.6-2.9-3.2-5-6.1-5c-0.8,0-1.7,0.2-2.4,0.5c-1.5-4.3-6.3-6.5-10.5-5C7.9,2.4,5.7,5.4,5.7,8.9
	c0,0.6,0.1,1.2,0.2,1.7c-3,0.6-5.2,3.2-5.2,6.2c0,3.2,2.8,6.3,5.7,6.3h2.9h1.3L27.4,23h-1.2l3.4-0.1c3.2-0.4,5.6-2.9,5.6-6.1
	C35.2,13.9,33.2,11.4,30.3,10.6z M28.9,21.9L27.5,22l0.1-0.1H7.5V22l-0.9-0.1c-1.7,0-4.4-2.3-4.4-4.9c0-2.7,2.1-4.8,4.7-5
	c0.2,0,0.4-0.1,0.6-0.3c0.1-0.2,0.2-0.4,0.1-0.6C7.4,10.4,7.2,9.7,7.3,9c0-3.8,3.1-6.8,6.9-6.8c3.1,0,5.8,2.2,6.6,5.2
	c0.1,0.2,0.2,0.4,0.4,0.5C21.4,8,21.6,8,21.8,7.8c0.8-0.4,1.6-0.7,2.5-0.7c2.5,0,4.6,1.8,4.9,4.3c0.1,0.3,0.3,0.6,0.6,0.6
	c2.7,0.4,4.6,2.9,4.2,5.6C33.5,20.1,31.4,21.9,28.9,21.9z"/>
<path class="st2" d="M24.4,13.1H23v-2c0-0.4-0.3-0.6-0.6-0.7l0,0h-4.5L16.6,9l-0.2-0.2h-3.9h-0.1C12.2,8.9,12,9.2,12,9.4v8.8
	c0,0.4,0.3,0.6,0.6,0.7l0,0h9.8c0.2,0,0.3-0.1,0.4-0.2l2.2-4.5c0.1-0.2,0.1-0.5,0-0.7C24.8,13.2,24.6,13.1,24.4,13.1z M23.4,14.4
	L23,15.3v-0.8h0.4V14.4z M21.7,17.6h-8.4V10h2.6l1.2,1.5c0.1,0.1,0.3,0.2,0.5,0.2h4.2L21.7,17.6z"/>
<g>
	<path class="st3" d="M-16.6,18.82c-0.27,0-0.52-0.11-0.71-0.3l-4.07-4.07c-0.43-0.36-0.5-1-0.14-1.43c0.36-0.43,1-0.5,1.43-0.14
		c0.05,0.04,0.1,0.09,0.15,0.15l3.34,3.34l3.35-3.34c0.41-0.38,1.05-0.36,1.44,0.05c0.36,0.39,0.36,1,0,1.39l-4.07,4.07
		C-16.07,18.72-16.33,18.82-16.6,18.82z"/>
	<path class="st3" d="M-16.6,18.82c-0.56-0.01-1-0.46-1-1.02V7.65c-0.06-0.56,0.34-1.06,0.89-1.13c0.56-0.06,1.06,0.34,1.13,0.89
		c0.01,0.08,0.01,0.16,0,0.23V17.8C-15.58,18.36-16.03,18.82-16.6,18.82z"/>
	<path class="st3" d="M-10.51,22.87h-12.21c-0.56,0-1.02-0.46-1.02-1.02s0.46-1.02,1.02-1.02h12.21c0.56,0,1.02,0.46,1.02,1.02
		S-9.94,22.87-10.51,22.87L-10.51,22.87z"/>
	<path class="st3" d="M-6,27.94h-21.18c-1.42,0.02-2.58-1.12-2.6-2.54V4.56c0.01-0.89,0.36-1.73,0.99-2.36l5.72-5.74
		c0.63-0.63,1.48-0.99,2.37-0.99H-6c1.42-0.02,2.59,1.13,2.6,2.55c0,0,0,0,0,0v27.39C-3.42,26.83-4.58,27.96-6,27.94z M-20.69-2.5
		c-0.35,0-0.69,0.14-0.94,0.39l-5.74,5.72c-0.24,0.25-0.38,0.59-0.38,0.94v20.85c0.02,0.29,0.27,0.52,0.57,0.5H-6
		c0.29,0.02,0.55-0.21,0.57-0.5V-1.98C-5.45-2.28-5.7-2.51-6-2.5c0,0,0,0,0,0H-20.69z"/>
	<path class="st3" d="M-22.17,5.62h-3.55c-0.56-0.06-0.96-0.57-0.89-1.13c0.05-0.47,0.42-0.84,0.89-0.89h3.55
		c0.28,0,0.52-0.23,0.52-0.52l0,0v-3.54c-0.06-0.56,0.34-1.06,0.89-1.13c0.56-0.06,1.06,0.34,1.13,0.89c0.01,0.08,0.01,0.16,0,0.23
		v3.54C-19.64,4.48-20.77,5.62-22.17,5.62z"/>
</g>
</svg>
