<?xml version="1.0" encoding="utf-8"?>
<!-- Generator: Adobe Illustrator 25.1.0, SVG Export Plug-In . SVG Version: 6.00 Build 0)  -->
<svg version="1.1" id="Layer_1" xmlns="http://www.w3.org/2000/svg" xmlns:xlink="http://www.w3.org/1999/xlink" x="0px" y="0px"
	 viewBox="0 0 36 24" style="enable-background:new 0 0 36 24;" xml:space="preserve">
<style type="text/css">
	.st0{fill:#42779A;stroke:#42779A;stroke-miterlimit:10;}
	.st1{fill:#42779A;stroke:#42779A;stroke-width:0.25;stroke-miterlimit:10;}
</style>
<path class="st0" d="M30.3,10.6c-0.6-2.9-3.2-5-6.1-5c-0.8,0-1.7,0.2-2.4,0.5c-1.5-4.3-6.3-6.5-10.5-5C7.9,2.4,5.7,5.4,5.7,8.9
	c0,0.6,0.1,1.2,0.2,1.7c-3,0.6-5.2,3.2-5.2,6.2c0,3.2,2.8,6.3,5.7,6.3l2.9,0l1.3,0l16.8-0.1l-1.2,0l3.4-0.1c3.2-0.4,5.6-2.9,5.6-6.1
	C35.2,13.9,33.2,11.4,30.3,10.6z M28.9,21.9L27.5,22l0.1-0.1L7.5,21.9v0.1l-0.9-0.1c-1.7,0-4.4-2.3-4.4-4.9c0-2.7,2.1-4.8,4.7-5
	c0.2,0,0.4-0.1,0.6-0.3c0.1-0.2,0.2-0.4,0.1-0.6c-0.2-0.7-0.4-1.4-0.3-2.1c0-3.8,3.1-6.8,6.9-6.8c3.1,0,5.8,2.2,6.6,5.2
	c0.1,0.2,0.2,0.4,0.4,0.5c0.2,0.1,0.4,0.1,0.6-0.1c0.8-0.4,1.6-0.7,2.5-0.7c2.5,0,4.6,1.8,4.9,4.3c0.1,0.3,0.3,0.6,0.6,0.6
	c2.7,0.4,4.6,2.9,4.2,5.6C33.5,20.1,31.4,21.9,28.9,21.9z"/>
<path class="st1" d="M24.4,13.1H23v-2c0-0.4-0.3-0.6-0.6-0.7c0,0,0,0,0,0h-4.5L16.6,9l-0.2-0.2h-3.9h-0.1c-0.2,0.1-0.4,0.4-0.4,0.6
	v8.8c0,0.4,0.3,0.6,0.6,0.7c0,0,0,0,0,0h9.8c0.2,0,0.3-0.1,0.4-0.2l2.2-4.5c0.1-0.2,0.1-0.5,0-0.7C24.8,13.2,24.6,13.1,24.4,13.1z
	 M23.4,14.4L23,15.3v-0.8H23.4z M21.7,17.6h-8.4V10h2.6l1.2,1.5c0.1,0.1,0.3,0.2,0.5,0.2h4.2L21.7,17.6z"/>
</svg>
