<svg width="41" height="37" viewBox="0 0 41 37" fill="none" xmlns="http://www.w3.org/2000/svg">
<g clip-path="url(#clip0_2_812)">
<path d="M28.2647 23.988V23.202C28.2647 22.5731 27.6372 21.9443 27.0098 21.9443C26.3823 21.9443 25.7549 22.5731 25.7549 23.202V23.988C25.7549 24.3024 25.4412 24.4596 24.9706 24.4596H16.1863C15.7157 24.4596 15.402 24.1452 15.402 23.988V23.202C15.402 22.5731 14.7745 21.9443 14.1471 21.9443C13.5196 21.9443 12.8922 22.5731 12.8922 23.202V23.988C12.8922 25.7173 14.3039 26.9749 16.1863 26.9749H24.9706C26.8529 26.9749 28.2647 25.7173 28.2647 23.988Z" fill="#172851"/>
<path d="M40.5 14.0841H0.5V36.0928H40.6569L40.5 14.0841ZM38.7745 34.3635H2.38235V15.9705H38.7745V34.3635Z" fill="#172851"/>
<path d="M34.5392 3.70852H33.2843V0.721619H7.87255V3.70852H6.30392L0.5 14.0841H40.6569L34.5392 3.70852ZM31.8725 8.26747H9.44118V2.13647H31.8725V8.26747Z" fill="#172851"/>
<path d="M31.7157 2.13647H9.2843V8.26747H31.7157V2.13647Z" fill="white"/>
<path d="M35.6372 10.4683H5.36273V14.0841H35.6372V10.4683Z" fill="#509BCB"/>
<path d="M13.9902 4.65175H12.7353V5.90939H13.9902V4.65175Z" fill="#509BCB"/>
<path d="M28.1078 4.80895H15.4019V6.06659H28.1078V4.80895Z" fill="#509BCB"/>
</g>
<defs>
<clipPath id="clip0_2_812">
<rect width="40" height="36" fill="white" transform="translate(0.5 0.25)"/>
</clipPath>
</defs>
</svg>
