<svg width="16" height="18" viewBox="0 0 16 18" fill="none" xmlns="http://www.w3.org/2000/svg">
<path d="M10.0001 9V16.88C10.0401 17.18 9.94013 17.5 9.71013 17.71C9.61762 17.8027 9.50773 17.8762 9.38675 17.9264C9.26578 17.9766 9.1361 18.0024 9.00513 18.0024C8.87416 18.0024 8.74448 17.9766 8.62351 17.9264C8.50253 17.8762 8.39264 17.8027 8.30013 17.71L6.29013 15.7C6.18107 15.5934 6.09814 15.463 6.04783 15.319C5.99752 15.175 5.9812 15.0213 6.00013 14.87V9H5.97013L0.210131 1.62C0.0477393 1.41153 -0.0255351 1.14726 0.00631899 0.88493C0.0381731 0.622602 0.172566 0.383546 0.380131 0.22C0.570131 0.08 0.780131 0 1.00013 0H15.0001C15.2201 0 15.4301 0.08 15.6201 0.22C15.8277 0.383546 15.9621 0.622602 15.9939 0.88493C16.0258 1.14726 15.9525 1.41153 15.7901 1.62L10.0301 9H10.0001Z" fill="#142D64"/>
</svg>
