<?xml version="1.0" encoding="utf-8"?>
<!-- Generator: Adobe Illustrator 26.0.0, SVG Export Plug-In . SVG Version: 6.00 Build 0)  -->
<svg version="1.1" id="Layer_1" xmlns="http://www.w3.org/2000/svg" xmlns:xlink="http://www.w3.org/1999/xlink" x="0px" y="0px"
	 viewBox="0 0 17 16" style="enable-background:new 0 0 17 16;" xml:space="preserve">
<style type="text/css">
	.st0{fill:#142D64;}
</style>
<path class="st0" d="M16.3,0.5c-0.1-0.2-0.2-0.3-0.4-0.3H1.1c-0.2,0-0.4,0.1-0.4,0.3C0.6,0.7,0.6,0.9,0.8,1l5.8,6.8v7.5
	c0,0.2,0.1,0.4,0.3,0.4c0.1,0,0.1,0,0.2,0c0.1,0,0.3-0.1,0.4-0.2l3-3.2c0.1-0.1,0.1-0.2,0.1-0.3V7.8L16.2,1
	C16.4,0.9,16.4,0.7,16.3,0.5z"/>
</svg>
