<svg width="30" height="39" viewBox="0 0 30 39" fill="none" xmlns="http://www.w3.org/2000/svg">
<g clip-path="url(#clip0_2_720)">
<path d="M8.54622 7.69781H4.0202V34.236H25.8121V7.84774H21.2861L21.6214 9.49701H8.37858L9.0491 7.39794L8.54622 7.69781Z" fill="white"/>
<path d="M8.71383 19.6925C8.88146 19.8424 9.04909 19.8424 9.21672 19.8424C9.38435 19.8424 9.55198 19.8424 9.71961 19.6925L12.9046 16.8438C13.0722 16.6938 13.0722 16.244 12.9046 16.0941C12.737 15.9442 12.2341 15.9442 12.0664 16.0941L9.38435 18.493L8.04331 17.5934C7.87568 17.4435 7.54042 17.4435 7.20516 17.5934C7.03753 17.7434 7.03753 18.1932 7.20516 18.3431L8.71383 19.6925Z" fill="#172851"/>
<path d="M8.71384 28.3886C8.88147 28.5386 9.0491 28.5386 9.21673 28.5386C9.38436 28.5386 9.55199 28.5386 9.71962 28.3886L12.9046 25.5399C13.0722 25.39 13.0722 24.9402 12.9046 24.7902C12.737 24.6403 12.2341 24.6403 12.0664 24.7902L9.38436 27.1892L8.37858 26.2896C8.21095 26.1396 7.70806 26.1396 7.54043 26.2896C7.3728 26.4395 7.3728 26.8893 7.54043 27.0392L8.71384 28.3886Z" fill="#172851"/>
<path d="M27.1532 4.39927H20.9508L20.6156 3.1998C20.6156 3.04987 20.2803 2.75 19.9451 2.75H10.2225C10.0549 2.75 9.71963 2.89993 9.552 3.1998L9.21674 4.39927H3.01442C1.67338 4.39927 0.667603 5.29887 0.667603 6.49834V34.9857C0.667603 36.1852 1.67338 37.0848 3.01442 37.0848H27.1532C28.4942 37.0848 29.5 36.1852 29.5 34.9857V6.49834C29.5 5.29887 28.3266 4.39927 27.1532 4.39927ZM7.8757 9.79688C8.04333 9.94681 8.21096 9.94681 8.37859 9.94681H21.789C21.9566 9.94681 22.1243 9.94681 22.2919 9.79688C22.2919 9.79688 22.2919 9.49701 22.2919 9.34708L21.789 7.99767H25.3092V33.4864H4.69072V8.14761H8.04333L7.70807 9.34708C7.70807 9.49701 7.70807 9.79688 7.8757 9.79688ZM10.7254 3.94947H19.4422L20.9508 9.04721H9.21674L10.7254 3.94947ZM28.3266 35.1356C28.3266 35.7354 27.8237 36.1852 27.1532 36.1852H3.01442C2.3439 36.1852 1.84101 35.7354 1.84101 35.1356V6.49834C1.84101 5.8986 2.3439 5.4488 3.01442 5.4488H9.04911L8.54622 6.94814H4.18783C3.68494 6.94814 3.51731 7.24801 3.51731 7.54787V34.0861C3.51731 34.386 3.68494 34.6858 4.18783 34.6858H26.1474C26.4826 34.6858 26.8179 34.5359 26.8179 34.0861V7.54787C26.8179 7.24801 26.6503 6.94814 26.1474 6.94814H21.789L21.2861 5.4488H27.3208C27.9913 5.4488 28.4942 5.8986 28.4942 6.49834C28.3266 6.49834 28.3266 35.1356 28.3266 35.1356Z" fill="#172851"/>
<path d="M22.2919 21.3418H7.70806C7.3728 21.3418 7.03754 21.4917 7.03754 21.9415C7.03754 22.2414 7.20517 22.5412 7.70806 22.5412H22.2919C22.6271 22.5412 22.9624 22.3913 22.9624 21.9415C22.9624 21.6416 22.7948 21.3418 22.2919 21.3418Z" fill="#509BCB"/>
<path d="M7.03754 13.2453C7.03754 13.5452 7.20517 13.8451 7.70806 13.8451H22.2919C22.6271 13.8451 22.9624 13.6951 22.9624 13.2453C22.9624 12.7955 22.7948 12.6456 22.2919 12.6456H7.70806C7.20517 12.6456 7.03754 12.7955 7.03754 13.2453Z" fill="#509BCB"/>
<path d="M22.2919 25.6898H14.7485C14.4133 25.6898 14.078 25.8398 14.078 26.2896C14.078 26.7394 14.2456 26.7394 14.7485 26.7394H22.2919C22.6271 26.7394 22.9624 26.5894 22.9624 26.1396C22.9624 25.6898 22.7948 25.6898 22.2919 25.6898Z" fill="#509BCB"/>
<path d="M22.2919 16.9937H14.7485C14.4133 16.9937 14.078 17.1436 14.078 17.5934C14.078 18.0432 14.2456 18.1932 14.7485 18.1932H22.2919C22.6271 18.1932 22.9624 18.0432 22.9624 17.5934C22.9624 17.1436 22.7948 16.9937 22.2919 16.9937Z" fill="#509BCB"/>
<path d="M22.2919 30.0379H7.70806C7.3728 30.0379 7.03754 30.1878 7.03754 30.6376C7.03754 31.0874 7.20517 31.2374 7.70806 31.2374H22.2919C22.6271 31.2374 22.9624 31.0874 22.9624 30.6376C22.9624 30.1878 22.7948 30.0379 22.2919 30.0379Z" fill="#509BCB"/>
</g>
<defs>
<clipPath id="clip0_2_720">
<rect width="29" height="38" fill="white" transform="translate(0.5 0.25)"/>
</clipPath>
</defs>
</svg>
