<svg width="40" height="33" viewBox="0 0 40 33" fill="none" xmlns="http://www.w3.org/2000/svg">
<g clip-path="url(#clip0_2_977)">
<path d="M10.5797 2.59389H5.94203V15.7074H10.5797V2.59389Z" fill="white"/>
<path d="M22.3188 2.73799H17.5362V12.1048H22.3188V2.73799Z" fill="white"/>
<path d="M33.913 2.44978H28.9855V14.2664H33.913V2.44978Z" fill="white"/>
<path d="M37.971 28.9651V9.22271C37.971 8.79039 37.6812 8.35808 37.1015 8.35808H34.6377V2.73799H35.0725C35.5073 2.73799 35.942 2.44978 35.942 1.87336C35.942 1.29694 35.6522 1.00873 35.0725 1.00873H27.5362C27.1015 1.00873 26.6667 1.29694 26.6667 1.87336C26.6667 2.44978 26.9565 2.73799 27.5362 2.73799H27.971V8.35808H23.1884V2.73799H23.6232C24.058 2.73799 24.4928 2.44978 24.4928 1.87336C24.4928 1.29694 24.2029 1.00873 23.6232 1.00873H16.087C15.6522 1.00873 15.2174 1.29694 15.2174 1.87336C15.2174 2.44978 15.5072 2.73799 16.087 2.73799H16.5217V8.35808H12.1739V2.73799H12.6087C13.0435 2.73799 13.4783 2.44978 13.4783 1.87336C13.4783 1.29694 13.0435 1.15284 12.6087 1.15284H5.07247C4.63768 1.15284 4.34783 1.44105 4.34783 1.87336C4.34783 2.30568 4.63768 2.73799 5.21739 2.73799H5.65218V8.35808H3.18841C2.6087 8.35808 2.31884 8.64629 2.31884 9.22271V29.1092H0.434784V33.1441H39.8551V29.1092H37.971V28.9651ZM33.0435 2.73799V13.69H29.8551V2.73799H33.0435ZM18.5507 2.73799H21.8841V12.1048H18.5507V2.73799ZM7.24638 2.73799H10.4348V15.2751H7.24638V2.73799ZM4.05797 9.94323H5.65218V20.8952C5.65218 22.6245 7.10145 24.2096 8.98551 24.2096C10.8696 24.2096 12.3188 22.7686 12.3188 20.8952V9.94323H16.9565V20.8952C16.9565 22.6245 18.4058 24.2096 20.2899 24.2096C22.1739 24.2096 23.6232 22.7686 23.6232 20.8952V9.94323H28.4058V20.8952C28.4058 22.6245 29.8551 24.2096 31.7391 24.2096C33.6232 24.2096 35.0725 22.7686 35.0725 20.8952V9.94323H36.6667V28.9651H4.05797V9.94323Z" fill="#172851"/>
<path d="M7.24638 14.9869V20.607C7.24638 21.4716 7.97101 22.1921 8.84058 22.1921H8.98551C9.85507 22.1921 10.5797 21.4716 10.5797 20.607V14.9869H7.24638Z" fill="#509BCB"/>
<path d="M29.8551 13.69V20.607C29.8551 21.4716 30.5797 22.1921 31.4493 22.1921H31.5942C32.4638 22.1921 33.1884 21.4716 33.1884 20.607V13.69H29.8551Z" fill="#509BCB"/>
<path d="M18.5507 11.2402V20.4629C18.5507 21.3275 19.2754 22.048 20.1449 22.048H20.2899C21.1594 22.048 21.8841 21.3275 21.8841 20.4629V11.2402H18.5507Z" fill="#509BCB"/>
</g>
<defs>
<clipPath id="clip0_2_977">
<rect width="40" height="33" fill="white"/>
</clipPath>
</defs>
</svg>
