<svg width="31" height="31" viewBox="0 0 31 31" fill="none" xmlns="http://www.w3.org/2000/svg">
<g clip-path="url(#clip0_7250_14693)">
<path d="M15.4998 30.66C23.8725 30.66 30.6598 23.8726 30.6598 15.5C30.6598 7.12736 23.8725 0.339996 15.4998 0.339996C7.12721 0.339996 0.339844 7.12736 0.339844 15.5C0.339844 23.8726 7.12721 30.66 15.4998 30.66Z" fill="#9875FF"/>
<path d="M15.5 0.68C23.68 0.68 30.32 7.31 30.32 15.5C30.32 23.69 23.69 30.32 15.5 30.32C7.31 30.32 0.68 23.68 0.68 15.5C0.68 7.32 7.32 0.68 15.5 0.68ZM15.5 0C6.95 0 0 6.95 0 15.5C0 24.05 6.95 31 15.5 31C24.05 31 31 24.05 31 15.5C31 6.95 24.05 0 15.5 0Z" fill="white"/>
<path d="M23.3372 11.5933C23.0889 11.591 22.8381 11.5927 22.6354 11.5996C21.8476 11.6264 21.378 11.7053 20.9935 11.9687L20.8421 12.0723C20.7444 12.1393 20.6741 12.2392 20.6441 12.3537C20.614 12.4682 20.6262 12.5898 20.6785 12.696L20.8145 12.9726C20.8145 12.9726 20.8146 12.9727 20.8146 12.9727C20.9237 13.1944 20.9407 13.2043 20.9663 13.5124C20.9918 13.8205 20.9937 14.391 20.9904 15.4881C20.985 17.3318 20.9948 17.6002 21.0748 18.1062C21.1058 18.3021 21.2536 19.3671 21.3893 20.3651C21.4572 20.864 21.5228 21.3513 21.5714 21.7178C21.5957 21.901 21.6157 22.0541 21.6295 22.1625C21.6365 22.2168 21.6418 22.26 21.6453 22.2889C21.647 22.3033 21.6482 22.3143 21.6488 22.3195C21.6493 22.3246 21.6476 22.3547 21.6476 22.2857C21.6476 22.4661 21.7481 22.5952 21.8088 22.6504C21.8694 22.7057 21.9087 22.7221 21.9373 22.7351C21.9946 22.7612 22.0171 22.764 22.0363 22.7684C22.0746 22.7771 22.0899 22.7781 22.1062 22.78C22.1387 22.7837 22.1642 22.7852 22.1956 22.7869C22.2585 22.7904 22.3381 22.793 22.4358 22.7952C22.6312 22.7998 22.8952 22.8026 23.1859 22.8026C23.5883 22.8026 23.8529 22.7999 24.0363 22.791C24.128 22.7866 24.1966 22.7822 24.2752 22.7685C24.3144 22.7616 24.3555 22.755 24.4236 22.7264C24.4917 22.6978 24.6374 22.643 24.7148 22.4209C24.7148 22.4208 24.7148 22.4208 24.7148 22.4208C24.7575 22.2982 24.7356 22.3422 24.738 22.3281C24.7405 22.314 24.7427 22.3 24.7454 22.2831C24.7507 22.2492 24.7573 22.205 24.7653 22.1494C24.7813 22.0383 24.8031 21.8833 24.8291 21.6943C24.8813 21.3162 24.9505 20.8029 25.0245 20.2446C25.1669 19.1705 25.2597 18.4921 25.3233 18.0757C25.3513 17.8924 25.3716 17.7781 25.3888 17.6895C25.4092 17.687 25.42 17.6821 25.4419 17.6821C25.601 17.6821 25.7609 17.6629 25.9222 17.5884C26.0835 17.5139 26.2371 17.3663 26.3137 17.1982C26.3863 17.0387 26.3609 17.0366 26.3664 16.9903C26.3718 16.944 26.3755 16.8963 26.379 16.8408C26.3859 16.7299 26.3911 16.5906 26.3953 16.4278C26.4037 16.1021 26.4077 15.6852 26.4076 15.2637C26.4074 14.8422 26.403 14.4171 26.3944 14.0757C26.39 13.9051 26.3847 13.7557 26.3779 13.6347C26.3711 13.5137 26.376 13.4575 26.3428 13.3201C26.1834 12.6611 25.7271 12.1087 25.11 11.82C24.9762 11.7574 24.8299 11.6995 24.6614 11.6695C24.4928 11.6396 24.3166 11.6295 24.0187 11.6127C23.8289 11.602 23.5855 11.5956 23.3372 11.5933ZM25.3157 17.6997C25.2941 17.7149 25.2866 17.7061 25.2989 17.702C25.3016 17.7011 25.312 17.7007 25.3157 17.6997Z" fill="white"/>
<path d="M23.0434 8.23592C22.9722 8.23596 22.905 8.23978 22.8322 8.25073C22.6868 8.27263 22.5596 8.32768 22.4489 8.38181C22.0429 8.58045 21.7247 8.89449 21.5403 9.31136C21.2097 10.0587 21.4376 10.9448 22.082 11.45C22.2959 11.6177 22.509 11.7372 22.7366 11.797C22.9682 11.8578 23.1525 11.841 23.3623 11.8201C23.5721 11.7992 23.7574 11.7783 23.9713 11.6747C24.2001 11.564 24.3608 11.4079 24.5191 11.2326C24.6775 11.0572 24.8156 10.8873 24.8995 10.641C24.974 10.4225 24.9912 10.2202 24.9912 9.99997C24.9912 9.72806 24.9335 9.47907 24.8156 9.24315C24.6319 8.87566 24.3432 8.57312 23.9805 8.38112C23.8439 8.30882 23.7555 8.29816 23.6446 8.27987C23.5337 8.26158 23.4118 8.24998 23.2788 8.24378C23.1901 8.23965 23.1147 8.23589 23.0434 8.23592Z" fill="white"/>
<path d="M18.0658 8.37053C17.8307 8.37018 17.5961 8.40774 17.384 8.5065C16.6308 8.85717 16.2312 9.72738 16.4782 10.5127C16.6387 11.023 17.0295 11.4335 17.5303 11.6123C18.3118 11.8912 19.2087 11.5038 19.58 10.75C19.6897 10.5272 19.7128 10.286 19.7159 10.0344C19.719 9.78282 19.7053 9.54623 19.5939 9.32023C19.4214 8.97016 19.1034 8.67359 18.7481 8.50818C18.5358 8.40933 18.3009 8.3709 18.0658 8.37053Z" fill="white"/>
<path d="M18.2482 11.6324C17.8961 11.6295 17.5365 11.6375 17.2299 11.6547C16.9232 11.6719 16.6997 11.6849 16.4891 11.7435C16.3935 11.7701 16.3185 11.7875 16.225 11.8232C16.1315 11.8588 15.9525 11.9385 15.871 12.1548C15.7895 12.3711 15.8589 12.5202 15.8965 12.6107C15.934 12.7011 15.9744 12.7745 16.024 12.8718C16.1064 13.0331 16.2074 13.3211 16.2079 13.3236C16.2008 13.2894 16.2128 13.3675 16.2174 13.4662C16.2221 13.5649 16.226 13.7033 16.2287 13.8766C16.2342 14.2232 16.2352 14.7109 16.2314 15.3288L16.2207 17.0873L16.1507 17.2L16.0132 17.421C15.9579 17.5099 15.9352 17.6154 15.949 17.7192L16.2438 19.9319C16.3249 20.5407 16.4011 21.1069 16.4586 21.5291C16.4874 21.7402 16.5115 21.9152 16.5292 22.0421C16.5469 22.1689 16.5484 22.1991 16.565 22.2844L16.587 22.3977C16.6072 22.5014 16.6631 22.5948 16.7449 22.6616C16.8268 22.7283 16.9295 22.7643 17.0351 22.7632L18.0843 22.7523L19.1335 22.7413C19.2422 22.7402 19.3468 22.6999 19.4282 22.6278C19.5096 22.5558 19.5623 22.4568 19.5766 22.3491L19.7668 20.9154C19.9876 19.2512 20.1023 18.3916 20.1709 17.9489C20.1973 17.7784 20.2115 17.716 20.2245 17.6569C20.2468 17.6542 20.2354 17.6546 20.2699 17.6521C20.503 17.6349 20.7116 17.5967 20.9037 17.47L21.0365 17.3824C21.099 17.3412 21.1502 17.2852 21.1857 17.2193C21.2211 17.1534 21.2396 17.0797 21.2395 17.0049L21.2379 15.5506C21.2368 14.6425 21.2307 14.0983 21.2035 13.7182C21.1763 13.3381 21.1157 13.0869 21.0152 12.8814C20.8026 12.4469 20.458 12.0992 20.0262 11.8858C19.8778 11.8124 19.7393 11.7489 19.5688 11.7148C19.3983 11.6806 19.2279 11.6719 18.9245 11.6536C18.714 11.641 18.4829 11.6343 18.2482 11.6324Z" fill="white"/>
<path d="M13.3871 11.5946C13.169 11.5963 12.9324 11.6021 12.6784 11.6119C12.2501 11.6284 12.0338 11.6341 11.8396 11.6625C11.6454 11.6909 11.4855 11.7595 11.3458 11.8263C11.2547 11.8699 11.1714 11.9148 11.0977 11.9601C11.0609 11.9827 11.0272 12.0045 10.9883 12.0346C10.9494 12.0647 10.8992 12.0209 10.8009 12.2771C10.7046 12.5281 10.77 12.5394 10.7797 12.5888C10.7895 12.6382 10.8009 12.6766 10.8139 12.7171C10.84 12.7983 10.8735 12.8833 10.9139 12.9724C10.9563 13.0661 11.0327 13.3111 11.045 13.3792C11.0391 13.3464 11.0606 13.5596 11.0693 13.801C11.0779 14.0425 11.0849 14.3566 11.0894 14.6993C11.0984 15.3848 11.0975 16.1872 11.083 16.7675C11.0671 17.4022 11.0828 17.608 11.2407 18.6939C11.3418 19.3894 11.4562 20.2106 11.5451 20.8702C11.5896 21.2001 11.6277 21.4898 11.6545 21.7021C11.6679 21.8083 11.6785 21.8954 11.6855 21.9567C11.6925 22.0181 11.6937 22.1034 11.6937 22.0214C11.6937 22.2021 11.7205 22.2604 11.7661 22.3802L11.8063 22.486C11.842 22.58 11.9057 22.6608 11.9888 22.7174C12.0719 22.7741 12.1703 22.8039 12.2709 22.8028L13.306 22.7919L14.341 22.7809C14.4592 22.7797 14.5729 22.7359 14.6615 22.6577C14.75 22.5794 14.8073 22.4719 14.8231 22.3548L15.0567 20.6138C15.2691 19.0318 15.3754 18.2402 15.4369 17.8509C15.4527 17.7511 15.4557 17.7472 15.4657 17.6976C15.4899 17.6949 15.4872 17.6935 15.5199 17.691C15.7334 17.6749 15.937 17.6757 16.1638 17.4969C16.3907 17.3181 16.4393 17.0577 16.4618 16.8735C16.4731 16.781 16.472 16.7261 16.4747 16.6146C16.4773 16.5031 16.4792 16.3603 16.4805 16.194C16.483 15.8614 16.4827 15.4355 16.4791 14.9938L16.466 13.3962C16.4654 13.3248 16.4492 13.2544 16.4187 13.1899L16.2882 12.9144C16.0041 12.3147 15.4901 11.8785 14.8551 11.7043C14.4996 11.6067 14.041 11.5897 13.3871 11.5946Z" fill="white"/>
<path d="M13.313 8.36977C12.683 8.36772 12.0645 8.72463 11.7803 9.32725C11.6792 9.54158 11.6515 9.77747 11.6471 10.0205C11.6427 10.2635 11.6594 10.496 11.7582 10.7135C11.9554 11.1475 12.3531 11.4729 12.8326 11.63C13.0123 11.6889 13.2022 11.6976 13.4089 11.6841C14.2828 11.6271 14.9545 10.879 14.9496 9.99197C14.9461 9.35703 14.5336 8.77794 13.9353 8.50405C13.7359 8.41276 13.5229 8.37045 13.313 8.36977Z" fill="white"/>
<path d="M7.99924 8.36418C7.79639 8.37237 7.64205 8.4095 7.48399 8.48237C7.11197 8.65388 6.80463 8.96079 6.63035 9.33265C6.42891 9.76245 6.41163 10.2766 6.60868 10.7057C6.82482 11.1765 7.24051 11.5587 7.73547 11.6766C8.18635 11.784 8.67718 11.7126 9.05331 11.4545C9.58453 11.0899 9.86681 10.5284 9.82569 9.89902C9.79856 9.48368 9.62845 9.12745 9.31907 8.8261C9.009 8.52409 8.67604 8.38495 8.2202 8.36541C8.13986 8.36196 8.06685 8.36145 7.99924 8.36418Z" fill="white"/>
<path d="M8.10864 11.7505C7.56282 11.7519 7.25926 11.7539 7.04312 11.7671C6.82699 11.7804 6.68156 11.8126 6.54455 11.8562C5.90325 12.0601 5.38541 12.5856 5.18553 13.2311C5.10344 13.4963 5.09863 13.7637 5.09863 15.2782V16.992C5.09864 17.0421 5.10946 17.0917 5.13037 17.1372C5.15128 17.1828 5.18178 17.2233 5.21979 17.256L5.33476 17.3549C5.40261 17.4132 5.50017 17.4751 5.60469 17.5049C5.7092 17.5348 5.80346 17.5383 5.9091 17.5386C5.95232 17.5387 6.00845 17.5434 6.05116 17.55C6.06207 17.5517 6.06883 17.5543 6.07832 17.557C6.08003 17.5656 6.09416 17.5917 6.12066 17.7272C6.18545 18.0584 6.28106 18.7741 6.47504 20.2262C6.54204 20.7277 6.60573 21.2009 6.65441 21.5596C6.70309 21.9183 6.73317 22.1406 6.74474 22.2126L6.76954 22.3668C6.78276 22.4492 6.8251 22.524 6.88885 22.5778C6.95259 22.6315 7.03351 22.6606 7.1169 22.6598L8.16723 22.6489C8.16726 22.6489 8.16728 22.6489 8.16731 22.6489L9.21757 22.6379C9.30127 22.637 9.38184 22.606 9.44454 22.5505C9.50724 22.4951 9.54787 22.4189 9.55898 22.3359L9.85241 20.1444C10.0155 18.9264 10.1054 18.2659 10.1632 17.9045C10.1921 17.7238 10.2136 17.6177 10.2276 17.5651C10.2301 17.556 10.2285 17.5632 10.23 17.5577C10.2664 17.5489 10.3378 17.538 10.4527 17.538C10.6364 17.538 10.8743 17.4428 11.0009 17.3163L11.001 17.3162L11.1207 17.1966C11.1531 17.1642 11.1787 17.1258 11.1963 17.0836C11.2138 17.0413 11.2228 16.996 11.2228 16.9503V15.2967C11.2228 14.4223 11.2203 13.9435 11.1907 13.609C11.1612 13.2745 11.0847 13.0587 10.9834 12.86C10.8057 12.5118 10.4951 12.2011 10.148 12.0188C9.93326 11.9061 9.72023 11.8224 9.42845 11.7869C9.13666 11.7514 8.76291 11.7489 8.10864 11.7505Z" fill="white"/>
<path d="M6.5557 22.904C6.50296 22.8513 6.45896 22.7854 6.45791 22.7575C6.45686 22.7297 6.31104 21.626 6.13387 20.3048L5.81174 17.9027L5.63394 17.8773C5.30601 17.8304 5.00867 17.619 4.84508 17.3164C4.76253 17.1637 4.76036 17.1196 4.74936 15.3776C4.73672 13.3727 4.74936 13.2385 4.99876 12.7319C5.25611 12.2091 5.83691 11.6976 6.36054 11.5325C6.46885 11.4984 6.57974 11.4635 6.60694 11.455C6.64034 11.4445 6.6133 11.3788 6.52373 11.2529C6.04117 10.5745 5.97922 9.78999 6.35198 9.07785C6.59932 8.60531 7.16911 8.15793 7.67075 8.0424C7.89635 7.99044 8.42119 7.99032 8.64622 8.04216C8.98051 8.11919 9.3194 8.3136 9.58808 8.58247C10.3214 9.31633 10.4071 10.4018 9.79852 11.2489C9.70659 11.3769 9.67789 11.4445 9.71111 11.455C9.73832 11.4635 9.8506 11.4989 9.96063 11.5336C10.1332 11.588 10.3317 11.6927 10.6608 11.903C10.7317 11.9484 10.7656 11.9366 10.9633 11.7981C11.0857 11.7123 11.3175 11.6005 11.4784 11.5496C11.6393 11.4987 11.7712 11.4452 11.7716 11.4307C11.772 11.4162 11.7316 11.3547 11.6818 11.294C11.1435 10.6367 11.0999 9.63702 11.5779 8.90967C11.962 8.32534 12.5774 8 13.2987 8C13.8991 8 14.391 8.22115 14.8083 8.67875C15.4629 9.39647 15.4995 10.529 14.8927 11.2914C14.8112 11.3938 14.7912 11.4431 14.8267 11.4544C15.1902 11.5692 15.2985 11.6117 15.4759 11.7095L15.6834 11.8239L15.9251 11.6935C16.058 11.6218 16.2371 11.5423 16.323 11.5168C16.409 11.4914 16.5015 11.4636 16.5286 11.4551C16.5615 11.4447 16.5341 11.382 16.4463 11.267C15.855 10.4924 15.8985 9.39159 16.5487 8.67875C16.9657 8.22156 17.4587 7.99964 18.0557 8.00046C18.446 8.001 18.6896 8.05767 19.0183 8.22443C20.1411 8.79402 20.4686 10.3253 19.6749 11.2943C19.568 11.4248 19.5813 11.461 19.7496 11.498C19.9405 11.5399 20.1936 11.657 20.424 11.8099L20.6323 11.9482L20.8671 11.7964C21.0604 11.6715 21.3717 11.5346 21.6459 11.454C21.679 11.4442 21.6516 11.3778 21.5627 11.2529C21.0801 10.5745 21.0182 9.78999 21.391 9.07785C21.6383 8.6053 22.2081 8.15793 22.7097 8.04239C22.9353 7.99044 23.4602 7.99031 23.6852 8.04216C24.0195 8.11919 24.3584 8.3136 24.6271 8.58247C25.3604 9.31633 25.4461 10.4018 24.8375 11.2489C24.7456 11.3769 24.7169 11.4445 24.7501 11.455C24.7773 11.4635 24.8882 11.4984 24.9965 11.5325C25.5201 11.6975 26.1009 12.2091 26.3583 12.7319C26.6077 13.2385 26.6203 13.3727 26.6077 15.3776C26.5972 17.0284 26.591 17.1702 26.5237 17.2968C26.3565 17.611 26.0544 17.8299 25.7224 17.8774L25.5453 17.9027L25.2232 20.3048C25.046 21.626 24.9002 22.7297 24.8991 22.7575C24.8981 22.7854 24.8541 22.8513 24.8013 22.904L24.7055 22.9999H23.198H21.6906L21.5947 22.904C21.5419 22.8513 21.4979 22.7854 21.4969 22.7575C21.4958 22.7297 21.3501 21.6259 21.173 20.3046L20.851 17.9023L20.6359 17.8908L20.4209 17.8793L20.0965 20.3125C19.9181 21.6507 19.7482 22.7919 19.719 22.8485C19.6897 22.9051 19.6373 22.9623 19.6025 22.9756C19.5677 22.989 18.867 22.9999 18.0454 22.9999H16.5515L16.4667 22.9096C16.3901 22.8281 16.3497 22.5789 16.0538 20.3682C15.8734 19.0201 15.7152 17.9064 15.7022 17.8934C15.6892 17.8804 15.6676 17.8807 15.6542 17.894C15.6409 17.9074 15.4827 19.0209 15.3028 20.3685C15.0073 22.5822 14.9675 22.8275 14.8906 22.9093L14.8055 22.9999H13.2932C11.5657 22.9999 11.6434 23.015 11.581 22.6679C11.5616 22.5605 11.4087 21.4391 11.2411 20.1759L10.9364 17.8793L10.7212 17.8908L10.5061 17.9023L10.1841 20.3046C10.007 21.6259 9.86119 22.7297 9.86014 22.7575C9.85909 22.7854 9.81509 22.8513 9.76235 22.904L9.66648 22.9999H8.15903H6.65158L6.5557 22.904ZM9.23363 22.3066C9.23363 22.2904 9.38109 21.1796 9.56084 19.838C9.88504 17.4184 9.88851 17.398 9.99232 17.3087C10.0783 17.2347 10.1421 17.2187 10.3506 17.2187C10.6786 17.2187 10.8182 17.148 10.8718 16.955C10.9244 16.7656 10.9251 13.9369 10.8727 13.5664C10.7646 12.8029 10.1751 12.2137 9.40904 12.1034C9.05701 12.0527 7.26568 12.0522 6.90905 12.1027C6.15058 12.2101 5.55279 12.8079 5.44541 13.5664C5.39297 13.9369 5.39367 16.7656 5.44627 16.955C5.49989 17.148 5.63954 17.2187 5.96746 17.2187C6.17598 17.2187 6.23975 17.2347 6.32577 17.3087C6.42958 17.398 6.43306 17.4184 6.75725 19.838C6.937 21.1796 7.08425 22.2904 7.08446 22.3066C7.08446 22.3227 7.56825 22.3359 8.15907 22.3359C8.74988 22.3359 9.23342 22.3227 9.23363 22.3066ZM14.3659 22.2284C14.3778 22.1693 14.5196 21.1191 14.681 19.8945C15.0293 17.2525 14.9991 17.4416 15.09 17.3294C15.1528 17.2518 15.2102 17.236 15.5002 17.2168C16.0517 17.1802 16.0083 17.3334 16.0225 15.372C16.0307 14.2429 16.0203 13.6487 15.9895 13.4883C15.8447 12.7333 15.2666 12.2019 14.4762 12.0973C14.2763 12.0709 13.7314 12.0611 13.0504 12.0719C12.0619 12.0875 11.9255 12.0975 11.7291 12.1695C11.4849 12.259 11.1736 12.4426 11.1953 12.4845C11.5724 13.2132 11.5755 13.2358 11.5761 15.2656C11.5765 16.3763 11.5618 17.018 11.5338 17.1186C11.5026 17.2311 11.503 17.3097 11.5354 17.4115C11.5724 17.5276 12.202 22.1319 12.202 22.2859C12.202 22.3253 12.4293 22.3359 13.2731 22.3359H14.3442L14.3659 22.2284ZM19.1551 22.2813C19.1551 22.2015 19.775 17.5664 19.7994 17.4639C19.8423 17.2834 19.9673 17.2187 20.2727 17.2187C20.5197 17.2187 20.5704 17.206 20.6755 17.1176L20.7957 17.0164V15.2609C20.7957 13.598 20.7915 13.4928 20.7161 13.2691C20.5023 12.6345 19.9818 12.1976 19.3265 12.1029C18.9701 12.0514 17.133 12.0521 16.8139 12.1038C16.6756 12.1263 16.4782 12.1809 16.375 12.2253L16.1875 12.306L16.2601 12.4088C16.4019 12.6098 16.5785 13.0027 16.6353 13.2437C16.6818 13.4408 16.6929 13.8366 16.6927 15.2851C16.6923 17.0099 16.6892 17.089 16.6127 17.2578C16.5689 17.3544 16.4965 17.4724 16.4519 17.5199L16.3708 17.6063L16.6727 19.8832C16.8387 21.1355 16.9836 22.1996 16.9948 22.248L17.0151 22.3359H18.0851C18.9752 22.3359 19.1551 22.3267 19.1551 22.2813ZM24.2726 22.3066C24.2726 22.2904 24.4201 21.1796 24.5998 19.838C24.924 17.4184 24.9275 17.398 25.0313 17.3087C25.1173 17.2347 25.1811 17.2187 25.3896 17.2187C25.7175 17.2187 25.8572 17.148 25.9108 16.955C25.9634 16.7656 25.9641 13.9369 25.9116 13.5664C25.8036 12.8029 25.2141 12.2137 24.448 12.1034C24.0938 12.0524 22.302 12.0524 21.9492 12.1034C21.6682 12.144 21.353 12.2676 21.1916 12.4006L21.0992 12.4767L21.2176 12.7111C21.4809 13.2328 21.4793 13.2166 21.4793 15.2656C21.4793 16.6602 21.4674 17.1418 21.4313 17.2047C21.393 17.2717 21.394 17.3107 21.4366 17.4C21.4658 17.4614 21.6161 18.4697 21.7706 19.6406C21.9251 20.8115 22.0699 21.8969 22.0924 22.0527L22.1333 22.3359H23.2028C23.791 22.3359 24.2724 22.3227 24.2726 22.3066ZM8.70139 11.2873C8.93574 11.1836 9.25716 10.8788 9.37278 10.6507C9.56047 10.2803 9.56047 9.7822 9.37278 9.41181C9.25725 9.18383 8.93782 8.8809 8.69485 8.76892C8.54908 8.70173 8.43714 8.68395 8.15903 8.68379C7.85577 8.68363 7.77791 8.69811 7.59236 8.78924C7.03225 9.06433 6.72378 9.64631 6.81837 10.2495C6.86505 10.5472 7.00091 10.7989 7.23102 11.0142C7.55721 11.3193 7.79293 11.4046 8.24369 11.3807C8.40958 11.3719 8.59608 11.3338 8.70139 11.2873ZM13.8524 11.2712C14.2651 11.0822 14.5427 10.7126 14.6319 10.2333C14.7507 9.59398 14.308 8.90738 13.6544 8.71738C13.0325 8.53658 12.311 8.87471 12.0325 9.47751C11.9116 9.73914 11.9116 10.3233 12.0325 10.585C12.3469 11.2656 13.1792 11.5794 13.8524 11.2712ZM18.4508 11.3365C18.8342 11.2227 19.1591 10.9427 19.3254 10.5829C19.4458 10.3226 19.4449 9.73811 19.3238 9.47588C19.2044 9.21737 18.9237 8.93214 18.6581 8.79937C18.4605 8.70065 18.3886 8.6864 18.0808 8.68509C17.7796 8.68381 17.6974 8.69851 17.5068 8.7879C17.0896 8.98346 16.8142 9.35026 16.7252 9.82923C16.6889 10.0241 16.6926 10.1101 16.7467 10.331C16.9376 11.1118 17.6976 11.5602 18.4508 11.3365ZM23.7404 11.2873C23.9747 11.1836 24.2961 10.8788 24.4118 10.6507C24.5327 10.4121 24.5818 10.0879 24.5387 9.81297C24.4916 9.51272 24.3557 9.26321 24.1186 9.04138C23.8179 8.76011 23.622 8.68403 23.198 8.68379C22.8947 8.68363 22.8169 8.69811 22.6313 8.78924C22.0712 9.06433 21.7628 9.64631 21.8573 10.2495C21.904 10.5472 22.0399 10.7989 22.27 11.0142C22.5962 11.3193 22.8319 11.4046 23.2827 11.3807C23.4486 11.3719 23.6351 11.3338 23.7404 11.2873Z" fill="#9875FF"/>
</g>
<defs>
<clipPath id="clip0_7250_14693">
<rect width="31" height="31" fill="white"/>
</clipPath>
</defs>
</svg>
