<svg width="46" height="46" viewBox="0 0 46 46" fill="none" xmlns="http://www.w3.org/2000/svg">
<path d="M36.8115 15.2107C36.38 15.2066 35.944 15.2097 35.5918 15.2217C34.2226 15.2683 33.4064 15.4053 32.7382 15.863L32.4751 16.0432C32.3054 16.1595 32.1832 16.3331 32.1309 16.5322C32.0787 16.7313 32.0999 16.9425 32.1907 17.1272L32.4271 17.6078C32.4272 17.6079 32.4272 17.6079 32.4273 17.608C32.6169 17.9934 32.6465 18.0104 32.6909 18.5459C32.7352 19.0815 32.7385 20.0728 32.7329 21.9796C32.7235 25.1839 32.7405 25.6504 32.8796 26.5298C32.9334 26.8702 33.1902 28.7212 33.4261 30.4556C33.544 31.3228 33.6582 32.1696 33.7426 32.8065C33.7848 33.1249 33.8196 33.391 33.8437 33.5795C33.8557 33.6737 33.865 33.7489 33.871 33.7991C33.8739 33.8241 33.8761 33.8433 33.8771 33.8522C33.878 33.8612 33.8749 33.9135 33.8749 33.7935C33.8749 34.1071 34.0497 34.3314 34.1551 34.4274C34.2605 34.5234 34.3287 34.5519 34.3785 34.5746C34.4781 34.62 34.5172 34.6248 34.5505 34.6324C34.6171 34.6476 34.6437 34.6494 34.672 34.6526C34.7285 34.659 34.7729 34.6616 34.8275 34.6646C34.9367 34.6706 35.0752 34.6751 35.2449 34.6791C35.5844 34.687 36.0433 34.6918 36.5486 34.6918C37.2479 34.6918 37.7077 34.6871 38.0265 34.6718C38.1859 34.6641 38.3051 34.6565 38.4416 34.6326C38.5099 34.6206 38.5812 34.6092 38.6995 34.5595C38.8179 34.5098 39.0712 34.4144 39.2056 34.0285C39.2056 34.0284 39.2056 34.0284 39.2056 34.0283C39.2799 33.8152 39.2418 33.8917 39.2461 33.8672C39.2504 33.8428 39.2542 33.8184 39.2588 33.789C39.268 33.7302 39.2794 33.6532 39.2934 33.5567C39.3213 33.3636 39.3591 33.0941 39.4044 32.7656C39.495 32.1086 39.6154 31.2165 39.744 30.2462C39.9914 28.3794 40.1527 27.2004 40.2632 26.4767C40.3118 26.1581 40.3472 25.9596 40.3771 25.8055C40.4125 25.8012 40.4312 25.7928 40.4693 25.7928C40.7459 25.7928 41.0237 25.7593 41.3041 25.6298C41.5845 25.5003 41.8513 25.2439 41.9844 24.9517C42.1107 24.6745 42.0666 24.6708 42.076 24.5904C42.0855 24.5099 42.0919 24.427 42.0979 24.3306C42.1099 24.1379 42.119 23.8958 42.1263 23.6128C42.1409 23.0468 42.1479 22.3222 42.1476 21.5896C42.1474 20.8571 42.1398 20.1183 42.1247 19.525C42.1172 19.2284 42.1079 18.9687 42.0961 18.7585C42.0842 18.5483 42.0928 18.4505 42.0351 18.2117C41.7581 17.0664 40.9649 16.1065 39.8925 15.6046C39.66 15.4958 39.4057 15.3952 39.1128 15.3431C38.8199 15.2911 38.5137 15.2736 37.9958 15.2443C37.666 15.2257 37.243 15.2147 36.8115 15.2107ZM40.2499 25.8232C40.2124 25.8497 40.1994 25.8345 40.2208 25.8272C40.2255 25.8256 40.2436 25.825 40.2499 25.8232Z" fill="#6599C8"/>
<path d="M36.2999 9.37573C36.1761 9.37579 36.0593 9.38243 35.9329 9.40146C35.6801 9.43952 35.459 9.5352 35.2667 9.62927C34.5611 9.9745 34.0081 10.5203 33.6876 11.2448C33.113 12.5437 33.509 14.0837 34.629 14.9616C35.0008 15.253 35.3711 15.4608 35.7666 15.5647C36.1692 15.6703 36.4895 15.6411 36.8541 15.6048C37.2187 15.5685 37.5407 15.5322 37.9125 15.3522C38.3101 15.1598 38.5895 14.8886 38.8646 14.5838C39.1398 14.279 39.3799 13.9837 39.5257 13.5557C39.6551 13.1759 39.6851 12.8243 39.6851 12.4416C39.6851 11.969 39.5847 11.5363 39.3798 11.1262C39.0607 10.4876 38.5589 9.96176 37.9284 9.62808C37.691 9.50242 37.5375 9.4839 37.3447 9.45211C37.152 9.42033 36.9401 9.40016 36.709 9.38939C36.5547 9.3822 36.4238 9.37567 36.2999 9.37573Z" fill="#6599C8"/>
<path d="M27.6484 9.60965C27.2397 9.60904 26.832 9.67432 26.4634 9.84596C25.1544 10.4554 24.4599 11.9678 24.8893 13.3327C25.1682 14.2195 25.8472 14.9329 26.7176 15.2436C28.0759 15.7285 29.6346 15.0551 30.2799 13.7451C30.4706 13.3579 30.5108 12.9386 30.5162 12.5014C30.5216 12.0641 30.4977 11.653 30.3042 11.2602C30.0044 10.6518 29.4516 10.1364 28.8341 9.84887C28.4651 9.67709 28.057 9.61029 27.6484 9.60965Z" fill="white"/>
<path d="M27.9651 15.2785C27.3531 15.2736 26.7282 15.2876 26.1952 15.3174C25.6623 15.3472 25.2739 15.3699 24.9079 15.4717C24.7417 15.518 24.6113 15.5482 24.4488 15.6102C24.2864 15.6722 23.9753 15.8107 23.8336 16.1865C23.6919 16.5624 23.8126 16.8216 23.8779 16.9788C23.9432 17.136 24.0133 17.2636 24.0996 17.4327C24.2426 17.713 24.4182 18.2135 24.4191 18.2179C24.4068 18.1583 24.4276 18.2942 24.4357 18.4657C24.4438 18.6372 24.4506 18.8777 24.4553 19.1789C24.4648 19.7814 24.4665 20.6289 24.46 21.7029L24.4414 24.7589L24.3197 24.9549L24.0808 25.3389C23.9846 25.4935 23.9452 25.6767 23.9693 25.8572L24.4816 29.7027C24.6225 30.7608 24.7549 31.7449 24.8548 32.4787C24.9048 32.8456 24.9467 33.1497 24.9775 33.3701C25.0083 33.5905 25.0108 33.643 25.0397 33.7912L25.078 33.9883C25.1131 34.1685 25.2102 34.3307 25.3524 34.4467C25.4947 34.5628 25.6731 34.6253 25.8567 34.6234L27.6802 34.6044L29.5037 34.5853C29.6926 34.5833 29.8744 34.5133 30.0159 34.3881C30.1573 34.2629 30.2488 34.0909 30.2737 33.9037L30.6043 31.4119C30.988 28.5198 31.1874 27.0258 31.3066 26.2564C31.3525 25.96 31.3772 25.8515 31.3997 25.749C31.4386 25.7442 31.4187 25.7449 31.4787 25.7405C31.8838 25.7107 32.2464 25.6443 32.5802 25.4241L32.811 25.2719C32.9196 25.2003 33.0087 25.1029 33.0703 24.9883C33.1318 24.8738 33.164 24.7457 33.1639 24.6157L33.1609 22.0883C33.1591 20.51 33.1485 19.5642 33.1013 18.9037C33.054 18.2431 32.9486 17.8065 32.7739 17.4494C32.4044 16.6942 31.8056 16.0899 31.0552 15.719C30.7973 15.5915 30.5565 15.4812 30.2602 15.4217C29.9639 15.3623 29.6677 15.3472 29.1404 15.3155C28.7746 15.2936 28.373 15.2818 27.9651 15.2785Z" fill="white"/>
<path d="M19.5172 15.213C19.1383 15.2158 18.7271 15.2259 18.2855 15.243C17.5411 15.2717 17.1654 15.2816 16.8278 15.331C16.4902 15.3804 16.2124 15.4995 15.9696 15.6157C15.8113 15.6915 15.6665 15.7694 15.5384 15.8481C15.4744 15.8875 15.4159 15.9253 15.3483 15.9777C15.2807 16.03 15.1935 15.9539 15.0226 16.3991C14.8552 16.8353 14.9688 16.855 14.9858 16.9408C15.0027 17.0267 15.0225 17.0934 15.0452 17.1639C15.0905 17.3049 15.1487 17.4527 15.2189 17.6075C15.2927 17.7703 15.4253 18.1961 15.4468 18.3145C15.4365 18.2576 15.4739 18.6281 15.489 19.0476C15.504 19.4672 15.5162 20.0132 15.524 20.6088C15.5396 21.8001 15.5381 23.1947 15.5128 24.2032C15.4852 25.3063 15.5126 25.664 15.7869 27.5512C15.9626 28.7599 16.1614 30.1871 16.316 31.3336C16.3932 31.9068 16.4595 32.4103 16.5061 32.7794C16.5294 32.9639 16.5478 33.1152 16.5599 33.2218C16.572 33.3285 16.5743 33.4767 16.5743 33.3343C16.5743 33.6483 16.6207 33.7495 16.7 33.9579L16.7698 34.1416C16.832 34.305 16.9427 34.4454 17.0871 34.5438C17.2315 34.6423 17.4026 34.6941 17.5773 34.6923L19.3762 34.6733L21.1751 34.6542C21.3805 34.6521 21.5782 34.576 21.732 34.44C21.8858 34.304 21.9856 34.1171 22.0129 33.9136L22.419 30.8879C22.788 28.1385 22.9729 26.7626 23.0797 26.0861C23.1071 25.9127 23.1124 25.9059 23.1297 25.8196C23.1718 25.8149 23.1672 25.8125 23.224 25.8082C23.5951 25.7802 23.9489 25.7816 24.3431 25.4709C24.7373 25.1602 24.8218 24.7075 24.8609 24.3875C24.8805 24.2267 24.8787 24.1313 24.8833 23.9374C24.8879 23.7436 24.8912 23.4955 24.8934 23.2065C24.8977 22.6284 24.8973 21.8883 24.891 21.1206L24.8682 18.3441C24.8671 18.22 24.8391 18.0976 24.786 17.9854L24.5592 17.5068C24.0655 16.4645 23.1722 15.7063 22.0686 15.4035C21.4507 15.234 20.6536 15.2045 19.5172 15.213Z" fill="#D0E1ED"/>
<path d="M19.3882 9.60832C18.2934 9.60476 17.2183 10.2251 16.7244 11.2724C16.5487 11.6449 16.5006 12.0548 16.493 12.4772C16.4854 12.8996 16.5144 13.3036 16.6861 13.6815C17.0287 14.436 17.7201 15.0014 18.5533 15.2745C18.8656 15.3769 19.1957 15.392 19.555 15.3685C21.0737 15.2695 22.241 13.9692 22.2325 12.4276C22.2264 11.3241 21.5095 10.3177 20.4698 9.84171C20.1232 9.68303 19.7531 9.60951 19.3882 9.60832Z" fill="#D0E1ED"/>
<path d="M10.1535 9.59862C9.80098 9.61285 9.53274 9.67739 9.25804 9.80403C8.61148 10.1021 8.07735 10.6355 7.77445 11.2818C7.42437 12.0287 7.39434 12.9223 7.73679 13.6681C8.11244 14.4863 8.83489 15.1505 9.6951 15.3554C10.4787 15.542 11.3317 15.418 11.9854 14.9694C12.9087 14.3358 13.3993 13.3599 13.3278 12.2661C13.2806 11.5443 12.985 10.9251 12.4473 10.4014C11.9084 9.87653 11.3298 9.63471 10.5375 9.60074C10.3979 9.59476 10.271 9.59388 10.1535 9.59862Z" fill="white"/>
<path d="M10.3443 15.4839C9.39573 15.4862 8.86817 15.4898 8.49253 15.5128C8.11689 15.5358 7.86416 15.5918 7.62602 15.6675C6.51149 16.0219 5.61151 16.9352 5.26412 18.0571C5.12145 18.5179 5.1131 18.9828 5.1131 21.6149V24.5934C5.11311 24.6805 5.13192 24.7666 5.16826 24.8458C5.2046 24.9249 5.25761 24.9953 5.32366 25.0521L5.52348 25.224C5.64139 25.3254 5.81095 25.4329 5.9926 25.4848C6.17424 25.5367 6.33806 25.5428 6.52165 25.5433C6.59677 25.5435 6.69431 25.5516 6.76854 25.5632C6.7875 25.5661 6.79926 25.5707 6.81574 25.5752C6.81872 25.5902 6.84328 25.6357 6.88933 25.8711C7.00194 26.4467 7.16809 27.6906 7.50523 30.2142C7.62167 31.0858 7.73236 31.9083 7.81696 32.5317C7.90156 33.155 7.95385 33.5414 7.97395 33.6664L8.01705 33.9345C8.04004 34.0776 8.11361 34.2077 8.2244 34.3011C8.33519 34.3946 8.47583 34.4451 8.62075 34.4437L10.4462 34.4247C10.4462 34.4247 10.4463 34.4247 10.4463 34.4247L12.2716 34.4056C12.4171 34.4041 12.5571 34.3502 12.6661 34.2538C12.775 34.1574 12.8456 34.025 12.865 33.8808L13.3749 30.072C13.6583 27.9553 13.8146 26.8073 13.9151 26.1792C13.9654 25.8652 14.0027 25.6808 14.027 25.5894C14.0312 25.5735 14.0286 25.5861 14.0311 25.5766C14.0944 25.5613 14.2184 25.5422 14.4182 25.5422C14.7375 25.5422 15.151 25.3768 15.371 25.1569L15.3711 25.1568L15.5792 24.9489C15.6354 24.8927 15.68 24.8259 15.7105 24.7525C15.7409 24.6791 15.7566 24.6003 15.7566 24.5208V21.647C15.7566 20.1273 15.7523 19.2952 15.7009 18.7139C15.6495 18.1326 15.5166 17.7574 15.3405 17.4122C15.0318 16.8071 14.492 16.267 13.8886 15.9502C13.5154 15.7543 13.1452 15.6088 12.6381 15.5471C12.131 15.4854 11.4814 15.481 10.3443 15.4839Z" fill="white"/>
<path d="M7.645 34.8682C7.55335 34.7765 7.47688 34.662 7.47506 34.6136C7.47322 34.5652 7.2198 32.647 6.91189 30.3509L6.35203 26.1762L6.04304 26.132C5.4731 26.0505 4.95634 25.683 4.67203 25.1571C4.52856 24.8917 4.52479 24.8152 4.50568 21.7876C4.48371 18.3032 4.50568 18.07 4.93913 17.1894C5.38638 16.2808 6.39579 15.3919 7.30582 15.1051C7.49407 15.0458 7.68678 14.9851 7.73406 14.9703C7.7921 14.952 7.74512 14.838 7.58943 14.6191C6.75078 13.4401 6.64312 12.0766 7.29095 10.839C7.72082 10.0177 8.71108 9.24017 9.58291 9.03938C9.97499 8.94908 10.8871 8.94887 11.2782 9.03898C11.8592 9.17285 12.4482 9.51072 12.9151 9.978C14.1896 11.2534 14.3385 13.14 13.2809 14.6122C13.1211 14.8345 13.0712 14.9521 13.129 14.9702C13.1762 14.9851 13.3714 15.0466 13.5626 15.1069C13.8626 15.2015 14.2075 15.3835 14.7794 15.749C14.9027 15.8277 14.9616 15.8073 15.3052 15.5666C15.518 15.4176 15.9208 15.2232 16.2004 15.1347C16.48 15.0462 16.7093 14.9532 16.71 14.9281C16.7106 14.903 16.6404 14.796 16.554 14.6905C15.6184 13.5481 15.5426 11.8108 16.3734 10.5467C17.0408 9.53112 18.1104 8.9657 19.364 8.9657C20.4075 8.9657 21.2624 9.35004 21.9877 10.1453C23.1253 11.3927 23.1889 13.361 22.1342 14.686C21.9926 14.864 21.9579 14.9497 22.0197 14.9692C22.6514 15.1687 22.8395 15.2427 23.1478 15.4127L23.5085 15.6115L23.9285 15.3848C24.1596 15.2601 24.4708 15.122 24.6202 15.0778C24.7695 15.0336 24.9303 14.9853 24.9775 14.9704C25.0347 14.9524 24.987 14.8435 24.8344 14.6436C23.8067 13.2973 23.8824 11.3842 25.0123 10.1453C25.737 9.35076 26.5939 8.96508 27.6314 8.9665C28.3098 8.96743 28.7332 9.06593 29.3044 9.35575C31.2558 10.3457 31.8249 13.007 30.4455 14.691C30.2598 14.9178 30.2828 14.9807 30.5754 15.045C30.9071 15.1179 31.347 15.3213 31.7474 15.5871L32.1095 15.8274L32.5176 15.5637C32.8535 15.3466 33.3945 15.1087 33.871 14.9686C33.9286 14.9516 33.8809 14.8362 33.7264 14.6191C32.8878 13.4401 32.7801 12.0766 33.4279 10.8389C33.8578 10.0177 34.8481 9.24017 35.7199 9.03938C36.112 8.94908 37.0241 8.94886 37.4152 9.03897C37.9962 9.17284 38.5852 9.51072 39.0521 9.97799C40.3266 11.2534 40.4755 13.14 39.4179 14.6121C39.2581 14.8345 39.2082 14.9521 39.2659 14.9702C39.3132 14.9851 39.5059 15.0457 39.6942 15.1051C40.6042 15.3918 41.6136 16.2808 42.0609 17.1894C42.4943 18.07 42.5163 18.3032 42.4943 21.7876C42.4762 24.6566 42.4654 24.903 42.3484 25.1231C42.0579 25.6692 41.5328 26.0496 40.9558 26.1321L40.648 26.1762L40.0881 30.3509C39.7802 32.647 39.5268 34.5652 39.5249 34.6136C39.5231 34.6619 39.4466 34.7765 39.355 34.8681L39.1884 35.0348H36.5685H33.9486L33.782 34.8682C33.6903 34.7765 33.6139 34.6619 33.612 34.6136C33.6102 34.5652 33.3569 32.6468 33.0491 30.3505L32.4894 26.1754L32.1157 26.1554L31.742 26.1355L31.1783 30.3641C30.8682 32.6899 30.573 34.6733 30.5221 34.7716C30.4712 34.87 30.3802 34.9694 30.3197 34.9926C30.2593 35.0158 29.0415 35.0348 27.6135 35.0348H25.0172L24.8698 34.8778C24.7368 34.7363 24.6664 34.3031 24.1523 30.461C23.8388 28.118 23.5637 26.1825 23.5411 26.1599C23.5185 26.1373 23.481 26.1378 23.4578 26.161C23.4346 26.1842 23.1598 28.1195 22.8471 30.4615C22.3335 34.3089 22.2644 34.7351 22.1307 34.8773L21.9828 35.0348H19.3545C16.3521 35.0348 16.4871 35.061 16.3787 34.4577C16.3451 34.271 16.0793 32.3222 15.788 30.1269L15.2584 26.1355L14.8845 26.1554L14.5105 26.1754L13.9509 30.3505C13.6431 32.6468 13.3898 34.5652 13.388 34.6136C13.3861 34.6619 13.3097 34.7765 13.218 34.8682L13.0514 35.0348H10.4315H7.81164L7.645 34.8682ZM12.2991 33.8298C12.2991 33.8018 12.5554 31.8712 12.8678 29.5395C13.4312 25.3344 13.4373 25.299 13.6177 25.1438C13.7672 25.0152 13.878 24.9873 14.2404 24.9873C14.8103 24.9873 15.053 24.8645 15.1462 24.529C15.2376 24.1999 15.2388 19.2837 15.1477 18.6398C14.9598 17.3129 13.9353 16.2888 12.604 16.0972C11.9922 16.0091 8.87891 16.0083 8.25912 16.0961C6.94093 16.2827 5.902 17.3216 5.71539 18.6398C5.62423 19.2837 5.62545 24.1999 5.71688 24.529C5.81006 24.8645 6.05276 24.9873 6.62267 24.9873C6.98507 24.9873 7.0959 25.0152 7.2454 25.1438C7.42581 25.299 7.43186 25.3344 7.99528 29.5395C8.30769 31.8712 8.5636 33.8018 8.56397 33.8298C8.56397 33.8578 9.40477 33.8807 10.4316 33.8807C11.4584 33.8807 12.2987 33.8578 12.2991 33.8298ZM21.2187 33.694C21.2394 33.5913 21.4859 31.766 21.7664 29.6377C22.3716 25.0461 22.3192 25.3747 22.4772 25.1797C22.5864 25.0448 22.686 25.0175 23.1901 24.984C24.1485 24.9204 24.0731 25.1867 24.0978 21.7778C24.112 19.8155 24.094 18.7829 24.0405 18.504C23.7888 17.1919 22.7842 16.2685 21.4104 16.0866C21.0631 16.0407 20.116 16.0238 18.9325 16.0424C17.2145 16.0695 16.9774 16.087 16.6361 16.2121C16.2116 16.3676 15.6708 16.6868 15.7084 16.7595C16.3638 18.026 16.3692 18.0653 16.3702 21.5929C16.3708 23.5233 16.3453 24.6386 16.2968 24.8133C16.2425 25.0089 16.2432 25.1454 16.2996 25.3225C16.3637 25.5242 17.458 33.5263 17.458 33.7939C17.458 33.8623 17.853 33.8807 19.3195 33.8807H21.181L21.2187 33.694ZM29.5421 33.7858C29.5421 33.6472 30.6195 25.5917 30.6619 25.4135C30.7365 25.0998 30.9536 24.9873 31.4845 24.9873C31.9138 24.9873 32.0019 24.9652 32.1845 24.8116L32.3934 24.6358V21.5847C32.3934 18.6947 32.3861 18.512 32.2551 18.1231C31.8835 17.0202 30.9789 16.261 29.8401 16.0964C29.2205 16.0068 26.0278 16.008 25.4732 16.098C25.233 16.137 24.8897 16.2319 24.7105 16.3091L24.3846 16.4493L24.5107 16.628C24.7572 16.9773 25.0641 17.6601 25.1629 18.079C25.2437 18.4216 25.263 19.1095 25.2626 21.6269C25.2619 24.6245 25.2566 24.762 25.1236 25.0552C25.0474 25.2232 24.9217 25.4283 24.8442 25.5109L24.7032 25.661L25.2278 29.6181C25.5163 31.7945 25.7683 33.6439 25.7876 33.728L25.8229 33.8807H27.6825C29.2295 33.8807 29.5421 33.8648 29.5421 33.7858ZM38.4361 33.8298C38.4361 33.8018 38.6924 31.8712 39.0048 29.5395C39.5682 25.3344 39.5743 25.299 39.7547 25.1438C39.9042 25.0152 40.015 24.9873 40.3774 24.9873C40.9473 24.9873 41.19 24.8645 41.2832 24.529C41.3746 24.1999 41.3758 19.2837 41.2847 18.6398C41.0968 17.3129 40.0723 16.2888 38.741 16.0972C38.1253 16.0086 35.0114 16.0085 34.3982 16.0971C33.9099 16.1677 33.362 16.3827 33.0815 16.6137L32.921 16.746L33.1266 17.1533C33.5843 18.0601 33.5814 18.0318 33.5814 21.5929C33.5814 24.0166 33.5607 24.8537 33.4981 24.963C33.4314 25.0794 33.4332 25.1471 33.5072 25.3025C33.558 25.4092 33.8192 27.1615 34.0877 29.1964C34.3562 31.2314 34.6079 33.1178 34.647 33.3885L34.7181 33.8807H36.5768C37.599 33.8807 38.4357 33.8578 38.4361 33.8298ZM11.3741 14.6788C11.7814 14.4986 12.34 13.969 12.5409 13.5724C12.8671 12.9287 12.8671 12.0631 12.5409 11.4194C12.3402 11.0231 11.785 10.4967 11.3627 10.302C11.1094 10.1853 10.9149 10.1544 10.4315 10.1541C9.90446 10.1538 9.76915 10.179 9.44667 10.3374C8.47322 10.8154 7.93712 11.8269 8.10152 12.8752C8.18264 13.3925 8.41876 13.8301 8.81869 14.2042C9.38557 14.7344 9.79525 14.8827 10.5786 14.8412C10.867 14.8259 11.1911 14.7597 11.3741 14.6788ZM20.3263 14.6508C21.0436 14.3225 21.526 13.68 21.681 12.847C21.8876 11.736 21.1182 10.5427 19.9823 10.2125C18.9014 9.89824 17.6474 10.4859 17.1634 11.5335C16.9533 11.9882 16.9533 13.0035 17.1634 13.4583C17.7099 14.6411 19.1563 15.1865 20.3263 14.6508ZM28.3182 14.7644C28.9845 14.5666 29.5491 14.08 29.8382 13.4546C30.0473 13.0022 30.0458 11.9865 29.8353 11.5307C29.6278 11.0814 29.14 10.5857 28.6783 10.355C28.335 10.1834 28.2099 10.1586 27.6751 10.1563C27.1515 10.1541 27.0088 10.1797 26.6774 10.335C25.9523 10.6749 25.4739 11.3124 25.319 12.1448C25.2561 12.4834 25.2625 12.6329 25.3564 13.0169C25.6883 14.3739 27.009 15.1532 28.3182 14.7644ZM37.5111 14.6788C37.9184 14.4986 38.477 13.969 38.6779 13.5724C38.8881 13.1578 38.9734 12.5944 38.8985 12.1165C38.8167 11.5947 38.5806 11.1611 38.1684 10.7756C37.6458 10.2867 37.3054 10.1545 36.5685 10.1541C36.0414 10.1538 35.9061 10.179 35.5837 10.3374C34.6102 10.8154 34.0741 11.8269 34.2385 12.8752C34.3196 13.3925 34.5558 13.8301 34.9557 14.2042C35.5226 14.7344 35.9322 14.8827 36.7156 14.8412C37.0039 14.8259 37.3281 14.7597 37.5111 14.6788Z" fill="#1D274F"/>
</svg>
