<svg width="27" height="24" viewBox="0 0 27 24" fill="none" xmlns="http://www.w3.org/2000/svg">
<path d="M0.90033 0C0.403005 0 0 0.393031 0 0.878049C0 1.36307 0.403005 1.7561 0.90033 1.7561H3.77013L6.86501 15.9972C6.98774 16.5334 7.34787 16.9793 7.80286 16.9761H22.8083C23.2842 16.9824 23.7215 16.5622 23.7215 16.0981C23.7215 15.634 23.2842 15.2132 22.8083 15.22H8.53437L8.14959 13.4639H24.0088C24.4118 13.4613 24.7928 13.1613 24.8807 12.7782L26.9815 3.99773C27.0983 3.48815 26.6449 2.93153 26.1096 2.92735H5.87143L5.38376 0.695645C5.29801 0.305227 4.91055 0 4.50165 0H0.90033ZM6.24604 4.68293H10.9353L11.3854 7.31707H6.81785L6.24604 4.68293ZM12.7734 4.68293H18.438L17.9878 7.31707H13.2236L12.7734 4.68293ZM20.2762 4.68293H24.975L24.3464 7.31707H19.826L20.2762 4.68293ZM7.20264 9.07317H11.6855L12.1357 11.7073H7.77445L7.20264 9.07317ZM13.5237 9.07317H17.6877L17.2376 11.7073H13.9739L13.5237 9.07317ZM19.5259 9.07317H23.9241L23.2955 11.7073H19.0752L19.5254 9.07317H19.5259ZM11.1041 18.1463C9.45721 18.1463 8.10297 19.4671 8.10297 21.0732C8.10297 22.6793 9.45721 24 11.1041 24C12.7509 24 14.1052 22.6793 14.1052 21.0732C14.1052 19.4671 12.7509 18.1463 11.1041 18.1463ZM19.5071 18.1463C17.8603 18.1463 16.506 19.4671 16.506 21.0732C16.506 22.6793 17.8603 24 19.5071 24C21.154 24 22.5082 22.6793 22.5082 21.0732C22.5082 19.4671 21.154 18.1463 19.5071 18.1463ZM11.1041 19.9024C11.7777 19.9024 12.3045 20.4162 12.3045 21.0732C12.3045 21.7301 11.7777 22.2439 11.1041 22.2439C10.4304 22.2439 9.90363 21.7301 9.90363 21.0732C9.90363 20.4162 10.4304 19.9024 11.1041 19.9024ZM19.5071 19.9024C20.1808 19.9024 20.7076 20.4162 20.7076 21.0732C20.7076 21.7301 20.1808 22.2439 19.5071 22.2439C18.8335 22.2439 18.3067 21.7301 18.3067 21.0732C18.3067 20.4162 18.8335 19.9024 19.5071 19.9024Z" fill="#67952E"/>
</svg>
