<svg width="35" height="34" viewBox="0 0 35 34" fill="none" xmlns="http://www.w3.org/2000/svg">
<circle cx="17.5" cy="17" r="16.5" fill="white" stroke="#B3B3B3"/>
<path d="M6.95809 8.98111C6.57997 8.98111 6.27356 9.28577 6.27356 9.66174C6.27356 10.0377 6.57997 10.3424 6.95809 10.3424H9.14002L11.4931 21.3815C11.5864 21.7971 11.8602 22.1427 12.2061 22.1403H23.6149C23.9767 22.1451 24.3092 21.8194 24.3092 21.4597C24.3092 21.0999 23.9767 20.7738 23.6149 20.779H12.7623L12.4698 19.4178H24.5276C24.834 19.4158 25.1237 19.1832 25.1906 18.8862L26.7878 12.08C26.8766 11.685 26.5319 11.2535 26.1249 11.2503H10.7377L10.3669 9.52034C10.3017 9.21771 10.0071 8.98111 9.6962 8.98111H6.95809ZM11.0225 12.6111H14.5877L14.93 14.653H11.4572L11.0225 12.6111ZM15.9853 12.6111H20.2921L19.9498 14.653H16.3276L15.9853 12.6111ZM21.6897 12.6111H25.2623L24.7843 14.653H21.3474L21.6897 12.6111ZM11.7498 16.0142H15.1582L15.5004 18.0561H12.1845L11.7498 16.0142ZM16.5557 16.0142H19.7217L19.3794 18.0561H16.898L16.5557 16.0142ZM21.1192 16.0142H24.4632L23.9853 18.0561H20.7766L21.1188 16.0142H21.1192ZM14.7161 23.0474C13.4639 23.0474 12.4343 24.0712 12.4343 25.3161C12.4343 26.5611 13.4639 27.5849 14.7161 27.5849C15.9682 27.5849 16.9978 26.5611 16.9978 25.3161C16.9978 24.0712 15.9682 23.0474 14.7161 23.0474ZM21.105 23.0474C19.8529 23.0474 18.8232 24.0712 18.8232 25.3161C18.8232 26.5611 19.8529 27.5849 21.105 27.5849C22.3571 27.5849 23.3867 26.5611 23.3867 25.3161C23.3867 24.0712 22.3571 23.0474 21.105 23.0474ZM14.7161 24.4086C15.2282 24.4086 15.6288 24.8069 15.6288 25.3161C15.6288 25.8254 15.2282 26.2236 14.7161 26.2236C14.2039 26.2236 13.8034 25.8254 13.8034 25.3161C13.8034 24.8069 14.2039 24.4086 14.7161 24.4086ZM21.105 24.4086C21.6172 24.4086 22.0177 24.8069 22.0177 25.3161C22.0177 25.8254 21.6172 26.2236 21.105 26.2236C20.5928 26.2236 20.1923 25.8254 20.1923 25.3161C20.1923 24.8069 20.5928 24.4086 21.105 24.4086Z" fill="#67952E"/>
</svg>
