<svg width="19" height="18" viewBox="0 0 19 18" fill="none" xmlns="http://www.w3.org/2000/svg">
<path d="M16.9963 14.1263C17.9309 12.8765 18.4715 11.4056 18.6418 9.89576C18.8004 8.29485 18.5107 6.75919 17.8235 5.32781C17.1363 3.89642 16.0751 2.7515 14.7803 1.91904C13.3959 1.09962 11.8403 0.722781 10.3318 0.710341C8.7336 0.71095 7.24497 1.20609 5.89304 2.05258C4.66969 2.83394 3.71164 3.90154 3.04605 5.11219L2.47204 3.84995L0.582252 4.77473L2.26899 8.28814C2.34322 8.50937 2.49534 8.62644 2.59675 8.70449C2.74886 8.82157 2.93992 8.88657 3.13097 8.95157C3.36096 8.9645 3.54025 8.9384 3.70777 8.82121L7.17947 7.06286L6.29311 5.14999L5.13587 5.73611C5.74712 4.81181 6.47154 4.05666 7.41055 3.54872C8.55602 2.87151 9.84996 2.63674 11.152 2.81846C12.4541 3.00017 13.6629 3.52031 14.5991 4.40497C15.5353 5.28963 16.2262 6.39564 16.5313 7.69703C16.8363 8.99841 16.7321 10.313 16.2069 11.5496C15.6817 12.7862 14.8522 13.7887 13.7185 14.557C12.6237 15.2732 11.3415 15.5991 10.063 15.5996C8.73375 15.5611 7.48602 15.093 6.51086 14.2604L5.69958 13.636L4.45355 15.3024L5.26483 15.9268C6.43105 16.8244 7.78019 17.3705 9.22261 17.5782C10.665 17.7859 12.1383 17.525 13.4358 16.9649C14.7724 16.3527 15.9332 15.4412 16.8288 14.2435L16.9963 14.1263Z" fill="#B39C7C"/>
</svg>
