<svg width="42" height="25" viewBox="0 0 42 25" fill="none" xmlns="http://www.w3.org/2000/svg">
<path d="M28.6598 0.849999C28.1428 0.91954 27.7158 1.29318 27.5731 1.79882C27.4316 2.30565 27.6 2.84783 28.0047 3.1814L34.6371 9.12186C34.8979 9.35406 35.2395 9.4731 35.5869 9.45189C35.9343 9.43067 36.2595 9.27037 36.4899 9.00871C36.7204 8.74587 36.8385 8.4017 36.8175 8.05163C36.7964 7.70157 36.6373 7.3739 36.3776 7.1417L29.7663 1.20124C29.5371 0.986724 29.2388 0.862964 28.9265 0.849999C28.8376 0.841748 28.7487 0.841748 28.6598 0.849999ZM1.25072 11.4309C0.903311 11.4474 0.575787 11.6018 0.341842 11.8611C0.107896 12.1204 -0.0149255 12.4634 0.00145072 12.8123C0.0178269 13.1623 0.171061 13.4923 0.428401 13.7281C0.685741 13.9638 1.02496 14.0876 1.37237 14.0711H37.2163L28.0047 22.3217C27.462 22.812 27.4164 23.6524 27.9018 24.1993C28.3872 24.7462 29.2224 24.7922 29.7652 24.303L41.556 13.7422C41.9666 13.378 42.1093 12.7946 41.9128 12.2795C41.7163 11.7644 41.2238 11.4273 40.6764 11.4332H1.37471C1.33377 11.4309 1.29283 11.4309 1.25189 11.4332L1.25072 11.4309Z" fill="#EDE5D0"/>
</svg>
