<svg width="20" height="13" viewBox="0 0 20 13" fill="none" xmlns="http://www.w3.org/2000/svg">
<path d="M17.322 5.4223C17.3253 5.3482 17.3333 5.2754 17.3333 5.2C17.3333 2.3283 14.9453 0 12 0C9.92667 0 8.13333 1.15635 7.25133 2.84115C6.864 2.6884 6.44333 2.6 6 2.6C4.31333 2.6 2.934 3.82525 2.712 5.4106C1.13533 5.93385 0 7.38595 0 9.1C0 11.2541 1.79067 13 4 13H16C18.2093 13 20 11.2541 20 9.1C20 7.3983 18.8807 5.9553 17.322 5.4223ZM7.52867 6.69045L9.52867 4.74045C9.65867 4.6137 9.82933 4.55 10 4.55C10.1707 4.55 10.3413 4.6137 10.4713 4.74045L12.4713 6.69045C12.732 6.9446 12.732 7.3554 12.4713 7.60955C12.2107 7.8637 11.7893 7.8637 11.5287 7.60955L10.6667 6.7691V10.4C10.6667 10.7588 10.3687 11.05 10 11.05C9.63133 11.05 9.33333 10.7588 9.33333 10.4V6.7691L8.47133 7.60955C8.21067 7.8637 7.78933 7.8637 7.52867 7.60955C7.268 7.3554 7.268 6.9446 7.52867 6.69045Z" fill="white"/>
</svg>
