<svg width="9" height="9" viewBox="0 0 9 9" fill="none" xmlns="http://www.w3.org/2000/svg">
<path d="M1.22736 0.000115082C1.12268 0.000115082 1.01789 0.0399876 0.938124 0.119963L0.119963 0.938124C-0.0399876 1.09807 -0.0399876 1.35705 0.119963 1.51659L3.10337 4.5L0.119963 7.48341C-0.0399876 7.64336 -0.0399876 7.90233 0.119963 8.06188L0.938124 8.88004C1.09807 9.03999 1.35705 9.03999 1.51659 8.88004L4.5 5.89663L7.48341 8.88004C7.64295 9.03999 7.90233 9.03999 8.06188 8.88004L8.88004 8.06188C9.03999 7.90193 9.03999 7.64295 8.88004 7.48341L5.89663 4.5L8.88004 1.51659C9.03999 1.35705 9.03999 1.09767 8.88004 0.938124L8.06188 0.119963C7.90193 -0.0399876 7.64295 -0.0399876 7.48341 0.119963L4.5 3.10337L1.51659 0.119963C1.43661 0.0399876 1.33203 0.000115082 1.22736 0.000115082Z" fill="#5E3F14"/>
</svg>
