<svg width="69" height="43" viewBox="0 0 69 43" fill="none" xmlns="http://www.w3.org/2000/svg">
<path d="M58.6735 21.4338L46.9388 0H4.53742C2.03401 0 0 2.064 0 4.6043V38.2633C0 40.8036 2.03401 42.8676 4.53742 42.8676H46.9388L58.6735 21.4338Z" fill="#606061"/>
<path d="M57.5 2.22277C56.6395 0.873229 55.1531 0 53.5885 0H50.0681L61.9592 21.4338L50.0681 42.8676H53.5885C55.2313 42.8676 56.7177 41.9944 57.5 40.6449L68.0613 21.4338L57.5 2.22277Z" fill="#BA1F40"/>
<path d="M28.0589 12.2025H24.9412V30.5062H28.0589V12.2025Z" fill="white"/>
<path d="M18.7059 12.2025V25.6252L10.1324 12.2025H7.01471V30.5062H10.1324V17.0835L18.7059 30.5062H21.8235V12.2025H18.7059Z" fill="white"/>
<path d="M42.8677 12.2025V19.8291H34.2942V12.2025H31.1765V30.5062H34.2942V22.8797H42.8677V30.5062H45.9853V12.2025H42.8677Z" fill="white"/>
</svg>
