<svg width="16" height="16" viewBox="0 0 16 16" fill="none" xmlns="http://www.w3.org/2000/svg">
<circle cx="8" cy="8" r="8" fill="#264663"/>
<path d="M6.418 4.7895C6.539 4.6795 6.671 4.57683 6.814 4.4815C6.957 4.38617 7.111 4.30183 7.276 4.2285C7.44467 4.15517 7.62617 4.09833 7.8205 4.058C8.0185 4.014 8.23117 3.992 8.4585 3.992C8.76283 3.992 9.0415 4.036 9.2945 4.124C9.55117 4.20833 9.77117 4.33117 9.9545 4.4925C10.1415 4.65017 10.2863 4.84267 10.389 5.07C10.4917 5.29367 10.543 5.54483 10.543 5.8235C10.543 6.10217 10.5027 6.34417 10.422 6.5495C10.3413 6.75117 10.2387 6.92717 10.114 7.0775C9.98933 7.22783 9.85367 7.35983 9.707 7.4735C9.56033 7.5835 9.421 7.688 9.289 7.787C9.16067 7.88233 9.04883 7.9795 8.9535 8.0785C8.86183 8.17383 8.80683 8.28017 8.7885 8.3975L8.673 9.2225H7.87L7.7875 8.315C7.76917 8.14267 7.79667 7.99417 7.87 7.8695C7.94333 7.74483 8.0405 7.6275 8.1615 7.5175C8.28617 7.4075 8.42183 7.303 8.5685 7.204C8.71883 7.10133 8.85817 6.98767 8.9865 6.863C9.11483 6.73833 9.223 6.599 9.311 6.445C9.399 6.291 9.443 6.10583 9.443 5.8895C9.443 5.7465 9.4155 5.61817 9.3605 5.5045C9.3055 5.38717 9.2285 5.28817 9.1295 5.2075C9.0305 5.12683 8.915 5.0645 8.783 5.0205C8.651 4.9765 8.508 4.9545 8.354 4.9545C8.13767 4.9545 7.95433 4.98017 7.804 5.0315C7.65367 5.08283 7.52533 5.13967 7.419 5.202C7.31267 5.26067 7.22467 5.31567 7.155 5.367C7.08533 5.41467 7.02667 5.4385 6.979 5.4385C6.86533 5.4385 6.781 5.389 6.726 5.29L6.418 4.7895ZM7.474 11.318C7.474 11.2117 7.49233 11.1127 7.529 11.021C7.56933 10.9257 7.6225 10.8432 7.6885 10.7735C7.75817 10.7038 7.83883 10.6488 7.9305 10.6085C8.02583 10.5682 8.12667 10.548 8.233 10.548C8.33933 10.548 8.43833 10.5682 8.53 10.6085C8.62533 10.6488 8.70783 10.7038 8.7775 10.7735C8.84717 10.8432 8.90217 10.9257 8.9425 11.021C8.98283 11.1127 9.003 11.2117 9.003 11.318C9.003 11.428 8.98283 11.5288 8.9425 11.6205C8.90217 11.7122 8.84717 11.7928 8.7775 11.8625C8.70783 11.9322 8.62533 11.9853 8.53 12.022C8.43833 12.0623 8.33933 12.0825 8.233 12.0825C8.12667 12.0825 8.02583 12.0623 7.9305 12.022C7.83883 11.9853 7.75817 11.9322 7.6885 11.8625C7.6225 11.7928 7.56933 11.7122 7.529 11.6205C7.49233 11.5288 7.474 11.428 7.474 11.318Z" fill="white"/>
</svg>
