<svg width="75" height="75" viewBox="0 0 75 75" fill="none" xmlns="http://www.w3.org/2000/svg">
<g filter="url(#filter0_d_244_2867)">
<circle cx="37.5" cy="33.5" r="33" fill="white" stroke="#4D8FB2"/>
</g>
<g clip-path="url(#clip0_244_2867)">
<path d="M36.4948 18.3814C36.469 18.3814 36.4438 18.3814 36.418 18.3814C32.9585 18.3814 29.7068 19.7149 27.2547 22.1407C22.1508 27.195 22.1054 35.4615 27.1535 40.5674C29.6182 43.0475 32.8859 44.4194 36.3559 44.4305H36.658L36.6587 44.4277C40.0241 44.3678 43.1885 43.0385 45.5953 40.6671C48.0754 38.2065 49.4504 34.9415 49.4672 31.4736C49.4784 27.989 48.1396 24.71 45.6965 22.2417C43.2499 19.7721 39.9815 18.4017 36.4948 18.3814ZM28.5299 23.3612C32.9501 19.0381 40.0743 19.089 44.4352 23.4839C46.5511 25.6295 47.7078 28.4658 47.6917 31.4708C47.6757 34.48 46.4869 37.301 44.3445 39.4159C42.2293 41.5133 39.4157 42.669 36.4208 42.669H36.3566C33.3491 42.653 30.5231 41.4673 28.4009 39.3301C26.2877 37.1957 25.1339 34.3608 25.1513 31.3467C25.1687 28.3333 26.3547 25.511 28.4916 23.3989L28.5292 23.3612H28.5299Z" fill="#4D8FB2"/>
<path d="M58.618 47.9723L50.5401 39.7679C52.2975 36.8089 53.0837 33.3054 52.7572 29.8578C52.4056 26.0693 50.7264 22.499 48.028 19.8027C44.9172 16.7057 40.7936 15 36.4152 15C32.0369 15 27.9111 16.7078 24.8018 19.809C21.705 22.9088 20 27.0298 20 31.4129C20 35.796 21.705 39.9115 24.8025 43.012C27.4891 45.6852 31.0386 47.363 34.7967 47.736C35.322 47.7868 35.8481 47.8119 36.3748 47.8119C39.2741 47.8119 42.156 47.0466 44.6591 45.5981L52.7251 53.8011C53.4988 54.5859 54.4929 55.0007 55.6 55.0007H55.877L55.8826 54.9909C56.9646 54.9184 58.0501 54.4333 58.8343 53.6623C59.5675 52.936 59.9819 52.0033 60.0007 51.0296C60.007 49.9456 59.5284 48.8875 58.6187 47.9729L58.618 47.9723ZM48.3991 39.3469C48.1236 39.7491 48.171 40.276 48.5163 40.6315L57.1648 49.4103C58.4799 50.7368 57.875 51.7357 57.3985 52.2125C56.5837 53.0217 55.1229 53.3117 54.1846 52.37L46.203 44.2639L45.2409 43.3793C45.1098 43.3194 44.9654 43.288 44.8147 43.288H44.5231L43.4466 43.937C41.3126 45.1276 38.912 45.7528 36.4473 45.7528C32.5783 45.7528 28.9569 44.2632 26.2501 41.5593C20.6502 35.9592 20.6502 26.8472 26.2501 21.247C31.8548 15.6517 40.9742 15.6524 46.579 21.247C51.3961 26.0707 52.1614 33.6826 48.3991 39.3482V39.3469Z" fill="#4D8FB2"/>
<path d="M27.886 35.175H44.9438C45.324 35.175 45.6337 34.8634 45.6337 34.4807C45.6337 34.098 45.324 33.7913 44.9438 33.7913H44.1827V27.2152C44.1827 26.8263 43.8799 26.521 43.4927 26.521H40.4517C40.0652 26.521 39.7618 26.8256 39.7618 27.2152V33.7913H38.6253V25.5081C38.6253 25.1283 38.3156 24.8188 37.9354 24.8188H34.8944C34.5142 24.8188 34.2045 25.1283 34.2045 25.5081V33.7913H33.0778V28.9676C33.0778 28.5787 32.7729 28.2734 32.3829 28.2734H29.3469C28.9604 28.2734 28.6569 28.578 28.6569 28.9676V33.7913H27.8853C27.5051 33.7913 27.1954 34.1008 27.1954 34.4807C27.1954 34.8606 27.4981 35.175 27.8853 35.175H27.886ZM30.0368 33.7913V29.657H31.6937V33.7913H30.0368ZM35.5837 33.7864V26.1975H37.2454V33.7864H35.5837ZM41.1361 33.7913V27.9053H42.793V33.7913H41.1361Z" fill="#4D8FB2"/>
<path d="M43.5436 36.0937H29.2882C28.8906 36.0937 28.5676 36.4164 28.5676 36.8138C28.5676 37.2111 28.8906 37.5338 29.2882 37.5338H43.5436C43.9412 37.5338 44.2642 37.2111 44.2642 36.8138C44.2642 36.4164 43.9412 36.0937 43.5436 36.0937Z" fill="#4D8FB2"/>
</g>
<defs>
<filter id="filter0_d_244_2867" x="0" y="0" width="75" height="75" filterUnits="userSpaceOnUse" color-interpolation-filters="sRGB">
<feFlood flood-opacity="0" result="BackgroundImageFix"/>
<feColorMatrix in="SourceAlpha" type="matrix" values="0 0 0 0 0 0 0 0 0 0 0 0 0 0 0 0 0 0 127 0" result="hardAlpha"/>
<feOffset dy="4"/>
<feGaussianBlur stdDeviation="2"/>
<feComposite in2="hardAlpha" operator="out"/>
<feColorMatrix type="matrix" values="0 0 0 0 0 0 0 0 0 0 0 0 0 0 0 0 0 0 0.25 0"/>
<feBlend mode="normal" in2="BackgroundImageFix" result="effect1_dropShadow_244_2867"/>
<feBlend mode="normal" in="SourceGraphic" in2="effect1_dropShadow_244_2867" result="shape"/>
</filter>
<clipPath id="clip0_244_2867">
<rect width="40" height="40" fill="white" transform="translate(20 15)"/>
</clipPath>
</defs>
</svg>
