<svg width="75" height="75" viewBox="0 0 75 75" fill="none" xmlns="http://www.w3.org/2000/svg">
<g filter="url(#filter0_d_244_2875)">
<circle cx="37.5" cy="33.5" r="33" fill="white" stroke="#4D8FB2"/>
<path d="M48.3242 42.5264C47.786 42.5264 47.348 42.9625 47.348 43.4984V49.767C47.348 50.5955 46.6715 51.2692 45.8394 51.2692H29.9542V46.5062C29.9542 45.2882 28.9589 44.2971 27.7357 44.2971H22.9523V18.8401C22.9523 18.0116 23.6288 17.3379 24.4609 17.3379H45.8394C46.6715 17.3379 47.348 18.0116 47.348 18.8401V21.804C47.348 22.3398 47.786 22.776 48.3242 22.776C48.8623 22.776 49.3003 22.3398 49.3003 21.804V18.8401C49.3003 16.9399 47.7477 15.394 45.8394 15.394H24.4609C22.5526 15.394 21 16.9399 21 18.8401V45.2684C21 45.5278 21.1015 45.7724 21.2861 45.9555L28.2881 52.9275C28.4726 53.1113 28.7176 53.2124 28.9781 53.2124H45.8394C47.7477 53.2124 49.3003 51.6664 49.3003 49.7663V43.4977C49.3003 42.9618 48.8623 42.5257 48.3242 42.5257V42.5264ZM28.002 46.5055V49.8943L24.3324 46.2404H27.7357C27.8827 46.2404 28.002 46.3591 28.002 46.5055Z" fill="#4D8FB2"/>
<path d="M59.9982 43.2693C59.9662 42.3553 59.5516 41.4866 58.8595 40.8864L53.9568 36.6352C54.5488 35.4328 54.8605 34.0989 54.8605 32.7516C54.8605 30.3941 53.9383 28.178 52.2643 26.5105C50.5903 24.8436 48.364 23.9254 45.9964 23.9254C43.6288 23.9254 41.4032 24.8436 39.7285 26.5105C38.0545 28.1773 37.1323 30.3941 37.1323 32.7516C37.1323 35.109 38.0545 37.3251 39.7285 38.9927C41.4025 40.6595 43.6288 41.5778 45.9964 41.5778C47.3495 41.5778 48.6891 41.2674 49.896 40.6779L54.1655 45.5589C54.7966 46.2814 55.7095 46.6956 56.6715 46.6956H56.6729C57.5497 46.6956 58.4072 46.3422 59.0256 45.7258C59.6752 45.079 60.0294 44.184 59.9982 43.27V43.2693ZM55.8167 44.1261L51.7404 39.4663C51.9328 39.3065 52.1046 39.151 52.2643 38.992C52.424 38.8329 52.5802 38.6625 52.7407 38.471L57.4212 42.5299C57.6611 42.7378 57.7996 43.0276 57.8102 43.345C57.8209 43.6617 57.703 43.9592 57.478 44.184C57.2536 44.4067 56.9555 44.5255 56.636 44.5142C56.3172 44.5036 56.0269 44.3657 55.8175 44.1261H55.8167ZM52.6711 32.7509C52.6711 34.5259 51.9768 36.1948 50.716 37.4502C49.4551 38.7057 47.779 39.397 45.9964 39.397C44.2138 39.397 42.5377 38.7057 41.2768 37.4502C40.016 36.1948 39.3217 34.5259 39.3217 32.7509C39.3217 30.9759 40.016 29.3062 41.2768 28.0515C42.5377 26.796 44.2138 26.1047 45.9964 26.1047C47.779 26.1047 49.4551 26.796 50.716 28.0515C51.9768 29.3069 52.6711 30.9759 52.6711 32.7509Z" fill="#4D8FB2"/>
<path d="M40.6669 21.2788C40.6669 20.743 40.2288 20.3069 39.6907 20.3069H27.1265C26.5884 20.3069 26.1504 20.743 26.1504 21.2788C26.1504 21.8146 26.5884 22.2508 27.1265 22.2508H39.6907C40.2288 22.2508 40.6669 21.8146 40.6669 21.2788Z" fill="#4D8FB2"/>
<path d="M33.4789 25.0783H27.1265C26.5884 25.0783 26.1504 25.5145 26.1504 26.0503C26.1504 26.5861 26.5884 27.0223 27.1265 27.0223H33.4789C34.017 27.0223 34.4551 26.5861 34.4551 26.0503C34.4551 25.5145 34.017 25.0783 33.4789 25.0783Z" fill="#4D8FB2"/>
<path d="M33.4789 29.8498H27.1265C26.5884 29.8498 26.1504 30.286 26.1504 30.8218C26.1504 31.3576 26.5884 31.7938 27.1265 31.7938H33.4789C34.017 31.7938 34.4551 31.3576 34.4551 30.8218C34.4551 30.286 34.017 29.8498 33.4789 29.8498Z" fill="#4D8FB2"/>
<path d="M33.4789 34.6213H27.1265C26.5884 34.6213 26.1504 35.0575 26.1504 35.5933C26.1504 36.1291 26.5884 36.5652 27.1265 36.5652H33.4789C34.017 36.5652 34.4551 36.1291 34.4551 35.5933C34.4551 35.0575 34.017 34.6213 33.4789 34.6213Z" fill="#4D8FB2"/>
<path d="M27.1265 39.3928C26.5884 39.3928 26.1504 39.8289 26.1504 40.3648C26.1504 40.9006 26.5884 41.3367 27.1265 41.3367H33.4789C34.017 41.3367 34.4551 40.9006 34.4551 40.3648C34.4551 39.8289 34.017 39.3928 33.4789 39.3928H27.1265Z" fill="#4D8FB2"/>
</g>
<defs>
<filter id="filter0_d_244_2875" x="0" y="0" width="75" height="75" filterUnits="userSpaceOnUse" color-interpolation-filters="sRGB">
<feFlood flood-opacity="0" result="BackgroundImageFix"/>
<feColorMatrix in="SourceAlpha" type="matrix" values="0 0 0 0 0 0 0 0 0 0 0 0 0 0 0 0 0 0 127 0" result="hardAlpha"/>
<feOffset dy="4"/>
<feGaussianBlur stdDeviation="2"/>
<feComposite in2="hardAlpha" operator="out"/>
<feColorMatrix type="matrix" values="0 0 0 0 0 0 0 0 0 0 0 0 0 0 0 0 0 0 0.25 0"/>
<feBlend mode="normal" in2="BackgroundImageFix" result="effect1_dropShadow_244_2875"/>
<feBlend mode="normal" in="SourceGraphic" in2="effect1_dropShadow_244_2875" result="shape"/>
</filter>
</defs>
</svg>
